<?xml version="1.0" encoding="utf-8"?>
<!-- Generator: Adobe Illustrator 19.0.0, SVG Export Plug-In . SVG Version: 6.00 Build 0)  -->
<svg version="1.1" id="Layer_2" xmlns="http://www.w3.org/2000/svg" xmlns:xlink="http://www.w3.org/1999/xlink" x="0px" y="0px"
	 width="497.7px" height="198px" viewBox="0 0 497.7 198" enable-background="new 0 0 497.7 198" xml:space="preserve">
<path fill="#FFFFFF" d="M483.2,56.6c0-3.2,0-9.3-0.7-12c-0.8-3.3-2.6-5.9-5.5-8c-4.9-3.6-10.9-5.4-18.3-5.4
	c-4.9,0-10.6,0.8-15.4,2.1c-2.5,0.7-4.6,1.5-6.1,2.4c-1,0.6-1.8,1.2-2.4,1.8c-1,1.1-1.5,2.4-1.5,3.7c0,1.5,0.5,2.8,1.3,3.9
	c1.1,1.4,2.8,2.3,4.6,2.3c1.8,0,3.4-0.5,5.3-1.1l0.5-0.2c3.3-1.1,7.4-2.4,13.8-2.4c2.7,0,5,0.3,6.9,1c1.6,0.5,2.5,1.2,3.3,1.8
	c1,0.8,1.2,1.4,1.5,2.2c0.2,0.6,0.2,3.4,0.3,5.9c-4-2-9.4-4.1-16.7-4.1c-7.3,0-14,2.1-18.9,6c-5.1,4-7.9,9.7-7.9,16
	c0,2,0.3,4,0.9,5.9l0.3,0.8l2,0.1c1.7,0.1,3.5,0.2,5.2,0.3l0.5,0c2.1,0.1,4.2,0.2,6.4,0.3l1.1,0l-2.5-3.5c-0.8-1.1-1.2-2.4-1.2-3.7
	c0-3.1,2-5.3,3.7-6.5c2.7-2,6.4-3.1,10.4-3.1c6.8,0,11.4,2.5,16.4,5.5l0.4,0.3v11.7l0.9,0c1.7,0,3.5,0,5.3,0c0.3,0,0.6,0,1,0
	c1.4,0,2.8,0,4.2,0l1.4,0l-0.1-5.9V56.6z"/>
<g>
	<path fill="#FFFFFF" d="M75.6,65.3c-2.4,0-4,1.6-5.8,3.4c-3.1,3.1-8.2,8.4-18.2,8.4c-13.2,0-23.6-11-23.6-25
		C28.1,38.3,39,27,52.4,27c8.2,0,12.7,3.9,15.7,6.5c1.9,1.6,3.6,3.1,5.9,3.1c2.8,0,5.9-1.6,5.9-6.1c0-5.3-12.7-16-27.5-16
		c-17.6,0-36.7,14.4-36.7,37.6c0,10.3,4,19.7,10.5,26.5c7.5,3.2,37.2,5.1,44.8,5.1c6.3-4,10.4-9.1,10.4-12.3
		C81.4,67.6,78.5,65.3,75.6,65.3z"/>
	<path fill="#FFFFFF" d="M418.8,32.4c-1.1-0.9-2.5-1.4-4-1.4c-1.4,0-2.8,0.5-3.8,1.3c-1.1,1-1.9,2.3-2.2,4.1c-0.2,1-0.2,2-0.2,2.7
		v41.2l2.7-0.1c0.3,0,0.6,0,1,0l1.6-0.1c1.1,0,2.3-0.1,3.4-0.1l1,1l2.9-0.1v-42c0-0.8,0-2.2-0.5-3.7
		C420.2,34.1,419.6,33.1,418.8,32.4z"/>
	<path fill="#FFFFFF" d="M415.4,12c-1.9,0-3.6,0.7-4.9,2c-1.3,1.3-2,3-2,4.9c0,1.9,0.7,3.6,2,4.9c1.3,1.3,3,2,4.9,2h0
		c1.9,0,3.6-0.7,4.9-2c1.3-1.3,2-3,2-4.9c0-1.9-0.7-3.6-2-4.9C419,12.7,417.3,12,415.4,12z"/>
	<path fill="#FFFFFF" d="M394.9,40.9l-0.2-0.3c-1.3-1.5-3.4-3.7-6.8-5.3c-3.3-1.6-7.2-2.3-11.9-2.3c-8.6,0-15.9,2.8-20.6,5.3
		c-0.3-0.5-0.6-1-1-1.5c-0.7-0.9-1.4-1.6-2.3-2.2c-1.1-0.7-2.2-1-3.3-1c-1.4,0-2.8,0.6-4,1.6c-1.3,1.2-2.1,2.8-2.1,4.6
		c0,1,0.2,1.8,0.5,2.4c0.1,0.4,0.3,0.8,0.5,1.3l1,2.6c0.6,2,0.7,5.3,0.6,9.7v15.1l1.5,0c0.4,0,0.8,0,1.2,0l1,0c1,0,2.1,0,3.1,0
		l2.1,0c0.3,0,0.7,0,1,0h2.7V52.1c2.9-2,5.3-3.3,7.7-4.2c3.1-1.2,6.5-1.8,10.5-1.8c2.3,0,4.1,0.3,5.6,0.8c1.4,0.5,2.6,1.3,3.6,2.4
		c0.8,0.9,1.3,2,1.6,3.6c0.3,1.7,0.3,3.9,0.3,6.2v12l3.7,0.1c1.8,0.1,3.5,0.1,5.2,0.2l3.6,0.2l0-12.5c0-4.1-0.1-7-0.7-9.9
		C398.4,46.2,397.1,43.5,394.9,40.9z"/>
	<path fill="#FFFFFF" d="M335.8,38.1l-0.3-0.5l-0.6-0.5c-5.3-4-11.3-4.4-13.6-4.5c-5.4,0-10.7,2.1-16,6.2c-0.3-0.5-0.6-0.9-0.9-1.3
		c-0.8-1.1-1.6-2-2.5-2.7c-1.3-1-2.7-1.6-4.1-1.6c-1.9,0-3.6,0.8-4.8,2.1c-1,1.2-1.6,2.7-1.6,4.2c0,1.2,0.3,2.4,0.8,3.5
		c0.4,0.8,0.9,1.5,1.3,2.1c0.6,0.8,1.2,1.7,1.7,3c0.6,1.6,0.9,3.7,0.9,6.3v18.1l3.6-0.2c1.7-0.1,3.5-0.2,5.2-0.3l1-0.1
		c0.4,0,0.9,0,1.3-0.1l1.4-0.1V53.4c1.8-2.2,3.5-3.8,5.1-5c2.4-1.7,4.7-2.5,7.4-2.5c0.4,0,1.6,0,2.9,0.3c1,0.2,2.5,0.7,3.7,1.7
		l0.8,0.7l1.2,0.1c0.1,0,0.3,0,0.6,0c0.9,0,1.7-0.1,2.5-0.4c1-0.3,2.3-1.1,3.3-2.7c0.6-1,0.9-2.1,0.8-3.2c0-1-0.2-2-0.6-3
		C336.1,38.7,335.9,38.3,335.8,38.1z"/>
	<path fill="#FFFFFF" d="M279,41.2c-6.1-5.5-14.6-8.5-23.9-8.5c-9.3,0-17.7,3-23.8,8.5c-6.3,5.6-9.7,13.5-9.7,22.1
		c0,5,1.2,9.8,3.5,14.2l0.2,0.4l3-0.2c2-0.2,3.9-0.3,5.8-0.5l6.3-0.5l-2.5-3c-2.4-2.9-3.7-6.4-3.7-10.3c0-4.9,2-9.2,5.6-12.4
		c3.8-3.3,9.3-5.1,15.4-5.1c6.1,0,11.5,1.8,15.4,5.1c3.7,3.2,5.6,7.5,5.7,12.4c0,2.6-0.6,5.1-1.8,7.4l-1.7,3.2l14.6-1.1l0.2-0.6
		c0.9-2.9,1.3-5.9,1.3-8.9C288.7,54.6,285.2,46.8,279,41.2z"/>
	<path fill="#FFFFFF" d="M224.3,27.9c0.9-0.5,1.6-1.2,2.2-2.2c0.6-1,0.9-2,0.9-3c0-1.4-0.5-2.7-1.3-3.8c-1-1.3-2.5-2.2-4.6-2.7
		c-1.6-0.4-3.5-0.6-5.8-0.6c-3.8,0-7.6,0.9-10.9,2.5c-2.5,1.2-4.7,2.9-6.1,4.5l-0.7,0.9l-0.1,0.2v0c-1.4,1.9-2.3,3.9-2.9,6.1
		c-0.7,2.9-0.8,6.2-0.8,10.3v39.3l2.6-0.1c0.3,0,0.6,0,0.9-0.1c1.2-0.1,2.3-0.1,3.4-0.2l5.3-0.3V56.3h5.2c1.7,0,3.3-0.6,4.4-1.7
		c1.3-1.1,2-2.8,2-4.5c0-0.8-0.1-1.6-0.4-2.3c-0.5-1.3-1.4-2.4-2.6-3c-1-0.5-2.1-0.8-3.4-0.8h-5.2v-3.9c0-3.5,0.1-5.6,0.4-7.1
		c0.3-1.5,0.8-2.2,1.4-2.8c0.9-0.9,3.5-2.3,7.7-2.3c1.5,0,2,0.2,2.5,0.3l2.7,0.5l0.5,0C222.6,28.7,223.5,28.4,224.3,27.9z"/>
	<path fill="#FFFFFF" d="M178.3,12c-1.9,0-3.6,0.7-4.9,2c-1.3,1.3-2,3-2,4.9c0,1.9,0.7,3.6,2,4.9c1.3,1.3,3,2,4.9,2h0
		c1.9,0,3.6-0.7,4.9-2c1.3-1.3,2-3,2-4.9c0-1.9-0.7-3.6-2-4.9C182,12.7,180.2,12,178.3,12z"/>
	<path fill="#FFFFFF" d="M182.2,32.4c-1-0.9-2.5-1.4-4-1.4c-1.4,0-2.8,0.5-3.8,1.3c-1.1,1-1.9,2.3-2.2,4.1c-0.2,1-0.2,2-0.2,2.7
		v43.4l2.7-0.1c0.3,0,0.6,0,1,0l1.6-0.1c1.2,0,2.4-0.1,3.6-0.1l3.7-0.2V38.9c0-0.8,0-2.2-0.5-3.7C183.7,34.1,183.1,33.1,182.2,32.4z
		"/>
	<path fill="#FFFFFF" d="M162.6,8.5c0-0.8,0-2.3-0.5-3.9c-0.3-1.2-0.9-2.1-1.6-2.9c-1.1-1.1-2.5-1.7-4.1-1.7c-1.5,0-2.9,0.6-3.9,1.6
		c-1.3,1.3-1.7,2.9-1.9,4.1c-0.2,1.1-0.2,2.2-0.2,2.9v33.2v37.5v42.2c0,0.8,0,2.3,0.5,3.9c0.3,1.2,0.9,2.1,1.6,2.9
		c1,1.1,2.5,1.7,4.1,1.7c1.5,0,2.9-0.6,4-1.6c1.3-1.3,1.7-2.9,1.9-4.1c0.2-1.1,0.2-2.2,0.2-2.9V43.3v-0.6L162.6,8.5z"/>
	<path fill="#FFFFFF" d="M142.3,56.9c0-3.2,0-9.3-0.7-12c-0.8-3.3-2.6-5.9-5.5-8c-4.9-3.6-10.9-5.4-18.3-5.4
		c-4.9,0-10.6,0.8-15.4,2.1c-2.5,0.7-4.6,1.5-6.1,2.4c-1,0.6-1.8,1.2-2.4,1.8c-1,1.1-1.5,2.4-1.5,3.7c0,1.5,0.5,2.8,1.3,3.9
		c1.1,1.4,2.8,2.3,4.6,2.3c1.8,0,3.4-0.5,5.3-1.1l0.5-0.2c3.3-1.1,7.3-2.4,13.8-2.4c2.7,0,5,0.3,6.9,1c1.6,0.5,2.5,1.2,3.3,1.8
		c1,0.8,1.2,1.4,1.5,2.2c0.2,0.6,0.2,3.4,0.3,5.9c-4-2-9.4-4.1-16.7-4.1c-7.3,0-14,2.1-18.9,6c-5.1,4-7.9,9.7-7.9,16
		c0,2,0.3,4,0.9,5.9l0.3,0.8l2,0.1c1.7,0.1,3.5,0.2,5.2,0.3l0.5,0c2.1,0.1,4.2,0.2,6.4,0.3l1.1,0l-2.5-3.5c-0.8-1.1-1.2-2.4-1.2-3.7
		c0-3.1,2-5.3,3.7-6.5c2.7-2,6.4-3.1,10.4-3.1c6.8,0,11.4,2.5,16.4,5.5l0.4,0.3v11.7l0.9,0c1.7,0,3.5,0,5.3,0c0.3,0,0.6,0,1,0
		c1.4,0,2.8,0,4.2,0l1.4,0l-0.1-5.9V56.9z"/>
</g>
<path fill="#FFFFFF" d="M496.8,82.6L496.8,82.6c-0.8-0.9-1.8-1.5-3.1-1.9c-0.8-0.2-1.5-0.3-1.7-0.3c-0.3,0-6.4-1.1-17.1-2.4
	c-0.7-0.1-1.3-0.2-2-0.3l-0.9-0.1c-1.7-0.2-3.4-0.4-5.2-0.6l-1.1-0.1c-0.8-0.1-1.5-0.2-2.3-0.3c-10.2-1.2-21-2.2-32-3.1
	c-0.7-0.1-1.3-0.1-2-0.2l-1.3-0.1c-1.6-0.1-3.2-0.2-4.9-0.4c-0.3,0-0.7,0-1-0.1c-0.7,0-1.5-0.1-2.3-0.2c-2.3-0.2-4.6-0.3-6.9-0.5
	c-0.7,0-1.4-0.1-2.1-0.1l-7.2-0.4c-0.7,0-1.5-0.1-2.2-0.1c-3.5-0.2-7-0.3-10.5-0.5c-0.7,0-1.4-0.1-2.1-0.1l-0.2,0
	c-0.2,0-0.5,0-0.7,0c-1.7-0.1-3.5-0.1-5.2-0.2l-1,0c-0.7,0-1.5,0-2.2-0.1c-10.2-0.3-20.4-0.5-30.3-0.5c-0.1,0-0.2,0-0.4,0h-1.8
	c-0.3,0-0.7,0-1,0l-2.1,0c-1.1,0-2.1,0-3.1,0l-1,0c-0.7,0-1.4,0-2.1,0c-12,0.1-23.8,0.5-36.1,1.1c-0.7,0-1.5,0.1-2.2,0.1l-1,0.1
	c-1.8,0.1-3.5,0.2-5.2,0.3l-0.9,0.1c-0.7,0-1.4,0.1-2.1,0.1c-2.6,0.2-5.1,0.3-7.6,0.5c-1.1,0.1-2.2,0.1-3.3,0.2l-0.3,0
	c-0.4,0-0.8,0.1-1.2,0.1l-6.6,0.5c-0.6,0-1.2,0.1-1.8,0.1c-7.9,0.6-15.6,1.2-23.1,1.8l-0.4,0c-3.6,0.3-7.2,0.6-10.8,0.9
	c-1.6,0.1-3.2,0.3-4.8,0.4l-0.5,0c-1.9,0.2-3.9,0.3-5.8,0.5l-2.1,0.2c-0.2,0-0.4,0-0.6,0c-5,0.4-9.3,0.7-13.3,0.9
	c-0.8,0.1-1.5,0.1-2.3,0.2l-2.5,0.2c-1.1,0.1-2.3,0.1-3.4,0.2c-0.3,0-0.6,0-0.9,0.1c-0.7,0-1.4,0.1-2.1,0.1c-4,0.2-7.8,0.4-11.6,0.6
	c-0.7,0-1.5,0.1-2.2,0.1l-1,0c-1.2,0-2.4,0.1-3.6,0.1l-1.6,0.1c-0.3,0-0.6,0-0.9,0c-0.7,0-1.4,0.1-2.1,0.1
	c-4.2,0.1-7.9,0.2-11.5,0.3c-0.7,0-1.5,0-2.2,0l-1,0c-1.2,0-2.4,0-3.6,0l-1.2,0c-0.3,0-0.7,0-1,0c-0.7,0-1.4,0-2.1,0
	c-2.6,0-5.3,0-8,0c-0.3,0-0.5,0-0.8,0c-1.4,0-2.8,0-4.2,0c-0.3,0-0.7,0-1,0c-1.8,0-3.6,0-5.3,0l-0.4,0l-0.7,0
	c-9.4-0.1-18.8-0.3-28.1-0.7c-2.1-0.1-4.2-0.2-6.4-0.3l-0.5,0c-2-0.1-4.1-0.2-6.1-0.3l-0.8,0L88,79c-2.4-0.1-4.8-0.3-7.1-0.4
	c-0.6,0-1.2-0.1-1.7-0.1l-0.6,0c-0.4,0-0.8,0-1.2-0.1l-1.3-0.1c-1.9-0.1-3.8-0.2-5.6-0.4c-0.2,0-0.3,0-0.4,0
	c-1.5-0.1-2.9-0.2-4.3-0.3c-8.9-0.7-17.5-1.5-25.8-2.4c-1.1-0.1-2.2-0.2-3.3-0.4l-0.5-0.1c-2.2-0.3-4.4-0.5-6.3-0.7l-1.6-0.2
	c-0.7-0.1-1.4-0.2-2.1-0.3c-5.7-0.7-10.1-1.3-12.9-1.7c-2.1-0.3-3.7-0.5-4.8-0.7l-1.6-0.2c-0.3-0.1-1-0.3-1.9-0.3
	c-1.1,0-2.1,0.3-2.9,0.8C1.4,72,1,72.4,0.7,72.9c-0.4,0.6-0.6,1.4-0.6,2.2c0,0.1,0,0.2,0,0.3c0,1.1,0.4,2.1,1.1,2.9
	c0.9,1,2.1,1.5,2.9,1.8c0.4,0.1,0.8,0.2,1.1,0.3c0.1,0,0.3,0.1,0.4,0.1l0.3,0c1.6,0.3,4.9,0.8,10.1,1.5c21.6,3,66.7,7.9,126.3,7.9
	c18.2,0,36.1-0.5,54.6-1.5c0.7,0,1.5-0.1,2.2-0.1l2.3-0.1c1.2-0.1,2.5-0.1,3.7-0.2l0.9-0.1c0.7,0,1.4-0.1,2.1-0.1
	c13.4-0.9,26-1.9,38.2-2.9l0.5,0c30.1-2.5,61.3-5,102.2-5c79,0,139,9.6,142.3,10.1c0.1,0,0.3,0.1,0.5,0.1c0.4,0.1,0.7,0.1,1.1,0.1h0
	c1,0,1.9-0.2,2.7-0.7c1.1-0.7,1.9-1.9,2.1-3.3c0-0.3,0.1-0.5,0.1-0.8C497.7,84.3,497.4,83.4,496.8,82.6z"/>
<g>
	<path fill="#FFFFFF" d="M228,101.3c-2.6,0-4.7,2.1-4.7,4.7v12.1c-2.2-2.7-5.4-5-10.4-5c-7.9,0-15.2,6.1-15.2,17.2v0.1
		c0,11.1,7.4,17.2,15.2,17.2c4.9,0,8.1-2.3,10.4-5.4v0.4c0,2.6,2.1,4.7,4.7,4.7c2.6,0,4.7-2.1,4.7-4.7V106
		C232.8,103.4,230.6,101.3,228,101.3z M223.4,130.5c0,5.5-3.7,9.2-8.1,9.2c-4.4,0-8.1-3.7-8.1-9.2v-0.1c0-5.6,3.7-9.2,8.1-9.2
		c4.4,0,8.1,3.7,8.1,9.2V130.5z"/>
	<path fill="#FFFFFF" d="M257.1,113.4c-2.8,0-5,3-6.4,6.2v-1.5c0-2.6-2.1-4.7-4.7-4.7c-2.6,0-4.7,2.1-4.7,4.7v24.6
		c0,2.6,2.1,4.7,4.7,4.7c2.6,0,4.7-2.1,4.7-4.7v-8.8c0-6.7,2.7-10.4,7.5-11.5c1.9-0.4,3.5-1.9,3.5-4.4
		C261.7,115.3,260,113.4,257.1,113.4z"/>
	<path fill="#FFFFFF" d="M281.1,113.1c-9.7,0-16.5,7.8-16.5,17.4v0.1c0,10.2,7.4,17.2,17.4,17.2c4.9,0,8.6-1.6,11.6-4
		c0.7-0.6,1.2-1.6,1.2-2.8c0-2.1-1.6-3.7-3.7-3.7c-1,0-1.6,0.2-2.3,0.7c-1.9,1.4-4.1,2.2-6.7,2.2c-4.2,0-7.2-2.2-8.2-6.5h18.7
		c2.5,0,4.4-1.8,4.4-4.5C297.2,122.2,292.3,113.1,281.1,113.1z M273.9,127.8c0.7-4.3,3.3-7.1,7.2-7.1c4,0,6.5,2.9,7,7.1H273.9z"/>
	<path fill="#FFFFFF" d="M318.2,113.4c-4.4,0-7.7,0.6-10.6,1.7c-1.5,0.6-2.6,2-2.6,3.7c0,2.2,1.7,3.9,3.9,3.9c0.4,0,0.8-0.1,1.4-0.2
		c1.8-0.6,3.9-0.9,6.5-0.9c4.7,0,7.2,2.2,7.2,6.1v0.6c-2.4-0.8-4.8-1.4-8.1-1.4c-7.9,0-13.4,3.4-13.4,10.6v0.1
		c0,6.6,5.2,10.2,11.4,10.2c4.6,0,7.8-1.7,10.1-4.2v0.1c0,2,1.8,3.9,4.5,3.9c2.5,0,4.6-2,4.6-4.5v-15.2c0-4.5-1.1-8.1-3.6-10.6
		C327.1,114.7,323.4,113.4,318.2,113.4z M324.1,135.3c0,3.4-3,5.8-7.4,5.8c-3,0-5.2-1.5-5.2-4V137c0-3,2.5-4.6,6.5-4.6
		c2.3,0,4.4,0.5,6,1.2V135.3z"/>
	<path fill="#FFFFFF" d="M381.8,154c-4.9,0-8.1,2.3-10.4,5.4v-30.9c0-4.5,2.2-6.8,5.7-6.8c3.5,0,5.5,2.3,5.5,6.8v14.2
		c0,2.6,2.1,4.7,4.7,4.7c2.6,0,4.7-2.1,4.7-4.7v-17.4c0-8-4.2-12.3-11.3-12.3c-4.5,0-8,1.9-10.9,5.3c-1.7-3.4-5-5.3-9.4-5.3
		c-4.8,0-7.7,2.5-9.8,5.3v-0.4c0-2.6-2.1-4.7-4.7-4.7c-2.6,0-4.7,2.1-4.7,4.7v24.6c0,2.6,2.1,4.7,4.7,4.7c2.6,0,4.7-2.1,4.7-4.7
		v-14.2c0-4.5,2.2-6.8,5.7-6.8c3.5,0,5.5,2.3,5.5,6.8v55.1c0,2.6,2.1,4.7,4.7,4.7c2.6,0,4.7-2.1,4.7-4.7v-0.1c2.2,2.7,5.4,5,10.4,5
		c7.9,0,15.2-6.1,15.2-17.2v-0.1C397,160.1,389.6,154,381.8,154z M387.5,171.3c0,5.6-3.7,9.2-8.2,9.2c-4.4,0-8.1-3.7-8.1-9.2v-0.1
		c0-5.5,3.7-9.2,8.1-9.2c4.4,0,8.2,3.7,8.2,9.2V171.3z"/>
	<path fill="#FFFFFF" d="M409.1,154.2c-2.6,0-4.7,2.1-4.7,4.7v24.6c0,2.6,2.1,4.7,4.7,4.7c2.6,0,4.7-2.1,4.7-4.7V159
		C413.8,156.3,411.7,154.2,409.1,154.2z"/>
	<path fill="#FFFFFF" d="M409.1,142.2c-3,0-5.3,1.7-5.3,4.4v0.1c0,2.7,2.3,4.5,5.3,4.5c3,0,5.3-1.7,5.3-4.5v-0.1
		C414.4,143.9,412.1,142.2,409.1,142.2z"/>
	<path fill="#FFFFFF" d="M451.5,154.2c-2.6,0-4.7,2.1-4.7,4.7v0.1c-2.5-2.8-5.6-5-10.8-5c-7.7,0-14.8,5.6-14.8,15.6v0.1
		c0,9.9,7,15.6,14.8,15.6c5,0,8.1-2.1,10.9-5.4v1.6c0,6-3,9.1-9.5,9.1c-3.5,0-6.5-0.7-9.2-2c-0.4-0.2-0.9-0.3-1.6-0.3
		c-2.1,0-3.9,1.7-3.9,3.9c0,1.7,1.1,3,2.7,3.7c3.9,1.6,7.8,2.3,12.2,2.3c6.5,0,11.3-1.4,14.4-4.5c2.8-2.8,4.2-7.2,4.2-13.1V159
		C456.3,156.3,454.1,154.2,451.5,154.2z M446.9,169.7c0,4.5-3.5,7.7-8.1,7.7c-4.6,0-8.1-3.1-8.1-7.7v-0.1c0-4.5,3.5-7.7,8.1-7.7
		c4.6,0,8.1,3.2,8.1,7.7V169.7z"/>
</g>
<g>
	<path fill="#FFFFFF" d="M482.6,23.6h-2.1c-0.4,0-0.7-0.4-0.7-0.8c0-0.4,0.3-0.8,0.7-0.8h5.9c0.4,0,0.7,0.3,0.7,0.8
		c0,0.4-0.3,0.8-0.7,0.8h-2.1v6.6c0,0.5-0.4,0.8-0.9,0.8c-0.5,0-0.8-0.4-0.8-0.8V23.6z M488.9,22.8c0-0.5,0.4-0.8,0.8-0.8h0.2
		c0.4,0,0.6,0.2,0.8,0.4l2.6,4.2l2.7-4.2c0.2-0.3,0.4-0.4,0.7-0.4h0.2c0.4,0,0.8,0.4,0.8,0.8v7.4c0,0.5-0.4,0.8-0.8,0.8
		c-0.4,0-0.8-0.3-0.8-0.8v-5.1l-2.1,3.2c-0.2,0.3-0.4,0.4-0.7,0.4c-0.3,0-0.5-0.1-0.7-0.4l-2.1-3.2v5.1c0,0.5-0.4,0.8-0.8,0.8
		c-0.5,0-0.8-0.3-0.8-0.8V22.8z"/>
</g>
</svg>
