<?xml version="1.0" encoding="utf-8"?>
<!-- Generator: Adobe Illustrator 19.0.0, SVG Export Plug-In . SVG Version: 6.00 Build 0)  -->
<svg version="1.1" id="Layer_1" xmlns="http://www.w3.org/2000/svg" xmlns:xlink="http://www.w3.org/1999/xlink" x="0px" y="0px"
	 viewBox="-403 245.1 47.9 71.9" style="enable-background:new -403 245.1 47.9 71.9;" xml:space="preserve">
<style type="text/css">
	.st0{display:none;}
	.st1{display:inline;}
	.st2{fill:#EB0478;}
</style>
<g class="st0">
	<path class="st1" d="M-344.1,257h-69.9c-0.5,0-1,0.4-1,1V304c0,0.6,0.5,1,1,1h69.9c0.6,0,1-0.4,1-1V258
		C-343.1,257.5-343.5,257-344.1,257z M-345.2,277.6h-67.5v-10h67.5C-345.2,267.6-345.2,277.6-345.2,277.6z"/>
</g>
<g class="st0">
	<path class="st1" d="M-343,268.1c0-10.5-8.3-18.7-18.4-18.7c-8.2,0-15.2,5.7-17.5,13.3c-2.4-7.6-9.3-13.1-17.6-13.1
		c-10.2,0-18.4,8-18.4,18.5c0,5.3,2.1,9,5.5,13h0l30.5,31.4l30.5-31.4h-0.1C-345.1,277.1-343,273.4-343,268.1z"/>
</g>
<g>
	<path class="st2" d="M-379,245.1c-13.2,0-24,10.7-24,24c0,13.2,24,47.9,24,47.9s24-34.7,24-47.9C-355,255.8-365.8,245.1-379,245.1z
		 M-379,281.5c-6.6,0-12-5.4-12-12c0-6.6,5.4-12,12-12c6.6,0,12,5.4,12,12C-367,276.1-372.4,281.5-379,281.5z"/>
</g>
<g class="st0">
	<polygon class="st1" points="-343,263 -343,245.1 -343,245 -361,245 -361,245 -403,245 -403,263 -378,263 -415,300 -398,317 
		-361,279.9 -361,305 -343,305 	"/>
</g>
<g class="st0">
	<polygon class="st1" points="-367,245.1 -391,245.1 -375,269.1 -415,269.1 -415,293.1 -375,293.1 -391,317.1 -367,317.1 
		-343,281.1 	"/>
</g>
</svg>
