<?xml version="1.0" encoding="utf-8"?>
<!-- Generator: Adobe Illustrator 19.0.0, SVG Export Plug-In . SVG Version: 6.00 Build 0)  -->
<svg version="1.1" id="Layer_1" xmlns="http://www.w3.org/2000/svg" xmlns:xlink="http://www.w3.org/1999/xlink" x="0px" y="0px"
	 viewBox="0 0 914 548.4" style="enable-background:new 0 0 914 548.4;" xml:space="preserve">
<style type="text/css">
	.st0{opacity:0.9;}
	.st1{fill:#FFFFFF;}
	#shadow {filter:url('#blur');opacity:.5;}
</style>
<g id="shadow">
	<filter id="blur">
	  <feGaussianBlur in="SourceGraphic" stdDeviation="6" />
	</filter>
	<g id="XMLID_12_" class="st0">
		<path id="XMLID_13_" d="M456.6,536.1l-1.3-0.8L14.2,272.9L457,9.8l442.8,263.1L456.6,536.1z M24,272.9l432.6,257.3L890,272.9
			L457,15.6L24,272.9z"/>
	</g>
	<g id="XMLID_93_">
		<path id="XMLID_116_" d="M214.3,277.3c9.2,0,16,3.1,21.9,8.4c0.5,0.5,0.5,1.2,0.1,1.6l-1.4,1.5c-0.5,0.5-1,0.5-1.5-0.1
			c-5.1-4.6-11.6-7.4-19-7.4c-15.7,0-28.1,12.9-28.1,28.4c0,15.5,12.3,28.3,28.1,28.3c7.7,0,13.6-3.1,19-7.6
			c0.5-0.5,1.1-0.5,1.4-0.2l1.5,1.5c0.5,0.4,0.5,1.1,0,1.5c-6.1,5.9-13.9,8.7-22,8.7c-18,0-32.6-14.2-32.6-32.3
			C181.7,291.8,196.3,277.3,214.3,277.3z"/>
		<path id="XMLID_113_" d="M243.7,340.1l27.7-62.6c0.2-0.4,0.6-0.6,1.1-0.6h0.3c0.5,0,0.9,0.1,1.2,0.6l27.4,62.6
			c0.2,0.5,0.2,1.1-0.8,1.1h-2.3c-0.6,0-1.1-0.5-1.3-0.8l-7.3-16.6h-34.4l-7.2,16.6c-0.2,0.4-0.6,0.8-1.3,0.8h-2.5
			C243.7,341.2,243.4,340.8,243.7,340.1z M288.1,320.3L272.7,284h-0.2l-15.7,36.3H288.1z"/>
		<path id="XMLID_111_" d="M313.2,279.4c0-0.6,0.5-1.2,1.2-1.2h2c0.5,0,1.1,0.5,1.1,1.2v58h28.7c1.1,0,1.2,0.5,1.2,1.2v1.6
			c0,0.6-0.5,1-1.2,1h-31.8c-0.6,0-1.2-0.5-1.2-1.2V279.4z"/>
		<path id="XMLID_109_" d="M359,279.4c0-0.6,0.5-1.2,1.2-1.2h2c0.6,0,1.2,0.5,1.2,1.2V340c0,0.7-0.6,1.2-1.3,1.2h-1.9
			c-0.6,0-1.2-0.5-1.2-1.2V279.4z"/>
		<path id="XMLID_107_" d="M384.2,279.4c0-0.6,0.5-1.2,1.2-1.2h36.1c0.6,0,1.2,0.5,1.2,1.2v1.5c0,0.6-0.5,1.2-1.2,1.2h-32.9v27.4
			h28.5c0.6,0,1.2,0.5,1.2,1.2c0,1,0.2,2.6-1.2,2.6h-28.5l-0.1,26.8c0,0.6-0.5,1.2-1.4,1.2h-1.6c-0.6,0-1.2-0.5-1.2-1.2V279.4z"/>
		<path id="XMLID_104_" d="M465.5,277.3c18.1,0,32.5,14.5,32.5,32.5c0,18.1-14.4,32.3-32.5,32.3c-18,0-32.4-14.2-32.4-32.3
			C433.1,291.8,447.5,277.3,465.5,277.3z M465.5,338.1c15.7,0,28.5-12.6,28.5-28.3c0-15.7-12.8-28.5-28.5-28.5s-28.4,12.8-28.4,28.5
			C437.1,325.5,449.8,338.1,465.5,338.1z"/>
		<path id="XMLID_101_" d="M514.4,279.4c0-0.6,0.4-1.2,1.2-1.2h22.3c11,0,20.1,8.3,20.1,19.3c0,9.1-6.3,16.4-14.8,18.8l13.1,23.3
			c0.5,0.7,0.3,1.6-0.6,1.6h-2.8c-0.6,0-1-0.3-1.3-0.8l-13-23.6c-1.2,0.1-2.2,0.1-3.3,0.1h-16.6V340c0,0.6-0.5,1.2-1.4,1.2h-1.6
			c-0.6,0-1.2-0.5-1.2-1.2V279.4z M537.7,313.1c8.6,0,15.9-6.8,15.9-15.7c0-8.5-7.3-15.1-16-15.1h-18.9v30.8H537.7z"/>
		<path id="XMLID_99_" d="M574.7,278.5c0-0.7,0.6-1.2,1.3-1.2h1.5l43.2,56.2c0.1,0,0.1,0,0.1,0v-54.2c0-0.6,0.5-1.2,1.2-1.2h1.8
			c0.6,0,1.2,0.5,1.2,1.2v61.6c0,0.8-0.7,1.2-1.4,1.2h-1.2c-0.1,0-0.8-0.3-43.6-56.8h-0.1V340c0,0.6-0.5,1.2-1.2,1.2h-1.7
			c-0.6,0-1.2-0.5-1.2-1.2V278.5z"/>
		<path id="XMLID_97_" d="M645.9,279.4c0-0.6,0.5-1.2,1.2-1.2h2c0.6,0,1.2,0.5,1.2,1.2V340c0,0.7-0.6,1.2-1.3,1.2H647
			c-0.6,0-1.2-0.5-1.2-1.2V279.4z"/>
		<path id="XMLID_94_" d="M662.1,340.1l27.7-62.6c0.2-0.4,0.6-0.6,1.1-0.6h0.3c0.5,0,0.9,0.1,1.2,0.6l27.4,62.6
			c0.2,0.5,0.2,1.1-0.8,1.1h-2.3c-0.6,0-1.1-0.5-1.3-0.8l-7.3-16.6h-34.4l-7.2,16.6c-0.2,0.4-0.6,0.8-1.3,0.8h-2.5
			C662.1,341.2,661.8,340.8,662.1,340.1z M706.5,320.3L691.1,284H691l-15.7,36.3H706.5z"/>
	</g>
	<g id="XMLID_19_">
		<path id="XMLID_91_" d="M294.8,195.2c8,0,14.1,2.8,18.9,8.4c0.5,0.7,0.5,1.8-0.4,2.5l-7.7,6.8c-0.7,0.6-1.5,0.5-2.1,0
			c-2.2-2.5-6.1-4.1-9.7-4.1c-9.3,0-17.2,9.9-17.2,21.3c0,8.5,4.8,15.5,12.1,15.5c3.1,0,7.3-2.1,10.4-4.7c0.6-0.5,1.7-0.5,2.2,0.1
			l6.1,8.1c0.5,0.7,0.2,1.8-0.5,2.4c-6.4,5.9-13.1,8.5-20.3,8.5c-13.6,0-25.6-12.5-25.6-28.3C261,211.1,275.3,195.2,294.8,195.2z"/>
		<path id="XMLID_89_" d="M329.5,197.8c0.1-0.9,0.9-1.7,1.7-1.7h33.9c0.9,0,1.4,0.8,1.3,1.7l-1.4,9.8c-0.1,0.9-0.8,1.7-1.7,1.7
			h-21.4l-1.6,11.2h17.5c0.8,0,1.4,0.8,1.3,1.7l-1.4,9.8c-0.2,1-1,1.7-1.8,1.7h-17.4l-1.7,12.1h21.4c0.9,0,1.3,0.8,1.3,1.7l-1.3,9.8
			c-0.1,0.9-0.9,1.7-1.8,1.7h-33.9c-0.9,0-1.4-0.8-1.3-1.7L329.5,197.8z"/>
		<path id="XMLID_87_" d="M383,196.8c0.1-0.9,1-1.6,1.8-1.6h2l26.8,34.7h0.1l4.3-32.1c0.1-0.9,0.8-1.7,1.7-1.7h11
			c0.8,0,1.5,0.7,1.4,1.5l-8.5,60.7c-0.1,0.9-0.9,1.6-1.7,1.6h-2.2l-26.8-35.8h-0.1l-4,33.2c-0.2,0.9-0.9,1.7-1.8,1.7h-11.1
			c-0.7,0-1.4-0.7-1.4-1.5L383,196.8z"/>
		<path id="XMLID_66_" d="M456.3,209.3h-11c-0.9,0-1.4-0.8-1.4-1.7l1.4-9.8c0.1-0.9,0.9-1.7,1.7-1.7h36.4c0.9,0,1.4,0.8,1.3,1.7
			l-1.4,9.8c-0.1,0.9-0.8,1.7-1.7,1.7h-11.1l-6.8,48.1c-0.1,0.9-1,1.7-1.8,1.7h-11.2c-0.8,0-1.4-0.8-1.3-1.7L456.3,209.3z"/>
		<path id="XMLID_30_" d="M498.1,197.8c0.1-0.9,0.9-1.7,1.7-1.7h24.3c9.4,0,15.8,7.6,15.8,16.9c0,9.6-5.5,17.7-14.8,20.6l7.8,22.9
			c0.4,1.2-0.4,2.6-1.7,2.6h-11.6c-0.6,0-1.2-0.4-1.3-0.8l-7.4-23.8h-4l-3.2,22.9c-0.1,0.9-0.9,1.7-1.7,1.7H491
			c-0.9,0-1.4-0.8-1.3-1.7L498.1,197.8z M518.5,223c4.2,0,7.3-4,7.3-8.3c0-3.1-1.6-5.8-4.9-5.8h-10.3l-2,14H518.5z"/>
		<path id="XMLID_22_" d="M542.6,256.8l34.1-60.6c0.4-0.5,0.8-1,1.5-1h0.8c0.6,0,1.1,0.5,1.3,1l16.9,60.6c0.4,1.2-0.5,2.3-1.7,2.3
			h-10.2c-1.6,0-2.5-0.5-2.9-2.2l-1.5-7.1h-19.9l-3.5,7.2c-0.5,1.2-1.7,2.2-3.6,2.2h-10.3C542.4,259.1,542,257.9,542.6,256.8z
			 M577.5,237.5l-2.8-15h-0.1l-7.2,15H577.5z"/>
		<path id="XMLID_20_" d="M617.1,197.8c0.1-0.9,0.9-1.7,1.8-1.7h11.2c0.8,0,1.4,0.8,1.3,1.7l-6.8,48.1H643c0.9,0,1.3,0.8,1.3,1.7
			l-1.3,9.8c-0.1,0.9-0.9,1.7-1.8,1.7h-31c-0.9,0-1.4-0.8-1.4-1.7L617.1,197.8z"/>
	</g>
</g>
<g id="XMLID_82_" class="st0">
	<path id="XMLID_83_" class="st1" d="M456.6,536.1l-1.3-0.8L14.2,272.9L457,9.8l442.8,263.1L456.6,536.1z M24,272.9l432.6,257.3
		L890,272.9L457,15.6L24,272.9z"/>
</g>
<g id="XMLID_44_">
	<path id="XMLID_47_" class="st1" d="M214.3,277.3c9.2,0,16,3.1,21.9,8.4c0.5,0.5,0.5,1.2,0.1,1.6l-1.4,1.5c-0.5,0.5-1,0.5-1.5-0.1
		c-5.1-4.6-11.6-7.4-19-7.4c-15.7,0-28.1,12.9-28.1,28.4c0,15.5,12.3,28.3,28.1,28.3c7.7,0,13.6-3.1,19-7.6c0.5-0.5,1.1-0.5,1.4-0.2
		l1.5,1.5c0.5,0.4,0.5,1.1,0,1.5c-6.1,5.9-13.9,8.7-22,8.7c-18,0-32.6-14.2-32.6-32.3C181.7,291.8,196.3,277.3,214.3,277.3z"/>
	<path id="XMLID_49_" class="st1" d="M243.7,340.1l27.7-62.6c0.2-0.4,0.6-0.6,1.1-0.6h0.3c0.5,0,0.9,0.1,1.2,0.6l27.4,62.6
		c0.2,0.5,0.2,1.1-0.8,1.1h-2.3c-0.6,0-1.1-0.5-1.3-0.8l-7.3-16.6h-34.4l-7.2,16.6c-0.2,0.4-0.6,0.8-1.3,0.8h-2.5
		C243.7,341.2,243.4,340.8,243.7,340.1z M288.1,320.3L272.7,284h-0.2l-15.7,36.3H288.1z"/>
	<path id="XMLID_52_" class="st1" d="M313.2,279.4c0-0.6,0.5-1.2,1.2-1.2h2c0.5,0,1.1,0.5,1.1,1.2v58h28.7c1.1,0,1.2,0.5,1.2,1.2
		v1.6c0,0.6-0.5,1-1.2,1h-31.8c-0.6,0-1.2-0.5-1.2-1.2V279.4z"/>
	<path id="XMLID_54_" class="st1" d="M359,279.4c0-0.6,0.5-1.2,1.2-1.2h2c0.6,0,1.2,0.5,1.2,1.2V340c0,0.7-0.6,1.2-1.3,1.2h-1.9
		c-0.6,0-1.2-0.5-1.2-1.2V279.4z"/>
	<path id="XMLID_58_" class="st1" d="M384.2,279.4c0-0.6,0.5-1.2,1.2-1.2h36.1c0.6,0,1.2,0.5,1.2,1.2v1.5c0,0.6-0.5,1.2-1.2,1.2
		h-32.9v27.4h28.5c0.6,0,1.2,0.5,1.2,1.2c0,1,0.2,2.6-1.2,2.6h-28.5l-0.1,26.8c0,0.6-0.5,1.2-1.4,1.2h-1.6c-0.6,0-1.2-0.5-1.2-1.2
		V279.4z"/>
	<path id="XMLID_63_" class="st1" d="M465.5,277.3c18.1,0,32.5,14.5,32.5,32.5c0,18.1-14.4,32.3-32.5,32.3
		c-18,0-32.4-14.2-32.4-32.3C433.1,291.8,447.5,277.3,465.5,277.3z M465.5,338.1c15.7,0,28.5-12.6,28.5-28.3
		c0-15.7-12.8-28.5-28.5-28.5s-28.4,12.8-28.4,28.5C437.1,325.5,449.8,338.1,465.5,338.1z"/>
	<path id="XMLID_72_" class="st1" d="M514.4,279.4c0-0.6,0.4-1.2,1.2-1.2h22.3c11,0,20.1,8.3,20.1,19.3c0,9.1-6.3,16.4-14.8,18.8
		l13.1,23.3c0.5,0.7,0.3,1.6-0.6,1.6h-2.8c-0.6,0-1-0.3-1.3-0.8l-13-23.6c-1.2,0.1-2.2,0.1-3.3,0.1h-16.6V340c0,0.6-0.5,1.2-1.4,1.2
		h-1.6c-0.6,0-1.2-0.5-1.2-1.2V279.4z M537.7,313.1c8.6,0,15.9-6.8,15.9-15.7c0-8.5-7.3-15.1-16-15.1h-18.9v30.8H537.7z"/>
	<path id="XMLID_75_" class="st1" d="M574.7,278.5c0-0.7,0.6-1.2,1.3-1.2h1.5l43.2,56.2c0.1,0,0.1,0,0.1,0v-54.2
		c0-0.6,0.5-1.2,1.2-1.2h1.8c0.6,0,1.2,0.5,1.2,1.2v61.6c0,0.8-0.7,1.2-1.4,1.2h-1.2c-0.1,0-0.8-0.3-43.6-56.8h-0.1V340
		c0,0.6-0.5,1.2-1.2,1.2h-1.7c-0.6,0-1.2-0.5-1.2-1.2V278.5z"/>
	<path id="XMLID_77_" class="st1" d="M645.9,279.4c0-0.6,0.5-1.2,1.2-1.2h2c0.6,0,1.2,0.5,1.2,1.2V340c0,0.7-0.6,1.2-1.3,1.2H647
		c-0.6,0-1.2-0.5-1.2-1.2V279.4z"/>
	<path id="XMLID_79_" class="st1" d="M662.1,340.1l27.7-62.6c0.2-0.4,0.6-0.6,1.1-0.6h0.3c0.5,0,0.9,0.1,1.2,0.6l27.4,62.6
		c0.2,0.5,0.2,1.1-0.8,1.1h-2.3c-0.6,0-1.1-0.5-1.3-0.8l-7.3-16.6h-34.4l-7.2,16.6c-0.2,0.4-0.6,0.8-1.3,0.8h-2.5
		C662.1,341.2,661.8,340.8,662.1,340.1z M706.5,320.3L691.1,284H691l-15.7,36.3H706.5z"/>
</g>
<g id="XMLID_14_">
	<path id="XMLID_42_" class="st1" d="M294.8,195.2c8,0,14.1,2.8,18.9,8.4c0.5,0.7,0.5,1.8-0.4,2.5l-7.7,6.8c-0.7,0.6-1.5,0.5-2.1,0
		c-2.2-2.5-6.1-4.1-9.7-4.1c-9.3,0-17.2,9.9-17.2,21.3c0,8.5,4.8,15.5,12.1,15.5c3.1,0,7.3-2.1,10.4-4.7c0.6-0.5,1.7-0.5,2.2,0.1
		l6.1,8.1c0.5,0.7,0.2,1.8-0.5,2.4c-6.4,5.9-13.1,8.5-20.3,8.5c-13.6,0-25.6-12.5-25.6-28.3C261,211.1,275.3,195.2,294.8,195.2z"/>
	<path id="XMLID_15_" class="st1" d="M329.5,197.8c0.1-0.9,0.9-1.7,1.7-1.7h33.9c0.9,0,1.4,0.8,1.3,1.7l-1.4,9.8
		c-0.1,0.9-0.8,1.7-1.7,1.7h-21.4l-1.6,11.2h17.5c0.8,0,1.4,0.8,1.3,1.7l-1.4,9.8c-0.2,1-1,1.7-1.8,1.7h-17.4l-1.7,12.1h21.4
		c0.9,0,1.3,0.8,1.3,1.7l-1.3,9.8c-0.1,0.9-0.9,1.7-1.8,1.7h-33.9c-0.9,0-1.4-0.8-1.3-1.7L329.5,197.8z"/>
	<path id="XMLID_16_" class="st1" d="M383,196.8c0.1-0.9,1-1.6,1.8-1.6h2l26.8,34.7h0.1l4.3-32.1c0.1-0.9,0.8-1.7,1.7-1.7h11
		c0.8,0,1.5,0.7,1.4,1.5l-8.5,60.7c-0.1,0.9-0.9,1.6-1.7,1.6h-2.2l-26.8-35.8h-0.1l-4,33.2c-0.2,0.9-0.9,1.7-1.8,1.7h-11.1
		c-0.7,0-1.4-0.7-1.4-1.5L383,196.8z"/>
	<path id="XMLID_33_" class="st1" d="M456.3,209.3h-11c-0.9,0-1.4-0.8-1.4-1.7l1.4-9.8c0.1-0.9,0.9-1.7,1.7-1.7h36.4
		c0.9,0,1.4,0.8,1.3,1.7l-1.4,9.8c-0.1,0.9-0.8,1.7-1.7,1.7h-11.1l-6.8,48.1c-0.1,0.9-1,1.7-1.8,1.7h-11.2c-0.8,0-1.4-0.8-1.3-1.7
		L456.3,209.3z"/>
	<path id="XMLID_35_" class="st1" d="M498.1,197.8c0.1-0.9,0.9-1.7,1.7-1.7h24.3c9.4,0,15.8,7.6,15.8,16.9c0,9.6-5.5,17.7-14.8,20.6
		l7.8,22.9c0.4,1.2-0.4,2.6-1.7,2.6h-11.6c-0.6,0-1.2-0.4-1.3-0.8l-7.4-23.8h-4l-3.2,22.9c-0.1,0.9-0.9,1.7-1.7,1.7H491
		c-0.9,0-1.4-0.8-1.3-1.7L498.1,197.8z M518.5,223c4.2,0,7.3-4,7.3-8.3c0-3.1-1.6-5.8-4.9-5.8h-10.3l-2,14H518.5z"/>
	<path id="XMLID_38_" class="st1" d="M542.6,256.8l34.1-60.6c0.4-0.5,0.8-1,1.5-1h0.8c0.6,0,1.1,0.5,1.3,1l16.9,60.6
		c0.4,1.2-0.5,2.3-1.7,2.3h-10.2c-1.6,0-2.5-0.5-2.9-2.2l-1.5-7.1h-19.9l-3.5,7.2c-0.5,1.2-1.7,2.2-3.6,2.2h-10.3
		C542.4,259.1,542,257.9,542.6,256.8z M577.5,237.5l-2.8-15h-0.1l-7.2,15H577.5z"/>
	<path id="XMLID_45_" class="st1" d="M617.1,197.8c0.1-0.9,0.9-1.7,1.8-1.7h11.2c0.8,0,1.4,0.8,1.3,1.7l-6.8,48.1H643
		c0.9,0,1.3,0.8,1.3,1.7l-1.3,9.8c-0.1,0.9-0.9,1.7-1.8,1.7h-31c-0.9,0-1.4-0.8-1.4-1.7L617.1,197.8z"/>
</g>
</svg>
