<?xml version="1.0" encoding="utf-8"?>
<!-- Generator: Adobe Illustrator 19.0.0, SVG Export Plug-In . SVG Version: 6.00 Build 0)  -->
<svg version="1.1" id="Layer_1" xmlns="http://www.w3.org/2000/svg" xmlns:xlink="http://www.w3.org/1999/xlink" x="0px" y="0px"
	 viewBox="0 0 38.2 22.8" style="enable-background:new 0 0 38.2 22.8;" xml:space="preserve">
<style type="text/css">
	.st0{fill:#EB0478;}
	.st1{fill:#FFFFFF;}
	.st2{fill:none;stroke:#FFFFFF;stroke-width:0.25;stroke-miterlimit:10;}
</style>
<polygon id="XMLID_70_" class="st0" points="38.2,11.5 19.1,22.8 0,11.4 19.1,0 "/>
<g id="XMLID_73_">
	<path id="XMLID_19_" class="st1" d="M20.7,6.9c1.2,0,2.1,0.4,2.8,1.2c0.1,0.1,0.1,0.3-0.1,0.4l-1.1,1c-0.1,0.1-0.2,0.1-0.3,0
		c-0.3-0.4-0.9-0.6-1.4-0.6c-1.4,0-2.5,1.4-2.5,3.1c0,1.2,0.7,2.3,1.8,2.3c0.4,0,1.1-0.3,1.5-0.7c0.1-0.1,0.2-0.1,0.3,0l0.9,1.2
		c0.1,0.1,0,0.3-0.1,0.4c-0.9,0.9-1.9,1.2-3,1.2c-2,0-3.7-1.8-3.7-4.1C15.8,9.2,17.9,6.9,20.7,6.9z"/>
</g>
<line id="XMLID_74_" class="st2" x1="5.6" y1="11.4" x2="13.6" y2="11.4"/>
<line id="XMLID_76_" class="st2" x1="24.6" y1="11.4" x2="32.6" y2="11.4"/>
</svg>
