<?xml version="1.0" encoding="utf-8"?>
<!-- Generator: Adobe Illustrator 19.0.0, SVG Export Plug-In . SVG Version: 6.00 Build 0)  -->
<svg version="1.1" id="Layer_1" xmlns="http://www.w3.org/2000/svg" xmlns:xlink="http://www.w3.org/1999/xlink" x="0px" y="0px"
	 viewBox="0 0 914 548.4" style="enable-background:new 0 0 914 548.4;" xml:space="preserve">
<style type="text/css">
	.st0{opacity:0.9;}
	.st1{fill:#FFFFFF;}
	#shadow {filter:url('#blur');opacity:.5;}
</style>
<g id="shadow">
	<filter id="blur">
	  <feGaussianBlur in="SourceGraphic" stdDeviation="6" />
	</filter>
	<g id="XMLID_12_" class="st0">
		<path id="XMLID_13_" d="M456.5,535.7l-1.3-0.8L14.1,272.6L456.9,9.5l442.8,263.1L456.5,535.7z M23.8,272.6l432.6,257.3
			l433.4-257.3l-433-257.3L23.8,272.6z"/>
	</g>
	<g id="XMLID_23_">
		<path id="XMLID_104_" d="M214.2,276.9c9.2,0,16,3.1,21.9,8.4c0.5,0.5,0.5,1.2,0.1,1.6l-1.4,1.5c-0.5,0.5-1,0.5-1.5-0.1
			c-5.1-4.6-11.6-7.4-19-7.4c-15.7,0-28.1,12.9-28.1,28.4c0,15.5,12.3,28.3,28.1,28.3c7.7,0,13.6-3.1,19-7.6
			c0.5-0.5,1.1-0.5,1.4-0.2l1.5,1.5c0.5,0.4,0.5,1.1,0,1.5c-6.1,5.9-13.9,8.7-22,8.7c-18,0-32.6-14.2-32.6-32.3
			C181.6,291.4,196.2,276.9,214.2,276.9z"/>
		<path id="XMLID_106_" d="M243.5,339.7l27.7-62.6c0.2-0.4,0.6-0.6,1.1-0.6h0.3c0.5,0,0.9,0.1,1.2,0.6l27.4,62.6
			c0.2,0.5,0.2,1.1-0.8,1.1h-2.3c-0.6,0-1.1-0.5-1.3-0.8l-7.3-16.6h-34.4l-7.2,16.6c-0.2,0.4-0.6,0.8-1.3,0.8h-2.5
			C243.5,340.8,243.3,340.5,243.5,339.7z M288,319.9l-15.4-36.3h-0.2l-15.7,36.3H288z"/>
		<path id="XMLID_109_" d="M313.1,279c0-0.6,0.5-1.2,1.2-1.2h2c0.5,0,1.1,0.5,1.1,1.2v58H346c1.1,0,1.2,0.5,1.2,1.2v1.6
			c0,0.6-0.5,1-1.2,1h-31.8c-0.6,0-1.2-0.5-1.2-1.2V279z"/>
		<path id="XMLID_111_" d="M358.9,279c0-0.6,0.5-1.2,1.2-1.2h2c0.6,0,1.2,0.5,1.2,1.2v60.7c0,0.7-0.6,1.2-1.3,1.2h-1.9
			c-0.6,0-1.2-0.5-1.2-1.2V279z"/>
		<path id="XMLID_113_" d="M384.1,279c0-0.6,0.5-1.2,1.2-1.2h36.1c0.6,0,1.2,0.5,1.2,1.2v1.5c0,0.6-0.5,1.2-1.2,1.2h-32.9v27.4H417
			c0.6,0,1.2,0.5,1.2,1.2c0,1,0.2,2.6-1.2,2.6h-28.5l-0.1,26.8c0,0.6-0.5,1.2-1.4,1.2h-1.6c-0.6,0-1.2-0.5-1.2-1.2V279z"/>
		<path id="XMLID_115_" d="M465.4,276.9c18.1,0,32.5,14.5,32.5,32.5c0,18.1-14.4,32.3-32.5,32.3c-18,0-32.4-14.2-32.4-32.3
			C433,291.4,447.4,276.9,465.4,276.9z M465.4,337.8c15.7,0,28.5-12.6,28.5-28.3c0-15.7-12.8-28.5-28.5-28.5s-28.4,12.8-28.4,28.5
			C436.9,325.2,449.6,337.8,465.4,337.8z"/>
		<path id="XMLID_118_" d="M514.3,279c0-0.6,0.4-1.2,1.2-1.2h22.3c11,0,20.1,8.3,20.1,19.3c0,9.1-6.3,16.4-14.8,18.8l13.1,23.3
			c0.5,0.7,0.3,1.6-0.6,1.6h-2.8c-0.6,0-1-0.3-1.3-0.8l-13-23.6c-1.2,0.1-2.2,0.1-3.3,0.1h-16.6v23.1c0,0.6-0.5,1.2-1.4,1.2h-1.6
			c-0.6,0-1.2-0.5-1.2-1.2V279z M537.6,312.7c8.6,0,15.9-6.8,15.9-15.7c0-8.5-7.3-15.1-16-15.1h-18.9v30.8H537.6z"/>
		<path id="XMLID_121_" d="M574.6,278.1c0-0.7,0.6-1.2,1.3-1.2h1.5l43.2,56.2c0.1,0,0.1,0,0.1,0V279c0-0.6,0.5-1.2,1.2-1.2h1.8
			c0.6,0,1.2,0.5,1.2,1.2v61.6c0,0.8-0.7,1.2-1.4,1.2h-1.2c-0.1,0-0.8-0.3-43.6-56.8h-0.1v54.7c0,0.6-0.5,1.2-1.2,1.2h-1.7
			c-0.6,0-1.2-0.5-1.2-1.2V278.1z"/>
		<path id="XMLID_123_" d="M645.7,279c0-0.6,0.5-1.2,1.2-1.2h2c0.6,0,1.2,0.5,1.2,1.2v60.7c0,0.7-0.6,1.2-1.3,1.2h-1.9
			c-0.6,0-1.2-0.5-1.2-1.2V279z"/>
		<path id="XMLID_125_" d="M661.9,339.7l27.7-62.6c0.2-0.4,0.6-0.6,1.1-0.6h0.3c0.5,0,0.9,0.1,1.2,0.6l27.4,62.6
			c0.2,0.5,0.2,1.1-0.8,1.1h-2.3c-0.6,0-1.1-0.5-1.3-0.8l-7.3-16.6h-34.4l-7.2,16.6c-0.2,0.4-0.6,0.8-1.3,0.8h-2.5
			C661.9,340.8,661.7,340.5,661.9,339.7z M706.4,319.9L691,283.7h-0.2l-15.7,36.3H706.4z"/>
	</g>
	<g id="XMLID_22_">
		<path id="XMLID_30_" d="M219,196.5c0.1-0.9,1-1.6,1.8-1.6h2l26.8,34.7h0.1l4.3-32.1c0.1-0.9,0.8-1.7,1.7-1.7h11
			c0.8,0,1.5,0.7,1.4,1.5l-8.5,60.7c-0.1,0.9-0.9,1.6-1.7,1.6h-2.3l-26.8-35.8h-0.1l-4,33.2c-0.2,0.9-0.9,1.7-1.8,1.7h-11.1
			c-0.7,0-1.4-0.7-1.4-1.5L219,196.5z"/>
		<path id="XMLID_65_" d="M312.9,194.8c13.9,0,25.1,12.6,25.1,28.2c0,20.2-14.9,36.6-33.8,36.6c-13.9,0-25.1-12.4-25.1-27.9
			C279,211.4,294.2,194.8,312.9,194.8z M323.2,224.7c0-8.5-5-15.5-12.2-15.5c-8.7,0-17.2,9.4-17.2,20.6c0,8.4,5,15.4,12.1,15.4
			C314.9,245.2,323.2,235.9,323.2,224.7z"/>
		<path id="XMLID_90_" d="M357.3,197.5c0.1-0.9,0.9-1.7,1.7-1.7h24.3c9.4,0,15.8,7.6,15.8,16.9c0,9.6-5.5,17.7-14.8,20.6l7.8,22.9
			c0.4,1.2-0.4,2.6-1.7,2.6h-11.6c-0.6,0-1.2-0.4-1.3-0.8l-7.4-23.8h-4l-3.2,22.9c-0.1,0.9-0.9,1.7-1.7,1.7h-11.2
			c-0.9,0-1.4-0.8-1.3-1.7L357.3,197.5z M377.8,222.7c4.2,0,7.3-4,7.3-8.3c0-3.1-1.6-5.8-4.9-5.8h-10.3l-2,14H377.8z"/>
		<path id="XMLID_93_" d="M422.4,209h-11c-0.9,0-1.4-0.8-1.4-1.7l1.4-9.8c0.1-0.9,0.9-1.7,1.7-1.7h36.4c0.9,0,1.4,0.8,1.3,1.7
			l-1.4,9.8c-0.1,0.9-0.8,1.7-1.7,1.7h-11.1L430,257c-0.1,0.9-1,1.7-1.8,1.7H417c-0.8,0-1.4-0.8-1.3-1.7L422.4,209z"/>
		<path id="XMLID_95_" d="M464.2,197.5c0.1-0.9,1-1.7,1.8-1.7h11c0.9,0,1.4,0.8,1.3,1.7l-3.2,22.7h21.1l3.2-22.7
			c0.1-0.9,0.9-1.7,1.8-1.7h11.1c0.8,0,1.4,0.8,1.4,1.7l-8.4,59.6c-0.1,0.9-1,1.7-1.8,1.7h-11.2c-0.9,0-1.3-0.8-1.3-1.7l3.3-23.7
			h-21l-3.3,23.7c-0.2,0.9-0.9,1.7-1.8,1.7h-11.1c-0.8,0-1.4-0.8-1.3-1.7L464.2,197.5z"/>
		<path id="XMLID_97_" d="M533,197.5c0.1-0.9,0.9-1.7,1.7-1.7h33.9c0.9,0,1.4,0.8,1.3,1.7l-1.4,9.8c-0.1,0.9-0.8,1.7-1.7,1.7h-21.4
			l-1.6,11.2h17.5c0.8,0,1.4,0.8,1.3,1.7l-1.4,9.8c-0.2,1-1,1.7-1.8,1.7H542l-1.7,12.1h21.4c0.9,0,1.3,0.8,1.3,1.7l-1.3,9.8
			c-0.1,0.9-0.9,1.7-1.8,1.7h-33.9c-0.9,0-1.4-0.8-1.3-1.7L533,197.5z"/>
		<path id="XMLID_99_" d="M586.5,197.5c0.1-0.9,0.9-1.7,1.7-1.7h24.3c9.4,0,15.8,7.6,15.8,16.9c0,9.6-5.5,17.7-14.8,20.6l7.8,22.9
			c0.5,1.2-0.4,2.6-1.7,2.6h-11.6c-0.6,0-1.2-0.4-1.3-0.8l-7.4-23.8h-4l-3.2,22.9c-0.1,0.9-0.9,1.7-1.7,1.7h-11.2
			c-0.9,0-1.4-0.8-1.3-1.7L586.5,197.5z M606.9,222.7c4.2,0,7.3-4,7.3-8.3c0-3.1-1.6-5.8-4.9-5.8H599l-2,14H606.9z"/>
		<path id="XMLID_102_" d="M647.1,196.5c0.1-0.9,1-1.6,1.8-1.6h2l26.8,34.7h0.1l4.3-32.1c0.1-0.9,0.8-1.7,1.7-1.7h11
			c0.8,0,1.5,0.7,1.4,1.5l-8.5,60.7c-0.1,0.9-0.9,1.6-1.7,1.6h-2.2L657,223.8h-0.1l-4,33.2c-0.2,0.9-0.9,1.7-1.8,1.7h-11.1
			c-0.7,0-1.4-0.7-1.4-1.5L647.1,196.5z"/>
	</g>
</g>
<g id="XMLID_421_" class="st0">
	<path id="XMLID_17_" class="st1" d="M456.5,535.7l-1.3-0.8L14.1,272.6L456.9,9.5l442.8,263.1L456.5,535.7z M23.8,272.6l432.6,257.3
		l433.4-257.3l-433-257.3L23.8,272.6z"/>
</g>
<g id="XMLID_422_">
	<path id="XMLID_146_" class="st1" d="M214.2,276.9c9.2,0,16,3.1,21.9,8.4c0.5,0.5,0.5,1.2,0.1,1.6l-1.4,1.5c-0.5,0.5-1,0.5-1.5-0.1
		c-5.1-4.6-11.6-7.4-19-7.4c-15.7,0-28.1,12.9-28.1,28.4c0,15.5,12.3,28.3,28.1,28.3c7.7,0,13.6-3.1,19-7.6c0.5-0.5,1.1-0.5,1.4-0.2
		l1.5,1.5c0.5,0.4,0.5,1.1,0,1.5c-6.1,5.9-13.9,8.7-22,8.7c-18,0-32.6-14.2-32.6-32.3C181.6,291.4,196.2,276.9,214.2,276.9z"/>
	<path id="XMLID_148_" class="st1" d="M243.5,339.7l27.7-62.6c0.2-0.4,0.6-0.6,1.1-0.6h0.3c0.5,0,0.9,0.1,1.2,0.6l27.4,62.6
		c0.2,0.5,0.2,1.1-0.8,1.1h-2.3c-0.6,0-1.1-0.5-1.3-0.8l-7.3-16.6h-34.4l-7.2,16.6c-0.2,0.4-0.6,0.8-1.3,0.8h-2.5
		C243.5,340.8,243.3,340.5,243.5,339.7z M288,319.9l-15.4-36.3h-0.2l-15.7,36.3H288z"/>
	<path id="XMLID_151_" class="st1" d="M313.1,279c0-0.6,0.5-1.2,1.2-1.2h2c0.5,0,1.1,0.5,1.1,1.2v58H346c1.1,0,1.2,0.5,1.2,1.2v1.6
		c0,0.6-0.5,1-1.2,1h-31.8c-0.6,0-1.2-0.5-1.2-1.2V279z"/>
	<path id="XMLID_153_" class="st1" d="M358.9,279c0-0.6,0.5-1.2,1.2-1.2h2c0.6,0,1.2,0.5,1.2,1.2v60.7c0,0.7-0.6,1.2-1.3,1.2h-1.9
		c-0.6,0-1.2-0.5-1.2-1.2V279z"/>
	<path id="XMLID_155_" class="st1" d="M384.1,279c0-0.6,0.5-1.2,1.2-1.2h36.1c0.6,0,1.2,0.5,1.2,1.2v1.5c0,0.6-0.5,1.2-1.2,1.2
		h-32.9v27.4H417c0.6,0,1.2,0.5,1.2,1.2c0,1,0.2,2.6-1.2,2.6h-28.5l-0.1,26.8c0,0.6-0.5,1.2-1.4,1.2h-1.6c-0.6,0-1.2-0.5-1.2-1.2
		V279z"/>
	<path id="XMLID_157_" class="st1" d="M465.4,276.9c18.1,0,32.5,14.5,32.5,32.5c0,18.1-14.4,32.3-32.5,32.3
		c-18,0-32.4-14.2-32.4-32.3C433,291.4,447.4,276.9,465.4,276.9z M465.4,337.8c15.7,0,28.5-12.6,28.5-28.3
		c0-15.7-12.8-28.5-28.5-28.5s-28.4,12.8-28.4,28.5C436.9,325.2,449.6,337.8,465.4,337.8z"/>
	<path id="XMLID_160_" class="st1" d="M514.3,279c0-0.6,0.4-1.2,1.2-1.2h22.3c11,0,20.1,8.3,20.1,19.3c0,9.1-6.3,16.4-14.8,18.8
		l13.1,23.3c0.5,0.7,0.3,1.6-0.6,1.6h-2.8c-0.6,0-1-0.3-1.3-0.8l-13-23.6c-1.2,0.1-2.2,0.1-3.3,0.1h-16.6v23.1
		c0,0.6-0.5,1.2-1.4,1.2h-1.6c-0.6,0-1.2-0.5-1.2-1.2V279z M537.6,312.7c8.6,0,15.9-6.8,15.9-15.7c0-8.5-7.3-15.1-16-15.1h-18.9
		v30.8H537.6z"/>
	<path id="XMLID_163_" class="st1" d="M574.6,278.1c0-0.7,0.6-1.2,1.3-1.2h1.5l43.2,56.2c0.1,0,0.1,0,0.1,0V279
		c0-0.6,0.5-1.2,1.2-1.2h1.8c0.6,0,1.2,0.5,1.2,1.2v61.6c0,0.8-0.7,1.2-1.4,1.2h-1.2c-0.1,0-0.8-0.3-43.6-56.8h-0.1v54.7
		c0,0.6-0.5,1.2-1.2,1.2h-1.7c-0.6,0-1.2-0.5-1.2-1.2V278.1z"/>
	<path id="XMLID_165_" class="st1" d="M645.7,279c0-0.6,0.5-1.2,1.2-1.2h2c0.6,0,1.2,0.5,1.2,1.2v60.7c0,0.7-0.6,1.2-1.3,1.2h-1.9
		c-0.6,0-1.2-0.5-1.2-1.2V279z"/>
	<path id="XMLID_167_" class="st1" d="M661.9,339.7l27.7-62.6c0.2-0.4,0.6-0.6,1.1-0.6h0.3c0.5,0,0.9,0.1,1.2,0.6l27.4,62.6
		c0.2,0.5,0.2,1.1-0.8,1.1h-2.3c-0.6,0-1.1-0.5-1.3-0.8l-7.3-16.6h-34.4l-7.2,16.6c-0.2,0.4-0.6,0.8-1.3,0.8h-2.5
		C661.9,340.8,661.7,340.5,661.9,339.7z M706.4,319.9L691,283.7h-0.2l-15.7,36.3H706.4z"/>
</g>
<g id="XMLID_424_">
	<path id="XMLID_24_" class="st1" d="M219,196.5c0.1-0.9,1-1.6,1.8-1.6h2l26.8,34.7h0.1l4.3-32.1c0.1-0.9,0.8-1.7,1.7-1.7h11
		c0.8,0,1.5,0.7,1.4,1.5l-8.5,60.7c-0.1,0.9-0.9,1.6-1.7,1.6h-2.3l-26.8-35.8h-0.1l-4,33.2c-0.2,0.9-0.9,1.7-1.8,1.7h-11.1
		c-0.7,0-1.4-0.7-1.4-1.5L219,196.5z"/>
	<path id="XMLID_129_" class="st1" d="M312.9,194.8c13.9,0,25.1,12.6,25.1,28.2c0,20.2-14.9,36.6-33.8,36.6
		c-13.9,0-25.1-12.4-25.1-27.9C279,211.4,294.2,194.8,312.9,194.8z M323.2,224.7c0-8.5-5-15.5-12.2-15.5c-8.7,0-17.2,9.4-17.2,20.6
		c0,8.4,5,15.4,12.1,15.4C314.9,245.2,323.2,235.9,323.2,224.7z"/>
	<path id="XMLID_132_" class="st1" d="M357.3,197.5c0.1-0.9,0.9-1.7,1.7-1.7h24.3c9.4,0,15.8,7.6,15.8,16.9
		c0,9.6-5.5,17.7-14.8,20.6l7.8,22.9c0.4,1.2-0.4,2.6-1.7,2.6h-11.6c-0.6,0-1.2-0.4-1.3-0.8l-7.4-23.8h-4l-3.2,22.9
		c-0.1,0.9-0.9,1.7-1.7,1.7h-11.2c-0.9,0-1.4-0.8-1.3-1.7L357.3,197.5z M377.8,222.7c4.2,0,7.3-4,7.3-8.3c0-3.1-1.6-5.8-4.9-5.8
		h-10.3l-2,14H377.8z"/>
	<path id="XMLID_135_" class="st1" d="M422.4,209h-11c-0.9,0-1.4-0.8-1.4-1.7l1.4-9.8c0.1-0.9,0.9-1.7,1.7-1.7h36.4
		c0.9,0,1.4,0.8,1.3,1.7l-1.4,9.8c-0.1,0.9-0.8,1.7-1.7,1.7h-11.1L430,257c-0.1,0.9-1,1.7-1.8,1.7H417c-0.8,0-1.4-0.8-1.3-1.7
		L422.4,209z"/>
	<path id="XMLID_137_" class="st1" d="M464.2,197.5c0.1-0.9,1-1.7,1.8-1.7h11c0.9,0,1.4,0.8,1.3,1.7l-3.2,22.7h21.1l3.2-22.7
		c0.1-0.9,0.9-1.7,1.8-1.7h11.1c0.8,0,1.4,0.8,1.4,1.7l-8.4,59.6c-0.1,0.9-1,1.7-1.8,1.7h-11.2c-0.9,0-1.3-0.8-1.3-1.7l3.3-23.7h-21
		l-3.3,23.7c-0.2,0.9-0.9,1.7-1.8,1.7h-11.1c-0.8,0-1.4-0.8-1.3-1.7L464.2,197.5z"/>
	<path id="XMLID_139_" class="st1" d="M533,197.5c0.1-0.9,0.9-1.7,1.7-1.7h33.9c0.9,0,1.4,0.8,1.3,1.7l-1.4,9.8
		c-0.1,0.9-0.8,1.7-1.7,1.7h-21.4l-1.6,11.2h17.5c0.8,0,1.4,0.8,1.3,1.7l-1.4,9.8c-0.2,1-1,1.7-1.8,1.7H542l-1.7,12.1h21.4
		c0.9,0,1.3,0.8,1.3,1.7l-1.3,9.8c-0.1,0.9-0.9,1.7-1.8,1.7h-33.9c-0.9,0-1.4-0.8-1.3-1.7L533,197.5z"/>
	<path id="XMLID_141_" class="st1" d="M586.5,197.5c0.1-0.9,0.9-1.7,1.7-1.7h24.3c9.4,0,15.8,7.6,15.8,16.9
		c0,9.6-5.5,17.7-14.8,20.6l7.8,22.9c0.5,1.2-0.4,2.6-1.7,2.6h-11.6c-0.6,0-1.2-0.4-1.3-0.8l-7.4-23.8h-4l-3.2,22.9
		c-0.1,0.9-0.9,1.7-1.7,1.7h-11.2c-0.9,0-1.4-0.8-1.3-1.7L586.5,197.5z M606.9,222.7c4.2,0,7.3-4,7.3-8.3c0-3.1-1.6-5.8-4.9-5.8H599
		l-2,14H606.9z"/>
	<path id="XMLID_144_" class="st1" d="M647.1,196.5c0.1-0.9,1-1.6,1.8-1.6h2l26.8,34.7h0.1l4.3-32.1c0.1-0.9,0.8-1.7,1.7-1.7h11
		c0.8,0,1.5,0.7,1.4,1.5l-8.5,60.7c-0.1,0.9-0.9,1.6-1.7,1.6h-2.2L657,223.8h-0.1l-4,33.2c-0.2,0.9-0.9,1.7-1.8,1.7h-11.1
		c-0.7,0-1.4-0.7-1.4-1.5L647.1,196.5z"/>
</g>
</svg>
