<?xml version="1.0" encoding="utf-8"?>
<!-- Generator: Adobe Illustrator 19.0.0, SVG Export Plug-In . SVG Version: 6.00 Build 0)  -->
<svg version="1.1" id="Layer_1" xmlns="http://www.w3.org/2000/svg" xmlns:xlink="http://www.w3.org/1999/xlink" x="0px" y="0px"
	 viewBox="0 0 38.2 22.8" style="enable-background:new 0 0 38.2 22.8;" xml:space="preserve">
<style type="text/css">
	.st0{fill:#EB0478;}
	.st1{fill:#FFFFFF;}
	.st2{fill:none;stroke:#FFFFFF;stroke-width:0.25;stroke-miterlimit:10;}
</style>
<polygon id="XMLID_71_" class="st0" points="38.2,11.5 19.1,22.8 0,11.4 19.1,0 "/>
<g id="XMLID_56_">
	<path id="XMLID_4_" class="st1" d="M16.2,7.2c0-0.1,0.1-0.2,0.3-0.2h0.3l3.9,5.1h0l0.6-4.7c0-0.1,0.1-0.2,0.2-0.2h1.6
		c0.1,0,0.2,0.1,0.2,0.2l-1.2,8.9c0,0.1-0.1,0.2-0.2,0.2h-0.3l-3.9-5.2h0L17.1,16c0,0.1-0.1,0.2-0.3,0.2h-1.6
		c-0.1,0-0.2-0.1-0.2-0.2L16.2,7.2z"/>
</g>
<line id="XMLID_3_" class="st2" x1="5.6" y1="11.4" x2="13.6" y2="11.4"/>
<line id="XMLID_2_" class="st2" x1="24.6" y1="11.4" x2="32.6" y2="11.4"/>
</svg>
