<?xml version="1.0" encoding="utf-8"?>
<!-- Generator: Adobe Illustrator 19.0.0, SVG Export Plug-In . SVG Version: 6.00 Build 0)  -->
<svg version="1.1" id="Layer_1" xmlns="http://www.w3.org/2000/svg" xmlns:xlink="http://www.w3.org/1999/xlink" x="0px" y="0px"
	 viewBox="-2.9 187.1 886.9 526.9" style="enable-background:new -2.9 187.1 886.9 526.9;" xml:space="preserve">
<style type="text/css">
	.st0{fill:#FFFFFF;}
	.st1{fill:#FFD100;}
	.st2{display:none;fill:#FF2727;}
	.st3{display:none;}
	.st4{display:inline;fill:#EE258A;}
</style>
<g>
	<g id="XMLID_21_">
		<path id="XMLID_108_" class="st0" d="M133.6,467l5.9-8.9c0.9-1.5,2.7-1.3,3.5-0.6c1.5,1.1,6.8,4.8,12.7,4.8c4.1,0,7.2-3.1,7.1-6.7
			c-0.1-4-2.5-6.9-7.3-10c-6.9-4.6-16.4-11.6-16.4-23.1c0-11.9,8.2-23.3,26.1-23.3c10.4,0,17.9,5.6,21,8c1.1,0.8,1.6,2.7,0.6,3.8
			l-6.9,8.4c-0.8,1.1-2.7,1.3-3.5,0.5c-0.8-0.7-6.5-4.9-12.3-4.9c-3.8,0-7.1,2.3-7.1,5.6c0,3.9,2.4,5.9,9.1,9.9
			c5.5,3.3,16.3,10.3,16.3,23.3c0,12.6-8.8,24.6-27.5,24.6c-11.7,0-19.2-5.8-21.3-8.4C132.6,469,132.9,468,133.6,467z"/>
		<path id="XMLID_110_" class="st0" d="M208.8,416.6h-13.5c-1.1,0-1.8-1-1.7-2.1l1.8-12c0.1-1.1,1.1-2.1,2.1-2.1H242
			c1.1,0,1.8,0.9,1.7,2.1l-1.8,12c-0.1,1.1-1,2.1-2.1,2.1h-13.6l-8.2,58.8c-0.1,1.1-1.3,2.1-2.2,2.1h-13.7c-0.9,0-1.8-0.9-1.7-2.1
			L208.8,416.6z"/>
		<path id="XMLID_112_" class="st0" d="M233.2,474.6l41.7-74.1c0.4-0.6,1-1.3,1.9-1.3h0.9c0.7,0,1.4,0.5,1.6,1.3l20.7,74.1
			c0.4,1.5-0.5,2.8-2.1,2.8h-12.4c-2,0-3.1-0.5-3.5-2.7L280,466h-24.3l-4.3,8.8c-0.6,1.5-2.1,2.6-4.4,2.6h-12.5
			C233,477.4,232.4,476,233.2,474.6z M275.9,451l-3.4-18.4h-0.1l-8.8,18.4H275.9z"/>
		<path id="XMLID_115_" class="st0" d="M322.4,416.6h-13.5c-1.1,0-1.8-1-1.7-2.1l1.8-12c0.1-1.1,1.1-2.1,2.1-2.1h44.4
			c1.1,0,1.8,0.9,1.7,2.1l-1.8,12c-0.1,1.1-1,2.1-2.1,2.1h-13.6l-8.2,58.8c-0.1,1.1-1.3,2.1-2.2,2.1h-13.7c-0.9,0-1.8-0.9-1.7-2.1
			L322.4,416.6z"/>
		<path id="XMLID_117_" class="st0" d="M368,402.5c0.1-1.1,1.1-2.1,2.1-2.1h41.5c1.1,0,1.8,0.9,1.7,2.1l-1.8,12
			c-0.1,1.1-1,2.1-2.1,2.1h-26.2l-2,13.7h21.4c0.9,0,1.8,0.9,1.7,2.1l-1.8,12c-0.2,1.3-1.3,2.1-2.2,2.1H379l-2.1,14.8H403
			c1.1,0,1.7,0.9,1.6,2.1l-1.7,12c-0.1,1.1-1.1,2.1-2.2,2.1h-41.5c-1.1,0-1.8-0.9-1.6-2.1L368,402.5z"/>
	</g>
	<g id="XMLID_23_">
		<path id="XMLID_98_" class="st0" d="M504.8,402.5c0.1-1.1,1.1-2.1,2.2-2.1h24.3c11.1,0,19.1,10.1,19.1,21.8
			c0,14.6-11.6,27.3-25.9,27.3h-9.1l-3.7,25.9c-0.1,1.1-1.3,2.1-2.2,2.1h-13.5c-1.1,0-1.7-0.9-1.6-2.1L504.8,402.5z M525.7,433.4
			c3.9,0,7.6-4.4,7.6-10c0-3.9-2.2-6.8-5.2-6.8h-8l-2.3,16.8H525.7z"/>
		<path id="XMLID_101_" class="st0" d="M564.8,402.5c0.1-1.1,1.1-2.1,2.2-2.1h13.7c1,0,1.7,0.9,1.6,2.1l-8.2,58.8h22.4
			c1.1,0,1.7,0.9,1.6,2.1l-1.7,12c-0.1,1.1-1.1,2.1-2.2,2.1h-37.9c-1.1,0-1.8-0.9-1.7-2.1L564.8,402.5z"/>
		<path id="XMLID_103_" class="st0" d="M600.8,474.6l41.7-74.1c0.4-0.6,1-1.3,1.9-1.3h1c0.7,0,1.4,0.5,1.6,1.3l20.7,74.1
			c0.4,1.5-0.5,2.8-2.1,2.8h-12.4c-2,0-3.1-0.5-3.5-2.7l-1.9-8.7h-24.3l-4.3,8.8c-0.6,1.5-2.1,2.6-4.4,2.6h-12.5
			C600.6,477.4,600,476,600.8,474.6z M643.5,451l-3.4-18.4h-0.1l-8.8,18.4H643.5z"/>
		<path id="XMLID_106_" class="st0" d="M688.7,440.4l-16.3-36.8c-0.5-1.5,0.4-3.2,2-3.2h13.9c0.8,0,1.4,0.4,1.6,0.9l9.2,22.5
			l15.5-22.5c0.3-0.4,0.7-0.9,1.8-0.9h15.5c1.7,0,2.2,1.8,1.3,3.2l-27,36.6l-4.8,35.2c-0.1,1.1-1.3,2.1-2.2,2.1h-13.7
			c-1.1,0-1.7-0.9-1.6-2.1L688.7,440.4z"/>
	</g>
	<g id="XMLID_22_">
		<path id="XMLID_30_" class="st0" d="M442.8,423c6.7,0,11.7,6.3,11.7,13.8c0,10-7.4,18.1-16.2,18.1c-6.7,0-11.7-6.2-11.7-13.8
			C426.5,431.3,433.8,423,442.8,423z M438.6,451.8c6.5,0,12.3-6.7,12.3-14.8c0-6-3.5-10.8-8.7-10.8c-6.6,0-12.4,6.7-12.4,14.7
			C429.8,446.9,433.4,451.8,438.6,451.8z"/>
		<path id="XMLID_92_" class="st0" d="M467,426.7h-4.1c-0.7,0-0.9-0.5-0.8-0.9l0.1-0.9c0.1-0.5,0.6-0.9,1-0.9h4.1l1.6-10.8
			c1.3-8.7,5.8-12.8,12.2-12.8c3.4,0,6.2,1.9,7.2,3.2c0.3,0.4,0.2,0.9-0.1,1.3l-0.9,0.9c-0.4,0.4-0.8,0.4-1.3,0
			c-0.8-0.8-2.9-2.4-4.9-2.4c-4.6,0-7.9,3.1-8.9,10.1l-1.5,10.4h9.7c0.6,0,0.9,0.4,0.8,0.9l-0.1,1.1c-0.1,0.5-0.4,0.9-1,0.9h-9.7
			l-7,49.3c-0.1,0.5-0.6,0.9-1.1,0.9h-1.4c-0.5,0-0.9-0.4-0.8-0.9L467,426.7z"/>
	</g>
</g>
<g id="VCA_white_gold">
	<path id="XMLID_429_" class="st0" d="M507.6,556.5c0-1.1,0-3-0.2-3.9c-0.3-1.1-0.9-1.9-1.8-2.6c-1.6-1.2-3.6-1.8-6-1.8
		c-1.6,0-3.5,0.3-5.1,0.7c-0.8,0.2-1.5,0.5-2,0.8c-0.3,0.2-0.6,0.4-0.8,0.6c-0.3,0.4-0.5,0.8-0.5,1.2c0,0.5,0.2,0.9,0.4,1.3
		c0.4,0.5,0.9,0.7,1.5,0.7s1.1-0.2,1.8-0.4h0.1c1.1-0.3,2.4-0.8,4.5-0.8c0.9,0,1.7,0.1,2.3,0.3c0.5,0.2,0.8,0.4,1.1,0.6
		c0.3,0.3,0.4,0.5,0.5,0.7c0.1,0.2,0.1,1.1,0.1,1.9c-1.3-0.7-3.1-1.4-5.5-1.4s-4.6,0.7-6.2,2c-1.7,1.3-2.6,3.2-2.6,5.3
		c0,0.7,0.1,1.3,0.3,1.9l0.1,0.3h0.6c0.6,0,1.1,0.1,1.7,0.1h0.2c0.7,0,1.4,0.1,2.1,0.1h0.4l-0.8-1.1c-0.3-0.4-0.4-0.8-0.4-1.2
		c0-1,0.7-1.7,1.2-2.1c0.9-0.7,2.1-1,3.4-1c2.2,0,3.8,0.8,5.4,1.8l0.1,0.1v3.8h0.3c0.6,0,1.2,0,1.8,0c0.1,0,0.2,0,0.3,0
		c0.5,0,0.9,0,1.4,0h0.4v-2L507.6,556.5L507.6,556.5z"/>
	<g id="XMLID_87_">
		<path id="XMLID_428_" class="st0" d="M373.3,559.3c-0.8,0-1.3,0.5-1.9,1.1c-1,1-2.7,2.8-6,2.8c-4.4,0-7.8-3.6-7.8-8.2
			s3.6-8.3,8-8.3c2.7,0,4.2,1.3,5.2,2.2c0.6,0.5,1.2,1,1.9,1c0.9,0,1.9-0.5,1.9-2c0-1.7-4.2-5.3-9.1-5.3c-5.8,0-12.1,4.7-12.1,12.4
			c0,3.4,1.3,6.5,3.5,8.7c2.5,1.1,12.2,1.7,14.8,1.7c2.1-1.3,3.4-3,3.4-4.1C375.2,560,374.3,559.3,373.3,559.3z"/>
		<path id="XMLID_427_" class="st0" d="M486.3,548.5c-0.3-0.3-0.8-0.5-1.3-0.5s-0.9,0.2-1.3,0.4c-0.4,0.3-0.6,0.8-0.7,1.3
			c-0.1,0.3-0.1,0.7-0.1,0.9v13.6h0.9c0.1,0,0.2,0,0.3,0h0.5c0.4,0,0.7,0,1.1,0l0.3,0.3h1v-13.8c0-0.3,0-0.7-0.2-1.2
			C486.8,549,486.6,548.8,486.3,548.5z"/>
		<path id="XMLID_426_" class="st0" d="M485.2,541.8c-0.6,0-1.2,0.2-1.6,0.7c-0.4,0.4-0.7,1-0.7,1.6c0,0.6,0.2,1.2,0.7,1.6
			c0.4,0.4,1,0.7,1.6,0.7l0,0c0.6,0,1.2-0.2,1.6-0.7c0.4-0.4,0.7-1,0.7-1.6c0-0.6-0.2-1.2-0.7-1.6
			C486.4,542,485.8,541.8,485.2,541.8z"/>
		<path id="XMLID_425_" class="st0" d="M478.5,551.2L478.5,551.2c-0.5-0.6-1.2-1.3-2.3-1.8c-1.1-0.5-2.4-0.8-3.9-0.8
			c-2.8,0-5.2,0.9-6.8,1.7c-0.1-0.2-0.2-0.3-0.3-0.5c-0.2-0.3-0.5-0.5-0.7-0.7c-0.3-0.2-0.7-0.3-1.1-0.3c-0.5,0-0.9,0.2-1.3,0.5
			c-0.4,0.4-0.7,0.9-0.7,1.5c0,0.3,0.1,0.6,0.2,0.8c0,0.1,0.1,0.3,0.2,0.4l0.3,0.8c0.2,0.7,0.2,1.7,0.2,3.2v5h0.5c0.1,0,0.3,0,0.4,0
			h0.3c0.3,0,0.7,0,1,0h0.7c0.1,0,0.2,0,0.3,0h0.9V555c1-0.7,1.7-1.1,2.5-1.4c1-0.4,2.1-0.6,3.4-0.6c0.7,0,1.3,0.1,1.8,0.3
			c0.5,0.2,0.8,0.4,1.2,0.8c0.3,0.3,0.4,0.7,0.5,1.2c0.1,0.6,0.1,1.3,0.1,2v4h1.2c0.6,0,1.2,0,1.7,0.1l1.2,0.1v-4.1
			c0-1.4,0-2.3-0.2-3.3C479.6,553,479.2,552.2,478.5,551.2z"/>
		<path id="XMLID_424_" class="st0" d="M459,550.3l-0.1-0.2l-0.2-0.2c-1.7-1.3-3.7-1.5-4.5-1.5c-1.8,0-3.5,0.7-5.3,2
			c-0.1-0.2-0.2-0.3-0.3-0.4c-0.3-0.4-0.5-0.7-0.8-0.9c-0.4-0.3-0.9-0.5-1.4-0.5c-0.6,0-1.2,0.3-1.6,0.7c-0.3,0.4-0.5,0.9-0.5,1.4
			c0,0.4,0.1,0.8,0.3,1.2c0.1,0.3,0.3,0.5,0.4,0.7c0.2,0.3,0.4,0.6,0.6,1c0.2,0.5,0.3,1.2,0.3,2.1v6l1.2-0.1c0.6,0,1.1-0.1,1.7-0.1
			h0.3c0.1,0,0.3,0,0.4,0h0.5v-6.1c0.6-0.7,1.1-1.3,1.7-1.7c0.8-0.6,1.6-0.8,2.4-0.8c0.1,0,0.5,0,1,0.1c0.3,0.1,0.8,0.2,1.2,0.6
			l0.3,0.2h0.4c0,0,0.1,0,0.2,0c0.3,0,0.6,0,0.8-0.1c0.3-0.1,0.8-0.4,1.1-0.9c0.2-0.3,0.3-0.7,0.3-1.1c0-0.3-0.1-0.7-0.2-1
			C459.1,550.5,459,550.5,459,550.3z"/>
		<path id="XMLID_423_" class="st0" d="M440.3,551.3c-2-1.8-4.8-2.8-7.9-2.8c-3,0-5.8,1-7.9,2.8c-2.1,1.9-3.2,4.4-3.2,7.3
			c0,1.7,0.4,3.2,1.2,4.7l0.1,0.1l1-0.1c0.6-0.1,1.3-0.1,1.9-0.2l2.1-0.2l-0.8-1c-0.8-1-1.2-2.1-1.2-3.4c0-1.6,0.6-3,1.9-4.1
			c1.3-1.1,3.1-1.7,5.1-1.7s3.8,0.6,5.1,1.7c1.2,1.1,1.9,2.5,1.9,4.1c0,0.9-0.2,1.7-0.6,2.4l-0.5,1.1l4.8-0.4l0.1-0.2
			c0.3-0.9,0.4-1.9,0.4-2.9C443.5,555.8,442.4,553.2,440.3,551.3z"/>
		<path id="XMLID_422_" class="st0" d="M422.3,547c0.3-0.2,0.5-0.4,0.7-0.7c0.2-0.3,0.3-0.7,0.3-1c0-0.5-0.2-0.9-0.4-1.3
			c-0.3-0.4-0.8-0.7-1.5-0.9c-0.5-0.1-1.1-0.2-1.9-0.2c-1.3,0-2.5,0.3-3.6,0.8c-0.8,0.4-1.6,0.9-2,1.5l-0.2,0.3v0.1l0,0
			c-0.5,0.6-0.8,1.3-0.9,2c-0.2,0.9-0.3,2-0.3,3.4v13h0.9c0.1,0,0.2,0,0.3,0c0.4,0,0.8,0,1.1-0.1l1.7-0.1v-7.4h1.7
			c0.6,0,1.1-0.2,1.5-0.6c0.4-0.4,0.7-0.9,0.6-1.5c0-0.3,0-0.5-0.1-0.8c-0.2-0.4-0.5-0.8-0.9-1c-0.3-0.2-0.7-0.3-1.1-0.3h-1.7v-1.3
			c0-1.1,0-1.8,0.1-2.3s0.3-0.7,0.5-0.9c0.3-0.3,1.2-0.8,2.5-0.8c0.5,0,0.7,0,0.8,0.1l0.9,0.2h0.2C421.7,547.2,422,547.2,422.3,547z
			"/>
		<path id="XMLID_421_" class="st0" d="M407.1,541.8c-0.6,0-1.2,0.2-1.6,0.7c-0.4,0.4-0.7,1-0.7,1.6c0,0.6,0.2,1.2,0.7,1.6
			c0.4,0.4,1,0.7,1.6,0.7l0,0c0.6,0,1.2-0.2,1.6-0.7c0.4-0.4,0.7-1,0.7-1.6c0-0.6-0.2-1.2-0.7-1.6
			C408.3,542,407.8,541.8,407.1,541.8z"/>
		<path id="XMLID_420_" class="st0" d="M408.4,548.5c-0.3-0.3-0.8-0.5-1.3-0.5s-0.9,0.2-1.3,0.4c-0.4,0.3-0.6,0.8-0.7,1.3
			c-0.1,0.3-0.1,0.7-0.1,0.9v14.3h0.9c0.1,0,0.2,0,0.3,0h0.5c0.4,0,0.8,0,1.2,0l1.2-0.1v-14.2c0-0.3,0-0.7-0.2-1.2
			C408.9,549,408.7,548.8,408.4,548.5z"/>
		<path id="XMLID_419_" class="st0" d="M402,540.7c0-0.3,0-0.8-0.1-1.3c-0.1-0.4-0.3-0.7-0.5-1c-0.3-0.4-0.8-0.6-1.4-0.6
			c-0.5,0-1,0.2-1.3,0.5c-0.4,0.4-0.6,1-0.6,1.4c-0.1,0.4-0.1,0.7-0.1,1v10.9v12.3v13.9c0,0.3,0,0.8,0.2,1.3c0.1,0.4,0.3,0.7,0.5,1
			c0.3,0.4,0.8,0.6,1.4,0.6c0.5,0,1-0.2,1.3-0.5c0.4-0.4,0.6-1,0.6-1.4c0.1-0.4,0.1-0.7,0.1-0.9v-25.7v-0.2L402,540.7z"/>
		<path id="XMLID_88_" class="st0" d="M395.3,556.5c0-1.1,0-3-0.2-3.9c-0.3-1.1-0.9-1.9-1.8-2.6c-1.6-1.2-3.6-1.8-6-1.8
			c-1.6,0-3.5,0.3-5.1,0.7c-0.8,0.2-1.5,0.5-2,0.8c-0.3,0.2-0.6,0.4-0.8,0.6c-0.3,0.4-0.5,0.8-0.5,1.2c0,0.5,0.2,0.9,0.4,1.3
			c0.4,0.5,0.9,0.7,1.5,0.7s1.1-0.2,1.8-0.4h0.2c1.1-0.3,2.4-0.8,4.5-0.8c0.9,0,1.7,0.1,2.3,0.3c0.5,0.2,0.8,0.4,1.1,0.6
			c0.3,0.3,0.4,0.5,0.5,0.7c0.1,0.2,0.1,1.1,0.1,1.9c-1.3-0.7-3.1-1.4-5.5-1.4s-4.6,0.7-6.2,2c-1.7,1.3-2.6,3.2-2.6,5.3
			c0,0.7,0.1,1.3,0.3,1.9l0.1,0.3h0.6c0.6,0,1.1,0.1,1.7,0.1h0.2c0.7,0,1.4,0.1,2.1,0.1h0.4l-0.8-1.1c-0.3-0.4-0.4-0.8-0.4-1.2
			c0-1,0.7-1.7,1.2-2.1c0.9-0.7,2.1-1,3.4-1c2.2,0,3.8,0.8,5.4,1.8l0.1,0.1v3.8h0.3c0.6,0,1.2,0,1.8,0c0.1,0,0.2,0,0.3,0
			c0.5,0,0.9,0,1.4,0h0.4v-2v-5.9H395.3z"/>
	</g>
	<path id="XMLID_86_" class="st1" d="M512.1,565L512.1,565c-0.3-0.3-0.6-0.5-1-0.6c-0.3-0.1-0.5-0.1-0.6-0.1s-2.1-0.3-5.6-0.8
		c-0.2,0-0.4-0.1-0.7-0.1h-0.3c-0.5-0.1-1.1-0.1-1.7-0.2h-0.4c-0.2,0-0.5-0.1-0.8-0.1c-3.4-0.4-6.9-0.7-10.5-1c-0.2,0-0.4,0-0.7-0.1
		h-0.4c-0.5,0-1.1-0.1-1.6-0.1c-0.1,0-0.2,0-0.3,0c-0.2,0-0.5,0-0.8-0.1c-0.7-0.1-1.5-0.1-2.3-0.1c-0.2,0-0.5,0-0.7,0l-2.4-0.1
		c-0.2,0-0.5,0-0.7,0c-1.2-0.1-2.3-0.1-3.5-0.2c-0.2,0-0.5,0-0.7,0h-0.1c-0.1,0-0.2,0-0.2,0c-0.6,0-1.1,0-1.7-0.1h-0.3
		c-0.2,0-0.5,0-0.7,0c-3.4-0.1-6.7-0.2-10-0.2h-0.1h-0.6c-0.1,0-0.2,0-0.3,0h-0.7c-0.3,0-0.7,0-1,0h-0.3c-0.2,0-0.5,0-0.7,0
		c-3.9,0-7.9,0.2-11.9,0.4c-0.2,0-0.5,0-0.7,0h-0.3c-0.6,0-1.2,0.1-1.7,0.1h-0.3c-0.2,0-0.5,0-0.7,0c-0.8,0.1-1.7,0.1-2.5,0.2
		c-0.4,0-0.7,0-1.1,0.1h-0.1c-0.1,0-0.3,0-0.4,0l-2.2,0.2c-0.2,0-0.4,0-0.6,0c-2.6,0.2-5.2,0.4-7.6,0.6h-0.1
		c-1.2,0.1-2.4,0.2-3.6,0.3c-0.5,0-1,0.1-1.6,0.1h-0.2c-0.6,0.1-1.3,0.1-1.9,0.1l-0.7,0.1c-0.1,0-0.1,0-0.2,0
		c-1.6,0.1-3,0.2-4.4,0.3c-0.3,0-0.5,0-0.8,0h-0.8c-0.4,0-0.8,0-1.1,0.1c-0.1,0-0.2,0-0.3,0c-0.2,0-0.5,0-0.7,0
		c-1.3,0.1-2.6,0.1-3.8,0.2c-0.2,0-0.5,0-0.7,0h-0.3c-0.4,0-0.8,0-1.2,0h-0.5c-0.1,0-0.2,0-0.3,0c-0.2,0-0.5,0-0.7,0
		c-1.4,0-2.6,0.1-3.8,0.1c-0.2,0-0.5,0-0.7,0h-0.3c-0.4,0-0.8,0-1.2,0h-0.4c-0.1,0-0.2,0-0.3,0c-0.2,0-0.5,0-0.7,0
		c-0.9,0-1.8,0-2.7,0c-0.1,0-0.2,0-0.3,0c-0.5,0-0.9,0-1.4,0c-0.1,0-0.2,0-0.3,0c-0.6,0-1.2,0-1.8,0h-0.1h-0.2
		c-3.1,0-6.2-0.1-9.3-0.2c-0.7,0-1.4-0.1-2.1-0.1h-0.2c-0.7,0-1.3-0.1-2-0.1h-0.2h-0.3c-0.8,0-1.6-0.1-2.3-0.1c-0.2,0-0.4,0-0.6,0
		h-0.2c-0.1,0-0.3,0-0.4,0h-0.4c-0.6,0-1.2-0.1-1.8-0.1c-0.1,0-0.1,0-0.1,0c-0.5,0-1-0.1-1.4-0.1c-2.9-0.2-5.8-0.5-8.5-0.8
		c-0.4,0-0.7-0.1-1.1-0.1h-0.2c-0.7-0.1-1.4-0.2-2.1-0.2l-0.5-0.1c-0.2,0-0.5-0.1-0.7-0.1c-1.9-0.2-3.3-0.4-4.3-0.5
		c-0.7-0.1-1.2-0.2-1.6-0.2l-0.5-0.1c-0.1,0-0.3-0.1-0.6-0.1c-0.4,0-0.7,0.1-0.9,0.3c-0.2,0.1-0.3,0.2-0.4,0.4
		c-0.1,0.2-0.2,0.5-0.2,0.7v0.1c0,0.4,0.1,0.7,0.4,1c0.3,0.3,0.7,0.5,1,0.6c0.1,0,0.3,0.1,0.4,0.1h0.1h0.1c0.5,0.1,1.6,0.3,3.3,0.5
		c7.1,1,22,2.6,41.6,2.6c6,0,11.9-0.2,18-0.5c0.2,0,0.5,0,0.7,0h0.8c0.4,0,0.8,0,1.2-0.1h0.3c0.2,0,0.5,0,0.7,0
		c4.4-0.3,8.6-0.6,12.6-1h0.2c9.9-0.8,20.2-1.7,33.7-1.7c26,0,45.8,3.2,46.9,3.3c0,0,0.1,0,0.2,0c0.1,0,0.2,0,0.4,0l0,0
		c0.3,0,0.6-0.1,0.9-0.2c0.4-0.2,0.6-0.6,0.7-1.1c0-0.1,0-0.2,0-0.3C512.3,565.5,512.2,565.2,512.1,565z"/>
	<g id="XMLID_63_">
		<path id="XMLID_83_" class="st0" d="M423.5,571.2c-0.9,0-1.6,0.7-1.6,1.6v4c-0.7-0.9-1.8-1.6-3.4-1.6c-2.6,0-5,2-5,5.7l0,0
			c0,3.7,2.4,5.7,5,5.7c1.6,0,2.7-0.8,3.4-1.8v0.1c0,0.9,0.7,1.6,1.6,1.6s1.6-0.7,1.6-1.6v-12.1
			C425.1,571.8,424.4,571.2,423.5,571.2z M422,580.8c0,1.8-1.2,3-2.7,3s-2.7-1.2-2.7-3l0,0c0-1.8,1.2-3,2.7-3S422,579,422,580.8
			L422,580.8z"/>
		<path id="XMLID_82_" class="st0" d="M433.1,575.2c-0.9,0-1.7,1-2.1,2v-0.4c0-0.9-0.7-1.6-1.6-1.6s-1.6,0.7-1.6,1.6v8.1
			c0,0.9,0.7,1.6,1.6,1.6s1.6-0.7,1.6-1.6V582c0-2.2,0.9-3.4,2.5-3.8c0.6-0.1,1.2-0.6,1.2-1.5C434.6,575.8,434,575.2,433.1,575.2z"
			/>
		<path id="XMLID_79_" class="st0" d="M441,575c-3.2,0-5.4,2.6-5.4,5.7l0,0c0,3.4,2.4,5.7,5.7,5.7c1.6,0,2.8-0.5,3.8-1.3
			c0.2-0.2,0.4-0.5,0.4-0.9c0-0.7-0.5-1.2-1.2-1.2c-0.3,0-0.5,0.1-0.8,0.2c-0.6,0.5-1.4,0.7-2.2,0.7c-1.4,0-2.4-0.7-2.7-2.2h6.2
			c0.8,0,1.5-0.6,1.5-1.5C446.3,578,444.7,575,441,575z M438.6,580c0.2-1.4,1.1-2.3,2.4-2.3s2.1,0.9,2.3,2.3H438.6z"/>
		<path id="XMLID_76_" class="st0" d="M453.2,575.2c-1.5,0-2.5,0.2-3.5,0.6c-0.5,0.2-0.8,0.7-0.8,1.2c0,0.7,0.6,1.3,1.3,1.3
			c0.1,0,0.3,0,0.5-0.1c0.6-0.2,1.3-0.3,2.2-0.3c1.6,0,2.4,0.7,2.4,2v0.2c-0.8-0.3-1.6-0.5-2.7-0.5c-2.6,0-4.4,1.1-4.4,3.5l0,0
			c0,2.2,1.7,3.4,3.8,3.4c1.5,0,2.6-0.6,3.3-1.4l0,0c0,0.7,0.6,1.3,1.5,1.3c0.8,0,1.5-0.7,1.5-1.5v-5c0-1.5-0.4-2.7-1.2-3.5
			C456.1,575.7,454.9,575.2,453.2,575.2z M455.2,582.3c0,1.1-1,1.9-2.4,1.9c-1,0-1.7-0.5-1.7-1.3l0,0c0-1,0.8-1.5,2.2-1.5
			c0.8,0,1.5,0.2,2,0.4v0.5H455.2z"/>
		<path id="XMLID_73_" class="st0" d="M474.2,588.5c-1.6,0-2.7,0.8-3.4,1.8v-10.2c0-1.5,0.7-2.2,1.9-2.2c1.2,0,1.8,0.8,1.8,2.2v4.7
			c0,0.9,0.7,1.6,1.6,1.6s1.6-0.7,1.6-1.6v-5.7c0-2.6-1.4-4-3.7-4c-1.5,0-2.6,0.6-3.6,1.7c-0.6-1.1-1.7-1.7-3.1-1.7
			c-1.6,0-2.5,0.8-3.2,1.8v-0.2c0-0.9-0.7-1.6-1.6-1.6s-1.6,0.7-1.6,1.6v8.1c0,0.9,0.7,1.6,1.6,1.6s1.6-0.7,1.6-1.6v-4.7
			c0-1.5,0.7-2.2,1.9-2.2c1.2,0,1.8,0.8,1.8,2.2v18.2c0,0.9,0.7,1.6,1.6,1.6s1.6-0.7,1.6-1.5l0,0c0.7,0.9,1.8,1.6,3.4,1.6
			c2.6,0,5-2,5-5.7l0,0C479.2,590.5,476.7,588.5,474.2,588.5z M476,594.2c0,1.8-1.2,3-2.7,3s-2.7-1.2-2.7-3l0,0c0-1.8,1.2-3,2.7-3
			C474.8,591.2,476,592.3,476,594.2L476,594.2z"/>
		<path id="XMLID_72_" class="st0" d="M483.2,588.7c-0.9,0-1.6,0.7-1.6,1.6v8.1c0,0.9,0.7,1.6,1.6,1.6s1.6-0.7,1.6-1.6v-8.1
			C484.7,589.3,484,588.7,483.2,588.7z"/>
		<path id="XMLID_71_" class="st0" d="M483.2,584.7c-1,0-1.7,0.6-1.7,1.5l0,0c0,0.9,0.8,1.5,1.7,1.5c1,0,1.7-0.6,1.7-1.5l0,0
			C484.9,585.2,484.1,584.7,483.2,584.7z"/>
		<path id="XMLID_64_" class="st0" d="M497.1,588.7c-0.9,0-1.6,0.7-1.6,1.5l0,0c-0.8-0.9-1.8-1.6-3.5-1.6c-2.5,0-4.9,1.8-4.9,5.1
			l0,0c0,3.3,2.3,5.1,4.9,5.1c1.7,0,2.7-0.7,3.6-1.8v0.5c0,2-1,3-3.1,3c-1.2,0-2.1-0.2-3-0.7c-0.1-0.1-0.3-0.1-0.5-0.1
			c-0.7,0-1.3,0.6-1.3,1.3c0,0.6,0.3,1,0.9,1.2c1.3,0.5,2.6,0.8,4,0.8c2.1,0,3.7-0.5,4.7-1.5c0.9-0.9,1.4-2.4,1.4-4.3V590
			C498.7,589.3,498,588.7,497.1,588.7z M495.6,593.7c0,1.5-1.2,2.5-2.7,2.5s-2.7-1-2.7-2.5l0,0c0-1.5,1.1-2.5,2.7-2.5
			C494.4,591.2,495.6,592.2,495.6,593.7L495.6,593.7z"/>
	</g>
	<g id="XMLID_55_">
		<path id="XMLID_57_" class="st0" d="M507.4,545.7h-0.7c-0.1,0-0.2-0.1-0.2-0.3c0-0.1,0.1-0.3,0.2-0.3h1.9c0.1,0,0.2,0.1,0.2,0.3
			c0,0.1-0.1,0.3-0.2,0.3h-0.7v2.2c0,0.2-0.1,0.3-0.3,0.3c-0.2,0-0.3-0.1-0.3-0.3L507.4,545.7L507.4,545.7z M509.4,545.3
			c0-0.2,0.1-0.3,0.3-0.3h0.1c0.1,0,0.2,0.1,0.3,0.1l0.9,1.4l0.9-1.4c0.1-0.1,0.1-0.1,0.2-0.1h0.1c0.1,0,0.3,0.1,0.3,0.3v2.4
			c0,0.2-0.1,0.3-0.3,0.3c-0.1,0-0.3-0.1-0.3-0.3V546l-0.7,1.1c-0.1,0.1-0.1,0.1-0.2,0.1c-0.1,0-0.2,0-0.2-0.1l-0.7-1v1.7
			c0,0.2-0.1,0.3-0.3,0.3s-0.3-0.1-0.3-0.3L509.4,545.3L509.4,545.3z"/>
	</g>
</g>
<path class="st2" d="M440.4,187.1L-2.9,450.6l442,262.6l1.3,0.8l440-261.9l3.6-2.2L440.4,187.1z M440.4,708.2L224.8,580.1h430.8
	L440.4,708.2z M838.7,471.1H41.4L6.9,450.6l433.5-257.7L874.2,450L838.7,471.1z"/>
<g id="XMLID_17_" class="st3">
	<path id="XMLID_119_" class="st4" d="M169.4,493.6c0-0.2,0.1-0.3,0.3-0.3h4c3.3,0,6.1,2.7,6.1,6c0,3.4-2.7,6.1-6.1,6.1h-4
		c-0.2,0-0.3-0.2-0.3-0.3V493.6z M173.5,503.8c2.5,0,4.4-1.9,4.4-4.4s-1.9-4.4-4.4-4.4h-2.3v8.8H173.5z"/>
	<path id="XMLID_122_" class="st4" d="M183.3,493.6c0-0.2,0.2-0.3,0.3-0.3h1.1c0.2,0,0.3,0.2,0.3,0.3v11.5c0,0.2-0.2,0.3-0.3,0.3
		h-1.1c-0.2,0-0.3-0.2-0.3-0.3V493.6z"/>
	<path id="XMLID_124_" class="st4" d="M188.6,503.7c0.2-0.2,0.3-0.5,0.5-0.7s0.4-0.3,0.6-0.1c0.1,0.1,1.4,1.2,2.8,1.2
		c1.2,0,2-0.7,2-1.6c0-1-0.9-1.7-2.6-2.4c-1.8-0.7-3.2-1.7-3.2-3.7c0-1.4,1-3.2,3.8-3.2c1.7,0,3,0.9,3.2,1c0.1,0.1,0.3,0.3,0.1,0.6
		c-0.1,0.2-0.3,0.5-0.4,0.7c-0.1,0.2-0.4,0.3-0.6,0.2c-0.1-0.1-1.3-0.9-2.3-0.9c-1.5,0-2,0.9-2,1.6c0,1,0.8,1.6,2.2,2.2
		c2,0.8,3.7,1.8,3.7,3.9c0,1.8-1.6,3.3-3.9,3.3c-2.1,0-3.4-1.1-3.7-1.4C188.5,504.1,188.4,504,188.6,503.7z"/>
	<path id="XMLID_126_" class="st4" d="M205,493.1c1.7,0,3,0.6,4.2,1.6c0.2,0.1,0.2,0.3,0,0.5l-0.8,0.8c-0.1,0.2-0.3,0.2-0.4,0
		c-0.8-0.7-1.9-1.2-3-1.2c-2.5,0-4.3,2.1-4.3,4.5s1.9,4.5,4.4,4.5c1.3,0,2.1-0.5,3-1.1c0.2-0.1,0.3-0.1,0.4,0l0.8,0.8
		c0.1,0.1,0.1,0.3,0,0.5c-1.2,1.1-2.7,1.7-4.2,1.7c-3.5,0-6.3-2.8-6.3-6.2S201.5,493.1,205,493.1z"/>
	<path id="XMLID_128_" class="st4" d="M217.9,493.1c3.5,0,6.2,2.8,6.2,6.3s-2.8,6.2-6.2,6.2s-6.2-2.8-6.2-6.2
		S214.4,493.1,217.9,493.1z M217.9,503.9c2.5,0,4.5-2,4.5-4.5s-2-4.5-4.5-4.5s-4.5,2.1-4.5,4.5C213.4,501.9,215.5,503.9,217.9,503.9
		z"/>
	<path id="XMLID_131_" class="st4" d="M225.9,493.8c-0.1-0.2,0-0.5,0.3-0.5h1.2c0.1,0,0.3,0.1,0.3,0.2l3.8,8.6h0.1l3.8-8.6
		c0-0.1,0.1-0.2,0.3-0.2h1.2c0.3,0,0.4,0.2,0.3,0.5l-5.3,11.7c-0.1,0.1-0.2,0.2-0.3,0.2h-0.2c-0.1,0-0.2-0.1-0.3-0.2L225.9,493.8z"
		/>
	<path id="XMLID_133_" class="st4" d="M239.9,493.6c0-0.2,0.1-0.3,0.3-0.3h6.9c0.2,0,0.3,0.2,0.3,0.3v1c0,0.2-0.1,0.3-0.3,0.3h-5.5
		v3.5h4.6c0.2,0,0.3,0.2,0.3,0.3v1c0,0.2-0.2,0.3-0.3,0.3h-4.6v3.7h5.5c0.2,0,0.3,0.2,0.3,0.3v1c0,0.2-0.1,0.3-0.3,0.3h-6.9
		c-0.2,0-0.3-0.2-0.3-0.3V493.6z"/>
	<path id="XMLID_135_" class="st4" d="M251.1,493.6c0-0.2,0.1-0.3,0.3-0.3h4.7c2.1,0,3.8,1.6,3.8,3.7c0,1.6-1.1,2.9-2.6,3.5l2.4,4.4
		c0.1,0.2,0,0.5-0.3,0.5H258c-0.1,0-0.2-0.1-0.3-0.2l-2.3-4.6h-2.5v4.4c0,0.2-0.2,0.3-0.3,0.3h-1.1c-0.2,0-0.3-0.2-0.3-0.3
		L251.1,493.6L251.1,493.6z M256,499.2c1.1,0,2.1-1,2.1-2.1s-1-2.1-2.1-2.1h-3.1v4.2H256z"/>
	<path id="XMLID_138_" class="st4" d="M267.2,493.7c-0.1-0.2,0.1-0.4,0.3-0.4h1.2c0.1,0,0.3,0.1,0.3,0.2l2.1,7.9h0.1l2.8-8.2
		c0-0.1,0.2-0.2,0.3-0.2h0.3c0.1,0,0.3,0.1,0.3,0.2l2.9,8.2h0.1l2.1-7.9c0-0.1,0.2-0.2,0.3-0.2h1.2c0.2,0,0.4,0.2,0.3,0.4l-3.3,11.6
		c0,0.1-0.2,0.2-0.3,0.2h-0.3c-0.1,0-0.3-0.1-0.3-0.2l-3-8.6h-0.1l-3,8.6c0,0.1-0.2,0.2-0.3,0.2h-0.3c-0.1,0-0.3-0.1-0.3-0.2
		L267.2,493.7z"/>
	<path id="XMLID_140_" class="st4" d="M284.8,493.6c0-0.2,0.2-0.3,0.3-0.3h1.1c0.2,0,0.3,0.2,0.3,0.3v4.8h6.3v-4.8
		c0-0.2,0.1-0.3,0.3-0.3h1.1c0.2,0,0.3,0.2,0.3,0.3v11.5c0,0.2-0.2,0.3-0.3,0.3h-1.1c-0.2,0-0.3-0.2-0.3-0.3v-5h-6.3v5
		c0,0.2-0.1,0.3-0.3,0.3h-1.1c-0.2,0-0.3-0.2-0.3-0.3V493.6z"/>
	<path id="XMLID_142_" class="st4" d="M301.4,499.6l-4.1-5.8c-0.1-0.2,0-0.5,0.3-0.5h1.3c0.1,0,0.2,0.1,0.3,0.2l3.1,4.4l3.1-4.4
		c0.1-0.1,0.2-0.2,0.3-0.2h1.3c0.3,0,0.4,0.3,0.3,0.5l-4.1,5.8v5.5c0,0.2-0.2,0.3-0.3,0.3h-1.1c-0.2,0-0.3-0.2-0.3-0.3L301.4,499.6
		L301.4,499.6z"/>
	<path id="XMLID_144_" class="st4" d="M313.1,505l5.3-11.7c0.1-0.1,0.2-0.2,0.3-0.2h0.2c0.1,0,0.2,0.1,0.3,0.2l5.3,11.7
		c0.1,0.2,0,0.5-0.3,0.5h-1.1c-0.2,0-0.3-0.1-0.4-0.3l-1.1-2.4h-5.7c-0.3,0.8-0.7,1.6-1.1,2.4c-0.1,0.1-0.2,0.3-0.4,0.3h-1.1
		C313.1,505.4,313,505.2,313.1,505z M320.9,501.3l-2.1-4.7h-0.1l-2.1,4.7H320.9z"/>
	<path id="XMLID_147_" class="st4" d="M333.5,494.9h-2.8c-0.2,0-0.3-0.2-0.3-0.3v-1c0-0.2,0.1-0.3,0.3-0.3h7.4
		c0.2,0,0.3,0.2,0.3,0.3v1c0,0.2-0.1,0.3-0.3,0.3h-2.8v10.2c0,0.2-0.2,0.3-0.3,0.3h-1.1c-0.2,0-0.3-0.2-0.3-0.3v-10.2H333.5z"/>
	<path id="XMLID_149_" class="st4" d="M341.3,493.6c0-0.2,0.1-0.3,0.3-0.3h4.7c2.1,0,3.8,1.6,3.8,3.7c0,1.6-1.1,2.9-2.6,3.5l2.4,4.4
		c0.1,0.2,0,0.5-0.3,0.5h-1.4c-0.1,0-0.2-0.1-0.3-0.2l-2.3-4.6H343v4.4c0,0.2-0.2,0.3-0.3,0.3h-1.1c-0.2,0-0.3-0.2-0.3-0.3
		L341.3,493.6L341.3,493.6z M346.2,499.2c1.1,0,2.1-1,2.1-2.1s-1-2.1-2.1-2.1h-3.1v4.2H346.2z"/>
	<path id="XMLID_152_" class="st4" d="M353.8,493.6c0-0.2,0.2-0.3,0.3-0.3h1.1c0.2,0,0.3,0.2,0.3,0.3v11.5c0,0.2-0.2,0.3-0.3,0.3
		h-1.1c-0.2,0-0.3-0.2-0.3-0.3V493.6z"/>
	<path id="XMLID_154_" class="st4" d="M359.9,493.6c0-0.2,0.1-0.3,0.3-0.3h3.9c2.1,0,3.9,1.7,3.9,3.8c0,2.1-1.7,3.9-3.9,3.9h-2.5
		v4.1c0,0.2-0.2,0.3-0.3,0.3h-1.1c-0.2,0-0.3-0.2-0.3-0.3V493.6z M364.1,499.3c1.2,0,2.2-1,2.2-2.2s-1-2.1-2.2-2.1h-2.4v4.3
		L364.1,499.3L364.1,499.3z"/>
	<path id="XMLID_157_" class="st4" d="M377.6,494.9h-2.8c-0.2,0-0.3-0.2-0.3-0.3v-1c0-0.2,0.1-0.3,0.3-0.3h7.4
		c0.2,0,0.3,0.2,0.3,0.3v1c0,0.2-0.1,0.3-0.3,0.3h-2.8v10.2c0,0.2-0.2,0.3-0.3,0.3h-1.2c-0.2,0-0.3-0.2-0.3-0.3V494.9z"/>
	<path id="XMLID_159_" class="st4" d="M390.5,493.1c3.5,0,6.2,2.8,6.2,6.3s-2.8,6.2-6.2,6.2s-6.2-2.8-6.2-6.2S387,493.1,390.5,493.1
		z M390.5,503.9c2.5,0,4.5-2,4.5-4.5s-2-4.5-4.5-4.5s-4.5,2.1-4.5,4.5C386,501.9,388,503.9,390.5,503.9z"/>
	<path id="XMLID_162_" class="st4" d="M410.3,493.1c1.7,0,3,0.6,4.2,1.6c0.2,0.1,0.2,0.3,0,0.5l-0.8,0.8c-0.1,0.2-0.3,0.2-0.4,0
		c-0.8-0.7-1.9-1.2-3-1.2c-2.5,0-4.3,2.1-4.3,4.5s1.9,4.5,4.4,4.5c1.3,0,2.1-0.5,3-1.1c0.2-0.1,0.3-0.1,0.4,0l0.8,0.8
		c0.1,0.1,0.1,0.3,0,0.5c-1.2,1.1-2.7,1.7-4.2,1.7c-3.5,0-6.3-2.8-6.3-6.2S406.8,493.1,410.3,493.1z"/>
	<path id="XMLID_164_" class="st4" d="M416.3,505l5.3-11.7c0.1-0.1,0.2-0.2,0.3-0.2h0.2c0.1,0,0.2,0.1,0.3,0.2l5.3,11.7
		c0.1,0.2,0,0.5-0.3,0.5h-1.1c-0.2,0-0.3-0.1-0.4-0.3l-1.1-2.4h-5.7c-0.3,0.8-0.7,1.6-1.1,2.4c-0.1,0.1-0.2,0.3-0.4,0.3h-1.1
		C416.3,505.4,416.2,505.2,416.3,505z M424.1,501.3l-2.1-4.7h-0.1l-2.1,4.7H424.1z"/>
	<path id="XMLID_167_" class="st4" d="M430.3,493.6c0-0.2,0.1-0.3,0.3-0.3h1.1c0.2,0,0.3,0.2,0.3,0.3v10.2h4.7
		c0.2,0,0.3,0.2,0.3,0.3v1c0,0.2-0.1,0.3-0.3,0.3h-6.2c-0.2,0-0.3-0.2-0.3-0.3v-11.5H430.3z"/>
	<path id="XMLID_169_" class="st4" d="M439.9,493.6c0-0.2,0.2-0.3,0.3-0.3h1.1c0.2,0,0.3,0.2,0.3,0.3v11.5c0,0.2-0.2,0.3-0.3,0.3
		h-1.1c-0.2,0-0.3-0.2-0.3-0.3V493.6z"/>
	<path id="XMLID_171_" class="st4" d="M446,493.6c0-0.2,0.1-0.3,0.3-0.3h6.9c0.2,0,0.3,0.2,0.3,0.3v1c0,0.2-0.1,0.3-0.3,0.3h-5.5v4
		h4.6c0.2,0,0.3,0.2,0.3,0.3v1c0,0.2-0.2,0.3-0.3,0.3h-4.6v4.6c0,0.2-0.2,0.3-0.3,0.3h-1.1c-0.2,0-0.3-0.2-0.3-0.3V493.6z"/>
	<path id="XMLID_173_" class="st4" d="M462.1,493.1c3.5,0,6.2,2.8,6.2,6.3s-2.8,6.2-6.2,6.2c-3.5,0-6.2-2.8-6.2-6.2
		S458.7,493.1,462.1,493.1z M462.1,503.9c2.5,0,4.5-2,4.5-4.5s-2-4.5-4.5-4.5s-4.5,2.1-4.5,4.5C457.6,501.9,459.7,503.9,462.1,503.9
		z"/>
	<path id="XMLID_176_" class="st4" d="M471.8,493.6c0-0.2,0.1-0.3,0.3-0.3h4.7c2.1,0,3.8,1.6,3.8,3.7c0,1.6-1.1,2.9-2.6,3.5l2.4,4.4
		c0.1,0.2,0,0.5-0.3,0.5h-1.4c-0.1,0-0.2-0.1-0.3-0.2l-2.3-4.6h-2.6v4.4c0,0.2-0.2,0.3-0.3,0.3h-1.1c-0.2,0-0.3-0.2-0.3-0.3
		L471.8,493.6L471.8,493.6z M476.7,499.2c1.1,0,2.1-1,2.1-2.1s-1-2.1-2.1-2.1h-3.1v4.2H476.7z"/>
	<path id="XMLID_179_" class="st4" d="M484.2,493.4c0-0.2,0.2-0.3,0.3-0.3h0.4l7.5,8.7l0,0v-8.2c0-0.2,0.1-0.3,0.3-0.3h1.1
		c0.2,0,0.3,0.2,0.3,0.3v11.7c0,0.2-0.2,0.3-0.3,0.3h-0.5l-7.5-8.9l0,0v8.4c0,0.2-0.1,0.3-0.3,0.3h-1.1c-0.2,0-0.3-0.2-0.3-0.3
		v-11.7H484.2z"/>
	<path id="XMLID_181_" class="st4" d="M498.6,493.6c0-0.2,0.2-0.3,0.3-0.3h1.1c0.2,0,0.3,0.2,0.3,0.3v11.5c0,0.2-0.2,0.3-0.3,0.3
		h-1.1c-0.2,0-0.3-0.2-0.3-0.3V493.6z"/>
	<path id="XMLID_183_" class="st4" d="M503.1,505l5.3-11.7c0.1-0.1,0.2-0.2,0.3-0.2h0.2c0.1,0,0.2,0.1,0.3,0.2l5.3,11.7
		c0.1,0.2,0,0.5-0.3,0.5h-1.1c-0.2,0-0.3-0.1-0.4-0.3l-1.1-2.4h-5.7c-0.3,0.8-0.7,1.6-1.1,2.4c-0.1,0.1-0.2,0.3-0.4,0.3h-1.1
		C503.1,505.4,503,505.2,503.1,505z M510.9,501.3l-2.1-4.7h-0.1l-2.1,4.7H510.9z"/>
	<path id="XMLID_186_" class="st4" d="M523.2,493.4c0-0.1,0.2-0.3,0.3-0.3h0.3c0.1,0,0.3,0.1,0.3,0.2l3.6,8.8h0.1l3.6-8.8
		c0-0.1,0.2-0.2,0.3-0.2h0.3c0.1,0,0.3,0.1,0.3,0.3l2.1,11.6c0.1,0.2-0.1,0.4-0.3,0.4H533c-0.2,0-0.3-0.1-0.3-0.2l-1.3-7.7h-0.1
		l-3.1,8c0,0.1-0.1,0.2-0.3,0.2h-0.3c-0.1,0-0.3-0.1-0.3-0.2l-3.1-8h-0.1l-1.2,7.7c0,0.1-0.2,0.2-0.3,0.2h-1.1
		c-0.2,0-0.4-0.2-0.3-0.4L523.2,493.4z"/>
	<path id="XMLID_188_" class="st4" d="M536.3,505l5.3-11.7c0.1-0.1,0.2-0.2,0.3-0.2h0.2c0.1,0,0.2,0.1,0.3,0.2l5.3,11.7
		c0.1,0.2,0,0.5-0.3,0.5h-1.1c-0.2,0-0.3-0.1-0.4-0.3l-1.1-2.4h-5.7c-0.3,0.8-0.7,1.6-1.1,2.4c-0.1,0.1-0.2,0.3-0.4,0.3h-1.1
		C536.3,505.4,536.2,505.2,536.3,505z M544.1,501.3l-2.1-4.7h-0.1l-2.1,4.7H544.1z"/>
	<path id="XMLID_191_" class="st4" d="M550.3,493.7c0-0.2,0.2-0.4,0.4-0.4h1c0.2,0,0.4,0.2,0.4,0.4v4.8l4.9-5
		c0.1-0.1,0.2-0.2,0.3-0.2h1.3c0.3,0,0.5,0.4,0.2,0.6l-5,5.1l5.3,5.8c0.1,0.2,0.1,0.6-0.3,0.6h-1.4c-0.2,0-0.3-0.1-0.3-0.1l-5-5.7
		v5.4c0,0.2-0.2,0.4-0.4,0.4h-1c-0.2,0-0.4-0.2-0.4-0.4V493.7z"/>
	<path id="XMLID_193_" class="st4" d="M562.2,493.6c0-0.2,0.1-0.3,0.3-0.3h6.9c0.2,0,0.3,0.2,0.3,0.3v1c0,0.2-0.1,0.3-0.3,0.3h-5.5
		v3.5h4.6c0.2,0,0.3,0.2,0.3,0.3v1c0,0.2-0.2,0.3-0.3,0.3h-4.6v3.7h5.5c0.2,0,0.3,0.2,0.3,0.3v1c0,0.2-0.1,0.3-0.3,0.3h-6.9
		c-0.2,0-0.3-0.2-0.3-0.3V493.6z"/>
	<path id="XMLID_195_" class="st4" d="M572.6,503.7c0.2-0.2,0.3-0.5,0.5-0.7s0.4-0.3,0.6-0.1c0.1,0.1,1.4,1.2,2.8,1.2
		c1.2,0,2-0.7,2-1.6c0-1-0.9-1.7-2.6-2.4c-1.8-0.7-3.2-1.7-3.2-3.7c0-1.4,1-3.2,3.8-3.2c1.7,0,3,0.9,3.2,1c0.1,0.1,0.3,0.3,0.1,0.6
		c-0.1,0.2-0.3,0.5-0.4,0.7c-0.1,0.2-0.4,0.3-0.6,0.2c-0.1-0.1-1.3-0.9-2.3-0.9c-1.5,0-2,0.9-2,1.6c0,1,0.8,1.6,2.2,2.2
		c2,0.8,3.7,1.8,3.7,3.9c0,1.8-1.6,3.3-3.9,3.3c-2.1,0-3.4-1.1-3.7-1.4C572.5,504.1,572.4,504,572.6,503.7z"/>
	<path id="XMLID_197_" class="st4" d="M590,494.9h-2.8c-0.2,0-0.3-0.2-0.3-0.3v-1c0-0.2,0.1-0.3,0.3-0.3h7.4c0.2,0,0.3,0.2,0.3,0.3
		v1c0,0.2-0.1,0.3-0.3,0.3h-2.8v10.2c0,0.2-0.2,0.3-0.3,0.3h-1.1c-0.2,0-0.3-0.2-0.3-0.3v-10.2H590z"/>
	<path id="XMLID_199_" class="st4" d="M597.8,493.6c0-0.2,0.2-0.3,0.3-0.3h1.1c0.2,0,0.3,0.2,0.3,0.3v4.8h6.3v-4.8
		c0-0.2,0.1-0.3,0.3-0.3h1.1c0.2,0,0.3,0.2,0.3,0.3v11.5c0,0.2-0.2,0.3-0.3,0.3h-1.1c-0.2,0-0.3-0.2-0.3-0.3v-5h-6.3v5
		c0,0.2-0.1,0.3-0.3,0.3h-1.1c-0.2,0-0.3-0.2-0.3-0.3V493.6z"/>
	<path id="XMLID_201_" class="st4" d="M612,493.6c0-0.2,0.1-0.3,0.3-0.3h6.9c0.2,0,0.3,0.2,0.3,0.3v1c0,0.2-0.1,0.3-0.3,0.3h-5.5
		v3.5h4.6c0.2,0,0.3,0.2,0.3,0.3v1c0,0.2-0.2,0.3-0.3,0.3h-4.6v3.7h5.5c0.2,0,0.3,0.2,0.3,0.3v1c0,0.2-0.1,0.3-0.3,0.3h-6.9
		c-0.2,0-0.3-0.2-0.3-0.3V493.6z"/>
	<path id="XMLID_203_" class="st4" d="M627.8,493.6c0-0.2,0.2-0.3,0.3-0.3h1.2c0.2,0,0.3,0.2,0.3,0.3v7.2c0,1.7,1.1,3.1,2.9,3.1
		c1.8,0,2.9-1.3,2.9-3v-7.2c0-0.2,0.1-0.3,0.3-0.3h1.2c0.2,0,0.3,0.2,0.3,0.3v7.3c0,2.6-2,4.7-4.7,4.7s-4.7-2.1-4.7-4.7V493.6z"/>
	<path id="XMLID_205_" class="st4" d="M641.4,493.6c0-0.2,0.1-0.3,0.3-0.3h1.1c0.2,0,0.3,0.2,0.3,0.3v10.2h4.7
		c0.2,0,0.3,0.2,0.3,0.3v1c0,0.2-0.1,0.3-0.3,0.3h-6.2c-0.2,0-0.3-0.2-0.3-0.3v-11.5H641.4z"/>
	<path id="XMLID_207_" class="st4" d="M651.9,494.9h-2.8c-0.2,0-0.3-0.2-0.3-0.3v-1c0-0.2,0.1-0.3,0.3-0.3h7.4
		c0.2,0,0.3,0.2,0.3,0.3v1c0,0.2-0.1,0.3-0.3,0.3h-2.8v10.2c0,0.2-0.2,0.3-0.3,0.3h-1.1c-0.2,0-0.3-0.2-0.3-0.3v-10.2H651.9z"/>
	<path id="XMLID_209_" class="st4" d="M659.7,493.6c0-0.2,0.2-0.3,0.3-0.3h1.1c0.2,0,0.3,0.2,0.3,0.3v11.5c0,0.2-0.2,0.3-0.3,0.3
		H660c-0.2,0-0.3-0.2-0.3-0.3V493.6z"/>
	<path id="XMLID_211_" class="st4" d="M667.1,493.4c0-0.1,0.2-0.3,0.3-0.3h0.3c0.1,0,0.3,0.1,0.3,0.2l3.6,8.8h0.1l3.6-8.8
		c0-0.1,0.2-0.2,0.3-0.2h0.3c0.1,0,0.3,0.1,0.3,0.3l2.1,11.6c0.1,0.2-0.1,0.4-0.3,0.4h-1.1c-0.2,0-0.3-0.1-0.3-0.2l-1.3-7.7h-0.1
		l-3.1,8c0,0.1-0.1,0.2-0.3,0.2h-0.3c-0.1,0-0.3-0.1-0.3-0.2l-3.1-8H668l-1.2,7.7c0,0.1-0.2,0.2-0.3,0.2h-1.1
		c-0.2,0-0.4-0.2-0.3-0.4L667.1,493.4z"/>
	<path id="XMLID_213_" class="st4" d="M680.2,505l5.3-11.7c0.1-0.1,0.2-0.2,0.3-0.2h0.2c0.1,0,0.2,0.1,0.3,0.2l5.3,11.7
		c0.1,0.2,0,0.5-0.3,0.5h-1.1c-0.2,0-0.3-0.1-0.4-0.3l-1.1-2.4H683c-0.3,0.8-0.7,1.6-1.1,2.4c-0.1,0.1-0.2,0.3-0.4,0.3h-1.1
		C680.2,505.4,680.1,505.2,680.2,505z M688,501.3l-2.1-4.7h-0.1l-2.1,4.7H688z"/>
	<path id="XMLID_216_" class="st4" d="M695.2,494.9h-2.8c-0.2,0-0.3-0.2-0.3-0.3v-1c0-0.2,0.1-0.3,0.3-0.3h7.4
		c0.2,0,0.3,0.2,0.3,0.3v1c0,0.2-0.1,0.3-0.3,0.3H697v10.2c0,0.2-0.2,0.3-0.3,0.3h-1.1c-0.2,0-0.3-0.2-0.3-0.3v-10.2H695.2z"/>
	<path id="XMLID_218_" class="st4" d="M703,493.6c0-0.2,0.1-0.3,0.3-0.3h6.9c0.2,0,0.3,0.2,0.3,0.3v1c0,0.2-0.1,0.3-0.3,0.3h-5.5
		v3.5h4.6c0.2,0,0.3,0.2,0.3,0.3v1c0,0.2-0.2,0.3-0.3,0.3h-4.6v3.7h5.5c0.2,0,0.3,0.2,0.3,0.3v1c0,0.2-0.1,0.3-0.3,0.3h-6.9
		c-0.2,0-0.3-0.2-0.3-0.3V493.6z"/>
	<path id="XMLID_220_" class="st4" d="M215,520.5c0-0.2,0.1-0.3,0.3-0.3h6.9c0.2,0,0.3,0.2,0.3,0.3v1c0,0.2-0.1,0.3-0.3,0.3h-5.5v4
		h4.6c0.2,0,0.3,0.2,0.3,0.3v1c0,0.2-0.2,0.3-0.3,0.3h-4.6v4.6c0,0.2-0.2,0.3-0.3,0.3h-1.1c-0.2,0-0.3-0.2-0.3-0.3L215,520.5
		L215,520.5z"/>
	<path id="XMLID_222_" class="st4" d="M222.6,531.9l5.3-11.7c0.1-0.1,0.2-0.2,0.3-0.2h0.2c0.1,0,0.2,0.1,0.3,0.2l5.3,11.7
		c0.1,0.2,0,0.5-0.3,0.5h-1.1c-0.2,0-0.3-0.1-0.4-0.3l-1.1-2.4h-5.7c-0.3,0.8-0.7,1.6-1.1,2.4c-0.1,0.1-0.2,0.3-0.4,0.3h-1
		C222.6,532.3,222.5,532.1,222.6,531.9z M230.4,528.2l-2.1-4.7h-0.1l-2.1,4.7H230.4z"/>
	<path id="XMLID_225_" class="st4" d="M236.8,520.3c0-0.1,0.2-0.3,0.3-0.3h0.3c0.1,0,0.3,0.1,0.3,0.2l3.6,8.8h0.1l3.6-8.8
		c0-0.1,0.2-0.2,0.3-0.2h0.3c0.1,0,0.3,0.1,0.3,0.3l2.1,11.6c0.1,0.2-0.1,0.4-0.3,0.4h-1.1c-0.2,0-0.3-0.1-0.3-0.2l-1.3-7.7h-0.1
		l-3.1,8c0,0.1-0.1,0.2-0.3,0.2h-0.3c-0.1,0-0.3-0.1-0.3-0.2l-3.1-8h-0.1l-1.2,7.7c0,0.1-0.2,0.2-0.3,0.2h-1.1
		c-0.2,0-0.4-0.2-0.3-0.4L236.8,520.3z"/>
	<path id="XMLID_227_" class="st4" d="M250.3,520.5c0-0.2,0.2-0.3,0.3-0.3h1.1c0.2,0,0.3,0.2,0.3,0.3V532c0,0.2-0.2,0.3-0.3,0.3
		h-1.1c-0.2,0-0.3-0.2-0.3-0.3V520.5z"/>
	<path id="XMLID_229_" class="st4" d="M255.3,520.5c0-0.2,0.1-0.3,0.3-0.3h1.1c0.2,0,0.3,0.2,0.3,0.3v10.2h4.7
		c0.2,0,0.3,0.2,0.3,0.3v1c0,0.2-0.1,0.3-0.3,0.3h-6.2c-0.2,0-0.3-0.2-0.3-0.3v-11.5H255.3z"/>
	<path id="XMLID_231_" class="st4" d="M265.3,526.5l-4.1-5.8c-0.1-0.2,0-0.5,0.3-0.5h1.3c0.1,0,0.2,0.1,0.3,0.2l3.1,4.4l3.1-4.4
		c0.1-0.1,0.2-0.2,0.3-0.2h1.3c0.3,0,0.4,0.3,0.3,0.5l-4.1,5.8v5.5c0,0.2-0.2,0.3-0.3,0.3h-1.1c-0.2,0-0.3-0.2-0.3-0.3L265.3,526.5
		L265.3,526.5z"/>
	<path id="XMLID_233_" class="st4" d="M274.7,520.6c-0.1-0.2,0-0.5,0.3-0.5h1.2c0.1,0,0.3,0.1,0.3,0.2l3.8,8.6h0.1l3.8-8.6
		c0-0.1,0.1-0.2,0.3-0.2h1.2c0.3,0,0.4,0.2,0.3,0.5l-5.3,11.7c-0.1,0.1-0.2,0.2-0.3,0.2h-0.2c-0.1,0-0.2-0.1-0.3-0.2L274.7,520.6z"
		/>
	<path id="XMLID_235_" class="st4" d="M285.2,531.9l5.3-11.7c0.1-0.1,0.2-0.2,0.3-0.2h0.2c0.1,0,0.2,0.1,0.3,0.2l5.3,11.7
		c0.1,0.2,0,0.5-0.3,0.5h-1.1c-0.2,0-0.3-0.1-0.4-0.3l-1.1-2.4H288c-0.3,0.8-0.7,1.6-1.1,2.4c-0.1,0.1-0.2,0.3-0.4,0.3h-1.1
		C285.3,532.3,285.1,532.1,285.2,531.9z M293.1,528.2l-2.1-4.7h-0.1l-2.1,4.7H293.1z"/>
	<path id="XMLID_238_" class="st4" d="M303.5,520c1.7,0,3,0.6,4.2,1.6c0.2,0.1,0.2,0.3,0,0.5l-0.8,0.8c-0.1,0.2-0.3,0.2-0.4,0
		c-0.8-0.7-1.9-1.2-3-1.2c-2.5,0-4.3,2.1-4.3,4.5s1.9,4.5,4.4,4.5c1.3,0,2.1-0.5,3-1.1c0.2-0.1,0.3-0.1,0.4,0l0.8,0.8
		c0.1,0.1,0.1,0.3,0,0.5c-1.2,1.1-2.7,1.7-4.2,1.7c-3.5,0-6.3-2.8-6.3-6.2S300,520,303.5,520z"/>
	<path id="XMLID_240_" class="st4" d="M308.3,531.9l5.3-11.7c0.1-0.1,0.2-0.2,0.3-0.2h0.2c0.1,0,0.2,0.1,0.3,0.2l5.3,11.7
		c0.1,0.2,0,0.5-0.3,0.5h-1.1c-0.2,0-0.3-0.1-0.4-0.3l-1.1-2.4h-5.7c-0.3,0.8-0.7,1.6-1.1,2.4c-0.1,0.1-0.2,0.3-0.4,0.3h-1.1
		C308.4,532.3,308.2,532.1,308.3,531.9z M316.2,528.2l-2.1-4.7H314l-2.1,4.7H316.2z"/>
	<path id="XMLID_243_" class="st4" d="M322.3,521.8h-2.8c-0.2,0-0.3-0.2-0.3-0.3v-1c0-0.2,0.1-0.3,0.3-0.3h7.4
		c0.2,0,0.3,0.2,0.3,0.3v1c0,0.2-0.1,0.3-0.3,0.3h-2.8V532c0,0.2-0.2,0.3-0.3,0.3h-1.1c-0.2,0-0.3-0.2-0.3-0.3v-10.2H322.3z"/>
	<path id="XMLID_245_" class="st4" d="M328.9,520.5c0-0.2,0.2-0.3,0.3-0.3h1.1c0.2,0,0.3,0.2,0.3,0.3V532c0,0.2-0.2,0.3-0.3,0.3
		h-1.1c-0.2,0-0.3-0.2-0.3-0.3V520.5z"/>
	<path id="XMLID_247_" class="st4" d="M339.2,520c3.5,0,6.2,2.8,6.2,6.3s-2.8,6.2-6.2,6.2s-6.2-2.8-6.2-6.2S335.8,520,339.2,520z
		 M339.2,530.8c2.5,0,4.5-2,4.5-4.5s-2-4.5-4.5-4.5s-4.5,2.1-4.5,4.5C334.8,528.7,336.8,530.8,339.2,530.8z"/>
	<path id="XMLID_250_" class="st4" d="M347.8,520.3c0-0.2,0.2-0.3,0.3-0.3h0.4l7.5,8.7l0,0v-8.2c0-0.2,0.1-0.3,0.3-0.3h1.1
		c0.2,0,0.3,0.2,0.3,0.3v11.7c0,0.2-0.2,0.3-0.3,0.3h-0.5l-7.5-8.9l0,0v8.4c0,0.2-0.1,0.3-0.3,0.3H348c-0.2,0-0.3-0.2-0.3-0.3v-11.7
		H347.8z"/>
	<path id="XMLID_252_" class="st4" d="M361.2,530.1c0.7,0,1.2,0.5,1.2,1.2s-0.5,1.2-1.2,1.2s-1.2-0.5-1.2-1.2
		C360,530.6,360.5,530.1,361.2,530.1z"/>
	<path id="XMLID_254_" class="st4" d="M368.3,520.5c0-0.2,0.1-0.3,0.3-0.3h6.9c0.2,0,0.3,0.2,0.3,0.3v1c0,0.2-0.1,0.3-0.3,0.3H370
		v3.5h4.6c0.2,0,0.3,0.2,0.3,0.3v1c0,0.2-0.2,0.3-0.3,0.3H370v3.7h5.5c0.2,0,0.3,0.2,0.3,0.3v1c0,0.2-0.1,0.3-0.3,0.3h-6.9
		c-0.2,0-0.3-0.2-0.3-0.3V520.5z"/>
	<path id="XMLID_256_" class="st4" d="M380.8,526.1l-3.4-5.4c-0.1-0.2,0-0.5,0.3-0.5h1.5c0.1,0,0.2,0.1,0.3,0.2l2.4,4.1l0,0l2.5-4.1
		c0-0.1,0.1-0.2,0.3-0.2h1.5c0.3,0,0.4,0.3,0.3,0.5l-3.4,5.4l3.6,5.7c0.1,0.2,0,0.5-0.3,0.5h-1.5c-0.1,0-0.3-0.1-0.3-0.2l-2.7-4.4
		l0,0l-2.7,4.4c-0.1,0.1-0.2,0.2-0.3,0.2h-1.3c-0.3,0-0.5-0.3-0.3-0.5L380.8,526.1z"/>
	<path id="XMLID_258_" class="st4" d="M388.7,520.5c0-0.2,0.1-0.3,0.3-0.3h3.9c2.1,0,3.9,1.7,3.9,3.8s-1.7,3.9-3.9,3.9h-2.5v4.1
		c0,0.2-0.2,0.3-0.3,0.3H389c-0.2,0-0.3-0.2-0.3-0.3V520.5z M392.8,526.2c1.2,0,2.2-1,2.2-2.2c0-1.2-1-2.1-2.2-2.1h-2.4v4.3H392.8
		L392.8,526.2z"/>
	<path id="XMLID_261_" class="st4" d="M398.8,520.5c0-0.2,0.1-0.3,0.3-0.3h1.1c0.2,0,0.3,0.2,0.3,0.3v10.2h4.7
		c0.2,0,0.3,0.2,0.3,0.3v1c0,0.2-0.1,0.3-0.3,0.3H399c-0.2,0-0.3-0.2-0.3-0.3v-11.5H398.8z"/>
	<path id="XMLID_263_" class="st4" d="M412.5,520c3.5,0,6.2,2.8,6.2,6.3s-2.8,6.2-6.2,6.2s-6.2-2.8-6.2-6.2S409,520,412.5,520z
		 M412.5,530.8c2.5,0,4.5-2,4.5-4.5s-2-4.5-4.5-4.5s-4.5,2.1-4.5,4.5S410,530.8,412.5,530.8z"/>
	<path id="XMLID_266_" class="st4" d="M421,520.5c0-0.2,0.1-0.3,0.3-0.3h4.7c2.1,0,3.8,1.6,3.8,3.7c0,1.6-1.1,2.9-2.6,3.5l2.4,4.4
		c0.1,0.2,0,0.5-0.3,0.5h-1.4c-0.1,0-0.2-0.1-0.3-0.2l-2.3-4.6h-2.6v4.4c0,0.2-0.2,0.3-0.3,0.3h-1.1c-0.2,0-0.3-0.2-0.3-0.3
		L421,520.5L421,520.5z M425.9,526.1c1.1,0,2.1-1,2.1-2.1c0-1.1-1-2.1-2.1-2.1h-3.1v4.2H425.9z"/>
	<path id="XMLID_269_" class="st4" d="M432.3,520.5c0-0.2,0.1-0.3,0.3-0.3h6.9c0.2,0,0.3,0.2,0.3,0.3v1c0,0.2-0.1,0.3-0.3,0.3H434
		v3.5h4.6c0.2,0,0.3,0.2,0.3,0.3v1c0,0.2-0.2,0.3-0.3,0.3H434v3.7h5.5c0.2,0,0.3,0.2,0.3,0.3v1c0,0.2-0.1,0.3-0.3,0.3h-6.9
		c-0.2,0-0.3-0.2-0.3-0.3V520.5z"/>
	<path id="XMLID_271_" class="st4" d="M446,520.3c0-0.2,0.2-0.3,0.3-0.3h0.4l7.5,8.7l0,0v-8.2c0-0.2,0.1-0.3,0.3-0.3h1.1
		c0.2,0,0.3,0.2,0.3,0.3v11.7c0,0.2-0.2,0.3-0.3,0.3h-0.5l-7.5-8.9l0,0v8.4c0,0.2-0.1,0.3-0.3,0.3h-1.1c-0.2,0-0.3-0.2-0.3-0.3
		v-11.7H446z"/>
	<path id="XMLID_273_" class="st4" d="M464.6,520c3.5,0,6.2,2.8,6.2,6.3s-2.8,6.2-6.2,6.2c-3.5,0-6.2-2.8-6.2-6.2
		S461.1,520,464.6,520z M464.6,530.8c2.5,0,4.5-2,4.5-4.5s-2-4.5-4.5-4.5s-4.5,2.1-4.5,4.5S462.1,530.8,464.6,530.8z"/>
	<path id="XMLID_276_" class="st4" d="M473.1,520.5c0-0.2,0.1-0.3,0.3-0.3h4.7c2.1,0,3.8,1.6,3.8,3.7c0,1.6-1.1,2.9-2.6,3.5l2.4,4.4
		c0.1,0.2,0,0.5-0.3,0.5H480c-0.1,0-0.2-0.1-0.3-0.2l-2.3-4.6h-2.5v4.4c0,0.2-0.2,0.3-0.3,0.3h-1.1c-0.2,0-0.3-0.2-0.3-0.3v-11.4
		H473.1z M478,526.1c1.1,0,2.1-1,2.1-2.1c0-1.1-1-2.1-2.1-2.1h-3.1v4.2H478z"/>
	<path id="XMLID_279_" class="st4" d="M486.1,521.8h-2.8c-0.2,0-0.3-0.2-0.3-0.3v-1c0-0.2,0.1-0.3,0.3-0.3h7.4
		c0.2,0,0.3,0.2,0.3,0.3v1c0,0.2-0.1,0.3-0.3,0.3h-2.8V532c0,0.2-0.2,0.3-0.3,0.3h-1.1c-0.2,0-0.3-0.2-0.3-0.3v-10.2H486.1z"/>
	<path id="XMLID_281_" class="st4" d="M492.8,520.5c0-0.2,0.2-0.3,0.3-0.3h1.1c0.2,0,0.3,0.2,0.3,0.3v4.8h6.3v-4.8
		c0-0.2,0.1-0.3,0.3-0.3h1.1c0.2,0,0.3,0.2,0.3,0.3V532c0,0.2-0.2,0.3-0.3,0.3h-1.1c-0.2,0-0.3-0.2-0.3-0.3v-5h-6.3v5
		c0,0.2-0.1,0.3-0.3,0.3h-1.1c-0.2,0-0.3-0.2-0.3-0.3V520.5z"/>
	<path id="XMLID_283_" class="st4" d="M505.9,520.5c0-0.2,0.1-0.3,0.3-0.3h6.9c0.2,0,0.3,0.2,0.3,0.3v1c0,0.2-0.1,0.3-0.3,0.3h-5.5
		v3.5h4.6c0.2,0,0.3,0.2,0.3,0.3v1c0,0.2-0.2,0.3-0.3,0.3h-4.6v3.7h5.5c0.2,0,0.3,0.2,0.3,0.3v1c0,0.2-0.1,0.3-0.3,0.3h-6.9
		c-0.2,0-0.3-0.2-0.3-0.3L505.9,520.5L505.9,520.5z"/>
	<path id="XMLID_285_" class="st4" d="M515.9,520.5c0-0.2,0.1-0.3,0.3-0.3h4.7c2.1,0,3.8,1.6,3.8,3.7c0,1.6-1.1,2.9-2.6,3.5l2.4,4.4
		c0.1,0.2,0,0.5-0.3,0.5h-1.3c-0.1,0-0.2-0.1-0.3-0.2l-2.3-4.6h-2.6v4.4c0,0.2-0.2,0.3-0.3,0.3h-1.1c-0.2,0-0.3-0.2-0.3-0.3v-11.4
		H515.9z M520.8,526.1c1.1,0,2.1-1,2.1-2.1c0-1.1-1-2.1-2.1-2.1h-3.1v4.2H520.8z"/>
	<path id="XMLID_288_" class="st4" d="M527.3,520.3c0-0.2,0.2-0.3,0.3-0.3h0.4l7.5,8.7l0,0v-8.2c0-0.2,0.1-0.3,0.3-0.3h1.1
		c0.2,0,0.3,0.2,0.3,0.3v11.7c0,0.2-0.2,0.3-0.3,0.3h-0.5l-7.5-8.9l0,0v8.4c0,0.2-0.1,0.3-0.3,0.3h-1.1c-0.2,0-0.3-0.2-0.3-0.3
		L527.3,520.3L527.3,520.3z"/>
	<path id="XMLID_290_" class="st4" d="M540.7,530.1c0.6,0,1.4,0.4,1.4,1.9c0,1.8-1.1,3-1.7,3.5c-0.2,0.1-0.3,0.1-0.4,0l-0.3-0.3
		c-0.1-0.1-0.1-0.3,0.1-0.4c0.2-0.2,1.2-1,1.2-2.4c0,0-0.2,0.1-0.4,0.1c-0.6,0-1.2-0.5-1.2-1.2S540,530.1,540.7,530.1z"/>
	<path id="XMLID_292_" class="st4" d="M553.4,520c1.7,0,3,0.6,4.2,1.6c0.2,0.1,0.2,0.3,0,0.5l-0.8,0.8c-0.1,0.2-0.3,0.2-0.4,0
		c-0.8-0.7-1.9-1.2-3-1.2c-2.5,0-4.3,2.1-4.3,4.5s1.9,4.5,4.4,4.5c1.3,0,2.1-0.5,3-1.1c0.2-0.1,0.3-0.1,0.4,0l0.8,0.8
		c0.1,0.1,0.1,0.3,0,0.5c-1.2,1.1-2.7,1.7-4.2,1.7c-3.5,0-6.3-2.8-6.3-6.2S549.9,520,553.4,520z"/>
	<path id="XMLID_294_" class="st4" d="M559.9,520.5c0-0.2,0.1-0.3,0.3-0.3h6.9c0.2,0,0.3,0.2,0.3,0.3v1c0,0.2-0.1,0.3-0.3,0.3h-5.5
		v3.5h4.6c0.2,0,0.3,0.2,0.3,0.3v1c0,0.2-0.2,0.3-0.3,0.3h-4.6v3.7h5.5c0.2,0,0.3,0.2,0.3,0.3v1c0,0.2-0.1,0.3-0.3,0.3h-6.9
		c-0.2,0-0.3-0.2-0.3-0.3V520.5z"/>
	<path id="XMLID_296_" class="st4" d="M569.9,520.3c0-0.2,0.2-0.3,0.3-0.3h0.4l7.5,8.7l0,0v-8.2c0-0.2,0.1-0.3,0.3-0.3h1.1
		c0.2,0,0.3,0.2,0.3,0.3v11.7c0,0.2-0.2,0.3-0.3,0.3H579l-7.5-8.9l0,0v8.4c0,0.2-0.1,0.3-0.3,0.3h-1.1c-0.2,0-0.3-0.2-0.3-0.3
		L569.9,520.3L569.9,520.3z"/>
	<path id="XMLID_298_" class="st4" d="M584.9,521.8h-2.8c-0.2,0-0.3-0.2-0.3-0.3v-1c0-0.2,0.1-0.3,0.3-0.3h7.4
		c0.2,0,0.3,0.2,0.3,0.3v1c0,0.2-0.1,0.3-0.3,0.3h-2.8V532c0,0.2-0.2,0.3-0.3,0.3h-1.1c-0.2,0-0.3-0.2-0.3-0.3v-10.2H584.9z"/>
	<path id="XMLID_300_" class="st4" d="M591.5,520.5c0-0.2,0.1-0.3,0.3-0.3h4.7c2.1,0,3.8,1.6,3.8,3.7c0,1.6-1.1,2.9-2.6,3.5l2.4,4.4
		c0.1,0.2,0,0.5-0.3,0.5h-1.4c-0.1,0-0.2-0.1-0.3-0.2l-2.3-4.6h-2.6v4.4c0,0.2-0.2,0.3-0.3,0.3h-1.1c-0.2,0-0.3-0.2-0.3-0.3
		L591.5,520.5L591.5,520.5z M596.4,526.1c1.1,0,2.1-1,2.1-2.1c0-1.1-1-2.1-2.1-2.1h-3.1v4.2H596.4z"/>
	<path id="XMLID_303_" class="st4" d="M601.2,531.9l5.3-11.7c0.1-0.1,0.2-0.2,0.3-0.2h0.2c0.1,0,0.2,0.1,0.3,0.2l5.3,11.7
		c0.1,0.2,0,0.5-0.3,0.5h-1.1c-0.2,0-0.3-0.1-0.4-0.3l-1.1-2.4H604c-0.3,0.8-0.7,1.6-1.1,2.4c-0.1,0.1-0.2,0.3-0.4,0.3h-1.1
		C601.2,532.3,601.1,532.1,601.2,531.9z M609.1,528.2l-2.1-4.7h-0.1l-2.1,4.7H609.1z"/>
	<path id="XMLID_306_" class="st4" d="M614.1,520.5c0-0.2,0.1-0.3,0.3-0.3h1.1c0.2,0,0.3,0.2,0.3,0.3v10.2h4.7
		c0.2,0,0.3,0.2,0.3,0.3v1c0,0.2-0.1,0.3-0.3,0.3h-6.2c-0.2,0-0.3-0.2-0.3-0.3v-11.5H614.1z"/>
	<path id="XMLID_308_" class="st4" d="M623,530.1c0.6,0,1.4,0.4,1.4,1.9c0,1.8-1.1,3-1.7,3.5c-0.2,0.1-0.3,0.1-0.4,0l-0.3-0.3
		c-0.1-0.1-0.1-0.3,0.1-0.4c0.2-0.2,1.2-1,1.2-2.4c0,0-0.2,0.1-0.4,0.1c-0.6,0-1.2-0.5-1.2-1.2S622.3,530.1,623,530.1z"/>
	<path id="XMLID_310_" class="st4" d="M628.7,531.9l5.3-11.7c0.1-0.1,0.2-0.2,0.3-0.2h0.2c0.1,0,0.2,0.1,0.3,0.2l5.3,11.7
		c0.1,0.2,0,0.5-0.3,0.5h-1.1c-0.2,0-0.3-0.1-0.4-0.3l-1.1-2.4h-5.7c-0.3,0.8-0.7,1.6-1.1,2.4c-0.1,0.1-0.2,0.3-0.4,0.3h-1.1
		C628.7,532.3,628.6,532.1,628.7,531.9z M636.5,528.2l-2.1-4.7h-0.1l-2.1,4.7H636.5z"/>
	<path id="XMLID_313_" class="st4" d="M641.6,520.3c0-0.2,0.2-0.3,0.3-0.3h0.4l7.5,8.7l0,0v-8.2c0-0.2,0.1-0.3,0.3-0.3h1.1
		c0.2,0,0.3,0.2,0.3,0.3v11.7c0,0.2-0.2,0.3-0.3,0.3h-0.3l-7.5-8.9l0,0v8.4c0,0.2-0.1,0.3-0.3,0.3h-1.2c-0.2,0-0.3-0.2-0.3-0.3
		V520.3z"/>
	<path id="XMLID_315_" class="st4" d="M654.8,520.5c0-0.2,0.1-0.3,0.3-0.3h4c3.3,0,6.1,2.7,6.1,6c0,3.4-2.7,6.1-6.1,6.1h-4
		c-0.2,0-0.3-0.2-0.3-0.3V520.5z M658.9,530.7c2.5,0,4.4-1.9,4.4-4.4s-1.9-4.4-4.4-4.4h-2.3v8.8H658.9z"/>
	<path id="XMLID_318_" class="st4" d="M263.4,557.4c0.2-0.2,0.3-0.5,0.5-0.7s0.4-0.3,0.6-0.1c0.1,0.1,1.4,1.2,2.8,1.2
		c1.2,0,2-0.7,2-1.6c0-1-0.9-1.7-2.6-2.4c-1.8-0.7-3.2-1.7-3.2-3.7c0-1.4,1-3.2,3.8-3.2c1.7,0,3,0.9,3.2,1c0.1,0.1,0.3,0.3,0.1,0.6
		c-0.1,0.2-0.3,0.5-0.4,0.7s-0.4,0.3-0.6,0.2c-0.1-0.1-1.3-0.9-2.3-0.9c-1.5,0-2,0.9-2,1.6c0,1,0.8,1.6,2.2,2.2
		c2,0.8,3.7,1.8,3.7,3.9c0,1.8-1.6,3.3-3.9,3.3c-2.1,0-3.4-1.1-3.7-1.4C263.4,557.9,263.2,557.7,263.4,557.4z"/>
	<path id="XMLID_320_" class="st4" d="M278.9,546.9c3.5,0,6.2,2.8,6.2,6.3s-2.8,6.2-6.2,6.2s-6.2-2.8-6.2-6.2
		S275.4,546.9,278.9,546.9z M278.9,557.6c2.5,0,4.5-2,4.5-4.5s-2-4.5-4.5-4.5s-4.5,2.1-4.5,4.5C274.4,555.6,276.4,557.6,278.9,557.6
		z"/>
	<path id="XMLID_323_" class="st4" d="M287.5,547.4c0-0.2,0.2-0.3,0.3-0.3h1.2c0.2,0,0.3,0.2,0.3,0.3v7.2c0,1.7,1.1,3.1,2.9,3.1
		s2.9-1.3,2.9-3v-7.2c0-0.2,0.1-0.3,0.3-0.3h1.2c0.2,0,0.3,0.2,0.3,0.3v7.3c0,2.6-2,4.7-4.7,4.7s-4.7-2.1-4.7-4.7L287.5,547.4
		L287.5,547.4z"/>
	<path id="XMLID_325_" class="st4" d="M301.9,548.7h-2.8c-0.2,0-0.3-0.2-0.3-0.3v-1c0-0.2,0.1-0.3,0.3-0.3h7.4
		c0.2,0,0.3,0.2,0.3,0.3v1c0,0.2-0.1,0.3-0.3,0.3h-2.8v10.2c0,0.2-0.2,0.3-0.3,0.3h-1.1c-0.2,0-0.3-0.2-0.3-0.3v-10.2H301.9z"/>
	<path id="XMLID_327_" class="st4" d="M308.8,547.4c0-0.2,0.2-0.3,0.3-0.3h1.1c0.2,0,0.3,0.2,0.3,0.3v4.8h6.3v-4.8
		c0-0.2,0.1-0.3,0.3-0.3h1.1c0.2,0,0.3,0.2,0.3,0.3v11.5c0,0.2-0.2,0.3-0.3,0.3h-1.1c-0.2,0-0.3-0.2-0.3-0.3v-5h-6.3v5
		c0,0.2-0.1,0.3-0.3,0.3h-1.1c-0.2,0-0.3-0.2-0.3-0.3V547.4z"/>
	<path id="XMLID_329_" class="st4" d="M322.2,547.4c0-0.2,0.1-0.3,0.3-0.3h6.9c0.2,0,0.3,0.2,0.3,0.3v1c0,0.2-0.1,0.3-0.3,0.3h-5.5
		v3.5h4.6c0.2,0,0.3,0.2,0.3,0.3v1c0,0.2-0.2,0.3-0.3,0.3h-4.6v3.7h5.5c0.2,0,0.3,0.2,0.3,0.3v1c0,0.2-0.1,0.3-0.3,0.3h-6.9
		c-0.2,0-0.3-0.2-0.3-0.3V547.4z"/>
	<path id="XMLID_331_" class="st4" d="M332.5,547.4c0-0.2,0.1-0.3,0.3-0.3h4.7c2.1,0,3.8,1.6,3.8,3.7c0,1.6-1.1,2.9-2.6,3.5l2.4,4.4
		c0.1,0.2,0,0.5-0.3,0.5h-1.4c-0.1,0-0.2-0.1-0.3-0.2l-2.3-4.6h-2.6v4.4c0,0.2-0.2,0.3-0.3,0.3h-1.1c-0.2,0-0.3-0.2-0.3-0.3
		L332.5,547.4L332.5,547.4z M337.4,553c1.1,0,2.1-1,2.1-2.1s-1-2.1-2.1-2.1h-3.1v4.2H337.4z"/>
	<path id="XMLID_334_" class="st4" d="M344.1,547.2c0-0.2,0.2-0.3,0.3-0.3h0.4l7.5,8.7l0,0v-8.2c0-0.2,0.1-0.3,0.3-0.3h1.1
		c0.2,0,0.3,0.2,0.3,0.3v11.7c0,0.2-0.2,0.3-0.3,0.3h-0.5l-7.5-8.9l0,0v8.4c0,0.2-0.1,0.3-0.3,0.3h-1.1c-0.2,0-0.3-0.2-0.3-0.3
		v-11.7H344.1z"/>
	<path id="XMLID_336_" class="st4" d="M366.9,546.9c1.7,0,3,0.6,4.2,1.6c0.2,0.1,0.2,0.3,0,0.5l-0.8,0.8c-0.1,0.2-0.3,0.2-0.4,0
		c-0.8-0.7-1.9-1.2-3-1.2c-2.5,0-4.3,2.1-4.3,4.5c0,2.4,1.9,4.5,4.4,4.5c1.3,0,2.1-0.5,3-1.1c0.2-0.1,0.3-0.1,0.4,0l0.8,0.8
		c0.1,0.1,0.1,0.3,0,0.5c-1.2,1.1-2.7,1.7-4.2,1.7c-3.5,0-6.3-2.8-6.3-6.2S363.4,546.9,366.9,546.9z"/>
	<path id="XMLID_338_" class="st4" d="M372,558.7l5.3-11.7c0.1-0.1,0.2-0.2,0.3-0.2h0.2c0.1,0,0.2,0.1,0.3,0.2l5.3,11.7
		c0.1,0.2,0,0.5-0.3,0.5H382c-0.2,0-0.3-0.1-0.4-0.3l-1.1-2.4h-5.7c-0.3,0.8-0.7,1.6-1.1,2.4c-0.1,0.1-0.2,0.3-0.4,0.3h-1.1
		C372,559.2,371.9,559,372,558.7z M379.8,555.1l-2.1-4.7h-0.1l-2.1,4.7H379.8z"/>
	<path id="XMLID_341_" class="st4" d="M385.2,547.4c0-0.2,0.1-0.3,0.3-0.3h1.1c0.2,0,0.3,0.2,0.3,0.3v10.2h4.7
		c0.2,0,0.3,0.2,0.3,0.3v1c0,0.2-0.1,0.3-0.3,0.3h-6.2c-0.2,0-0.3-0.2-0.3-0.3v-11.5H385.2z"/>
	<path id="XMLID_343_" class="st4" d="M393.9,547.4c0-0.2,0.2-0.3,0.3-0.3h1.1c0.2,0,0.3,0.2,0.3,0.3v11.5c0,0.2-0.2,0.3-0.3,0.3
		h-1.1c-0.2,0-0.3-0.2-0.3-0.3V547.4z"/>
	<path id="XMLID_345_" class="st4" d="M399.2,547.4c0-0.2,0.1-0.3,0.3-0.3h6.9c0.2,0,0.3,0.2,0.3,0.3v1c0,0.2-0.1,0.3-0.3,0.3h-5.5
		v4h4.6c0.2,0,0.3,0.2,0.3,0.3v1c0,0.2-0.2,0.3-0.3,0.3h-4.6v4.6c0,0.2-0.2,0.3-0.3,0.3h-1.1c-0.2,0-0.3-0.2-0.3-0.3L399.2,547.4
		L399.2,547.4z"/>
	<path id="XMLID_347_" class="st4" d="M414.4,546.9c3.5,0,6.2,2.8,6.2,6.3s-2.8,6.2-6.2,6.2s-6.2-2.8-6.2-6.2
		S410.9,546.9,414.4,546.9z M414.4,557.6c2.5,0,4.5-2,4.5-4.5s-2-4.5-4.5-4.5s-4.5,2.1-4.5,4.5C409.9,555.6,411.9,557.6,414.4,557.6
		z"/>
	<path id="XMLID_350_" class="st4" d="M423.2,547.4c0-0.2,0.1-0.3,0.3-0.3h4.7c2.1,0,3.8,1.6,3.8,3.7c0,1.6-1.1,2.9-2.6,3.5l2.4,4.4
		c0.1,0.2,0,0.5-0.3,0.5h-1.4c-0.1,0-0.2-0.1-0.3-0.2l-2.3-4.6h-2.6v4.4c0,0.2-0.2,0.3-0.3,0.3h-1.1c-0.2,0-0.3-0.2-0.3-0.3
		L423.2,547.4L423.2,547.4z M428.1,553c1.1,0,2.1-1,2.1-2.1s-1-2.1-2.1-2.1H425v4.2H428.1z"/>
	<path id="XMLID_353_" class="st4" d="M434.8,547.2c0-0.2,0.2-0.3,0.3-0.3h0.4l7.5,8.7l0,0v-8.2c0-0.2,0.1-0.3,0.3-0.3h1.1
		c0.2,0,0.3,0.2,0.3,0.3v11.7c0,0.2-0.2,0.3-0.3,0.3h-0.5l-7.5-8.9l0,0v8.4c0,0.2-0.1,0.3-0.3,0.3H435c-0.2,0-0.3-0.2-0.3-0.3v-11.7
		H434.8z"/>
	<path id="XMLID_355_" class="st4" d="M448.3,547.4c0-0.2,0.2-0.3,0.3-0.3h1.1c0.2,0,0.3,0.2,0.3,0.3v11.5c0,0.2-0.2,0.3-0.3,0.3
		h-1.1c-0.2,0-0.3-0.2-0.3-0.3V547.4z"/>
	<path id="XMLID_357_" class="st4" d="M451.9,558.7l5.3-11.7c0.1-0.1,0.2-0.2,0.3-0.2h0.2c0.1,0,0.2,0.1,0.3,0.2l5.3,11.7
		c0.1,0.2,0,0.5-0.3,0.5h-1.1c-0.2,0-0.3-0.1-0.4-0.3l-1.1-2.4h-5.7c-0.3,0.8-0.7,1.6-1.1,2.4c-0.1,0.1-0.2,0.3-0.4,0.3h-1.1
		C451.9,559.2,451.8,559,451.9,558.7z M459.7,555.1l-2.1-4.7h-0.1l-2.1,4.7H459.7z"/>
	<path id="XMLID_360_" class="st4" d="M463.8,551.5c-0.1-0.1-0.1-0.3,0.1-0.4s1.1-0.9,1.1-2.1c0,0-0.2,0.1-0.4,0.1
		c-0.6,0-1.1-0.5-1.1-1.1c0-0.6,0.5-1.1,1.1-1.1s1.3,0.4,1.3,1.7c0,1.6-1,2.7-1.5,3.2c-0.2,0.1-0.3,0.1-0.4,0L463.8,551.5z"/>
	<path id="XMLID_362_" class="st4" d="M467.5,557.4c0.2-0.2,0.3-0.5,0.5-0.7s0.4-0.3,0.6-0.1c0.1,0.1,1.4,1.2,2.8,1.2
		c1.2,0,2-0.7,2-1.6c0-1-0.9-1.7-2.6-2.4c-1.8-0.7-3.2-1.7-3.2-3.7c0-1.4,1-3.2,3.8-3.2c1.7,0,3,0.9,3.2,1c0.1,0.1,0.3,0.3,0.1,0.6
		c-0.1,0.2-0.3,0.5-0.4,0.7s-0.4,0.3-0.6,0.2c-0.1-0.1-1.3-0.9-2.3-0.9c-1.5,0-2,0.9-2,1.6c0,1,0.8,1.6,2.2,2.2
		c2,0.8,3.7,1.8,3.7,3.9c0,1.8-1.6,3.3-3.9,3.3c-2.1,0-3.4-1.1-3.7-1.4C467.4,557.9,467.3,557.7,467.5,557.4z"/>
	<path id="XMLID_364_" class="st4" d="M481.5,547.4c0-0.2,0.1-0.3,0.3-0.3h3.9c2.1,0,3.9,1.7,3.9,3.8c0,2.1-1.7,3.9-3.9,3.9h-2.5
		v4.1c0,0.2-0.2,0.3-0.3,0.3h-1.1c-0.2,0-0.3-0.2-0.3-0.3V547.4z M485.7,553.1c1.2,0,2.2-1,2.2-2.2s-1-2.1-2.2-2.1h-2.4v4.3H485.7
		L485.7,553.1z"/>
	<path id="XMLID_367_" class="st4" d="M491.9,547.4c0-0.2,0.1-0.3,0.3-0.3h1.1c0.2,0,0.3,0.2,0.3,0.3v10.2h4.7
		c0.2,0,0.3,0.2,0.3,0.3v1c0,0.2-0.1,0.3-0.3,0.3h-6.2c-0.2,0-0.3-0.2-0.3-0.3v-11.5H491.9z"/>
	<path id="XMLID_369_" class="st4" d="M499.5,558.7l5.3-11.7c0.1-0.1,0.2-0.2,0.3-0.2h0.2c0.1,0,0.2,0.1,0.3,0.2l5.3,11.7
		c0.1,0.2,0,0.5-0.3,0.5h-1.1c-0.2,0-0.3-0.1-0.4-0.3l-1.1-2.4h-5.7c-0.3,0.8-0.7,1.6-1.1,2.4c-0.1,0.1-0.2,0.3-0.4,0.3h-1.1
		C499.6,559.2,499.4,559,499.5,558.7z M507.4,555.1l-2.1-4.7h-0.1l-2.1,4.7H507.4z"/>
	<path id="XMLID_372_" class="st4" d="M518,546.9c1.7,0,3,0.6,4.2,1.6c0.2,0.1,0.2,0.3,0,0.5l-0.8,0.8c-0.1,0.2-0.3,0.2-0.4,0
		c-0.8-0.7-1.9-1.2-3-1.2c-2.5,0-4.3,2.1-4.3,4.5c0,2.4,1.9,4.5,4.4,4.5c1.3,0,2.1-0.5,3-1.1c0.2-0.1,0.3-0.1,0.4,0l0.8,0.8
		c0.1,0.1,0.1,0.3,0,0.5c-1.2,1.1-2.7,1.7-4.2,1.7c-3.5,0-6.3-2.8-6.3-6.2S514.5,546.9,518,546.9z"/>
	<path id="XMLID_374_" class="st4" d="M524.8,547.4c0-0.2,0.1-0.3,0.3-0.3h6.9c0.2,0,0.3,0.2,0.3,0.3v1c0,0.2-0.1,0.3-0.3,0.3h-5.5
		v3.5h4.6c0.2,0,0.3,0.2,0.3,0.3v1c0,0.2-0.2,0.3-0.3,0.3h-4.6v3.7h5.5c0.2,0,0.3,0.2,0.3,0.3v1c0,0.2-0.1,0.3-0.3,0.3h-6.9
		c-0.2,0-0.3-0.2-0.3-0.3V547.4z"/>
	<path id="XMLID_376_" class="st4" d="M534.3,557.4c0.2-0.2,0.3-0.5,0.5-0.7s0.4-0.3,0.6-0.1c0.1,0.1,1.4,1.2,2.8,1.2
		c1.2,0,2-0.7,2-1.6c0-1-0.9-1.7-2.6-2.4c-1.8-0.7-3.2-1.7-3.2-3.7c0-1.4,1-3.2,3.8-3.2c1.7,0,3,0.9,3.2,1c0.1,0.1,0.3,0.3,0.1,0.6
		c-0.1,0.2-0.3,0.5-0.4,0.7c-0.1,0.2-0.4,0.3-0.6,0.2c-0.1-0.1-1.3-0.9-2.3-0.9c-1.5,0-2,0.9-2,1.6c0,1,0.8,1.6,2.2,2.2
		c2,0.8,3.7,1.8,3.7,3.9c0,1.8-1.6,3.3-3.9,3.3c-2.1,0-3.4-1.1-3.7-1.4C534.2,557.9,534.1,557.7,534.3,557.4z"/>
	<path id="XMLID_378_" class="st4" d="M550,548.7h-2.8c-0.2,0-0.3-0.2-0.3-0.3v-1c0-0.2,0.1-0.3,0.3-0.3h7.4c0.2,0,0.3,0.2,0.3,0.3
		v1c0,0.2-0.1,0.3-0.3,0.3h-2.8v10.2c0,0.2-0.2,0.3-0.3,0.3h-1.1c-0.2,0-0.3-0.2-0.3-0.3v-10.2H550z"/>
	<path id="XMLID_380_" class="st4" d="M562.1,546.9c3.5,0,6.2,2.8,6.2,6.3s-2.8,6.2-6.2,6.2c-3.5,0-6.2-2.8-6.2-6.2
		S558.6,546.9,562.1,546.9z M562.1,557.6c2.5,0,4.5-2,4.5-4.5s-2-4.5-4.5-4.5s-4.5,2.1-4.5,4.5C557.6,555.6,559.6,557.6,562.1,557.6
		z"/>
	<path id="XMLID_383_" class="st4" d="M574.8,547.4c0-0.2,0.1-0.3,0.3-0.3h3.9c2.1,0,3.9,1.7,3.9,3.8c0,2.1-1.7,3.9-3.9,3.9h-2.5
		v4.1c0,0.2-0.2,0.3-0.3,0.3h-1.1c-0.2,0-0.3-0.2-0.3-0.3L574.8,547.4L574.8,547.4z M578.9,553.1c1.2,0,2.2-1,2.2-2.2
		s-1-2.1-2.2-2.1h-2.4v4.3H578.9L578.9,553.1z"/>
	<path id="XMLID_386_" class="st4" d="M585.1,547.4c0-0.2,0.1-0.3,0.3-0.3h1.1c0.2,0,0.3,0.2,0.3,0.3v10.2h4.7
		c0.2,0,0.3,0.2,0.3,0.3v1c0,0.2-0.1,0.3-0.3,0.3h-6.2c-0.2,0-0.3-0.2-0.3-0.3v-11.5H585.1z"/>
	<path id="XMLID_388_" class="st4" d="M592.8,558.7l5.3-11.7c0.1-0.1,0.2-0.2,0.3-0.2h0.2c0.1,0,0.2,0.1,0.3,0.2l5.3,11.7
		c0.1,0.2,0,0.5-0.3,0.5h-1.1c-0.2,0-0.3-0.1-0.4-0.3l-1.1-2.4h-5.7c-0.3,0.8-0.7,1.6-1.1,2.4c-0.1,0.1-0.2,0.3-0.4,0.3H593
		C592.8,559.2,592.7,559,592.8,558.7z M600.6,555.1l-2.1-4.7h-0.1l-2.1,4.7H600.6z"/>
	<path id="XMLID_391_" class="st4" d="M607.4,553.4l-4.1-5.8c-0.1-0.2,0-0.5,0.3-0.5h1.3c0.1,0,0.2,0.1,0.3,0.2l3.1,4.4l3.1-4.4
		c0.1-0.1,0.2-0.2,0.3-0.2h1.3c0.3,0,0.4,0.3,0.3,0.5l-4.1,5.8v5.5c0,0.2-0.2,0.3-0.3,0.3h-1.1c-0.2,0-0.3-0.2-0.3-0.3L607.4,553.4
		L607.4,553.4z"/>
	<path id="XMLID_393_" class="st4" d="M614.8,557c0.7,0,1.2,0.5,1.2,1.2c0,0.7-0.5,1.2-1.2,1.2s-1.2-0.5-1.2-1.2
		C613.6,557.5,614.1,557,614.8,557z"/>
</g>
<g>
	<path class="st0" d="M440.6,713.9l-0.8-0.5L-2.9,450.6l443.6-263.4l0.8,0.5l442.5,263l-2.2,1.3L440.6,713.9z M3,450.6l437.6,259.9
		l437.5-259.9L440.7,190.6L3,450.6z"/>
</g>
</svg>
