<?xml version="1.0" encoding="utf-8"?>
<!-- Generator: Adobe Illustrator 19.0.0, SVG Export Plug-In . SVG Version: 6.00 Build 0)  -->
<svg version="1.1" id="Layer_1" xmlns="http://www.w3.org/2000/svg" xmlns:xlink="http://www.w3.org/1999/xlink" x="0px" y="0px"
	 viewBox="0 0 914 548.4" style="enable-background:new 0 0 914 548.4;" xml:space="preserve">
<style type="text/css">
	.st0{opacity:0.9;}
	.st1{fill:#FFFFFF;}
	#shadow {-webkit-filter:url('#blur');filter:url('#blur');opacity:.4;}
</style>
<g id="shadow">
	<filter id="blur">
	  <feGaussianBlur in="SourceGraphic" stdDeviation="6" />
	</filter>
	<g id="XMLID_12_" class="st0">
		<path id="XMLID_13_" d="M456.6,536.1l-1.3-0.8L14.2,272.9L457,9.8l442.8,263.1L456.6,536.1z M24,272.9l432.6,257.3l433.4-257.3
			L457,15.6L24,272.9z"/>
	</g>
	<g id="XMLID_41_">
		<path id="XMLID_72_" d="M214.4,277.6c9.2,0,16,3.1,21.9,8.4c0.5,0.5,0.5,1.2,0.1,1.6l-1.4,1.5c-0.5,0.5-1,0.5-1.5-0.1
			c-5.1-4.6-11.6-7.4-19-7.4c-15.7,0-28.1,12.9-28.1,28.4c0,15.5,12.3,28.3,28.1,28.3c7.7,0,13.6-3.1,19-7.6
			c0.5-0.5,1.1-0.5,1.4-0.2l1.5,1.5c0.5,0.4,0.5,1.1,0,1.5c-6.1,5.9-13.9,8.7-22,8.7c-18,0-32.6-14.2-32.6-32.3
			C181.8,292.1,196.4,277.6,214.4,277.6z"/>
		<path id="XMLID_65_" d="M243.7,340.4l27.7-62.6c0.2-0.4,0.6-0.6,1.1-0.6h0.3c0.5,0,0.9,0.1,1.2,0.6l27.4,62.6
			c0.2,0.5,0.2,1.1-0.8,1.1h-2.3c-0.6,0-1.1-0.5-1.3-0.8l-7.3-16.6h-34.4l-7.2,16.6c-0.2,0.4-0.6,0.8-1.3,0.8h-2.5
			C243.7,341.5,243.4,341.2,243.7,340.4z M288.2,320.6l-15.4-36.3h-0.2l-15.7,36.3H288.2z"/>
		<path id="XMLID_63_" d="M313.3,279.7c0-0.6,0.5-1.2,1.2-1.2h2c0.5,0,1.1,0.5,1.1,1.2v58h28.7c1.1,0,1.2,0.5,1.2,1.2v1.6
			c0,0.6-0.5,1-1.2,1h-31.8c-0.6,0-1.2-0.5-1.2-1.2V279.7z"/>
		<path id="XMLID_58_" d="M359.1,279.7c0-0.6,0.5-1.2,1.2-1.2h2c0.6,0,1.2,0.5,1.2,1.2v60.7c0,0.7-0.6,1.2-1.3,1.2h-1.9
			c-0.6,0-1.2-0.5-1.2-1.2V279.7z"/>
		<path id="XMLID_55_" d="M384.3,279.7c0-0.6,0.5-1.2,1.2-1.2h36.1c0.6,0,1.2,0.5,1.2,1.2v1.5c0,0.6-0.5,1.2-1.2,1.2h-32.9v27.4
			h28.5c0.6,0,1.2,0.5,1.2,1.2c0,1,0.2,2.6-1.2,2.6h-28.5l-0.1,26.8c0,0.6-0.5,1.2-1.4,1.2h-1.6c-0.6,0-1.2-0.5-1.2-1.2V279.7z"/>
		<path id="XMLID_52_" d="M465.5,277.6c18.1,0,32.5,14.5,32.5,32.5c0,18.1-14.4,32.3-32.5,32.3c-18,0-32.4-14.2-32.4-32.3
			C433.1,292.1,447.5,277.6,465.5,277.6z M465.5,338.5c15.7,0,28.5-12.6,28.5-28.3c0-15.7-12.8-28.5-28.5-28.5s-28.4,12.8-28.4,28.5
			C437.1,325.9,449.8,338.5,465.5,338.5z"/>
		<path id="XMLID_49_" d="M514.4,279.7c0-0.6,0.4-1.2,1.2-1.2h22.3c11,0,20.1,8.3,20.1,19.3c0,9.1-6.3,16.4-14.8,18.8l13.1,23.3
			c0.5,0.7,0.3,1.6-0.6,1.6h-2.8c-0.6,0-1-0.3-1.3-0.8l-13-23.6c-1.2,0.1-2.2,0.1-3.3,0.1h-16.6v23.1c0,0.6-0.5,1.2-1.4,1.2h-1.6
			c-0.6,0-1.2-0.5-1.2-1.2V279.7z M537.7,313.4c8.6,0,15.9-6.8,15.9-15.7c0-8.5-7.3-15.1-16-15.1h-18.9v30.8H537.7z"/>
		<path id="XMLID_47_" d="M574.7,278.8c0-0.7,0.6-1.2,1.3-1.2h1.5l43.2,56.2c0.1,0,0.1,0,0.1,0v-54.2c0-0.6,0.5-1.2,1.2-1.2h1.8
			c0.6,0,1.2,0.5,1.2,1.2v61.6c0,0.8-0.7,1.2-1.4,1.2h-1.2c-0.1,0-0.8-0.3-43.6-56.8h-0.1v54.7c0,0.6-0.5,1.2-1.2,1.2h-1.7
			c-0.6,0-1.2-0.5-1.2-1.2V278.8z"/>
		<path id="XMLID_45_" d="M645.9,279.7c0-0.6,0.5-1.2,1.2-1.2h2c0.6,0,1.2,0.5,1.2,1.2v60.7c0,0.7-0.6,1.2-1.3,1.2h-1.9
			c-0.6,0-1.2-0.5-1.2-1.2V279.7z"/>
		<path id="XMLID_42_" d="M662.1,340.4l27.7-62.6c0.2-0.4,0.6-0.6,1.1-0.6h0.3c0.5,0,0.9,0.1,1.2,0.6l27.4,62.6
			c0.2,0.5,0.2,1.1-0.8,1.1h-2.3c-0.6,0-1.1-0.5-1.3-0.8l-7.3-16.6h-34.4l-7.2,16.6c-0.2,0.4-0.6,0.8-1.3,0.8h-2.5
			C662.1,341.5,661.8,341.2,662.1,340.4z M706.6,320.6l-15.4-36.3H691l-15.7,36.3H706.6z"/>
	</g>
	<g id="XMLID_16_">
		<path id="XMLID_39_" d="M210.1,250.9l4.9-7.3c0.8-1.2,2.2-1,2.9-0.5c1.2,0.9,5.6,4,10.4,4c3.3,0,5.8-2.5,5.8-5.5
			c-0.1-3.2-2.1-5.7-5.9-8.2c-5.7-3.8-13.4-9.4-13.4-18.8c0-9.7,6.7-19,21.3-19c8.5,0,14.7,4.6,17.1,6.6c0.9,0.7,1.3,2.2,0.5,3.1
			l-5.7,6.9c-0.7,0.9-2.2,1-2.9,0.4s-5.3-4-10.1-4c-3.1,0-5.8,1.9-5.8,4.6c0,3.1,2,4.9,7.4,8.1c4.5,2.7,13.3,8.5,13.3,19
			c0,10.3-7.2,20.2-22.5,20.2c-9.5,0-15.7-4.8-17.4-6.9C209.3,252.5,209.5,251.7,210.1,250.9z"/>
		<path id="XMLID_36_" d="M296.6,195.5c13.9,0,25.1,12.6,25.1,28.2c0,20.2-14.9,36.6-33.8,36.6c-13.9,0-25.1-12.4-25.1-27.9
			C262.8,212.1,277.9,195.5,296.6,195.5z M307,225.4c0-8.5-5-15.5-12.2-15.5c-8.7,0-17.2,9.4-17.2,20.6c0,8.4,5,15.4,12.2,15.4
			C298.6,245.9,307,236.6,307,225.4z"/>
		<path id="XMLID_34_" d="M340.2,198.2c0.1-0.9,0.9-1.7,1.7-1.7h11.4c0.8,0,1.4,0.8,1.3,1.7l-5.1,37.2c-0.9,6.3,2.2,10.6,7.2,10.6
			c5.4,0,9.8-4.3,10.7-10.6l5.1-37.2c0.1-0.9,0.8-1.7,1.7-1.7h11.3c0.8,0,1.4,0.8,1.4,1.7l-5.2,37.9c-2.1,14.6-11.9,24.3-26.8,24.3
			c-12.1,0-22-10.6-20-24.3L340.2,198.2z"/>
		<path id="XMLID_30_" d="M410.3,209.7h-11c-0.9,0-1.4-0.8-1.4-1.7l1.4-9.8c0.1-0.9,0.9-1.7,1.7-1.7h36.4c0.9,0,1.4,0.8,1.3,1.7
			l-1.4,9.8c-0.1,0.9-0.8,1.7-1.7,1.7h-11.1l-6.8,48.1c-0.1,0.9-1,1.7-1.8,1.7h-11.2c-0.8,0-1.4-0.8-1.3-1.7L410.3,209.7z"/>
		<path id="XMLID_24_" d="M452.1,198.2c0.1-0.9,1-1.7,1.8-1.7h11c0.9,0,1.4,0.8,1.3,1.7l-3.2,22.7H484l3.2-22.7
			c0.1-0.9,0.9-1.7,1.8-1.7H500c0.8,0,1.4,0.8,1.3,1.7l-8.4,59.6c-0.1,0.9-1,1.7-1.8,1.7h-11.2c-0.9,0-1.3-0.8-1.3-1.7l3.3-23.7h-21
			l-3.3,23.7c-0.2,0.9-0.9,1.7-1.8,1.7H445c-0.8,0-1.4-0.8-1.3-1.7L452.1,198.2z"/>
		<path id="XMLID_22_" d="M520.9,198.2c0.1-0.9,0.9-1.7,1.7-1.7h33.9c0.9,0,1.4,0.8,1.3,1.7l-1.4,9.8c-0.1,0.9-0.8,1.7-1.7,1.7
			h-21.4l-1.6,11.2h17.5c0.8,0,1.4,0.8,1.3,1.7l-1.4,9.8c-0.2,1-1,1.7-1.8,1.7h-17.4l-1.7,12.1h21.4c0.9,0,1.3,0.8,1.3,1.7l-1.3,9.8
			c-0.1,0.9-0.9,1.7-1.8,1.7h-33.9c-0.9,0-1.4-0.8-1.3-1.7L520.9,198.2z"/>
		<path id="XMLID_19_" d="M574.4,198.2c0.1-0.9,0.9-1.7,1.7-1.7h24.3c9.4,0,15.8,7.6,15.8,16.9c0,9.6-5.5,17.7-14.8,20.6l7.8,22.9
			c0.4,1.2-0.4,2.6-1.7,2.6H596c-0.6,0-1.2-0.4-1.3-0.8l-7.4-23.8h-4l-3.2,22.9c-0.1,0.9-0.9,1.7-1.7,1.7h-11.2
			c-0.9,0-1.4-0.8-1.3-1.7L574.4,198.2z M594.8,223.4c4.2,0,7.3-4,7.3-8.3c0-3.1-1.6-5.8-4.9-5.8h-10.3l-2,14H594.8z"/>
		<path id="XMLID_17_" d="M635,197.2c0.1-0.9,1-1.6,1.8-1.6h2l26.8,34.7h0.1l4.3-32.1c0.1-0.9,0.8-1.7,1.7-1.7h11
			c0.8,0,1.5,0.7,1.4,1.5l-8.5,60.7c-0.1,0.9-0.9,1.6-1.7,1.6h-2.2l-26.8-35.8h-0.1l-4,33.2c-0.2,0.9-0.9,1.7-1.8,1.7h-11.1
			c-0.7,0-1.4-0.7-1.4-1.5L635,197.2z"/>
	</g>
</g>
<g id="XMLID_421_" class="st0">
	<path id="XMLID_160_" class="st1" d="M456.6,536.1l-1.3-0.8L14.2,272.9L457,9.8l442.8,263.1L456.6,536.1z M24,272.9l432.6,257.3
		l433.4-257.3L457,15.6L24,272.9z"/>
</g>
<g id="XMLID_422_">
	<path id="XMLID_158_" class="st1" d="M214.4,277.6c9.2,0,16,3.1,21.9,8.4c0.5,0.5,0.5,1.2,0.1,1.6l-1.4,1.5c-0.5,0.5-1,0.5-1.5-0.1
		c-5.1-4.6-11.6-7.4-19-7.4c-15.7,0-28.1,12.9-28.1,28.4c0,15.5,12.3,28.3,28.1,28.3c7.7,0,13.6-3.1,19-7.6c0.5-0.5,1.1-0.5,1.4-0.2
		l1.5,1.5c0.5,0.4,0.5,1.1,0,1.5c-6.1,5.9-13.9,8.7-22,8.7c-18,0-32.6-14.2-32.6-32.3C181.8,292.1,196.4,277.6,214.4,277.6z"/>
	<path id="XMLID_155_" class="st1" d="M243.7,340.4l27.7-62.6c0.2-0.4,0.6-0.6,1.1-0.6h0.3c0.5,0,0.9,0.1,1.2,0.6l27.4,62.6
		c0.2,0.5,0.2,1.1-0.8,1.1h-2.3c-0.6,0-1.1-0.5-1.3-0.8l-7.3-16.6h-34.4l-7.2,16.6c-0.2,0.4-0.6,0.8-1.3,0.8h-2.5
		C243.7,341.5,243.4,341.2,243.7,340.4z M288.2,320.6l-15.4-36.3h-0.2l-15.7,36.3H288.2z"/>
	<path id="XMLID_153_" class="st1" d="M313.3,279.7c0-0.6,0.5-1.2,1.2-1.2h2c0.5,0,1.1,0.5,1.1,1.2v58h28.7c1.1,0,1.2,0.5,1.2,1.2
		v1.6c0,0.6-0.5,1-1.2,1h-31.8c-0.6,0-1.2-0.5-1.2-1.2V279.7z"/>
	<path id="XMLID_151_" class="st1" d="M359.1,279.7c0-0.6,0.5-1.2,1.2-1.2h2c0.6,0,1.2,0.5,1.2,1.2v60.7c0,0.7-0.6,1.2-1.3,1.2h-1.9
		c-0.6,0-1.2-0.5-1.2-1.2V279.7z"/>
	<path id="XMLID_149_" class="st1" d="M384.3,279.7c0-0.6,0.5-1.2,1.2-1.2h36.1c0.6,0,1.2,0.5,1.2,1.2v1.5c0,0.6-0.5,1.2-1.2,1.2
		h-32.9v27.4h28.5c0.6,0,1.2,0.5,1.2,1.2c0,1,0.2,2.6-1.2,2.6h-28.5l-0.1,26.8c0,0.6-0.5,1.2-1.4,1.2h-1.6c-0.6,0-1.2-0.5-1.2-1.2
		V279.7z"/>
	<path id="XMLID_146_" class="st1" d="M465.5,277.6c18.1,0,32.5,14.5,32.5,32.5c0,18.1-14.4,32.3-32.5,32.3
		c-18,0-32.4-14.2-32.4-32.3C433.1,292.1,447.5,277.6,465.5,277.6z M465.5,338.5c15.7,0,28.5-12.6,28.5-28.3
		c0-15.7-12.8-28.5-28.5-28.5s-28.4,12.8-28.4,28.5C437.1,325.9,449.8,338.5,465.5,338.5z"/>
	<path id="XMLID_143_" class="st1" d="M514.4,279.7c0-0.6,0.4-1.2,1.2-1.2h22.3c11,0,20.1,8.3,20.1,19.3c0,9.1-6.3,16.4-14.8,18.8
		l13.1,23.3c0.5,0.7,0.3,1.6-0.6,1.6h-2.8c-0.6,0-1-0.3-1.3-0.8l-13-23.6c-1.2,0.1-2.2,0.1-3.3,0.1h-16.6v23.1
		c0,0.6-0.5,1.2-1.4,1.2h-1.6c-0.6,0-1.2-0.5-1.2-1.2V279.7z M537.7,313.4c8.6,0,15.9-6.8,15.9-15.7c0-8.5-7.3-15.1-16-15.1h-18.9
		v30.8H537.7z"/>
	<path id="XMLID_141_" class="st1" d="M574.7,278.8c0-0.7,0.6-1.2,1.3-1.2h1.5l43.2,56.2c0.1,0,0.1,0,0.1,0v-54.2
		c0-0.6,0.5-1.2,1.2-1.2h1.8c0.6,0,1.2,0.5,1.2,1.2v61.6c0,0.8-0.7,1.2-1.4,1.2h-1.2c-0.1,0-0.8-0.3-43.6-56.8h-0.1v54.7
		c0,0.6-0.5,1.2-1.2,1.2h-1.7c-0.6,0-1.2-0.5-1.2-1.2V278.8z"/>
	<path id="XMLID_139_" class="st1" d="M645.9,279.7c0-0.6,0.5-1.2,1.2-1.2h2c0.6,0,1.2,0.5,1.2,1.2v60.7c0,0.7-0.6,1.2-1.3,1.2h-1.9
		c-0.6,0-1.2-0.5-1.2-1.2V279.7z"/>
	<path id="XMLID_136_" class="st1" d="M662.1,340.4l27.7-62.6c0.2-0.4,0.6-0.6,1.1-0.6h0.3c0.5,0,0.9,0.1,1.2,0.6l27.4,62.6
		c0.2,0.5,0.2,1.1-0.8,1.1h-2.3c-0.6,0-1.1-0.5-1.3-0.8l-7.3-16.6h-34.4l-7.2,16.6c-0.2,0.4-0.6,0.8-1.3,0.8h-2.5
		C662.1,341.5,661.8,341.2,662.1,340.4z M706.6,320.6l-15.4-36.3H691l-15.7,36.3H706.6z"/>
</g>
<g id="XMLID_424_">
	<path id="XMLID_134_" class="st1" d="M210.1,250.9l4.9-7.3c0.8-1.2,2.2-1,2.9-0.5c1.2,0.9,5.6,4,10.4,4c3.3,0,5.8-2.5,5.8-5.5
		c-0.1-3.2-2.1-5.7-5.9-8.2c-5.7-3.8-13.4-9.4-13.4-18.8c0-9.7,6.7-19,21.3-19c8.5,0,14.7,4.6,17.1,6.6c0.9,0.7,1.3,2.2,0.5,3.1
		l-5.7,6.9c-0.7,0.9-2.2,1-2.9,0.4s-5.3-4-10.1-4c-3.1,0-5.8,1.9-5.8,4.6c0,3.1,2,4.9,7.4,8.1c4.5,2.7,13.3,8.5,13.3,19
		c0,10.3-7.2,20.2-22.5,20.2c-9.5,0-15.7-4.8-17.4-6.9C209.3,252.5,209.5,251.7,210.1,250.9z"/>
	<path id="XMLID_131_" class="st1" d="M296.6,195.5c13.9,0,25.1,12.6,25.1,28.2c0,20.2-14.9,36.6-33.8,36.6
		c-13.9,0-25.1-12.4-25.1-27.9C262.8,212.1,277.9,195.5,296.6,195.5z M307,225.4c0-8.5-5-15.5-12.2-15.5c-8.7,0-17.2,9.4-17.2,20.6
		c0,8.4,5,15.4,12.2,15.4C298.6,245.9,307,236.6,307,225.4z"/>
	<path id="XMLID_129_" class="st1" d="M340.2,198.2c0.1-0.9,0.9-1.7,1.7-1.7h11.4c0.8,0,1.4,0.8,1.3,1.7l-5.1,37.2
		c-0.9,6.3,2.2,10.6,7.2,10.6c5.4,0,9.8-4.3,10.7-10.6l5.1-37.2c0.1-0.9,0.8-1.7,1.7-1.7h11.3c0.8,0,1.4,0.8,1.4,1.7l-5.2,37.9
		c-2.1,14.6-11.9,24.3-26.8,24.3c-12.1,0-22-10.6-20-24.3L340.2,198.2z"/>
	<path id="XMLID_127_" class="st1" d="M410.3,209.7h-11c-0.9,0-1.4-0.8-1.4-1.7l1.4-9.8c0.1-0.9,0.9-1.7,1.7-1.7h36.4
		c0.9,0,1.4,0.8,1.3,1.7l-1.4,9.8c-0.1,0.9-0.8,1.7-1.7,1.7h-11.1l-6.8,48.1c-0.1,0.9-1,1.7-1.8,1.7h-11.2c-0.8,0-1.4-0.8-1.3-1.7
		L410.3,209.7z"/>
	<path id="XMLID_125_" class="st1" d="M452.1,198.2c0.1-0.9,1-1.7,1.8-1.7h11c0.9,0,1.4,0.8,1.3,1.7l-3.2,22.7H484l3.2-22.7
		c0.1-0.9,0.9-1.7,1.8-1.7H500c0.8,0,1.4,0.8,1.3,1.7l-8.4,59.6c-0.1,0.9-1,1.7-1.8,1.7h-11.2c-0.9,0-1.3-0.8-1.3-1.7l3.3-23.7h-21
		l-3.3,23.7c-0.2,0.9-0.9,1.7-1.8,1.7H445c-0.8,0-1.4-0.8-1.3-1.7L452.1,198.2z"/>
	<path id="XMLID_123_" class="st1" d="M520.9,198.2c0.1-0.9,0.9-1.7,1.7-1.7h33.9c0.9,0,1.4,0.8,1.3,1.7l-1.4,9.8
		c-0.1,0.9-0.8,1.7-1.7,1.7h-21.4l-1.6,11.2h17.5c0.8,0,1.4,0.8,1.3,1.7l-1.4,9.8c-0.2,1-1,1.7-1.8,1.7h-17.4l-1.7,12.1h21.4
		c0.9,0,1.3,0.8,1.3,1.7l-1.3,9.8c-0.1,0.9-0.9,1.7-1.8,1.7h-33.9c-0.9,0-1.4-0.8-1.3-1.7L520.9,198.2z"/>
	<path id="XMLID_120_" class="st1" d="M574.4,198.2c0.1-0.9,0.9-1.7,1.7-1.7h24.3c9.4,0,15.8,7.6,15.8,16.9
		c0,9.6-5.5,17.7-14.8,20.6l7.8,22.9c0.4,1.2-0.4,2.6-1.7,2.6H596c-0.6,0-1.2-0.4-1.3-0.8l-7.4-23.8h-4l-3.2,22.9
		c-0.1,0.9-0.9,1.7-1.7,1.7h-11.2c-0.9,0-1.4-0.8-1.3-1.7L574.4,198.2z M594.8,223.4c4.2,0,7.3-4,7.3-8.3c0-3.1-1.6-5.8-4.9-5.8
		h-10.3l-2,14H594.8z"/>
	<path id="XMLID_118_" class="st1" d="M635,197.2c0.1-0.9,1-1.6,1.8-1.6h2l26.8,34.7h0.1l4.3-32.1c0.1-0.9,0.8-1.7,1.7-1.7h11
		c0.8,0,1.5,0.7,1.4,1.5l-8.5,60.7c-0.1,0.9-0.9,1.6-1.7,1.6h-2.2l-26.8-35.8h-0.1l-4,33.2c-0.2,0.9-0.9,1.7-1.8,1.7h-11.1
		c-0.7,0-1.4-0.7-1.4-1.5L635,197.2z"/>
</g>
</svg>
