<?xml version="1.0" encoding="utf-8"?>
<!-- Generator: Adobe Illustrator 19.0.0, SVG Export Plug-In . SVG Version: 6.00 Build 0)  -->
<svg version="1.1" id="Layer_1" xmlns="http://www.w3.org/2000/svg" xmlns:xlink="http://www.w3.org/1999/xlink" x="0px" y="0px"
	 viewBox="0 0 38.2 22.8" style="enable-background:new 0 0 38.2 22.8;" xml:space="preserve">
<style type="text/css">
	.st0{fill:#EB0478;}
	.st1{fill:#FFFFFF;}
	.st2{fill:none;stroke:#FFFFFF;stroke-width:0.25;stroke-miterlimit:10;}
</style>
<polygon id="XMLID_117_" class="st0" points="38.2,11.5 19.1,22.8 0,11.4 19.1,0 "/>
<g id="XMLID_116_">
	<path id="XMLID_34_" class="st1" d="M16.2,15l0.7-1.1c0.1-0.2,0.3-0.1,0.4-0.1c0.2,0.1,0.8,0.6,1.5,0.6c0.5,0,0.9-0.4,0.8-0.8
		c0-0.5-0.3-0.8-0.9-1.2c-0.8-0.6-2-1.4-2-2.7c0-1.4,1-2.8,3.1-2.8c1.2,0,2.1,0.7,2.5,1c0.1,0.1,0.2,0.3,0.1,0.4l-0.8,1
		c-0.1,0.1-0.3,0.1-0.4,0.1s-0.8-0.6-1.5-0.6c-0.4,0-0.8,0.3-0.8,0.7c0,0.5,0.3,0.7,1.1,1.2c0.7,0.4,1.9,1.2,1.9,2.8
		c0,1.5-1.1,2.9-3.3,2.9c-1.4,0-2.3-0.7-2.5-1C16.1,15.2,16.1,15.1,16.2,15z"/>
</g>
<line id="XMLID_115_" class="st2" x1="5.6" y1="11.4" x2="13.6" y2="11.4"/>
<line id="XMLID_114_" class="st2" x1="24.6" y1="11.4" x2="32.6" y2="11.4"/>
</svg>
