<?xml version="1.0" encoding="utf-8"?>
<!-- Generator: Adobe Illustrator 19.0.0, SVG Export Plug-In . SVG Version: 6.00 Build 0)  -->
<svg version="1.1" id="Layer_1" xmlns="http://www.w3.org/2000/svg" xmlns:xlink="http://www.w3.org/1999/xlink" x="0px" y="0px"
	 viewBox="0 0 887 526.9" style="enable-background:new 0 0 887 526.9;" xml:space="preserve">
<style type="text/css">
	.st0{display:none;fill:#0071BA;}
	.st1{display:none;}
	.st2{display:inline;}
	.st3{display:none;fill:#FFFFFF;}
	.st4{fill:#FFFFFF;}
	.st5{fill:#EE258A;}
	.st6{fill:#FFD100;}
	.st7{fill:none;stroke:#FFFFFF;stroke-width:5;stroke-miterlimit:10;}
</style>
<rect id="XMLID_53_" class="st0" width="887" height="526.9"/>
<path id="XMLID_696_" class="st1" d="M444.2,2.1L4.9,263.1l-3.6,2.1l441.2,262.4l1.3,0.8L887,265.3L444.2,2.1z M444.2,7.9l433,257.1
	l-50.9,30H61.9l-50.8-30L444.2,7.9z M250.2,407h387.4L443.8,522.1L250.2,407z"/>
<g id="XMLID_407_" class="st1">
	<path id="XMLID_417_" class="st2" d="M144.7,263.2l5.7-8.5c0.9-1.4,2.6-1.2,3.4-0.6c1.4,1.1,6.5,4.6,12.2,4.6c3.9,0,6.9-3,6.8-6.4
		c-0.1-3.8-2.4-6.6-7-9.6c-6.6-4.4-15.7-11.1-15.7-22.1c0-11.4,7.9-22.3,25-22.3c10,0,17.2,5.4,20.1,7.7c1.1,0.8,1.5,2.6,0.6,3.6
		l-6.6,8.1c-0.8,1.1-2.6,1.2-3.4,0.5s-6.2-4.7-11.8-4.7c-3.6,0-6.8,2.2-6.8,5.4c0,3.7,2.3,5.7,8.7,9.5c5.3,3.2,15.6,9.9,15.6,22.3
		c0,12.1-8.4,23.6-26.4,23.6c-11.2,0-18.4-5.6-20.4-8.1C143.9,265.1,144.1,264.1,144.7,263.2z"/>
	<path id="XMLID_415_" class="st2" d="M216.8,214.8h-12.9c-1.1,0-1.7-1-1.6-2l1.7-11.5c0.1-1.1,1.1-2,2-2h42.6c1.1,0,1.7,0.9,1.6,2
		l-1.7,11.5c-0.1,1.1-1,2-2,2h-13l-7.9,56.4c-0.1,1.1-1.2,2-2.1,2h-13.1c-0.9,0-1.7-0.9-1.6-2L216.8,214.8z"/>
	<path id="XMLID_412_" class="st2" d="M240.2,270.4l40-71c0.4-0.6,1-1.2,1.8-1.2h0.9c0.7,0,1.3,0.5,1.5,1.2l19.8,71
		c0.4,1.4-0.5,2.7-2,2.7h-11.9c-1.9,0-3-0.5-3.4-2.6l-1.8-8.3h-23.3l-4.1,8.4c-0.6,1.4-2,2.5-4.2,2.5h-12
		C240,273.2,239.5,271.8,240.2,270.4z M281.2,247.8l-3.3-17.6h-0.1l-8.4,17.6H281.2z"/>
	<path id="XMLID_410_" class="st2" d="M325.7,214.8h-12.9c-1.1,0-1.7-1-1.6-2l1.7-11.5c0.1-1.1,1.1-2,2-2h42.6c1.1,0,1.7,0.9,1.6,2
		l-1.7,11.5c-0.1,1.1-1,2-2,2h-13l-7.9,56.4c-0.1,1.1-1.2,2-2.1,2h-13.1c-0.9,0-1.7-0.9-1.6-2L325.7,214.8z"/>
	<path id="XMLID_408_" class="st2" d="M369.4,201.3c0.1-1.1,1.1-2,2-2h39.8c1.1,0,1.7,0.9,1.6,2l-1.7,11.5c-0.1,1.1-1,2-2,2H384
		l-1.9,13.1h20.5c0.9,0,1.7,0.9,1.6,2l-1.7,11.5c-0.2,1.2-1.2,2-2.1,2H380l-2,14.2h25.1c1.1,0,1.6,0.9,1.5,2l-1.6,11.5
		c-0.1,1.1-1.1,2-2.1,2h-39.8c-1.1,0-1.7-0.9-1.5-2L369.4,201.3z"/>
</g>
<g id="XMLID_396_" class="st1">
	<path id="XMLID_404_" class="st2" d="M508.7,201.3c0.1-1.1,1.1-2,2.1-2H534c10.6,0,18.3,9.7,18.3,20.9c0,14-11.1,26.2-24.8,26.2
		h-8.7l-3.5,24.8c-0.1,1.1-1.2,2-2.1,2h-12.9c-1.1,0-1.6-0.9-1.5-2L508.7,201.3z M528.7,231c3.7,0,7.3-4.2,7.3-9.6
		c0-3.7-2.1-6.5-5-6.5h-7.7l-2.2,16.1H528.7z"/>
	<path id="XMLID_402_" class="st2" d="M566.1,201.3c0.1-1.1,1.1-2,2.1-2h13.1c1,0,1.6,0.9,1.5,2l-7.9,56.4h21.5c1.1,0,1.6,0.9,1.5,2
		l-1.6,11.5c-0.1,1.1-1.1,2-2.1,2h-36.3c-1.1,0-1.7-0.9-1.6-2L566.1,201.3z"/>
	<path id="XMLID_399_" class="st2" d="M600.6,270.4l40-71c0.4-0.6,1-1.2,1.8-1.2h1c0.7,0,1.3,0.5,1.5,1.2l19.8,71
		c0.4,1.4-0.5,2.7-2,2.7h-11.9c-1.9,0-3-0.5-3.4-2.6l-1.8-8.3h-23.3l-4.1,8.4c-0.6,1.4-2,2.5-4.2,2.5h-12
		C600.4,273.2,599.9,271.8,600.6,270.4z M641.6,247.8l-3.3-17.6h-0.1l-8.4,17.6H641.6z"/>
	<path id="XMLID_397_" class="st2" d="M685,237.6l-15.6-35.3c-0.5-1.4,0.4-3.1,1.9-3.1h13.3c0.8,0,1.3,0.4,1.5,0.9l8.8,21.6
		l14.9-21.6c0.3-0.4,0.7-0.9,1.7-0.9h14.9c1.6,0,2.1,1.7,1.2,3.1l-25.9,35.1l-4.6,33.7c-0.1,1.1-1.2,2-2.1,2h-13.1
		c-1.1,0-1.6-0.9-1.5-2L685,237.6z"/>
</g>
<g id="XMLID_13_" class="st1">
	<path id="XMLID_20_" class="st2" d="M445.1,221c6.4,0,11.2,6,11.2,13.2c0,9.6-7.1,17.4-15.5,17.4c-6.4,0-11.2-5.9-11.2-13.2
		C429.6,228.9,436.6,221,445.1,221z M441.2,248.6c6.2,0,11.8-6.4,11.8-14.2c0-5.8-3.4-10.4-8.3-10.4c-6.3,0-11.9,6.4-11.9,14.1
		C432.8,244,436.1,248.6,441.2,248.6z"/>
	<path id="XMLID_18_" class="st2" d="M468.3,224.5h-3.9c-0.7,0-0.9-0.5-0.8-0.9l0.1-0.9c0.1-0.5,0.6-0.9,1-0.9h3.9l1.5-10.4
		c1.2-8.3,5.6-12.3,11.7-12.3c3.3,0,5.9,1.8,6.9,3.1c0.3,0.4,0.2,0.9-0.1,1.2l-0.9,0.9c-0.4,0.4-0.8,0.4-1.2,0
		c-0.8-0.8-2.8-2.3-4.7-2.3c-4.4,0-7.6,3-8.5,9.7l-1.4,10h9.3c0.6,0,0.9,0.4,0.8,0.9l-0.1,1.1c-0.1,0.5-0.4,0.9-1,0.9h-9.3
		l-6.7,47.3c-0.1,0.5-0.6,0.9-1.1,0.9h-1.3c-0.5,0-0.9-0.4-0.8-0.9L468.3,224.5z"/>
</g>
<path id="XMLID_96_" class="st3" d="M443.1,0.7L3.9,261.7l-3.6,2.1l441.2,262.4l1.3,0.8l443.2-263.1L443.1,0.7z M443.1,6.5
	l433,257.3L825.2,294H60.8L10,263.8L443.1,6.5z M249.2,406h387.4L442.7,521.1L249.2,406z"/>
<polygon id="XMLID_89_" class="st4" points="42.7,284 846.7,284 662.8,393 225.5,393 "/>
<g id="XMLID_17_">
	<path id="XMLID_119_" class="st5" d="M172.5,306.5c0-0.2,0.1-0.3,0.3-0.3h4c3.3,0,6.1,2.7,6.1,6c0,3.4-2.7,6.1-6.1,6.1h-4
		c-0.2,0-0.3-0.2-0.3-0.3V306.5z M176.6,316.7c2.5,0,4.4-1.9,4.4-4.4c0-2.5-1.9-4.4-4.4-4.4h-2.3v8.8H176.6z"/>
	<path id="XMLID_122_" class="st5" d="M186.4,306.5c0-0.2,0.2-0.3,0.3-0.3h1.1c0.2,0,0.3,0.2,0.3,0.3V318c0,0.2-0.2,0.3-0.3,0.3
		h-1.1c-0.2,0-0.3-0.2-0.3-0.3V306.5z"/>
	<path id="XMLID_124_" class="st5" d="M191.7,316.6c0.2-0.2,0.3-0.5,0.5-0.7c0.2-0.2,0.4-0.3,0.6-0.1c0.1,0.1,1.4,1.2,2.8,1.2
		c1.2,0,2-0.7,2-1.6c0-1-0.9-1.7-2.6-2.4c-1.8-0.7-3.2-1.7-3.2-3.7c0-1.4,1-3.2,3.8-3.2c1.7,0,3,0.9,3.2,1c0.1,0.1,0.3,0.3,0.1,0.6
		c-0.1,0.2-0.3,0.5-0.4,0.7c-0.1,0.2-0.4,0.3-0.6,0.2c-0.1-0.1-1.3-0.9-2.3-0.9c-1.5,0-2,0.9-2,1.6c0,1,0.8,1.6,2.2,2.2
		c2,0.8,3.7,1.8,3.7,3.9c0,1.8-1.6,3.3-3.9,3.3c-2.1,0-3.4-1.1-3.7-1.4C191.6,317,191.5,316.9,191.7,316.6z"/>
	<path id="XMLID_126_" class="st5" d="M208.1,306c1.7,0,3,0.6,4.2,1.6c0.2,0.1,0.2,0.3,0,0.5l-0.8,0.8c-0.1,0.2-0.3,0.2-0.4,0
		c-0.8-0.7-1.9-1.2-3-1.2c-2.5,0-4.3,2.1-4.3,4.5s1.9,4.5,4.4,4.5c1.3,0,2.1-0.5,3-1.1c0.2-0.1,0.3-0.1,0.4,0l0.8,0.8
		c0.1,0.1,0.1,0.3,0,0.5c-1.2,1.1-2.7,1.7-4.2,1.7c-3.5,0-6.3-2.8-6.3-6.2S204.6,306,208.1,306z"/>
	<path id="XMLID_128_" class="st5" d="M221,306c3.5,0,6.2,2.8,6.2,6.3s-2.8,6.2-6.2,6.2s-6.2-2.8-6.2-6.2S217.5,306,221,306z
		 M221,316.8c2.5,0,4.5-2,4.5-4.5c0-2.5-2-4.5-4.5-4.5c-2.5,0-4.5,2.1-4.5,4.5C216.5,314.8,218.6,316.8,221,316.8z"/>
	<path id="XMLID_131_" class="st5" d="M229,306.7c-0.1-0.2,0-0.5,0.3-0.5h1.2c0.1,0,0.3,0.1,0.3,0.2l3.8,8.6h0.1l3.8-8.6
		c0-0.1,0.1-0.2,0.3-0.2h1.2c0.3,0,0.4,0.2,0.3,0.5l-5.3,11.7c-0.1,0.1-0.2,0.2-0.3,0.2h-0.2c-0.1,0-0.2-0.1-0.3-0.2L229,306.7z"/>
	<path id="XMLID_133_" class="st5" d="M243,306.5c0-0.2,0.1-0.3,0.3-0.3h6.9c0.2,0,0.3,0.2,0.3,0.3v1c0,0.2-0.1,0.3-0.3,0.3h-5.5
		v3.5h4.6c0.2,0,0.3,0.2,0.3,0.3v1c0,0.2-0.2,0.3-0.3,0.3h-4.6v3.7h5.5c0.2,0,0.3,0.2,0.3,0.3v1c0,0.2-0.1,0.3-0.3,0.3h-6.9
		c-0.2,0-0.3-0.2-0.3-0.3V306.5z"/>
	<path id="XMLID_135_" class="st5" d="M254.2,306.5c0-0.2,0.1-0.3,0.3-0.3h4.7c2.1,0,3.8,1.6,3.8,3.7c0,1.6-1.1,2.9-2.6,3.5l2.4,4.4
		c0.1,0.2,0,0.5-0.3,0.5h-1.4c-0.1,0-0.2-0.1-0.3-0.2l-2.3-4.6H256v4.4c0,0.2-0.2,0.3-0.3,0.3h-1.1c-0.2,0-0.3-0.2-0.3-0.3V306.5z
		 M259.1,312.1c1.1,0,2.1-1,2.1-2.1c0-1.1-1-2.1-2.1-2.1H256v4.2H259.1z"/>
	<path id="XMLID_138_" class="st5" d="M270.3,306.6c-0.1-0.2,0.1-0.4,0.3-0.4h1.2c0.1,0,0.3,0.1,0.3,0.2l2.1,7.9h0.1l2.8-8.2
		c0-0.1,0.2-0.2,0.3-0.2h0.3c0.1,0,0.3,0.1,0.3,0.2l2.9,8.2h0.1l2.1-7.9c0-0.1,0.2-0.2,0.3-0.2h1.2c0.2,0,0.4,0.2,0.3,0.4l-3.3,11.6
		c0,0.1-0.2,0.2-0.3,0.2h-0.3c-0.1,0-0.3-0.1-0.3-0.2l-3-8.6h-0.1l-3,8.6c0,0.1-0.2,0.2-0.3,0.2h-0.3c-0.1,0-0.3-0.1-0.3-0.2
		L270.3,306.6z"/>
	<path id="XMLID_140_" class="st5" d="M287.9,306.5c0-0.2,0.2-0.3,0.3-0.3h1.1c0.2,0,0.3,0.2,0.3,0.3v4.8h6.3v-4.8
		c0-0.2,0.1-0.3,0.3-0.3h1.1c0.2,0,0.3,0.2,0.3,0.3V318c0,0.2-0.2,0.3-0.3,0.3h-1.1c-0.2,0-0.3-0.2-0.3-0.3v-5h-6.3v5
		c0,0.2-0.1,0.3-0.3,0.3h-1.1c-0.2,0-0.3-0.2-0.3-0.3V306.5z"/>
	<path id="XMLID_142_" class="st5" d="M304.5,312.5l-4.1-5.8c-0.1-0.2,0-0.5,0.3-0.5h1.3c0.1,0,0.2,0.1,0.3,0.2l3.1,4.4l3.1-4.4
		c0.1-0.1,0.2-0.2,0.3-0.2h1.3c0.3,0,0.4,0.3,0.3,0.5l-4.1,5.8v5.5c0,0.2-0.2,0.3-0.3,0.3h-1.1c-0.2,0-0.3-0.2-0.3-0.3V312.5z"/>
	<path id="XMLID_144_" class="st5" d="M316.2,317.9l5.3-11.7c0.1-0.1,0.2-0.2,0.3-0.2h0.2c0.1,0,0.2,0.1,0.3,0.2l5.3,11.7
		c0.1,0.2,0,0.5-0.3,0.5h-1.1c-0.2,0-0.3-0.1-0.4-0.3l-1.1-2.4H319c-0.3,0.8-0.7,1.6-1.1,2.4c-0.1,0.1-0.2,0.3-0.4,0.3h-1.1
		C316.2,318.3,316.1,318.1,316.2,317.9z M324,314.2l-2.1-4.7h-0.1l-2.1,4.7H324z"/>
	<path id="XMLID_147_" class="st5" d="M336.6,307.8h-2.8c-0.2,0-0.3-0.2-0.3-0.3v-1c0-0.2,0.1-0.3,0.3-0.3h7.4
		c0.2,0,0.3,0.2,0.3,0.3v1c0,0.2-0.1,0.3-0.3,0.3h-2.8V318c0,0.2-0.2,0.3-0.3,0.3H337c-0.2,0-0.3-0.2-0.3-0.3V307.8z"/>
	<path id="XMLID_149_" class="st5" d="M344.4,306.5c0-0.2,0.1-0.3,0.3-0.3h4.7c2.1,0,3.8,1.6,3.8,3.7c0,1.6-1.1,2.9-2.6,3.5l2.4,4.4
		c0.1,0.2,0,0.5-0.3,0.5h-1.4c-0.1,0-0.2-0.1-0.3-0.2l-2.3-4.6h-2.6v4.4c0,0.2-0.2,0.3-0.3,0.3h-1.1c-0.2,0-0.3-0.2-0.3-0.3V306.5z
		 M349.3,312.1c1.1,0,2.1-1,2.1-2.1c0-1.1-1-2.1-2.1-2.1h-3.1v4.2H349.3z"/>
	<path id="XMLID_152_" class="st5" d="M356.9,306.5c0-0.2,0.2-0.3,0.3-0.3h1.1c0.2,0,0.3,0.2,0.3,0.3V318c0,0.2-0.2,0.3-0.3,0.3
		h-1.1c-0.2,0-0.3-0.2-0.3-0.3V306.5z"/>
	<path id="XMLID_154_" class="st5" d="M363,306.5c0-0.2,0.1-0.3,0.3-0.3h3.9c2.1,0,3.9,1.7,3.9,3.8c0,2.1-1.7,3.9-3.9,3.9h-2.5v4.1
		c0,0.2-0.2,0.3-0.3,0.3h-1.1c-0.2,0-0.3-0.2-0.3-0.3V306.5z M367.2,312.2c1.2,0,2.2-1,2.2-2.2c0-1.2-1-2.1-2.2-2.1h-2.4v4.3H367.2z
		"/>
	<path id="XMLID_157_" class="st5" d="M380.7,307.8h-2.8c-0.2,0-0.3-0.2-0.3-0.3v-1c0-0.2,0.1-0.3,0.3-0.3h7.4
		c0.2,0,0.3,0.2,0.3,0.3v1c0,0.2-0.1,0.3-0.3,0.3h-2.8V318c0,0.2-0.2,0.3-0.3,0.3H381c-0.2,0-0.3-0.2-0.3-0.3V307.8z"/>
	<path id="XMLID_159_" class="st5" d="M393.6,306c3.5,0,6.2,2.8,6.2,6.3s-2.8,6.2-6.2,6.2s-6.2-2.8-6.2-6.2S390.1,306,393.6,306z
		 M393.6,316.8c2.5,0,4.5-2,4.5-4.5c0-2.5-2-4.5-4.5-4.5c-2.5,0-4.5,2.1-4.5,4.5C389.1,314.8,391.1,316.8,393.6,316.8z"/>
	<path id="XMLID_162_" class="st5" d="M413.4,306c1.7,0,3,0.6,4.2,1.6c0.2,0.1,0.2,0.3,0,0.5l-0.8,0.8c-0.1,0.2-0.3,0.2-0.4,0
		c-0.8-0.7-1.9-1.2-3-1.2c-2.5,0-4.3,2.1-4.3,4.5s1.9,4.5,4.4,4.5c1.3,0,2.1-0.5,3-1.1c0.2-0.1,0.3-0.1,0.4,0l0.8,0.8
		c0.1,0.1,0.1,0.3,0,0.5c-1.2,1.1-2.7,1.7-4.2,1.7c-3.5,0-6.3-2.8-6.3-6.2S409.9,306,413.4,306z"/>
	<path id="XMLID_164_" class="st5" d="M419.4,317.9l5.3-11.7c0.1-0.1,0.2-0.2,0.3-0.2h0.2c0.1,0,0.2,0.1,0.3,0.2l5.3,11.7
		c0.1,0.2,0,0.5-0.3,0.5h-1.1c-0.2,0-0.3-0.1-0.4-0.3l-1.1-2.4h-5.7c-0.3,0.8-0.7,1.6-1.1,2.4c-0.1,0.1-0.2,0.3-0.4,0.3h-1.1
		C419.4,318.3,419.3,318.1,419.4,317.9z M427.2,314.2l-2.1-4.7H425l-2.1,4.7H427.2z"/>
	<path id="XMLID_167_" class="st5" d="M433.4,306.5c0-0.2,0.1-0.3,0.3-0.3h1.1c0.2,0,0.3,0.2,0.3,0.3v10.2h4.7
		c0.2,0,0.3,0.2,0.3,0.3v1c0,0.2-0.1,0.3-0.3,0.3h-6.2c-0.2,0-0.3-0.2-0.3-0.3V306.5z"/>
	<path id="XMLID_169_" class="st5" d="M443,306.5c0-0.2,0.2-0.3,0.3-0.3h1.1c0.2,0,0.3,0.2,0.3,0.3V318c0,0.2-0.2,0.3-0.3,0.3h-1.1
		c-0.2,0-0.3-0.2-0.3-0.3V306.5z"/>
	<path id="XMLID_171_" class="st5" d="M449.1,306.5c0-0.2,0.1-0.3,0.3-0.3h6.9c0.2,0,0.3,0.2,0.3,0.3v1c0,0.2-0.1,0.3-0.3,0.3h-5.5
		v4h4.6c0.2,0,0.3,0.2,0.3,0.3v1c0,0.2-0.2,0.3-0.3,0.3h-4.6v4.6c0,0.2-0.2,0.3-0.3,0.3h-1.1c-0.2,0-0.3-0.2-0.3-0.3V306.5z"/>
	<path id="XMLID_173_" class="st5" d="M465.2,306c3.5,0,6.2,2.8,6.2,6.3s-2.8,6.2-6.2,6.2c-3.5,0-6.2-2.8-6.2-6.2
		S461.8,306,465.2,306z M465.2,316.8c2.5,0,4.5-2,4.5-4.5c0-2.5-2-4.5-4.5-4.5c-2.5,0-4.5,2.1-4.5,4.5
		C460.7,314.8,462.8,316.8,465.2,316.8z"/>
	<path id="XMLID_176_" class="st5" d="M474.9,306.5c0-0.2,0.1-0.3,0.3-0.3h4.7c2.1,0,3.8,1.6,3.8,3.7c0,1.6-1.1,2.9-2.6,3.5l2.4,4.4
		c0.1,0.2,0,0.5-0.3,0.5h-1.4c-0.1,0-0.2-0.1-0.3-0.2l-2.3-4.6h-2.6v4.4c0,0.2-0.2,0.3-0.3,0.3h-1.1c-0.2,0-0.3-0.2-0.3-0.3V306.5z
		 M479.8,312.1c1.1,0,2.1-1,2.1-2.1c0-1.1-1-2.1-2.1-2.1h-3.1v4.2H479.8z"/>
	<path id="XMLID_179_" class="st5" d="M487.3,306.3c0-0.2,0.2-0.3,0.3-0.3h0.4l7.5,8.7h0v-8.2c0-0.2,0.1-0.3,0.3-0.3h1.1
		c0.2,0,0.3,0.2,0.3,0.3v11.7c0,0.2-0.2,0.3-0.3,0.3h-0.5l-7.5-8.9h0v8.4c0,0.2-0.1,0.3-0.3,0.3h-1.1c-0.2,0-0.3-0.2-0.3-0.3V306.3z
		"/>
	<path id="XMLID_181_" class="st5" d="M501.7,306.5c0-0.2,0.2-0.3,0.3-0.3h1.1c0.2,0,0.3,0.2,0.3,0.3V318c0,0.2-0.2,0.3-0.3,0.3H502
		c-0.2,0-0.3-0.2-0.3-0.3V306.5z"/>
	<path id="XMLID_183_" class="st5" d="M506.2,317.9l5.3-11.7c0.1-0.1,0.2-0.2,0.3-0.2h0.2c0.1,0,0.2,0.1,0.3,0.2l5.3,11.7
		c0.1,0.2,0,0.5-0.3,0.5h-1.1c-0.2,0-0.3-0.1-0.4-0.3l-1.1-2.4H509c-0.3,0.8-0.7,1.6-1.1,2.4c-0.1,0.1-0.2,0.3-0.4,0.3h-1.1
		C506.2,318.3,506.1,318.1,506.2,317.9z M514,314.2l-2.1-4.7h-0.1l-2.1,4.7H514z"/>
	<path id="XMLID_186_" class="st5" d="M526.3,306.3c0-0.1,0.2-0.3,0.3-0.3h0.3c0.1,0,0.3,0.1,0.3,0.2l3.6,8.8h0.1l3.6-8.8
		c0-0.1,0.2-0.2,0.3-0.2h0.3c0.1,0,0.3,0.1,0.3,0.3l2.1,11.6c0.1,0.2-0.1,0.4-0.3,0.4h-1.1c-0.2,0-0.3-0.1-0.3-0.2l-1.3-7.7
		c0,0-0.1,0-0.1,0l-3.1,8c0,0.1-0.1,0.2-0.3,0.2h-0.3c-0.1,0-0.3-0.1-0.3-0.2l-3.1-8c0,0-0.1,0-0.1,0l-1.2,7.7
		c0,0.1-0.2,0.2-0.3,0.2h-1.1c-0.2,0-0.4-0.2-0.3-0.4L526.3,306.3z"/>
	<path id="XMLID_188_" class="st5" d="M539.4,317.9l5.3-11.7c0.1-0.1,0.2-0.2,0.3-0.2h0.2c0.1,0,0.2,0.1,0.3,0.2l5.3,11.7
		c0.1,0.2,0,0.5-0.3,0.5h-1.1c-0.2,0-0.3-0.1-0.4-0.3l-1.1-2.4h-5.7c-0.3,0.8-0.7,1.6-1.1,2.4c-0.1,0.1-0.2,0.3-0.4,0.3h-1.1
		C539.4,318.3,539.3,318.1,539.4,317.9z M547.2,314.2l-2.1-4.7H545l-2.1,4.7H547.2z"/>
	<path id="XMLID_191_" class="st5" d="M553.4,306.6c0-0.2,0.2-0.4,0.4-0.4h1c0.2,0,0.4,0.2,0.4,0.4v4.8l4.9-5
		c0.1-0.1,0.2-0.2,0.3-0.2h1.3c0.3,0,0.5,0.4,0.2,0.6l-5,5.1l5.3,5.8c0.1,0.2,0.1,0.6-0.3,0.6h-1.4c-0.2,0-0.3-0.1-0.3-0.1l-5-5.7
		v5.4c0,0.2-0.2,0.4-0.4,0.4h-1c-0.2,0-0.4-0.2-0.4-0.4V306.6z"/>
	<path id="XMLID_193_" class="st5" d="M565.3,306.5c0-0.2,0.1-0.3,0.3-0.3h6.9c0.2,0,0.3,0.2,0.3,0.3v1c0,0.2-0.1,0.3-0.3,0.3h-5.5
		v3.5h4.6c0.2,0,0.3,0.2,0.3,0.3v1c0,0.2-0.2,0.3-0.3,0.3h-4.6v3.7h5.5c0.2,0,0.3,0.2,0.3,0.3v1c0,0.2-0.1,0.3-0.3,0.3h-6.9
		c-0.2,0-0.3-0.2-0.3-0.3V306.5z"/>
	<path id="XMLID_195_" class="st5" d="M575.7,316.6c0.2-0.2,0.3-0.5,0.5-0.7c0.2-0.2,0.4-0.3,0.6-0.1c0.1,0.1,1.4,1.2,2.8,1.2
		c1.2,0,2-0.7,2-1.6c0-1-0.9-1.7-2.6-2.4c-1.8-0.7-3.2-1.7-3.2-3.7c0-1.4,1-3.2,3.8-3.2c1.7,0,3,0.9,3.2,1c0.1,0.1,0.3,0.3,0.1,0.6
		c-0.1,0.2-0.3,0.5-0.4,0.7c-0.1,0.2-0.4,0.3-0.6,0.2c-0.1-0.1-1.3-0.9-2.3-0.9c-1.5,0-2,0.9-2,1.6c0,1,0.8,1.6,2.2,2.2
		c2,0.8,3.7,1.8,3.7,3.9c0,1.8-1.6,3.3-3.9,3.3c-2.1,0-3.4-1.1-3.7-1.4C575.6,317,575.5,316.9,575.7,316.6z"/>
	<path id="XMLID_197_" class="st5" d="M593.1,307.8h-2.8c-0.2,0-0.3-0.2-0.3-0.3v-1c0-0.2,0.1-0.3,0.3-0.3h7.4
		c0.2,0,0.3,0.2,0.3,0.3v1c0,0.2-0.1,0.3-0.3,0.3h-2.8V318c0,0.2-0.2,0.3-0.3,0.3h-1.1c-0.2,0-0.3-0.2-0.3-0.3V307.8z"/>
	<path id="XMLID_199_" class="st5" d="M600.9,306.5c0-0.2,0.2-0.3,0.3-0.3h1.1c0.2,0,0.3,0.2,0.3,0.3v4.8h6.3v-4.8
		c0-0.2,0.1-0.3,0.3-0.3h1.1c0.2,0,0.3,0.2,0.3,0.3V318c0,0.2-0.2,0.3-0.3,0.3h-1.1c-0.2,0-0.3-0.2-0.3-0.3v-5h-6.3v5
		c0,0.2-0.1,0.3-0.3,0.3h-1.1c-0.2,0-0.3-0.2-0.3-0.3V306.5z"/>
	<path id="XMLID_201_" class="st5" d="M615.1,306.5c0-0.2,0.1-0.3,0.3-0.3h6.9c0.2,0,0.3,0.2,0.3,0.3v1c0,0.2-0.1,0.3-0.3,0.3h-5.5
		v3.5h4.6c0.2,0,0.3,0.2,0.3,0.3v1c0,0.2-0.2,0.3-0.3,0.3h-4.6v3.7h5.5c0.2,0,0.3,0.2,0.3,0.3v1c0,0.2-0.1,0.3-0.3,0.3h-6.9
		c-0.2,0-0.3-0.2-0.3-0.3V306.5z"/>
	<path id="XMLID_203_" class="st5" d="M630.9,306.5c0-0.2,0.2-0.3,0.3-0.3h1.2c0.2,0,0.3,0.2,0.3,0.3v7.2c0,1.7,1.1,3.1,2.9,3.1
		c1.8,0,2.9-1.3,2.9-3v-7.2c0-0.2,0.1-0.3,0.3-0.3h1.2c0.2,0,0.3,0.2,0.3,0.3v7.3c0,2.6-2,4.7-4.7,4.7c-2.7,0-4.7-2.1-4.7-4.7V306.5
		z"/>
	<path id="XMLID_205_" class="st5" d="M644.5,306.5c0-0.2,0.1-0.3,0.3-0.3h1.1c0.2,0,0.3,0.2,0.3,0.3v10.2h4.7
		c0.2,0,0.3,0.2,0.3,0.3v1c0,0.2-0.1,0.3-0.3,0.3h-6.2c-0.2,0-0.3-0.2-0.3-0.3V306.5z"/>
	<path id="XMLID_207_" class="st5" d="M655,307.8h-2.8c-0.2,0-0.3-0.2-0.3-0.3v-1c0-0.2,0.1-0.3,0.3-0.3h7.4c0.2,0,0.3,0.2,0.3,0.3
		v1c0,0.2-0.1,0.3-0.3,0.3h-2.8V318c0,0.2-0.2,0.3-0.3,0.3h-1.1c-0.2,0-0.3-0.2-0.3-0.3V307.8z"/>
	<path id="XMLID_209_" class="st5" d="M662.8,306.5c0-0.2,0.2-0.3,0.3-0.3h1.1c0.2,0,0.3,0.2,0.3,0.3V318c0,0.2-0.2,0.3-0.3,0.3
		h-1.1c-0.2,0-0.3-0.2-0.3-0.3V306.5z"/>
	<path id="XMLID_211_" class="st5" d="M670.2,306.3c0-0.1,0.2-0.3,0.3-0.3h0.3c0.1,0,0.3,0.1,0.3,0.2l3.6,8.8h0.1l3.6-8.8
		c0-0.1,0.2-0.2,0.3-0.2h0.3c0.1,0,0.3,0.1,0.3,0.3l2.1,11.6c0.1,0.2-0.1,0.4-0.3,0.4H680c-0.2,0-0.3-0.1-0.3-0.2l-1.3-7.7
		c0,0-0.1,0-0.1,0l-3.1,8c0,0.1-0.1,0.2-0.3,0.2h-0.3c-0.1,0-0.3-0.1-0.3-0.2l-3.1-8c0,0-0.1,0-0.1,0l-1.2,7.7
		c0,0.1-0.2,0.2-0.3,0.2h-1.1c-0.2,0-0.4-0.2-0.3-0.4L670.2,306.3z"/>
	<path id="XMLID_213_" class="st5" d="M683.3,317.9l5.3-11.7c0.1-0.1,0.2-0.2,0.3-0.2h0.2c0.1,0,0.2,0.1,0.3,0.2l5.3,11.7
		c0.1,0.2,0,0.5-0.3,0.5h-1.1c-0.2,0-0.3-0.1-0.4-0.3l-1.1-2.4h-5.7c-0.3,0.8-0.7,1.6-1.1,2.4c-0.1,0.1-0.2,0.3-0.4,0.3h-1.1
		C683.3,318.3,683.2,318.1,683.3,317.9z M691.1,314.2l-2.1-4.7h-0.1l-2.1,4.7H691.1z"/>
	<path id="XMLID_216_" class="st5" d="M698.3,307.8h-2.8c-0.2,0-0.3-0.2-0.3-0.3v-1c0-0.2,0.1-0.3,0.3-0.3h7.4
		c0.2,0,0.3,0.2,0.3,0.3v1c0,0.2-0.1,0.3-0.3,0.3h-2.8V318c0,0.2-0.2,0.3-0.3,0.3h-1.1c-0.2,0-0.3-0.2-0.3-0.3V307.8z"/>
	<path id="XMLID_218_" class="st5" d="M706.1,306.5c0-0.2,0.1-0.3,0.3-0.3h6.9c0.2,0,0.3,0.2,0.3,0.3v1c0,0.2-0.1,0.3-0.3,0.3h-5.5
		v3.5h4.6c0.2,0,0.3,0.2,0.3,0.3v1c0,0.2-0.2,0.3-0.3,0.3h-4.6v3.7h5.5c0.2,0,0.3,0.2,0.3,0.3v1c0,0.2-0.1,0.3-0.3,0.3h-6.9
		c-0.2,0-0.3-0.2-0.3-0.3V306.5z"/>
	<path id="XMLID_220_" class="st5" d="M218.1,333.4c0-0.2,0.1-0.3,0.3-0.3h6.9c0.2,0,0.3,0.2,0.3,0.3v1c0,0.2-0.1,0.3-0.3,0.3h-5.5
		v4h4.6c0.2,0,0.3,0.2,0.3,0.3v1c0,0.2-0.2,0.3-0.3,0.3h-4.6v4.6c0,0.2-0.2,0.3-0.3,0.3h-1.1c-0.2,0-0.3-0.2-0.3-0.3V333.4z"/>
	<path id="XMLID_222_" class="st5" d="M225.7,344.8l5.3-11.7c0.1-0.1,0.2-0.2,0.3-0.2h0.2c0.1,0,0.2,0.1,0.3,0.2l5.3,11.7
		c0.1,0.2,0,0.5-0.3,0.5h-1.1c-0.2,0-0.3-0.1-0.4-0.3l-1.1-2.4h-5.7c-0.3,0.8-0.7,1.6-1.1,2.4c-0.1,0.1-0.2,0.3-0.4,0.3H226
		C225.7,345.2,225.6,345,225.7,344.8z M233.5,341.1l-2.1-4.7h-0.1l-2.1,4.7H233.5z"/>
	<path id="XMLID_225_" class="st5" d="M239.9,333.2c0-0.1,0.2-0.3,0.3-0.3h0.3c0.1,0,0.3,0.1,0.3,0.2l3.6,8.8h0.1l3.6-8.8
		c0-0.1,0.2-0.2,0.3-0.2h0.3c0.1,0,0.3,0.1,0.3,0.3l2.1,11.6c0.1,0.2-0.1,0.4-0.3,0.4h-1.1c-0.2,0-0.3-0.1-0.3-0.2l-1.3-7.7
		c0,0-0.1,0-0.1,0l-3.1,8c0,0.1-0.1,0.2-0.3,0.2h-0.3c-0.1,0-0.3-0.1-0.3-0.2l-3.1-8c0,0-0.1,0-0.1,0l-1.2,7.7
		c0,0.1-0.2,0.2-0.3,0.2h-1.1c-0.2,0-0.4-0.2-0.3-0.4L239.9,333.2z"/>
	<path id="XMLID_227_" class="st5" d="M253.4,333.4c0-0.2,0.2-0.3,0.3-0.3h1.1c0.2,0,0.3,0.2,0.3,0.3v11.5c0,0.2-0.2,0.3-0.3,0.3
		h-1.1c-0.2,0-0.3-0.2-0.3-0.3V333.4z"/>
	<path id="XMLID_229_" class="st5" d="M258.4,333.4c0-0.2,0.1-0.3,0.3-0.3h1.1c0.2,0,0.3,0.2,0.3,0.3v10.2h4.7
		c0.2,0,0.3,0.2,0.3,0.3v1c0,0.2-0.1,0.3-0.3,0.3h-6.2c-0.2,0-0.3-0.2-0.3-0.3V333.4z"/>
	<path id="XMLID_231_" class="st5" d="M268.4,339.4l-4.1-5.8c-0.1-0.2,0-0.5,0.3-0.5h1.3c0.1,0,0.2,0.1,0.3,0.2l3.1,4.4l3.1-4.4
		c0.1-0.1,0.2-0.2,0.3-0.2h1.3c0.3,0,0.4,0.3,0.3,0.5l-4.1,5.8v5.5c0,0.2-0.2,0.3-0.3,0.3h-1.1c-0.2,0-0.3-0.2-0.3-0.3V339.4z"/>
	<path id="XMLID_233_" class="st5" d="M277.8,333.5c-0.1-0.2,0-0.5,0.3-0.5h1.2c0.1,0,0.3,0.1,0.3,0.2l3.8,8.6h0.1l3.8-8.6
		c0-0.1,0.1-0.2,0.3-0.2h1.2c0.3,0,0.4,0.2,0.3,0.5l-5.3,11.7c-0.1,0.1-0.2,0.2-0.3,0.2h-0.2c-0.1,0-0.2-0.1-0.3-0.2L277.8,333.5z"
		/>
	<path id="XMLID_235_" class="st5" d="M288.3,344.8l5.3-11.7c0.1-0.1,0.2-0.2,0.3-0.2h0.2c0.1,0,0.2,0.1,0.3,0.2l5.3,11.7
		c0.1,0.2,0,0.5-0.3,0.5h-1.1c-0.2,0-0.3-0.1-0.4-0.3l-1.1-2.4h-5.7c-0.3,0.8-0.7,1.6-1.1,2.4c-0.1,0.1-0.2,0.3-0.4,0.3h-1.1
		C288.4,345.2,288.2,345,288.3,344.8z M296.2,341.1l-2.1-4.7H294l-2.1,4.7H296.2z"/>
	<path id="XMLID_238_" class="st5" d="M306.6,332.9c1.7,0,3,0.6,4.2,1.6c0.2,0.1,0.2,0.3,0,0.5l-0.8,0.8c-0.1,0.2-0.3,0.2-0.4,0
		c-0.8-0.7-1.9-1.2-3-1.2c-2.5,0-4.3,2.1-4.3,4.5s1.9,4.5,4.4,4.5c1.3,0,2.1-0.5,3-1.1c0.2-0.1,0.3-0.1,0.4,0l0.8,0.8
		c0.1,0.1,0.1,0.3,0,0.5c-1.2,1.1-2.7,1.7-4.2,1.7c-3.5,0-6.3-2.8-6.3-6.2S303.1,332.9,306.6,332.9z"/>
	<path id="XMLID_240_" class="st5" d="M311.4,344.8l5.3-11.7c0.1-0.1,0.2-0.2,0.3-0.2h0.2c0.1,0,0.2,0.1,0.3,0.2l5.3,11.7
		c0.1,0.2,0,0.5-0.3,0.5h-1.1c-0.2,0-0.3-0.1-0.4-0.3l-1.1-2.4h-5.7c-0.3,0.8-0.7,1.6-1.1,2.4c-0.1,0.1-0.2,0.3-0.4,0.3h-1.1
		C311.5,345.2,311.3,345,311.4,344.8z M319.3,341.1l-2.1-4.7h-0.1l-2.1,4.7H319.3z"/>
	<path id="XMLID_243_" class="st5" d="M325.4,334.7h-2.8c-0.2,0-0.3-0.2-0.3-0.3v-1c0-0.2,0.1-0.3,0.3-0.3h7.4
		c0.2,0,0.3,0.2,0.3,0.3v1c0,0.2-0.1,0.3-0.3,0.3h-2.8v10.2c0,0.2-0.2,0.3-0.3,0.3h-1.1c-0.2,0-0.3-0.2-0.3-0.3V334.7z"/>
	<path id="XMLID_245_" class="st5" d="M332,333.4c0-0.2,0.2-0.3,0.3-0.3h1.1c0.2,0,0.3,0.2,0.3,0.3v11.5c0,0.2-0.2,0.3-0.3,0.3h-1.1
		c-0.2,0-0.3-0.2-0.3-0.3V333.4z"/>
	<path id="XMLID_247_" class="st5" d="M342.3,332.9c3.5,0,6.2,2.8,6.2,6.3s-2.8,6.2-6.2,6.2s-6.2-2.8-6.2-6.2
		S338.9,332.9,342.3,332.9z M342.3,343.7c2.5,0,4.5-2,4.5-4.5c0-2.5-2-4.5-4.5-4.5c-2.5,0-4.5,2.1-4.5,4.5
		C337.9,341.6,339.9,343.7,342.3,343.7z"/>
	<path id="XMLID_250_" class="st5" d="M350.9,333.2c0-0.2,0.2-0.3,0.3-0.3h0.4l7.5,8.7h0v-8.2c0-0.2,0.1-0.3,0.3-0.3h1.1
		c0.2,0,0.3,0.2,0.3,0.3v11.7c0,0.2-0.2,0.3-0.3,0.3h-0.5l-7.5-8.9h0v8.4c0,0.2-0.1,0.3-0.3,0.3h-1.1c-0.2,0-0.3-0.2-0.3-0.3V333.2z
		"/>
	<path id="XMLID_252_" class="st5" d="M364.3,343c0.7,0,1.2,0.5,1.2,1.2c0,0.7-0.5,1.2-1.2,1.2c-0.7,0-1.2-0.5-1.2-1.2
		C363.1,343.5,363.6,343,364.3,343z"/>
	<path id="XMLID_254_" class="st5" d="M371.4,333.4c0-0.2,0.1-0.3,0.3-0.3h6.9c0.2,0,0.3,0.2,0.3,0.3v1c0,0.2-0.1,0.3-0.3,0.3h-5.5
		v3.5h4.6c0.2,0,0.3,0.2,0.3,0.3v1c0,0.2-0.2,0.3-0.3,0.3h-4.6v3.7h5.5c0.2,0,0.3,0.2,0.3,0.3v1c0,0.2-0.1,0.3-0.3,0.3h-6.9
		c-0.2,0-0.3-0.2-0.3-0.3V333.4z"/>
	<path id="XMLID_256_" class="st5" d="M383.9,339l-3.4-5.4c-0.1-0.2,0-0.5,0.3-0.5h1.5c0.1,0,0.2,0.1,0.3,0.2l2.4,4.1h0l2.5-4.1
		c0-0.1,0.1-0.2,0.3-0.2h1.5c0.3,0,0.4,0.3,0.3,0.5l-3.4,5.4l3.6,5.7c0.1,0.2,0,0.5-0.3,0.5H388c-0.1,0-0.3-0.1-0.3-0.2l-2.7-4.4h0
		l-2.7,4.4c-0.1,0.1-0.2,0.2-0.3,0.2h-1.3c-0.3,0-0.5-0.3-0.3-0.5L383.9,339z"/>
	<path id="XMLID_258_" class="st5" d="M391.8,333.4c0-0.2,0.1-0.3,0.3-0.3h3.9c2.1,0,3.9,1.7,3.9,3.8c0,2.1-1.7,3.9-3.9,3.9h-2.5
		v4.1c0,0.2-0.2,0.3-0.3,0.3h-1.1c-0.2,0-0.3-0.2-0.3-0.3V333.4z M395.9,339.1c1.2,0,2.2-1,2.2-2.2c0-1.2-1-2.1-2.2-2.1h-2.4v4.3
		H395.9z"/>
	<path id="XMLID_261_" class="st5" d="M401.9,333.4c0-0.2,0.1-0.3,0.3-0.3h1.1c0.2,0,0.3,0.2,0.3,0.3v10.2h4.7
		c0.2,0,0.3,0.2,0.3,0.3v1c0,0.2-0.1,0.3-0.3,0.3h-6.2c-0.2,0-0.3-0.2-0.3-0.3V333.4z"/>
	<path id="XMLID_263_" class="st5" d="M415.6,332.9c3.5,0,6.2,2.8,6.2,6.3s-2.8,6.2-6.2,6.2s-6.2-2.8-6.2-6.2
		S412.1,332.9,415.6,332.9z M415.6,343.7c2.5,0,4.5-2,4.5-4.5c0-2.5-2-4.5-4.5-4.5c-2.5,0-4.5,2.1-4.5,4.5
		C411.1,341.6,413.1,343.7,415.6,343.7z"/>
	<path id="XMLID_266_" class="st5" d="M424.1,333.4c0-0.2,0.1-0.3,0.3-0.3h4.7c2.1,0,3.8,1.6,3.8,3.7c0,1.6-1.1,2.9-2.6,3.5l2.4,4.4
		c0.1,0.2,0,0.5-0.3,0.5h-1.4c-0.1,0-0.2-0.1-0.3-0.2l-2.3-4.6h-2.6v4.4c0,0.2-0.2,0.3-0.3,0.3h-1.1c-0.2,0-0.3-0.2-0.3-0.3V333.4z
		 M429,339c1.1,0,2.1-1,2.1-2.1c0-1.1-1-2.1-2.1-2.1h-3.1v4.2H429z"/>
	<path id="XMLID_269_" class="st5" d="M435.4,333.4c0-0.2,0.1-0.3,0.3-0.3h6.9c0.2,0,0.3,0.2,0.3,0.3v1c0,0.2-0.1,0.3-0.3,0.3h-5.5
		v3.5h4.6c0.2,0,0.3,0.2,0.3,0.3v1c0,0.2-0.2,0.3-0.3,0.3h-4.6v3.7h5.5c0.2,0,0.3,0.2,0.3,0.3v1c0,0.2-0.1,0.3-0.3,0.3h-6.9
		c-0.2,0-0.3-0.2-0.3-0.3V333.4z"/>
	<path id="XMLID_271_" class="st5" d="M449.1,333.2c0-0.2,0.2-0.3,0.3-0.3h0.4l7.5,8.7h0v-8.2c0-0.2,0.1-0.3,0.3-0.3h1.1
		c0.2,0,0.3,0.2,0.3,0.3v11.7c0,0.2-0.2,0.3-0.3,0.3h-0.5l-7.5-8.9h0v8.4c0,0.2-0.1,0.3-0.3,0.3h-1.1c-0.2,0-0.3-0.2-0.3-0.3V333.2z
		"/>
	<path id="XMLID_273_" class="st5" d="M467.7,332.9c3.5,0,6.2,2.8,6.2,6.3s-2.8,6.2-6.2,6.2c-3.5,0-6.2-2.8-6.2-6.2
		S464.2,332.9,467.7,332.9z M467.7,343.7c2.5,0,4.5-2,4.5-4.5c0-2.5-2-4.5-4.5-4.5c-2.5,0-4.5,2.1-4.5,4.5
		C463.2,341.6,465.2,343.7,467.7,343.7z"/>
	<path id="XMLID_276_" class="st5" d="M476.2,333.4c0-0.2,0.1-0.3,0.3-0.3h4.7c2.1,0,3.8,1.6,3.8,3.7c0,1.6-1.1,2.9-2.6,3.5l2.4,4.4
		c0.1,0.2,0,0.5-0.3,0.5h-1.4c-0.1,0-0.2-0.1-0.3-0.2l-2.3-4.6H478v4.4c0,0.2-0.2,0.3-0.3,0.3h-1.1c-0.2,0-0.3-0.2-0.3-0.3V333.4z
		 M481.1,339c1.1,0,2.1-1,2.1-2.1c0-1.1-1-2.1-2.1-2.1H478v4.2H481.1z"/>
	<path id="XMLID_279_" class="st5" d="M489.2,334.7h-2.8c-0.2,0-0.3-0.2-0.3-0.3v-1c0-0.2,0.1-0.3,0.3-0.3h7.4
		c0.2,0,0.3,0.2,0.3,0.3v1c0,0.2-0.1,0.3-0.3,0.3H491v10.2c0,0.2-0.2,0.3-0.3,0.3h-1.1c-0.2,0-0.3-0.2-0.3-0.3V334.7z"/>
	<path id="XMLID_281_" class="st5" d="M495.9,333.4c0-0.2,0.2-0.3,0.3-0.3h1.1c0.2,0,0.3,0.2,0.3,0.3v4.8h6.3v-4.8
		c0-0.2,0.1-0.3,0.3-0.3h1.1c0.2,0,0.3,0.2,0.3,0.3v11.5c0,0.2-0.2,0.3-0.3,0.3h-1.1c-0.2,0-0.3-0.2-0.3-0.3v-5h-6.3v5
		c0,0.2-0.1,0.3-0.3,0.3h-1.1c-0.2,0-0.3-0.2-0.3-0.3V333.4z"/>
	<path id="XMLID_283_" class="st5" d="M509,333.4c0-0.2,0.1-0.3,0.3-0.3h6.9c0.2,0,0.3,0.2,0.3,0.3v1c0,0.2-0.1,0.3-0.3,0.3h-5.5
		v3.5h4.6c0.2,0,0.3,0.2,0.3,0.3v1c0,0.2-0.2,0.3-0.3,0.3h-4.6v3.7h5.5c0.2,0,0.3,0.2,0.3,0.3v1c0,0.2-0.1,0.3-0.3,0.3h-6.9
		c-0.2,0-0.3-0.2-0.3-0.3V333.4z"/>
	<path id="XMLID_285_" class="st5" d="M519,333.4c0-0.2,0.1-0.3,0.3-0.3h4.7c2.1,0,3.8,1.6,3.8,3.7c0,1.6-1.1,2.9-2.6,3.5l2.4,4.4
		c0.1,0.2,0,0.5-0.3,0.5H526c-0.1,0-0.2-0.1-0.3-0.2l-2.3-4.6h-2.6v4.4c0,0.2-0.2,0.3-0.3,0.3h-1.1c-0.2,0-0.3-0.2-0.3-0.3V333.4z
		 M523.9,339c1.1,0,2.1-1,2.1-2.1c0-1.1-1-2.1-2.1-2.1h-3.1v4.2H523.9z"/>
	<path id="XMLID_288_" class="st5" d="M530.4,333.2c0-0.2,0.2-0.3,0.3-0.3h0.4l7.5,8.7h0v-8.2c0-0.2,0.1-0.3,0.3-0.3h1.1
		c0.2,0,0.3,0.2,0.3,0.3v11.7c0,0.2-0.2,0.3-0.3,0.3h-0.5l-7.5-8.9h0v8.4c0,0.2-0.1,0.3-0.3,0.3h-1.1c-0.2,0-0.3-0.2-0.3-0.3V333.2z
		"/>
	<path id="XMLID_290_" class="st5" d="M543.8,343c0.6,0,1.4,0.4,1.4,1.9c0,1.8-1.1,3-1.7,3.5c-0.2,0.1-0.3,0.1-0.4,0l-0.3-0.3
		c-0.1-0.1-0.1-0.3,0.1-0.4c0.2-0.2,1.2-1,1.2-2.4c0,0-0.2,0.1-0.4,0.1c-0.6,0-1.2-0.5-1.2-1.2S543.1,343,543.8,343z"/>
	<path id="XMLID_292_" class="st5" d="M556.5,332.9c1.7,0,3,0.6,4.2,1.6c0.2,0.1,0.2,0.3,0,0.5l-0.8,0.8c-0.1,0.2-0.3,0.2-0.4,0
		c-0.8-0.7-1.9-1.2-3-1.2c-2.5,0-4.3,2.1-4.3,4.5s1.9,4.5,4.4,4.5c1.3,0,2.1-0.5,3-1.1c0.2-0.1,0.3-0.1,0.4,0l0.8,0.8
		c0.1,0.1,0.1,0.3,0,0.5c-1.2,1.1-2.7,1.7-4.2,1.7c-3.5,0-6.3-2.8-6.3-6.2S553,332.9,556.5,332.9z"/>
	<path id="XMLID_294_" class="st5" d="M563,333.4c0-0.2,0.1-0.3,0.3-0.3h6.9c0.2,0,0.3,0.2,0.3,0.3v1c0,0.2-0.1,0.3-0.3,0.3h-5.5
		v3.5h4.6c0.2,0,0.3,0.2,0.3,0.3v1c0,0.2-0.2,0.3-0.3,0.3h-4.6v3.7h5.5c0.2,0,0.3,0.2,0.3,0.3v1c0,0.2-0.1,0.3-0.3,0.3h-6.9
		c-0.2,0-0.3-0.2-0.3-0.3V333.4z"/>
	<path id="XMLID_296_" class="st5" d="M573,333.2c0-0.2,0.2-0.3,0.3-0.3h0.4l7.5,8.7h0v-8.2c0-0.2,0.1-0.3,0.3-0.3h1.1
		c0.2,0,0.3,0.2,0.3,0.3v11.7c0,0.2-0.2,0.3-0.3,0.3h-0.5l-7.5-8.9h0v8.4c0,0.2-0.1,0.3-0.3,0.3h-1.1c-0.2,0-0.3-0.2-0.3-0.3V333.2z
		"/>
	<path id="XMLID_298_" class="st5" d="M588,334.7h-2.8c-0.2,0-0.3-0.2-0.3-0.3v-1c0-0.2,0.1-0.3,0.3-0.3h7.4c0.2,0,0.3,0.2,0.3,0.3
		v1c0,0.2-0.1,0.3-0.3,0.3h-2.8v10.2c0,0.2-0.2,0.3-0.3,0.3h-1.1c-0.2,0-0.3-0.2-0.3-0.3V334.7z"/>
	<path id="XMLID_300_" class="st5" d="M594.6,333.4c0-0.2,0.1-0.3,0.3-0.3h4.7c2.1,0,3.8,1.6,3.8,3.7c0,1.6-1.1,2.9-2.6,3.5l2.4,4.4
		c0.1,0.2,0,0.5-0.3,0.5h-1.4c-0.1,0-0.2-0.1-0.3-0.2l-2.3-4.6h-2.6v4.4c0,0.2-0.2,0.3-0.3,0.3h-1.1c-0.2,0-0.3-0.2-0.3-0.3V333.4z
		 M599.5,339c1.1,0,2.1-1,2.1-2.1c0-1.1-1-2.1-2.1-2.1h-3.1v4.2H599.5z"/>
	<path id="XMLID_303_" class="st5" d="M604.3,344.8l5.3-11.7c0.1-0.1,0.2-0.2,0.3-0.2h0.2c0.1,0,0.2,0.1,0.3,0.2l5.3,11.7
		c0.1,0.2,0,0.5-0.3,0.5h-1.1c-0.2,0-0.3-0.1-0.4-0.3l-1.1-2.4h-5.7c-0.3,0.8-0.7,1.6-1.1,2.4c-0.1,0.1-0.2,0.3-0.4,0.3h-1.1
		C604.3,345.2,604.2,345,604.3,344.8z M612.2,341.1l-2.1-4.7h-0.1l-2.1,4.7H612.2z"/>
	<path id="XMLID_306_" class="st5" d="M617.2,333.4c0-0.2,0.1-0.3,0.3-0.3h1.1c0.2,0,0.3,0.2,0.3,0.3v10.2h4.7
		c0.2,0,0.3,0.2,0.3,0.3v1c0,0.2-0.1,0.3-0.3,0.3h-6.2c-0.2,0-0.3-0.2-0.3-0.3V333.4z"/>
	<path id="XMLID_308_" class="st5" d="M626.1,343c0.6,0,1.4,0.4,1.4,1.9c0,1.8-1.1,3-1.7,3.5c-0.2,0.1-0.3,0.1-0.4,0l-0.3-0.3
		c-0.1-0.1-0.1-0.3,0.1-0.4c0.2-0.2,1.2-1,1.2-2.4c0,0-0.2,0.1-0.4,0.1c-0.6,0-1.2-0.5-1.2-1.2S625.4,343,626.1,343z"/>
	<path id="XMLID_310_" class="st5" d="M631.8,344.8l5.3-11.7c0.1-0.1,0.2-0.2,0.3-0.2h0.2c0.1,0,0.2,0.1,0.3,0.2l5.3,11.7
		c0.1,0.2,0,0.5-0.3,0.5h-1.1c-0.2,0-0.3-0.1-0.4-0.3l-1.1-2.4h-5.7c-0.3,0.8-0.7,1.6-1.1,2.4c-0.1,0.1-0.2,0.3-0.4,0.3h-1.1
		C631.8,345.2,631.7,345,631.8,344.8z M639.6,341.1l-2.1-4.7h-0.1l-2.1,4.7H639.6z"/>
	<path id="XMLID_313_" class="st5" d="M644.7,333.2c0-0.2,0.2-0.3,0.3-0.3h0.4l7.5,8.7h0v-8.2c0-0.2,0.1-0.3,0.3-0.3h1.1
		c0.2,0,0.3,0.2,0.3,0.3v11.7c0,0.2-0.2,0.3-0.3,0.3H654l-7.5-8.9h0v8.4c0,0.2-0.1,0.3-0.3,0.3H645c-0.2,0-0.3-0.2-0.3-0.3V333.2z"
		/>
	<path id="XMLID_315_" class="st5" d="M657.9,333.4c0-0.2,0.1-0.3,0.3-0.3h4c3.3,0,6.1,2.7,6.1,6c0,3.4-2.7,6.1-6.1,6.1h-4
		c-0.2,0-0.3-0.2-0.3-0.3V333.4z M662,343.6c2.5,0,4.4-1.9,4.4-4.4c0-2.5-1.9-4.4-4.4-4.4h-2.3v8.8H662z"/>
	<path id="XMLID_318_" class="st5" d="M266.5,370.3c0.2-0.2,0.3-0.5,0.5-0.7c0.2-0.2,0.4-0.3,0.6-0.1c0.1,0.1,1.4,1.2,2.8,1.2
		c1.2,0,2-0.7,2-1.6c0-1-0.9-1.7-2.6-2.4c-1.8-0.7-3.2-1.7-3.2-3.7c0-1.4,1-3.2,3.8-3.2c1.7,0,3,0.9,3.2,1c0.1,0.1,0.3,0.3,0.1,0.6
		c-0.1,0.2-0.3,0.5-0.4,0.7c-0.1,0.2-0.4,0.3-0.6,0.2c-0.1-0.1-1.3-0.9-2.3-0.9c-1.5,0-2,0.9-2,1.6c0,1,0.8,1.6,2.2,2.2
		c2,0.8,3.7,1.8,3.7,3.9c0,1.8-1.6,3.3-3.9,3.3c-2.1,0-3.4-1.1-3.7-1.4C266.5,370.8,266.3,370.6,266.5,370.3z"/>
	<path id="XMLID_320_" class="st5" d="M282,359.8c3.5,0,6.2,2.8,6.2,6.3s-2.8,6.2-6.2,6.2s-6.2-2.8-6.2-6.2S278.5,359.8,282,359.8z
		 M282,370.5c2.5,0,4.5-2,4.5-4.5c0-2.5-2-4.5-4.5-4.5c-2.5,0-4.5,2.1-4.5,4.5C277.5,368.5,279.5,370.5,282,370.5z"/>
	<path id="XMLID_323_" class="st5" d="M290.6,360.3c0-0.2,0.2-0.3,0.3-0.3h1.2c0.2,0,0.3,0.2,0.3,0.3v7.2c0,1.7,1.1,3.1,2.9,3.1
		c1.8,0,2.9-1.3,2.9-3v-7.2c0-0.2,0.1-0.3,0.3-0.3h1.2c0.2,0,0.3,0.2,0.3,0.3v7.3c0,2.6-2,4.7-4.7,4.7c-2.7,0-4.7-2.1-4.7-4.7V360.3
		z"/>
	<path id="XMLID_325_" class="st5" d="M305,361.6h-2.8c-0.2,0-0.3-0.2-0.3-0.3v-1c0-0.2,0.1-0.3,0.3-0.3h7.4c0.2,0,0.3,0.2,0.3,0.3
		v1c0,0.2-0.1,0.3-0.3,0.3h-2.8v10.2c0,0.2-0.2,0.3-0.3,0.3h-1.1c-0.2,0-0.3-0.2-0.3-0.3V361.6z"/>
	<path id="XMLID_327_" class="st5" d="M311.9,360.3c0-0.2,0.2-0.3,0.3-0.3h1.1c0.2,0,0.3,0.2,0.3,0.3v4.8h6.3v-4.8
		c0-0.2,0.1-0.3,0.3-0.3h1.1c0.2,0,0.3,0.2,0.3,0.3v11.5c0,0.2-0.2,0.3-0.3,0.3h-1.1c-0.2,0-0.3-0.2-0.3-0.3v-5h-6.3v5
		c0,0.2-0.1,0.3-0.3,0.3h-1.1c-0.2,0-0.3-0.2-0.3-0.3V360.3z"/>
	<path id="XMLID_329_" class="st5" d="M325.3,360.3c0-0.2,0.1-0.3,0.3-0.3h6.9c0.2,0,0.3,0.2,0.3,0.3v1c0,0.2-0.1,0.3-0.3,0.3h-5.5
		v3.5h4.6c0.2,0,0.3,0.2,0.3,0.3v1c0,0.2-0.2,0.3-0.3,0.3h-4.6v3.7h5.5c0.2,0,0.3,0.2,0.3,0.3v1c0,0.2-0.1,0.3-0.3,0.3h-6.9
		c-0.2,0-0.3-0.2-0.3-0.3V360.3z"/>
	<path id="XMLID_331_" class="st5" d="M335.6,360.3c0-0.2,0.1-0.3,0.3-0.3h4.7c2.1,0,3.8,1.6,3.8,3.7c0,1.6-1.1,2.9-2.6,3.5l2.4,4.4
		c0.1,0.2,0,0.5-0.3,0.5h-1.4c-0.1,0-0.2-0.1-0.3-0.2l-2.3-4.6h-2.6v4.4c0,0.2-0.2,0.3-0.3,0.3h-1.1c-0.2,0-0.3-0.2-0.3-0.3V360.3z
		 M340.5,365.9c1.1,0,2.1-1,2.1-2.1c0-1.1-1-2.1-2.1-2.1h-3.1v4.2H340.5z"/>
	<path id="XMLID_334_" class="st5" d="M347.2,360.1c0-0.2,0.2-0.3,0.3-0.3h0.4l7.5,8.7h0v-8.2c0-0.2,0.1-0.3,0.3-0.3h1.1
		c0.2,0,0.3,0.2,0.3,0.3V372c0,0.2-0.2,0.3-0.3,0.3h-0.5l-7.5-8.9h0v8.4c0,0.2-0.1,0.3-0.3,0.3h-1.1c-0.2,0-0.3-0.2-0.3-0.3V360.1z"
		/>
	<path id="XMLID_336_" class="st5" d="M370,359.8c1.7,0,3,0.6,4.2,1.6c0.2,0.1,0.2,0.3,0,0.5l-0.8,0.8c-0.1,0.2-0.3,0.2-0.4,0
		c-0.8-0.7-1.9-1.2-3-1.2c-2.5,0-4.3,2.1-4.3,4.5s1.9,4.5,4.4,4.5c1.3,0,2.1-0.5,3-1.1c0.2-0.1,0.3-0.1,0.4,0l0.8,0.8
		c0.1,0.1,0.1,0.3,0,0.5c-1.2,1.1-2.7,1.7-4.2,1.7c-3.5,0-6.3-2.8-6.3-6.2S366.5,359.8,370,359.8z"/>
	<path id="XMLID_338_" class="st5" d="M375.1,371.6l5.3-11.7c0.1-0.1,0.2-0.2,0.3-0.2h0.2c0.1,0,0.2,0.1,0.3,0.2l5.3,11.7
		c0.1,0.2,0,0.5-0.3,0.5h-1.1c-0.2,0-0.3-0.1-0.4-0.3l-1.1-2.4h-5.7c-0.3,0.8-0.7,1.6-1.1,2.4c-0.1,0.1-0.2,0.3-0.4,0.3h-1.1
		C375.1,372.1,375,371.9,375.1,371.6z M382.9,368l-2.1-4.7h-0.1l-2.1,4.7H382.9z"/>
	<path id="XMLID_341_" class="st5" d="M388.3,360.3c0-0.2,0.1-0.3,0.3-0.3h1.1c0.2,0,0.3,0.2,0.3,0.3v10.2h4.7
		c0.2,0,0.3,0.2,0.3,0.3v1c0,0.2-0.1,0.3-0.3,0.3h-6.2c-0.2,0-0.3-0.2-0.3-0.3V360.3z"/>
	<path id="XMLID_343_" class="st5" d="M397,360.3c0-0.2,0.2-0.3,0.3-0.3h1.1c0.2,0,0.3,0.2,0.3,0.3v11.5c0,0.2-0.2,0.3-0.3,0.3h-1.1
		c-0.2,0-0.3-0.2-0.3-0.3V360.3z"/>
	<path id="XMLID_345_" class="st5" d="M402.3,360.3c0-0.2,0.1-0.3,0.3-0.3h6.9c0.2,0,0.3,0.2,0.3,0.3v1c0,0.2-0.1,0.3-0.3,0.3H404v4
		h4.6c0.2,0,0.3,0.2,0.3,0.3v1c0,0.2-0.2,0.3-0.3,0.3H404v4.6c0,0.2-0.2,0.3-0.3,0.3h-1.1c-0.2,0-0.3-0.2-0.3-0.3V360.3z"/>
	<path id="XMLID_347_" class="st5" d="M417.5,359.8c3.5,0,6.2,2.8,6.2,6.3s-2.8,6.2-6.2,6.2s-6.2-2.8-6.2-6.2S414,359.8,417.5,359.8
		z M417.5,370.5c2.5,0,4.5-2,4.5-4.5c0-2.5-2-4.5-4.5-4.5c-2.5,0-4.5,2.1-4.5,4.5C413,368.5,415,370.5,417.5,370.5z"/>
	<path id="XMLID_350_" class="st5" d="M426.3,360.3c0-0.2,0.1-0.3,0.3-0.3h4.7c2.1,0,3.8,1.6,3.8,3.7c0,1.6-1.1,2.9-2.6,3.5l2.4,4.4
		c0.1,0.2,0,0.5-0.3,0.5h-1.4c-0.1,0-0.2-0.1-0.3-0.2l-2.3-4.6h-2.6v4.4c0,0.2-0.2,0.3-0.3,0.3h-1.1c-0.2,0-0.3-0.2-0.3-0.3V360.3z
		 M431.2,365.9c1.1,0,2.1-1,2.1-2.1c0-1.1-1-2.1-2.1-2.1h-3.1v4.2H431.2z"/>
	<path id="XMLID_353_" class="st5" d="M437.9,360.1c0-0.2,0.2-0.3,0.3-0.3h0.4l7.5,8.7h0v-8.2c0-0.2,0.1-0.3,0.3-0.3h1.1
		c0.2,0,0.3,0.2,0.3,0.3V372c0,0.2-0.2,0.3-0.3,0.3h-0.5l-7.5-8.9h0v8.4c0,0.2-0.1,0.3-0.3,0.3h-1.1c-0.2,0-0.3-0.2-0.3-0.3V360.1z"
		/>
	<path id="XMLID_355_" class="st5" d="M451.4,360.3c0-0.2,0.2-0.3,0.3-0.3h1.1c0.2,0,0.3,0.2,0.3,0.3v11.5c0,0.2-0.2,0.3-0.3,0.3
		h-1.1c-0.2,0-0.3-0.2-0.3-0.3V360.3z"/>
	<path id="XMLID_357_" class="st5" d="M455,371.6l5.3-11.7c0.1-0.1,0.2-0.2,0.3-0.2h0.2c0.1,0,0.2,0.1,0.3,0.2l5.3,11.7
		c0.1,0.2,0,0.5-0.3,0.5H465c-0.2,0-0.3-0.1-0.4-0.3l-1.1-2.4h-5.7c-0.3,0.8-0.7,1.6-1.1,2.4c-0.1,0.1-0.2,0.3-0.4,0.3h-1.1
		C455,372.1,454.9,371.9,455,371.6z M462.8,368l-2.1-4.7h-0.1l-2.1,4.7H462.8z"/>
	<path id="XMLID_360_" class="st5" d="M466.9,364.4c-0.1-0.1-0.1-0.3,0.1-0.4c0.2-0.1,1.1-0.9,1.1-2.1c0,0-0.2,0.1-0.4,0.1
		c-0.6,0-1.1-0.5-1.1-1.1c0-0.6,0.5-1.1,1.1-1.1c0.6,0,1.3,0.4,1.3,1.7c0,1.6-1,2.7-1.5,3.2c-0.2,0.1-0.3,0.1-0.4,0L466.9,364.4z"/>
	<path id="XMLID_362_" class="st5" d="M470.6,370.3c0.2-0.2,0.3-0.5,0.5-0.7c0.2-0.2,0.4-0.3,0.6-0.1c0.1,0.1,1.4,1.2,2.8,1.2
		c1.2,0,2-0.7,2-1.6c0-1-0.9-1.7-2.6-2.4c-1.8-0.7-3.2-1.7-3.2-3.7c0-1.4,1-3.2,3.8-3.2c1.7,0,3,0.9,3.2,1c0.1,0.1,0.3,0.3,0.1,0.6
		c-0.1,0.2-0.3,0.5-0.4,0.7c-0.1,0.2-0.4,0.3-0.6,0.2c-0.1-0.1-1.3-0.9-2.3-0.9c-1.5,0-2,0.9-2,1.6c0,1,0.8,1.6,2.2,2.2
		c2,0.8,3.7,1.8,3.7,3.9c0,1.8-1.6,3.3-3.9,3.3c-2.1,0-3.4-1.1-3.7-1.4C470.5,370.8,470.4,370.6,470.6,370.3z"/>
	<path id="XMLID_364_" class="st5" d="M484.6,360.3c0-0.2,0.1-0.3,0.3-0.3h3.9c2.1,0,3.9,1.7,3.9,3.8c0,2.1-1.7,3.9-3.9,3.9h-2.5
		v4.1c0,0.2-0.2,0.3-0.3,0.3h-1.1c-0.2,0-0.3-0.2-0.3-0.3V360.3z M488.8,366c1.2,0,2.2-1,2.2-2.2c0-1.2-1-2.1-2.2-2.1h-2.4v4.3
		H488.8z"/>
	<path id="XMLID_367_" class="st5" d="M495,360.3c0-0.2,0.1-0.3,0.3-0.3h1.1c0.2,0,0.3,0.2,0.3,0.3v10.2h4.7c0.2,0,0.3,0.2,0.3,0.3
		v1c0,0.2-0.1,0.3-0.3,0.3h-6.2c-0.2,0-0.3-0.2-0.3-0.3V360.3z"/>
	<path id="XMLID_369_" class="st5" d="M502.6,371.6l5.3-11.7c0.1-0.1,0.2-0.2,0.3-0.2h0.2c0.1,0,0.2,0.1,0.3,0.2l5.3,11.7
		c0.1,0.2,0,0.5-0.3,0.5h-1.1c-0.2,0-0.3-0.1-0.4-0.3l-1.1-2.4h-5.7c-0.3,0.8-0.7,1.6-1.1,2.4c-0.1,0.1-0.2,0.3-0.4,0.3h-1.1
		C502.7,372.1,502.5,371.9,502.6,371.6z M510.5,368l-2.1-4.7h-0.1l-2.1,4.7H510.5z"/>
	<path id="XMLID_372_" class="st5" d="M521.1,359.8c1.7,0,3,0.6,4.2,1.6c0.2,0.1,0.2,0.3,0,0.5l-0.8,0.8c-0.1,0.2-0.3,0.2-0.4,0
		c-0.8-0.7-1.9-1.2-3-1.2c-2.5,0-4.3,2.1-4.3,4.5s1.9,4.5,4.4,4.5c1.3,0,2.1-0.5,3-1.1c0.2-0.1,0.3-0.1,0.4,0l0.8,0.8
		c0.1,0.1,0.1,0.3,0,0.5c-1.2,1.1-2.7,1.7-4.2,1.7c-3.5,0-6.3-2.8-6.3-6.2S517.6,359.8,521.1,359.8z"/>
	<path id="XMLID_374_" class="st5" d="M527.9,360.3c0-0.2,0.1-0.3,0.3-0.3h6.9c0.2,0,0.3,0.2,0.3,0.3v1c0,0.2-0.1,0.3-0.3,0.3h-5.5
		v3.5h4.6c0.2,0,0.3,0.2,0.3,0.3v1c0,0.2-0.2,0.3-0.3,0.3h-4.6v3.7h5.5c0.2,0,0.3,0.2,0.3,0.3v1c0,0.2-0.1,0.3-0.3,0.3h-6.9
		c-0.2,0-0.3-0.2-0.3-0.3V360.3z"/>
	<path id="XMLID_376_" class="st5" d="M537.4,370.3c0.2-0.2,0.3-0.5,0.5-0.7c0.2-0.2,0.4-0.3,0.6-0.1c0.1,0.1,1.4,1.2,2.8,1.2
		c1.2,0,2-0.7,2-1.6c0-1-0.9-1.7-2.6-2.4c-1.8-0.7-3.2-1.7-3.2-3.7c0-1.4,1-3.2,3.8-3.2c1.7,0,3,0.9,3.2,1c0.1,0.1,0.3,0.3,0.1,0.6
		c-0.1,0.2-0.3,0.5-0.4,0.7c-0.1,0.2-0.4,0.3-0.6,0.2c-0.1-0.1-1.3-0.9-2.3-0.9c-1.5,0-2,0.9-2,1.6c0,1,0.8,1.6,2.2,2.2
		c2,0.8,3.7,1.8,3.7,3.9c0,1.8-1.6,3.3-3.9,3.3c-2.1,0-3.4-1.1-3.7-1.4C537.3,370.8,537.2,370.6,537.4,370.3z"/>
	<path id="XMLID_378_" class="st5" d="M553.1,361.6h-2.8c-0.2,0-0.3-0.2-0.3-0.3v-1c0-0.2,0.1-0.3,0.3-0.3h7.4
		c0.2,0,0.3,0.2,0.3,0.3v1c0,0.2-0.1,0.3-0.3,0.3h-2.8v10.2c0,0.2-0.2,0.3-0.3,0.3h-1.1c-0.2,0-0.3-0.2-0.3-0.3V361.6z"/>
	<path id="XMLID_380_" class="st5" d="M565.2,359.8c3.5,0,6.2,2.8,6.2,6.3s-2.8,6.2-6.2,6.2c-3.5,0-6.2-2.8-6.2-6.2
		S561.7,359.8,565.2,359.8z M565.2,370.5c2.5,0,4.5-2,4.5-4.5c0-2.5-2-4.5-4.5-4.5c-2.5,0-4.5,2.1-4.5,4.5
		C560.7,368.5,562.7,370.5,565.2,370.5z"/>
	<path id="XMLID_383_" class="st5" d="M577.9,360.3c0-0.2,0.1-0.3,0.3-0.3h3.9c2.1,0,3.9,1.7,3.9,3.8c0,2.1-1.7,3.9-3.9,3.9h-2.5
		v4.1c0,0.2-0.2,0.3-0.3,0.3h-1.1c-0.2,0-0.3-0.2-0.3-0.3V360.3z M582,366c1.2,0,2.2-1,2.2-2.2c0-1.2-1-2.1-2.2-2.1h-2.4v4.3H582z"
		/>
	<path id="XMLID_386_" class="st5" d="M588.2,360.3c0-0.2,0.1-0.3,0.3-0.3h1.1c0.2,0,0.3,0.2,0.3,0.3v10.2h4.7
		c0.2,0,0.3,0.2,0.3,0.3v1c0,0.2-0.1,0.3-0.3,0.3h-6.2c-0.2,0-0.3-0.2-0.3-0.3V360.3z"/>
	<path id="XMLID_388_" class="st5" d="M595.9,371.6l5.3-11.7c0.1-0.1,0.2-0.2,0.3-0.2h0.2c0.1,0,0.2,0.1,0.3,0.2l5.3,11.7
		c0.1,0.2,0,0.5-0.3,0.5h-1.1c-0.2,0-0.3-0.1-0.4-0.3l-1.1-2.4h-5.7c-0.3,0.8-0.7,1.6-1.1,2.4c-0.1,0.1-0.2,0.3-0.4,0.3h-1.1
		C595.9,372.1,595.8,371.9,595.9,371.6z M603.7,368l-2.1-4.7h-0.1l-2.1,4.7H603.7z"/>
	<path id="XMLID_391_" class="st5" d="M610.5,366.3l-4.1-5.8c-0.1-0.2,0-0.5,0.3-0.5h1.3c0.1,0,0.2,0.1,0.3,0.2l3.1,4.4l3.1-4.4
		c0.1-0.1,0.2-0.2,0.3-0.2h1.3c0.3,0,0.4,0.3,0.3,0.5l-4.1,5.8v5.5c0,0.2-0.2,0.3-0.3,0.3h-1.1c-0.2,0-0.3-0.2-0.3-0.3V366.3z"/>
	<path id="XMLID_393_" class="st5" d="M617.9,369.9c0.7,0,1.2,0.5,1.2,1.2c0,0.7-0.5,1.2-1.2,1.2c-0.7,0-1.2-0.5-1.2-1.2
		C616.7,370.4,617.2,369.9,617.9,369.9z"/>
</g>
<g id="XMLID_21_">
	<path id="XMLID_108_" class="st4" d="M148.7,255.7l5.7-8.5c0.9-1.4,2.6-1.2,3.4-0.6c1.4,1.1,6.5,4.6,12.2,4.6c3.9,0,6.9-3,6.8-6.4
		c-0.1-3.8-2.4-6.6-7-9.6c-6.6-4.4-15.7-11.1-15.7-22.1c0-11.4,7.9-22.3,25-22.3c10,0,17.2,5.4,20.1,7.7c1.1,0.8,1.5,2.6,0.6,3.6
		l-6.6,8.1c-0.8,1.1-2.6,1.2-3.4,0.5s-6.2-4.7-11.8-4.7c-3.6,0-6.8,2.2-6.8,5.4c0,3.7,2.3,5.7,8.7,9.5c5.3,3.2,15.6,9.9,15.6,22.3
		c0,12.1-8.4,23.6-26.4,23.6c-11.2,0-18.4-5.6-20.4-8.1C147.8,257.6,148,256.7,148.7,255.7z"/>
	<path id="XMLID_110_" class="st4" d="M220.8,207.4h-12.9c-1.1,0-1.7-1-1.6-2l1.7-11.5c0.1-1.1,1.1-2,2-2h42.6c1.1,0,1.7,0.9,1.6,2
		l-1.7,11.5c-0.1,1.1-1,2-2,2h-13l-7.9,56.4c-0.1,1.1-1.2,2-2.1,2h-13.1c-0.9,0-1.7-0.9-1.6-2L220.8,207.4z"/>
	<path id="XMLID_112_" class="st4" d="M244.2,263l40-71c0.4-0.6,1-1.2,1.8-1.2h0.9c0.7,0,1.3,0.5,1.5,1.2l19.8,71
		c0.4,1.4-0.5,2.7-2,2.7h-11.9c-1.9,0-3-0.5-3.4-2.6l-1.8-8.3h-23.3l-4.1,8.4c-0.6,1.4-2,2.5-4.2,2.5h-12
		C244,265.7,243.4,264.4,244.2,263z M285.1,240.4l-3.3-17.6h-0.1l-8.4,17.6H285.1z"/>
	<path id="XMLID_115_" class="st4" d="M329.7,207.4h-12.9c-1.1,0-1.7-1-1.6-2l1.7-11.5c0.1-1.1,1.1-2,2-2h42.6c1.1,0,1.7,0.9,1.6,2
		l-1.7,11.5c-0.1,1.1-1,2-2,2h-13l-7.9,56.4c-0.1,1.1-1.2,2-2.1,2h-13.1c-0.9,0-1.7-0.9-1.6-2L329.7,207.4z"/>
	<path id="XMLID_117_" class="st4" d="M373.4,193.9c0.1-1.1,1.1-2,2-2h39.8c1.1,0,1.7,0.9,1.6,2l-1.7,11.5c-0.1,1.1-1,2-2,2h-25.1
		l-1.9,13.1h20.5c0.9,0,1.7,0.9,1.6,2l-1.7,11.5c-0.2,1.2-1.2,2-2.1,2h-20.4l-2,14.2H407c1.1,0,1.6,0.9,1.5,2l-1.6,11.5
		c-0.1,1.1-1.1,2-2.1,2H365c-1.1,0-1.7-0.9-1.5-2L373.4,193.9z"/>
</g>
<g id="XMLID_23_">
	<path id="XMLID_98_" class="st4" d="M504.6,193.9c0.1-1.1,1.1-2,2.1-2H530c10.6,0,18.3,9.7,18.3,20.9c0,14-11.1,26.2-24.8,26.2
		h-8.7l-3.5,24.8c-0.1,1.1-1.2,2-2.1,2h-12.9c-1.1,0-1.6-0.9-1.5-2L504.6,193.9z M524.6,223.5c3.7,0,7.3-4.2,7.3-9.6
		c0-3.7-2.1-6.5-5-6.5h-7.7l-2.2,16.1H524.6z"/>
	<path id="XMLID_101_" class="st4" d="M562.1,193.9c0.1-1.1,1.1-2,2.1-2h13.1c1,0,1.6,0.9,1.5,2l-7.9,56.4h21.5c1.1,0,1.6,0.9,1.5,2
		l-1.6,11.5c-0.1,1.1-1.1,2-2.1,2h-36.3c-1.1,0-1.7-0.9-1.6-2L562.1,193.9z"/>
	<path id="XMLID_103_" class="st4" d="M596.6,263l40-71c0.4-0.6,1-1.2,1.8-1.2h1c0.7,0,1.3,0.5,1.5,1.2l19.8,71
		c0.4,1.4-0.5,2.7-2,2.7h-11.9c-1.9,0-3-0.5-3.4-2.6l-1.8-8.3h-23.3l-4.1,8.4c-0.6,1.4-2,2.5-4.2,2.5h-12
		C596.4,265.7,595.8,264.4,596.6,263z M637.5,240.4l-3.3-17.6h-0.1l-8.4,17.6H637.5z"/>
	<path id="XMLID_106_" class="st4" d="M680.9,230.2l-15.6-35.3c-0.5-1.4,0.4-3.1,1.9-3.1h13.3c0.8,0,1.3,0.4,1.5,0.9l8.8,21.6
		l14.9-21.6c0.3-0.4,0.7-0.9,1.7-0.9h14.9c1.6,0,2.1,1.7,1.2,3.1l-25.9,35.1l-4.6,33.7c-0.1,1.1-1.2,2-2.1,2h-13.1
		c-1.1,0-1.6-0.9-1.5-2L680.9,230.2z"/>
</g>
<g id="XMLID_22_">
	<path id="XMLID_30_" class="st4" d="M445.1,213.5c6.4,0,11.2,6,11.2,13.2c0,9.6-7.1,17.4-15.5,17.4c-6.4,0-11.2-5.9-11.2-13.2
		C429.5,221.5,436.5,213.5,445.1,213.5z M441.1,241.2c6.2,0,11.8-6.4,11.8-14.2c0-5.8-3.4-10.4-8.3-10.4c-6.3,0-11.9,6.4-11.9,14.1
		C432.7,236.5,436.1,241.2,441.1,241.2z"/>
	<path id="XMLID_92_" class="st4" d="M468.3,217.1h-3.9c-0.7,0-0.9-0.5-0.8-0.9l0.1-0.9c0.1-0.5,0.6-0.9,1-0.9h3.9l1.5-10.4
		c1.2-8.3,5.6-12.3,11.7-12.3c3.3,0,5.9,1.8,6.9,3.1c0.3,0.4,0.2,0.9-0.1,1.2l-0.9,0.9c-0.4,0.4-0.8,0.4-1.2,0
		c-0.8-0.8-2.8-2.3-4.7-2.3c-4.4,0-7.6,3-8.5,9.7l-1.4,10h9.3c0.6,0,0.9,0.4,0.8,0.9l-0.1,1.1c-0.1,0.5-0.4,0.9-1,0.9h-9.3
		l-6.7,47.3c-0.1,0.5-0.6,0.9-1.1,0.9h-1.3c-0.5,0-0.9-0.4-0.8-0.9L468.3,217.1z"/>
</g>
<g id="XMLID_1_" class="st1">
	<g id="XMLID_44_" class="st2">
		<path id="XMLID_52_" class="st4" d="M510.2,563.3L510.2,563.3c0.8,0,1.5-0.3,2-0.8c0.5-0.5,0.8-1.2,0.8-2c0-0.8-0.3-1.5-0.8-2
			c-0.5-0.5-1.2-0.8-2-0.8c-0.8,0-1.5,0.3-2,0.8c-0.5,0.5-0.8,1.2-0.8,2c0,0.8,0.3,1.5,0.8,2C508.7,563,509.4,563.3,510.2,563.3z"/>
		<path id="XMLID_51_" class="st4" d="M413.8,563.3L413.8,563.3c0.8,0,1.5-0.3,2-0.8c0.5-0.5,0.8-1.2,0.8-2c0-0.8-0.3-1.5-0.8-2
			c-0.5-0.5-1.2-0.8-2-0.8c-0.8,0-1.5,0.3-2,0.8c-0.5,0.5-0.8,1.2-0.8,2c0,0.8,0.3,1.5,0.8,2C412.3,563,413.1,563.3,413.8,563.3z"/>
		<path id="XMLID_45_" class="st4" d="M543.3,586.4L543.3,586.4c-0.3-0.4-0.7-0.6-1.2-0.8c-0.3-0.1-0.6-0.1-0.7-0.1
			c-0.1,0-1.3-0.2-3.6-0.5l0-1.8v-7.4c0-1.3,0-3.8-0.3-4.9c-0.3-1.3-1.1-2.4-2.2-3.2c-2-1.5-4.4-2.2-7.4-2.2c-2,0-4.3,0.3-6.2,0.9
			c-1,0.3-1.9,0.6-2.5,1c-0.4,0.2-0.7,0.5-1,0.8c-0.4,0.4-0.6,1-0.6,1.5c0,0.6,0.2,1.2,0.5,1.6c0.4,0.6,1.1,0.9,1.9,0.9
			c0.7,0,1.4-0.2,2.2-0.5l0.2-0.1c1.3-0.4,3-1,5.6-1c1.1,0,2,0.1,2.8,0.4c0.6,0.2,1,0.5,1.3,0.7c0.4,0.3,0.5,0.6,0.6,0.9
			c0.1,0.3,0.1,1.4,0.1,2.4c-1.6-0.8-3.8-1.7-6.8-1.7c-3,0-5.7,0.9-7.7,2.4c-2.1,1.6-3.2,4-3.2,6.5c0,0.1,0,0.2,0,0.2
			c-0.5,0-1-0.1-1.6-0.1c-0.1,0-0.3,0-0.4,0c-0.1,0-0.3,0-0.5,0v-13.8c0-0.3,0-0.9-0.2-1.5c-0.2-0.5-0.4-0.9-0.8-1.1
			c-0.4-0.4-1-0.6-1.6-0.6c-0.6,0-1.1,0.2-1.5,0.5c-0.5,0.4-0.8,0.9-0.9,1.6c-0.1,0.4-0.1,0.8-0.1,1.1V582l-2-0.1
			c-0.3,0-0.6,0-0.9,0c-0.2,0-0.5,0-0.7,0l0-5c0-1.7,0-2.9-0.3-4c-0.3-1.3-0.8-2.3-1.7-3.4l-0.1-0.1c-0.5-0.6-1.4-1.5-2.8-2.1
			c-1.3-0.6-2.9-1-4.8-1c-3.5,0-6.5,1.1-8.4,2.1c-0.1-0.2-0.3-0.4-0.4-0.6c-0.3-0.4-0.6-0.7-0.9-0.9c-0.4-0.3-0.9-0.4-1.4-0.4
			c-0.6,0-1.2,0.2-1.6,0.6c-0.5,0.5-0.8,1.2-0.8,1.9c0,0.4,0.1,0.7,0.2,1c0.1,0.2,0.1,0.3,0.2,0.5l0.4,1c0.3,0.8,0.3,2.1,0.3,3.9
			v5.9l-0.6,0c-0.4,0-0.9,0-1.3,0l-0.4,0c-0.3,0-0.6,0-0.9,0c-3.9,0-7.8,0.2-11.8,0.3v-7.2c0.7-0.9,1.4-1.6,2.1-2c1-0.7,1.9-1,3-1
			c0.2,0,0.6,0,1.2,0.1c0.4,0.1,1,0.3,1.5,0.7l0.3,0.3l0.5,0.1c0,0,0.1,0,0.2,0c0.3,0,0.7-0.1,1-0.2c0.4-0.1,1-0.5,1.3-1.1
			c0.2-0.4,0.3-0.9,0.3-1.3c0-0.4-0.1-0.8-0.3-1.2c-0.1-0.3-0.2-0.5-0.3-0.5l-0.1-0.2l-0.2-0.2c-2.2-1.6-4.6-1.8-5.5-1.8
			c-2.2,0-4.4,0.8-6.5,2.5c-0.1-0.2-0.2-0.4-0.3-0.5c-0.3-0.5-0.7-0.8-1-1.1c-0.5-0.4-1.1-0.6-1.7-0.6c-0.8,0-1.5,0.3-2,0.8
			c-0.4,0.5-0.7,1.1-0.7,1.7c0,0.5,0.1,1,0.3,1.4c0.2,0.3,0.4,0.6,0.5,0.8c0.2,0.3,0.5,0.7,0.7,1.2c0.2,0.7,0.4,1.5,0.4,2.6v7
			c-0.4,0-0.8,0-1.2,0.1l-0.4,0c-0.3,0-0.6,0-0.9,0c-0.4,0-0.8,0-1.1,0.1c0.4-1.2,0.5-2.4,0.5-3.6c0-3.5-1.4-6.7-4-9
			c-2.5-2.2-5.9-3.5-9.7-3.5c-3.8,0-7.2,1.2-9.7,3.5c-2.6,2.3-4,5.5-4,9c0,2,0.5,3.8,1.3,5.6c-0.1,0-0.2,0-0.4,0l-0.8,0.1
			c-0.1,0-0.1,0-0.2,0c-2,0.2-3.8,0.3-5.4,0.4c-0.2,0-0.4,0-0.7,0v-8.9h2.1c0.7,0,1.3-0.2,1.8-0.7c0.5-0.5,0.8-1.1,0.8-1.8
			c0-0.3-0.1-0.7-0.2-1c-0.2-0.5-0.6-1-1.1-1.2c-0.4-0.2-0.8-0.3-1.4-0.3h-2.1v-1.6c0-1.4,0.1-2.3,0.2-2.9c0.1-0.6,0.3-0.9,0.6-1.2
			c0.4-0.3,1.4-0.9,3.1-0.9c0.6,0,0.8,0.1,1,0.1l1.1,0.2l0.2,0c0.4,0,0.7-0.1,1.1-0.3c0.3-0.2,0.6-0.5,0.9-0.9
			c0.2-0.4,0.4-0.8,0.4-1.2c0-0.6-0.2-1.1-0.5-1.5c-0.4-0.5-1-0.9-1.9-1.1c-0.6-0.2-1.4-0.3-2.4-0.3c-1.6,0-3.1,0.3-4.4,1
			c-1,0.5-1.9,1.2-2.5,1.8l-0.3,0.4l0,0.1v0c-0.6,0.8-0.9,1.6-1.2,2.5c-0.3,1.2-0.3,2.5-0.3,4.2v15.8c-1.2,0.1-2.5,0.1-3.6,0.2
			c-0.1,0-0.1,0-0.2,0v-16.5c0-0.3,0-0.9-0.2-1.5c-0.2-0.5-0.4-0.9-0.8-1.1c-0.4-0.4-1-0.6-1.6-0.6c-0.6,0-1.1,0.2-1.5,0.5
			c-0.5,0.4-0.8,0.9-0.9,1.6c-0.1,0.4-0.1,0.8-0.1,1.1v16.6c-1.4,0-2.6,0.1-3.8,0.1v-15v-0.2l0-13.9c0-0.3,0-1-0.2-1.6
			c-0.1-0.5-0.4-0.9-0.6-1.2c-0.4-0.5-1-0.7-1.7-0.7c-0.6,0-1.2,0.2-1.6,0.7c-0.5,0.5-0.7,1.2-0.8,1.7c-0.1,0.5-0.1,0.9-0.1,1.2
			v13.5V585v0.4c-1,0-2,0-3.1,0c-0.1,0-0.1,0-0.2,0l0-2.2v-7.4c0-1.3,0-3.8-0.3-4.9c-0.3-1.3-1.1-2.4-2.2-3.2
			c-2-1.5-4.4-2.2-7.4-2.2c-2,0-4.3,0.3-6.2,0.9c-1,0.3-1.9,0.6-2.5,1c-0.4,0.2-0.7,0.5-1,0.8c-0.4,0.4-0.6,1-0.6,1.5
			c0,0.6,0.2,1.2,0.5,1.6c0.4,0.6,1.1,0.9,1.9,0.9c0.7,0,1.4-0.2,2.2-0.5l0.2-0.1c1.3-0.4,3-1,5.6-1c1.1,0,2,0.1,2.8,0.4
			c0.6,0.2,1,0.5,1.3,0.7c0.4,0.3,0.5,0.6,0.6,0.9c0.1,0.3,0.1,1.4,0.1,2.4c-1.6-0.8-3.8-1.7-6.8-1.7c-3,0-5.7,0.9-7.7,2.4
			c-2.1,1.6-3.2,4-3.2,6.5c0,0.8,0.1,1.6,0.4,2.4l0,0.1c-0.9,0-1.7-0.1-2.6-0.1c-0.2,0-0.5,0-0.7,0l-0.2,0c-0.1,0-0.3,0-0.4,0
			c1-1,1.6-2.1,1.6-2.8c0-1.6-1.2-2.5-2.4-2.5c-1,0-1.6,0.6-2.3,1.4c-1.1,1.1-2.7,2.8-5.7,3.3c-1.7-0.1-3.4-0.3-5-0.5
			c-3.7-1.4-6.2-5.1-6.2-9.5c0-5.6,4.4-10.2,9.9-10.2c3.3,0,5.2,1.6,6.4,2.7c0.8,0.7,1.4,1.2,2.4,1.2c1.2,0,2.4-0.7,2.4-2.5
			c0-2.1-5.2-6.5-11.2-6.5c-7.2,0-14.9,5.8-14.9,15.3c0,3.2,0.9,6.1,2.5,8.5c-1.5-0.2-2.7-0.3-3.6-0.5c-0.8-0.1-1.5-0.2-2-0.3
			l-0.6-0.1c-0.1,0-0.4-0.1-0.8-0.1c-0.5,0-0.8,0.1-1.2,0.3c-0.2,0.1-0.4,0.3-0.5,0.5c-0.2,0.3-0.2,0.6-0.3,0.9c0,0,0,0.1,0,0.1
			c0,0.4,0.2,0.9,0.4,1.2c0.4,0.4,0.9,0.6,1.2,0.7c0.2,0.1,0.3,0.1,0.4,0.1c0.1,0,0.1,0,0.1,0l0.1,0c0.6,0.1,2,0.3,4.1,0.6
			c8.8,1.2,27.1,3.2,51.3,3.2c1.1,0,2.3,0,3.4,0v12.8c0,0.3,0,1,0.2,1.6c0.1,0.5,0.4,0.9,0.6,1.2c0.4,0.5,1,0.7,1.7,0.7
			c0.6,0,1.2-0.2,1.6-0.7c0.5-0.5,0.7-1.2,0.8-1.7c0.1-0.4,0.1-0.9,0.1-1.2v-12.9c4.6-0.1,9.2-0.3,13.9-0.5c0.3,0,0.6,0,0.9,0l1-0.1
			c0.5,0,1-0.1,1.5-0.1l0.4,0c0.3,0,0.6,0,0.8-0.1c5.4-0.4,10.6-0.8,15.5-1.2l0.2,0c12.3-1,24.9-2.1,41.5-2.1
			c32.1,0,56.5,3.9,57.9,4.1c0.1,0,0.1,0,0.2,0c0.2,0,0.3,0,0.5,0h0c0.4,0,0.8-0.1,1.1-0.3c0.5-0.3,0.8-0.8,0.9-1.3
			c0-0.1,0-0.2,0-0.3C543.7,587.1,543.5,586.7,543.3,586.4z M383,579.8c1.1-0.8,2.6-1.3,4.2-1.3c2.8,0,4.6,1,6.7,2.2l0.2,0.1v4.5
			c-3.7,0-7.4-0.1-11.1-0.3c-0.1,0-0.1,0-0.2,0L382,584c-0.3-0.5-0.5-1-0.5-1.5C381.5,581.2,382.3,580.3,383,579.8z M450.8,582.6
			c-3.2,0.2-6.4,0.5-9.4,0.8l-0.2,0c-0.8,0.1-1.6,0.1-2.5,0.2l-0.8-0.9c-1-1.2-1.5-2.6-1.5-4.2c0-2,0.8-3.7,2.3-5
			c1.6-1.3,3.8-2.1,6.2-2.1c2.5,0,4.7,0.7,6.2,2.1c1.5,1.3,2.3,3,2.3,5c0,1.1-0.2,2.1-0.7,3l-0.5,1l-0.8,0.1
			C451.3,582.6,451,582.6,450.8,582.6z M496.5,581.5c-0.3,0-0.6,0-0.9,0c-2.9-0.1-5.9-0.1-8.8-0.2V574c1.2-0.8,2.1-1.3,3.1-1.7
			c1.3-0.5,2.6-0.7,4.3-0.7c0.9,0,1.7,0.1,2.3,0.3c0.6,0.2,1,0.5,1.5,1c0.3,0.4,0.5,0.8,0.7,1.5c0.1,0.7,0.1,1.6,0.1,2.5v4.8
			c-0.6,0-1.2,0-1.8-0.1L496.5,581.5z M530.7,584c-0.3,0-0.6-0.1-0.9-0.1c-3.1-0.3-6.3-0.7-9.6-1c0-0.2-0.1-0.4-0.1-0.6
			c0-1.3,0.8-2.1,1.5-2.7c1.1-0.8,2.6-1.3,4.2-1.3c2.8,0,4.6,1,6.7,2.2l0.2,0.1v3.5c-0.5-0.1-1-0.1-1.5-0.2L530.7,584z"/>
	</g>
	<g id="XMLID_3_" class="st2">
		<path id="XMLID_41_" class="st4" d="M434,594c-1.1,0-1.9,0.9-1.9,1.9v4.9c-0.9-1.1-2.2-2-4.2-2c-3.2,0-6.2,2.5-6.2,7v0.1
			c0,4.5,3,7,6.2,7c2,0,3.3-0.9,4.2-2.2v0.2c0,1.1,0.9,1.9,1.9,1.9c1.1,0,1.9-0.9,1.9-1.9v-14.9C435.9,594.8,435.1,594,434,594z
			 M432.2,605.8c0,2.3-1.5,3.7-3.3,3.7c-1.8,0-3.3-1.5-3.3-3.7v-0.1c0-2.3,1.5-3.7,3.3-3.7C430.7,602,432.2,603.5,432.2,605.8
			L432.2,605.8z"/>
		<path id="XMLID_40_" class="st4" d="M445.8,598.9c-1.1,0-2,1.2-2.6,2.5v-0.6c0-1.1-0.9-1.9-1.9-1.9c-1.1,0-1.9,0.9-1.9,1.9v10
			c0,1.1,0.9,1.9,1.9,1.9c1.1,0,1.9-0.9,1.9-1.9v-3.6c0-2.7,1.1-4.2,3-4.7c0.8-0.2,1.4-0.8,1.4-1.8
			C447.7,599.6,447,598.9,445.8,598.9z"/>
		<path id="XMLID_37_" class="st4" d="M455.6,598.8c-3.9,0-6.7,3.2-6.7,7.1v0.1c0,4.1,3,7,7.1,7c2,0,3.5-0.6,4.7-1.6
			c0.3-0.3,0.5-0.6,0.5-1.1c0-0.9-0.6-1.5-1.5-1.5c-0.4,0-0.7,0.1-0.9,0.3c-0.8,0.6-1.7,0.9-2.7,0.9c-1.7,0-2.9-0.9-3.3-2.7h7.6
			c1,0,1.8-0.7,1.8-1.8C462.1,602.5,460.1,598.8,455.6,598.8z M452.7,604.7c0.3-1.7,1.3-2.9,2.9-2.9c1.6,0,2.6,1.2,2.9,2.9H452.7z"
			/>
		<path id="XMLID_34_" class="st4" d="M470.7,598.9c-1.8,0-3.1,0.3-4.3,0.7c-0.6,0.2-1,0.8-1,1.5c0,0.9,0.7,1.6,1.6,1.6
			c0.2,0,0.3,0,0.6-0.1c0.7-0.2,1.6-0.4,2.7-0.4c1.9,0,2.9,0.9,2.9,2.5v0.2c-1-0.3-1.9-0.6-3.3-0.6c-3.2,0-5.5,1.4-5.5,4.3v0.1
			c0,2.7,2.1,4.1,4.7,4.1c1.9,0,3.2-0.7,4.1-1.7v0c0,0.8,0.7,1.6,1.8,1.6c1,0,1.9-0.8,1.9-1.8v-6.2c0-1.8-0.5-3.3-1.5-4.3
			C474.3,599.4,472.8,598.9,470.7,598.9z M473.1,607.8c0,1.4-1.2,2.4-3,2.4c-1.2,0-2.1-0.6-2.1-1.6v0c0-1.2,1-1.9,2.7-1.9
			c0.9,0,1.8,0.2,2.5,0.5V607.8z"/>
		<path id="XMLID_16_" class="st4" d="M496.5,615.4c-2,0-3.3,0.9-4.2,2.2V605c0-1.8,0.9-2.8,2.3-2.8s2.3,0.9,2.3,2.8v5.8
			c0,1.1,0.9,1.9,1.9,1.9c1.1,0,1.9-0.9,1.9-1.9v-7.1c0-3.3-1.7-5-4.6-5c-1.8,0-3.3,0.8-4.5,2.1c-0.7-1.4-2-2.1-3.8-2.1
			c-1.9,0-3.1,1-4,2.2v-0.2c0-1.1-0.9-1.9-1.9-1.9c-1.1,0-1.9,0.9-1.9,1.9v10c0,1.1,0.9,1.9,1.9,1.9c1.1,0,1.9-0.9,1.9-1.9V605
			c0-1.8,0.9-2.8,2.3-2.8c1.4,0,2.3,0.9,2.3,2.8v22.4c0,1.1,0.9,1.9,1.9,1.9c1.1,0,1.9-0.9,1.9-1.9v0c0.9,1.1,2.2,2,4.2,2
			c3.2,0,6.2-2.5,6.2-7v-0.1C502.7,617.9,499.7,615.4,496.5,615.4z M498.9,622.4c0,2.3-1.5,3.7-3.3,3.7c-1.8,0-3.3-1.5-3.3-3.7v-0.1
			c0-2.3,1.5-3.7,3.3-3.7C497.4,618.6,498.9,620.1,498.9,622.4L498.9,622.4z"/>
		<path id="XMLID_15_" class="st4" d="M507.6,615.5c-1.1,0-1.9,0.9-1.9,1.9v10c0,1.1,0.9,1.9,1.9,1.9c1.1,0,1.9-0.9,1.9-1.9v-10
			C509.6,616.3,508.7,615.5,507.6,615.5z"/>
		<path id="XMLID_14_" class="st4" d="M507.6,610.6c-1.2,0-2.1,0.7-2.1,1.8v0.1c0,1.1,0.9,1.8,2.1,1.8c1.2,0,2.1-0.7,2.1-1.8v-0.1
			C509.8,611.3,508.9,610.6,507.6,610.6z"/>
		<path id="XMLID_10_" class="st4" d="M524.9,615.5c-1.1,0-1.9,0.9-1.9,1.9v0c-1-1.1-2.3-2-4.4-2c-3.1,0-6,2.3-6,6.3v0.1
			c0,4,2.9,6.3,6,6.3c2,0,3.3-0.8,4.4-2.2v0.7c0,2.4-1.2,3.7-3.9,3.7c-1.4,0-2.6-0.3-3.7-0.8c-0.2-0.1-0.4-0.1-0.6-0.1
			c-0.9,0-1.6,0.7-1.6,1.6c0,0.7,0.4,1.2,1.1,1.5c1.6,0.6,3.2,0.9,5,0.9c2.6,0,4.6-0.6,5.8-1.8c1.1-1.1,1.7-2.9,1.7-5.3v-8.7
			C526.8,616.3,526,615.5,524.9,615.5z M523,621.8c0,1.8-1.4,3.1-3.3,3.1c-1.9,0-3.3-1.3-3.3-3.1v-0.1c0-1.8,1.4-3.1,3.3-3.1
			C521.6,618.6,523,619.9,523,621.8L523,621.8z"/>
	</g>
</g>
<g id="VCA_white_gold">
	<path id="XMLID_429_" class="st4" d="M510.7,428.7c0-1.1,0-3-0.2-3.9c-0.3-1.1-0.9-1.9-1.8-2.6c-1.6-1.2-3.6-1.8-6-1.8
		c-1.6,0-3.5,0.3-5.1,0.7c-0.8,0.2-1.5,0.5-2,0.8c-0.3,0.2-0.6,0.4-0.8,0.6c-0.3,0.4-0.5,0.8-0.5,1.2c0,0.5,0.2,0.9,0.4,1.3
		c0.4,0.5,0.9,0.7,1.5,0.7c0.6,0,1.1-0.2,1.8-0.4l0.1,0c1.1-0.3,2.4-0.8,4.5-0.8c0.9,0,1.7,0.1,2.3,0.3c0.5,0.2,0.8,0.4,1.1,0.6
		c0.3,0.3,0.4,0.5,0.5,0.7c0.1,0.2,0.1,1.1,0.1,1.9c-1.3-0.7-3.1-1.4-5.5-1.4c-2.4,0-4.6,0.7-6.2,2c-1.7,1.3-2.6,3.2-2.6,5.3
		c0,0.7,0.1,1.3,0.3,1.9l0.1,0.3l0.6,0c0.6,0,1.1,0.1,1.7,0.1l0.2,0c0.7,0,1.4,0.1,2.1,0.1l0.4,0l-0.8-1.1c-0.3-0.4-0.4-0.8-0.4-1.2
		c0-1,0.7-1.7,1.2-2.1c0.9-0.7,2.1-1,3.4-1c2.2,0,3.8,0.8,5.4,1.8l0.1,0.1v3.8l0.3,0c0.6,0,1.2,0,1.8,0c0.1,0,0.2,0,0.3,0
		c0.5,0,0.9,0,1.4,0l0.4,0l0-2V428.7z"/>
	<g id="XMLID_87_">
		<path id="XMLID_428_" class="st4" d="M376.4,431.6c-0.8,0-1.3,0.5-1.9,1.1c-1,1-2.7,2.8-6,2.8c-4.4,0-7.8-3.6-7.8-8.2
			c0-4.6,3.6-8.3,8-8.3c2.7,0,4.2,1.3,5.2,2.2c0.6,0.5,1.2,1,1.9,1c0.9,0,1.9-0.5,1.9-2c0-1.7-4.2-5.3-9.1-5.3
			c-5.8,0-12.1,4.7-12.1,12.4c0,3.4,1.3,6.5,3.5,8.7c2.5,1.1,12.2,1.7,14.8,1.7c2.1-1.3,3.4-3,3.4-4.1
			C378.3,432.3,377.4,431.6,376.4,431.6z"/>
		<path id="XMLID_427_" class="st4" d="M489.4,420.7c-0.3-0.3-0.8-0.5-1.3-0.5c-0.5,0-0.9,0.2-1.3,0.4c-0.4,0.3-0.6,0.8-0.7,1.3
			c-0.1,0.3-0.1,0.7-0.1,0.9v13.6l0.9,0c0.1,0,0.2,0,0.3,0l0.5,0c0.4,0,0.7,0,1.1,0l0.3,0.3l1,0v-13.8c0-0.3,0-0.7-0.2-1.2
			C489.9,421.3,489.7,421,489.4,420.7z"/>
		<path id="XMLID_426_" class="st4" d="M488.3,414c-0.6,0-1.2,0.2-1.6,0.7c-0.4,0.4-0.7,1-0.7,1.6c0,0.6,0.2,1.2,0.7,1.6
			c0.4,0.4,1,0.7,1.6,0.7h0c0.6,0,1.2-0.2,1.6-0.7c0.4-0.4,0.7-1,0.7-1.6c0-0.6-0.2-1.2-0.7-1.6C489.5,414.3,488.9,414,488.3,414z"
			/>
		<path id="XMLID_425_" class="st4" d="M481.6,423.5L481.6,423.5c-0.5-0.6-1.2-1.3-2.3-1.8c-1.1-0.5-2.4-0.8-3.9-0.8
			c-2.8,0-5.2,0.9-6.8,1.7c-0.1-0.2-0.2-0.3-0.3-0.5c-0.2-0.3-0.5-0.5-0.7-0.7c-0.3-0.2-0.7-0.3-1.1-0.3c-0.5,0-0.9,0.2-1.3,0.5
			c-0.4,0.4-0.7,0.9-0.7,1.5c0,0.3,0.1,0.6,0.2,0.8c0,0.1,0.1,0.3,0.2,0.4l0.3,0.8c0.2,0.7,0.2,1.7,0.2,3.2v5l0.5,0
			c0.1,0,0.3,0,0.4,0l0.3,0c0.3,0,0.7,0,1,0l0.7,0c0.1,0,0.2,0,0.3,0h0.9v-6.1c1-0.7,1.7-1.1,2.5-1.4c1-0.4,2.1-0.6,3.4-0.6
			c0.7,0,1.3,0.1,1.8,0.3c0.5,0.2,0.8,0.4,1.2,0.8c0.3,0.3,0.4,0.7,0.5,1.2c0.1,0.6,0.1,1.3,0.1,2v4l1.2,0c0.6,0,1.2,0,1.7,0.1
			l1.2,0.1l0-4.1c0-1.4,0-2.3-0.2-3.3C482.7,425.3,482.3,424.4,481.6,423.5z"/>
		<path id="XMLID_424_" class="st4" d="M462.1,422.6l-0.1-0.2l-0.2-0.2c-1.7-1.3-3.7-1.5-4.5-1.5c-1.8,0-3.5,0.7-5.3,2
			c-0.1-0.2-0.2-0.3-0.3-0.4c-0.3-0.4-0.5-0.7-0.8-0.9c-0.4-0.3-0.9-0.5-1.4-0.5c-0.6,0-1.2,0.3-1.6,0.7c-0.3,0.4-0.5,0.9-0.5,1.4
			c0,0.4,0.1,0.8,0.3,1.2c0.1,0.3,0.3,0.5,0.4,0.7c0.2,0.3,0.4,0.6,0.6,1c0.2,0.5,0.3,1.2,0.3,2.1v6l1.2-0.1c0.6,0,1.1-0.1,1.7-0.1
			l0.3,0c0.1,0,0.3,0,0.4,0l0.5,0v-6.1c0.6-0.7,1.1-1.3,1.7-1.7c0.8-0.6,1.6-0.8,2.4-0.8c0.1,0,0.5,0,1,0.1c0.3,0.1,0.8,0.2,1.2,0.6
			l0.3,0.2l0.4,0c0,0,0.1,0,0.2,0c0.3,0,0.6,0,0.8-0.1c0.3-0.1,0.8-0.4,1.1-0.9c0.2-0.3,0.3-0.7,0.3-1.1c0-0.3-0.1-0.7-0.2-1
			C462.2,422.8,462.1,422.7,462.1,422.6z"/>
		<path id="XMLID_423_" class="st4" d="M443.4,423.6c-2-1.8-4.8-2.8-7.9-2.8c-3,0-5.8,1-7.9,2.8c-2.1,1.9-3.2,4.4-3.2,7.3
			c0,1.7,0.4,3.2,1.2,4.7l0.1,0.1l1-0.1c0.6-0.1,1.3-0.1,1.9-0.2l2.1-0.2l-0.8-1c-0.8-1-1.2-2.1-1.2-3.4c0-1.6,0.6-3,1.9-4.1
			c1.3-1.1,3.1-1.7,5.1-1.7c2,0,3.8,0.6,5.1,1.7c1.2,1.1,1.9,2.5,1.9,4.1c0,0.9-0.2,1.7-0.6,2.4l-0.5,1.1l4.8-0.4l0.1-0.2
			c0.3-0.9,0.4-1.9,0.4-2.9C446.6,428.1,445.5,425.5,443.4,423.6z"/>
		<path id="XMLID_422_" class="st4" d="M425.4,419.3c0.3-0.2,0.5-0.4,0.7-0.7c0.2-0.3,0.3-0.7,0.3-1c0-0.5-0.2-0.9-0.4-1.3
			c-0.3-0.4-0.8-0.7-1.5-0.9c-0.5-0.1-1.1-0.2-1.9-0.2c-1.3,0-2.5,0.3-3.6,0.8c-0.8,0.4-1.6,0.9-2,1.5l-0.2,0.3l0,0.1v0
			c-0.5,0.6-0.8,1.3-0.9,2c-0.2,0.9-0.3,2-0.3,3.4v13l0.9,0c0.1,0,0.2,0,0.3,0c0.4,0,0.8,0,1.1-0.1l1.7-0.1v-7.4h1.7
			c0.6,0,1.1-0.2,1.5-0.6c0.4-0.4,0.7-0.9,0.6-1.5c0-0.3,0-0.5-0.1-0.8c-0.2-0.4-0.5-0.8-0.9-1c-0.3-0.2-0.7-0.3-1.1-0.3h-1.7v-1.3
			c0-1.1,0-1.8,0.1-2.3c0.1-0.5,0.3-0.7,0.5-0.9c0.3-0.3,1.2-0.8,2.5-0.8c0.5,0,0.7,0,0.8,0.1l0.9,0.2l0.2,0
			C424.8,419.5,425.1,419.4,425.4,419.3z"/>
		<path id="XMLID_421_" class="st4" d="M410.2,414c-0.6,0-1.2,0.2-1.6,0.7c-0.4,0.4-0.7,1-0.7,1.6c0,0.6,0.2,1.2,0.7,1.6
			c0.4,0.4,1,0.7,1.6,0.7h0c0.6,0,1.2-0.2,1.6-0.7c0.4-0.4,0.7-1,0.7-1.6c0-0.6-0.2-1.2-0.7-1.6C411.4,414.3,410.9,414,410.2,414z"
			/>
		<path id="XMLID_420_" class="st4" d="M411.5,420.7c-0.3-0.3-0.8-0.5-1.3-0.5c-0.5,0-0.9,0.2-1.3,0.4c-0.4,0.3-0.6,0.8-0.7,1.3
			c-0.1,0.3-0.1,0.7-0.1,0.9v14.3l0.9,0c0.1,0,0.2,0,0.3,0l0.5,0c0.4,0,0.8,0,1.2,0l1.2-0.1v-14.2c0-0.3,0-0.7-0.2-1.2
			C412,421.3,411.8,421,411.5,420.7z"/>
		<path id="XMLID_419_" class="st4" d="M405.1,412.9c0-0.3,0-0.8-0.1-1.3c-0.1-0.4-0.3-0.7-0.5-1c-0.3-0.4-0.8-0.6-1.4-0.6
			c-0.5,0-1,0.2-1.3,0.5c-0.4,0.4-0.6,1-0.6,1.4c-0.1,0.4-0.1,0.7-0.1,1v10.9v12.3v13.9c0,0.3,0,0.8,0.2,1.3c0.1,0.4,0.3,0.7,0.5,1
			c0.3,0.4,0.8,0.6,1.4,0.6c0.5,0,1-0.2,1.3-0.5c0.4-0.4,0.6-1,0.6-1.4c0.1-0.4,0.1-0.7,0.1-0.9v-25.7v-0.2L405.1,412.9z"/>
		<path id="XMLID_88_" class="st4" d="M398.4,428.8c0-1.1,0-3-0.2-3.9c-0.3-1.1-0.9-1.9-1.8-2.6c-1.6-1.2-3.6-1.8-6-1.8
			c-1.6,0-3.5,0.3-5.1,0.7c-0.8,0.2-1.5,0.5-2,0.8c-0.3,0.2-0.6,0.4-0.8,0.6c-0.3,0.4-0.5,0.8-0.5,1.2c0,0.5,0.2,0.9,0.4,1.3
			c0.4,0.5,0.9,0.7,1.5,0.7c0.6,0,1.1-0.2,1.8-0.4l0.2,0c1.1-0.3,2.4-0.8,4.5-0.8c0.9,0,1.7,0.1,2.3,0.3c0.5,0.2,0.8,0.4,1.1,0.6
			c0.3,0.3,0.4,0.5,0.5,0.7c0.1,0.2,0.1,1.1,0.1,1.9c-1.3-0.7-3.1-1.4-5.5-1.4c-2.4,0-4.6,0.7-6.2,2c-1.7,1.3-2.6,3.2-2.6,5.3
			c0,0.7,0.1,1.3,0.3,1.9l0.1,0.3l0.6,0c0.6,0,1.1,0.1,1.7,0.1l0.2,0c0.7,0,1.4,0.1,2.1,0.1l0.4,0l-0.8-1.1
			c-0.3-0.4-0.4-0.8-0.4-1.2c0-1,0.7-1.7,1.2-2.1c0.9-0.7,2.1-1,3.4-1c2.2,0,3.8,0.8,5.4,1.8l0.1,0.1v3.8l0.3,0c0.6,0,1.2,0,1.8,0
			c0.1,0,0.2,0,0.3,0c0.5,0,0.9,0,1.4,0l0.4,0l0-2V428.8z"/>
	</g>
	<path id="XMLID_86_" class="st6" d="M515.2,437.3L515.2,437.3c-0.3-0.3-0.6-0.5-1-0.6c-0.3-0.1-0.5-0.1-0.6-0.1
		c-0.1,0-2.1-0.3-5.6-0.8c-0.2,0-0.4-0.1-0.7-0.1l-0.3,0c-0.5-0.1-1.1-0.1-1.7-0.2l-0.4,0c-0.2,0-0.5-0.1-0.8-0.1
		c-3.4-0.4-6.9-0.7-10.5-1c-0.2,0-0.4,0-0.7-0.1l-0.4,0c-0.5,0-1.1-0.1-1.6-0.1c-0.1,0-0.2,0-0.3,0c-0.2,0-0.5,0-0.8-0.1
		c-0.7-0.1-1.5-0.1-2.3-0.1c-0.2,0-0.5,0-0.7,0l-2.4-0.1c-0.2,0-0.5,0-0.7,0c-1.2-0.1-2.3-0.1-3.5-0.2c-0.2,0-0.5,0-0.7,0l-0.1,0
		c-0.1,0-0.2,0-0.2,0c-0.6,0-1.1,0-1.7-0.1l-0.3,0c-0.2,0-0.5,0-0.7,0c-3.4-0.1-6.7-0.2-10-0.2c0,0-0.1,0-0.1,0h-0.6
		c-0.1,0-0.2,0-0.3,0l-0.7,0c-0.3,0-0.7,0-1,0l-0.3,0c-0.2,0-0.5,0-0.7,0c-3.9,0-7.9,0.2-11.9,0.4c-0.2,0-0.5,0-0.7,0l-0.3,0
		c-0.6,0-1.2,0.1-1.7,0.1l-0.3,0c-0.2,0-0.5,0-0.7,0c-0.8,0.1-1.7,0.1-2.5,0.2c-0.4,0-0.7,0-1.1,0.1l-0.1,0c-0.1,0-0.3,0-0.4,0
		l-2.2,0.2c-0.2,0-0.4,0-0.6,0c-2.6,0.2-5.2,0.4-7.6,0.6l-0.1,0c-1.2,0.1-2.4,0.2-3.6,0.3c-0.5,0-1,0.1-1.6,0.1l-0.2,0
		c-0.6,0.1-1.3,0.1-1.9,0.1l-0.7,0.1c-0.1,0-0.1,0-0.2,0c-1.6,0.1-3,0.2-4.4,0.3c-0.3,0-0.5,0-0.8,0l-0.8,0c-0.4,0-0.8,0-1.1,0.1
		c-0.1,0-0.2,0-0.3,0c-0.2,0-0.5,0-0.7,0c-1.3,0.1-2.6,0.1-3.8,0.2c-0.2,0-0.5,0-0.7,0l-0.3,0c-0.4,0-0.8,0-1.2,0l-0.5,0
		c-0.1,0-0.2,0-0.3,0c-0.2,0-0.5,0-0.7,0c-1.4,0-2.6,0.1-3.8,0.1c-0.2,0-0.5,0-0.7,0l-0.3,0c-0.4,0-0.8,0-1.2,0l-0.4,0
		c-0.1,0-0.2,0-0.3,0c-0.2,0-0.5,0-0.7,0c-0.9,0-1.8,0-2.7,0c-0.1,0-0.2,0-0.3,0c-0.5,0-0.9,0-1.4,0c-0.1,0-0.2,0-0.3,0
		c-0.6,0-1.2,0-1.8,0l-0.1,0l-0.2,0c-3.1,0-6.2-0.1-9.3-0.2c-0.7,0-1.4-0.1-2.1-0.1l-0.2,0c-0.7,0-1.3-0.1-2-0.1l-0.2,0l-0.3,0
		c-0.8,0-1.6-0.1-2.3-0.1c-0.2,0-0.4,0-0.6,0l-0.2,0c-0.1,0-0.3,0-0.4,0l-0.4,0c-0.6,0-1.2-0.1-1.8-0.1c-0.1,0-0.1,0-0.1,0
		c-0.5,0-1-0.1-1.4-0.1c-2.9-0.2-5.8-0.5-8.5-0.8c-0.4,0-0.7-0.1-1.1-0.1l-0.2,0c-0.7-0.1-1.4-0.2-2.1-0.2l-0.5-0.1
		c-0.2,0-0.5-0.1-0.7-0.1c-1.9-0.2-3.3-0.4-4.3-0.5c-0.7-0.1-1.2-0.2-1.6-0.2l-0.5-0.1c-0.1,0-0.3-0.1-0.6-0.1
		c-0.4,0-0.7,0.1-0.9,0.3c-0.2,0.1-0.3,0.2-0.4,0.4c-0.1,0.2-0.2,0.5-0.2,0.7c0,0,0,0.1,0,0.1c0,0.4,0.1,0.7,0.4,1
		c0.3,0.3,0.7,0.5,1,0.6c0.1,0,0.3,0.1,0.4,0.1c0,0,0.1,0,0.1,0l0.1,0c0.5,0.1,1.6,0.3,3.3,0.5c7.1,1,22,2.6,41.6,2.6
		c6,0,11.9-0.2,18-0.5c0.2,0,0.5,0,0.7,0l0.8,0c0.4,0,0.8,0,1.2-0.1l0.3,0c0.2,0,0.5,0,0.7,0c4.4-0.3,8.6-0.6,12.6-1l0.2,0
		c9.9-0.8,20.2-1.7,33.7-1.7c26,0,45.8,3.2,46.9,3.3c0,0,0.1,0,0.2,0c0.1,0,0.2,0,0.4,0h0c0.3,0,0.6-0.1,0.9-0.2
		c0.4-0.2,0.6-0.6,0.7-1.1c0-0.1,0-0.2,0-0.3C515.4,437.8,515.3,437.5,515.2,437.3z"/>
	<g id="XMLID_63_">
		<path id="XMLID_83_" class="st4" d="M426.6,443.4c-0.9,0-1.6,0.7-1.6,1.6v4c-0.7-0.9-1.8-1.6-3.4-1.6c-2.6,0-5,2-5,5.7v0
			c0,3.7,2.4,5.7,5,5.7c1.6,0,2.7-0.8,3.4-1.8v0.1c0,0.9,0.7,1.6,1.6,1.6c0.9,0,1.6-0.7,1.6-1.6V445
			C428.2,444.1,427.5,443.4,426.6,443.4z M425.1,453c0,1.8-1.2,3-2.7,3c-1.5,0-2.7-1.2-2.7-3v0c0-1.8,1.2-3,2.7-3
			C423.9,450,425.1,451.2,425.1,453L425.1,453z"/>
		<path id="XMLID_82_" class="st4" d="M436.2,447.4c-0.9,0-1.7,1-2.1,2V449c0-0.9-0.7-1.6-1.6-1.6c-0.9,0-1.6,0.7-1.6,1.6v8.1
			c0,0.9,0.7,1.6,1.6,1.6c0.9,0,1.6-0.7,1.6-1.6v-2.9c0-2.2,0.9-3.4,2.5-3.8c0.6-0.1,1.2-0.6,1.2-1.5
			C437.7,448,437.1,447.4,436.2,447.4z"/>
		<path id="XMLID_79_" class="st4" d="M444.1,447.3c-3.2,0-5.4,2.6-5.4,5.7v0c0,3.4,2.4,5.7,5.7,5.7c1.6,0,2.8-0.5,3.8-1.3
			c0.2-0.2,0.4-0.5,0.4-0.9c0-0.7-0.5-1.2-1.2-1.2c-0.3,0-0.5,0.1-0.8,0.2c-0.6,0.5-1.4,0.7-2.2,0.7c-1.4,0-2.4-0.7-2.7-2.2h6.2
			c0.8,0,1.5-0.6,1.5-1.5C449.4,450.3,447.8,447.3,444.1,447.3z M441.7,452.2c0.2-1.4,1.1-2.3,2.4-2.3c1.3,0,2.1,0.9,2.3,2.3H441.7z
			"/>
		<path id="XMLID_76_" class="st4" d="M456.3,447.4c-1.5,0-2.5,0.2-3.5,0.6c-0.5,0.2-0.8,0.7-0.8,1.2c0,0.7,0.6,1.3,1.3,1.3
			c0.1,0,0.3,0,0.5-0.1c0.6-0.2,1.3-0.3,2.2-0.3c1.6,0,2.4,0.7,2.4,2v0.2c-0.8-0.3-1.6-0.5-2.7-0.5c-2.6,0-4.4,1.1-4.4,3.5v0
			c0,2.2,1.7,3.4,3.8,3.4c1.5,0,2.6-0.6,3.3-1.4v0c0,0.7,0.6,1.3,1.5,1.3c0.8,0,1.5-0.7,1.5-1.5v-5c0-1.5-0.4-2.7-1.2-3.5
			C459.2,447.9,458,447.4,456.3,447.4z M458.3,454.6c0,1.1-1,1.9-2.4,1.9c-1,0-1.7-0.5-1.7-1.3v0c0-1,0.8-1.5,2.2-1.5
			c0.8,0,1.5,0.2,2,0.4V454.6z"/>
		<path id="XMLID_73_" class="st4" d="M477.3,460.8c-1.6,0-2.7,0.8-3.4,1.8v-10.2c0-1.5,0.7-2.2,1.9-2.2c1.2,0,1.8,0.8,1.8,2.2v4.7
			c0,0.9,0.7,1.6,1.6,1.6c0.9,0,1.6-0.7,1.6-1.6v-5.7c0-2.6-1.4-4-3.7-4c-1.5,0-2.6,0.6-3.6,1.7c-0.6-1.1-1.7-1.7-3.1-1.7
			c-1.6,0-2.5,0.8-3.2,1.8V449c0-0.9-0.7-1.6-1.6-1.6c-0.9,0-1.6,0.7-1.6,1.6v8.1c0,0.9,0.7,1.6,1.6,1.6c0.9,0,1.6-0.7,1.6-1.6v-4.7
			c0-1.5,0.7-2.2,1.9-2.2c1.2,0,1.8,0.8,1.8,2.2v18.2c0,0.9,0.7,1.6,1.6,1.6c0.9,0,1.6-0.7,1.6-1.5v0c0.7,0.9,1.8,1.6,3.4,1.6
			c2.6,0,5-2,5-5.7v0C482.3,462.8,479.8,460.8,477.3,460.8z M479.1,466.5c0,1.8-1.2,3-2.7,3c-1.5,0-2.7-1.2-2.7-3v0
			c0-1.8,1.2-3,2.7-3C477.9,463.4,479.1,464.6,479.1,466.5L479.1,466.5z"/>
		<path id="XMLID_72_" class="st4" d="M486.3,460.9c-0.9,0-1.6,0.7-1.6,1.6v8.1c0,0.9,0.7,1.6,1.6,1.6c0.9,0,1.6-0.7,1.6-1.6v-8.1
			C487.8,461.6,487.1,460.9,486.3,460.9z"/>
		<path id="XMLID_71_" class="st4" d="M486.3,456.9c-1,0-1.7,0.6-1.7,1.5v0c0,0.9,0.8,1.5,1.7,1.5c1,0,1.7-0.6,1.7-1.5v0
			C488,457.5,487.2,456.9,486.3,456.9z"/>
		<path id="XMLID_64_" class="st4" d="M500.2,460.9c-0.9,0-1.6,0.7-1.6,1.5v0c-0.8-0.9-1.8-1.6-3.5-1.6c-2.5,0-4.9,1.8-4.9,5.1v0
			c0,3.3,2.3,5.1,4.9,5.1c1.7,0,2.7-0.7,3.6-1.8v0.5c0,2-1,3-3.1,3c-1.2,0-2.1-0.2-3-0.7c-0.1-0.1-0.3-0.1-0.5-0.1
			c-0.7,0-1.3,0.6-1.3,1.3c0,0.6,0.3,1,0.9,1.2c1.3,0.5,2.6,0.8,4,0.8c2.1,0,3.7-0.5,4.7-1.5c0.9-0.9,1.4-2.4,1.4-4.3v-7.1
			C501.8,461.6,501.1,460.9,500.2,460.9z M498.7,465.9c0,1.5-1.2,2.5-2.7,2.5c-1.5,0-2.7-1-2.7-2.5v0c0-1.5,1.1-2.5,2.7-2.5
			C497.5,463.4,498.7,464.4,498.7,465.9L498.7,465.9z"/>
	</g>
	<g id="XMLID_55_">
		<path id="XMLID_57_" class="st4" d="M510.5,417.9h-0.7c-0.1,0-0.2-0.1-0.2-0.3c0-0.1,0.1-0.3,0.2-0.3h1.9c0.1,0,0.2,0.1,0.2,0.3
			c0,0.1-0.1,0.3-0.2,0.3H511v2.2c0,0.2-0.1,0.3-0.3,0.3c-0.2,0-0.3-0.1-0.3-0.3V417.9z M512.5,417.6c0-0.2,0.1-0.3,0.3-0.3h0.1
			c0.1,0,0.2,0.1,0.3,0.1l0.9,1.4l0.9-1.4c0.1-0.1,0.1-0.1,0.2-0.1h0.1c0.1,0,0.3,0.1,0.3,0.3v2.4c0,0.2-0.1,0.3-0.3,0.3
			c-0.1,0-0.3-0.1-0.3-0.3v-1.7l-0.7,1.1c-0.1,0.1-0.1,0.1-0.2,0.1c-0.1,0-0.2,0-0.2-0.1l-0.7-1v1.7c0,0.2-0.1,0.3-0.3,0.3
			c-0.2,0-0.3-0.1-0.3-0.3V417.6z"/>
	</g>
</g>
<polygon id="XMLID_494_" class="st7" points="5.1,263.5 443.5,2.9 882.2,262.9 443.5,524 "/>
</svg>
