<?xml version="1.0" encoding="utf-8"?>
<!-- Generator: Adobe Illustrator 19.0.0, SVG Export Plug-In . SVG Version: 6.00 Build 0)  -->
<svg version="1.1" id="Layer_1" xmlns="http://www.w3.org/2000/svg" xmlns:xlink="http://www.w3.org/1999/xlink" x="0px" y="0px"
	 viewBox="-9.6 181.3 900.6 544.7" style="enable-background:new -9.6 181.3 900.6 544.7;" xml:space="preserve">
<style type="text/css">
	.st0{fill:#FFFFFF;}
	.st1{fill:#FFD100;}
	.st2{opacity:0.9;fill:#FFFFFF;}
	.st3{fill:#EE258A;}
	#shadow {-webkit-filter:url('#blur');filter:url('#blur');opacity:.3;}
</style>
<g id="shadow">
	<filter id="blur">
	  <feGaussianBlur in="SourceGraphic" stdDeviation="6" />
	</filter>
	<g id="XMLID_2_">
		<path id="XMLID_8_" d="M145.6,442.8l5.7-8.5c0.9-1.4,2.6-1.2,3.4-0.6c1.4,1.1,6.5,4.6,12.2,4.6c3.9,0,6.9-3,6.8-6.4
			c-0.1-3.8-2.4-6.6-7-9.6c-6.6-4.4-15.7-11.1-15.7-22.1c0-11.4,7.9-22.3,25-22.3c10,0,17.2,5.4,20.1,7.7c1.1,0.8,1.5,2.6,0.6,3.6
			l-6.6,8.1c-0.8,1.1-2.6,1.2-3.4,0.5c-0.8-0.7-6.2-4.7-11.8-4.7c-3.6,0-6.8,2.2-6.8,5.4c0,3.7,2.3,5.7,8.7,9.5
			c5.3,3.2,15.6,9.9,15.6,22.3c0,12.1-8.4,23.6-26.4,23.6c-11.2,0-18.4-5.6-20.4-8.1C144.7,444.7,144.9,443.8,145.6,442.8z"/>
		<path id="XMLID_7_" d="M217.7,394.5h-12.9c-1.1,0-1.7-1-1.6-2l1.7-11.5c0.1-1.1,1.1-2,2-2h42.6c1.1,0,1.7,0.9,1.6,2l-1.7,11.5
			c-0.1,1.1-1,2-2,2h-13l-7.9,56.4c-0.1,1.1-1.2,2-2.1,2h-13.1c-0.9,0-1.7-0.9-1.6-2L217.7,394.5z"/>
		<path id="XMLID_6_" d="M241.1,450.1l40-71c0.4-0.6,1-1.2,1.8-1.2h0.9c0.7,0,1.3,0.5,1.5,1.2l19.8,71c0.4,1.4-0.5,2.7-2,2.7h-11.9
			c-1.9,0-3-0.5-3.4-2.6l-1.8-8.3h-23.3l-4.1,8.4c-0.6,1.4-2,2.5-4.2,2.5h-12C240.9,452.8,240.3,451.5,241.1,450.1z M282,427.5
			l-3.3-17.6h-0.1l-8.4,17.6H282z"/>
		<path id="XMLID_5_" d="M326.6,394.5h-12.9c-1.1,0-1.7-1-1.6-2l1.7-11.5c0.1-1.1,1.1-2,2-2h42.6c1.1,0,1.7,0.9,1.6,2l-1.7,11.5
			c-0.1,1.1-1,2-2,2h-13l-7.9,56.4c-0.1,1.1-1.2,2-2.1,2h-13.1c-0.9,0-1.7-0.9-1.6-2L326.6,394.5z"/>
		<path id="XMLID_4_" d="M370.3,381c0.1-1.1,1.1-2,2-2h39.8c1.1,0,1.7,0.9,1.6,2l-1.7,11.5c-0.1,1.1-1,2-2,2h-25.1l-1.9,13.1h20.5
			c0.9,0,1.7,0.9,1.6,2l-1.7,11.5c-0.2,1.2-1.2,2-2.1,2h-20.4l-2,14.2h25c1.1,0,1.6,0.9,1.5,2l-1.6,11.5c-0.1,1.1-1.1,2-2.1,2h-39.8
			c-1.1,0-1.7-0.9-1.5-2L370.3,381z"/>
	</g>
	<g id="XMLID_19_">
		<path id="XMLID_27_" d="M501.5,381c0.1-1.1,1.1-2,2.1-2h23.3c10.6,0,18.3,9.7,18.3,20.9c0,14-11.1,26.2-24.8,26.2h-8.7l-3.5,24.8
			c-0.1,1.1-1.2,2-2.1,2h-12.9c-1.1,0-1.6-0.9-1.5-2L501.5,381z M521.5,410.6c3.7,0,7.3-4.2,7.3-9.6c0-3.7-2.1-6.5-5-6.5h-7.7
			l-2.2,16.1H521.5z"/>
		<path id="XMLID_26_" d="M559,381c0.1-1.1,1.1-2,2.1-2h13.1c1,0,1.6,0.9,1.5,2l-7.9,56.4h21.5c1.1,0,1.6,0.9,1.5,2l-1.6,11.5
			c-0.1,1.1-1.1,2-2.1,2h-36.3c-1.1,0-1.7-0.9-1.6-2L559,381z"/>
		<path id="XMLID_25_" d="M593.5,450.1l40-71c0.4-0.6,1-1.2,1.8-1.2h1c0.7,0,1.3,0.5,1.5,1.2l19.8,71c0.4,1.4-0.5,2.7-2,2.7h-11.9
			c-1.9,0-3-0.5-3.4-2.6l-1.8-8.3h-23.3l-4.1,8.4c-0.6,1.4-2,2.5-4.2,2.5h-12C593.3,452.8,592.7,451.5,593.5,450.1z M634.4,427.5
			l-3.3-17.6H631l-8.4,17.6H634.4z"/>
		<path id="XMLID_24_" d="M677.8,417.3L662.2,382c-0.5-1.4,0.4-3.1,1.9-3.1h13.3c0.8,0,1.3,0.4,1.5,0.9l8.8,21.6l14.9-21.6
			c0.3-0.4,0.7-0.9,1.7-0.9h14.9c1.6,0,2.1,1.7,1.2,3.1l-25.9,35.1l-4.6,33.7c-0.1,1.1-1.2,2-2.1,2h-13.1c-1.1,0-1.6-0.9-1.5-2
			L677.8,417.3z"/>
	</g>
	<g id="XMLID_9_">
		<path id="XMLID_12_" d="M442,400.6c6.4,0,11.2,6,11.2,13.2c0,9.6-7.1,17.4-15.5,17.4c-6.4,0-11.2-5.9-11.2-13.2
			C426.4,408.6,433.4,400.6,442,400.6z M438,428.3c6.2,0,11.8-6.4,11.8-14.2c0-5.8-3.4-10.4-8.3-10.4c-6.3,0-11.9,6.4-11.9,14.1
			C429.6,423.6,433,428.3,438,428.3z"/>
		<path id="XMLID_11_" d="M465.2,404.2h-3.9c-0.7,0-0.9-0.5-0.8-0.9l0.1-0.9c0.1-0.5,0.6-0.9,1-0.9h3.9l1.5-10.4
			c1.2-8.3,5.6-12.3,11.7-12.3c3.3,0,5.9,1.8,6.9,3.1c0.3,0.4,0.2,0.9-0.1,1.2l-0.9,0.9c-0.4,0.4-0.8,0.4-1.2,0
			c-0.8-0.8-2.8-2.3-4.7-2.3c-4.4,0-7.6,3-8.5,9.7l-1.4,10h9.3c0.6,0,0.9,0.4,0.8,0.9l-0.1,1.1c-0.1,0.5-0.4,0.9-1,0.9h-9.3
			l-6.7,47.3c-0.1,0.5-0.6,0.9-1.1,0.9h-1.3c-0.5,0-0.9-0.4-0.8-0.9L465.2,404.2z"/>
	</g>
	<path d="M440.4,187.1L-2.9,450.6l442,262.6l1.3,0.8l440-261.9l3.6-2.2L440.4,187.1z M440.4,708.2L224.8,580.1h430.8L440.4,708.2z
		 M838.7,471.1H41.4L6.9,450.6l433.5-257.7L874.2,450L838.7,471.1z"/>
	<g id="VCA_white_gold_1_">
		<path id="XMLID_66_" d="M507.6,615.8c0-1.1,0-3-0.2-3.9c-0.3-1.1-0.9-1.9-1.8-2.6c-1.6-1.2-3.6-1.8-6-1.8c-1.6,0-3.5,0.3-5.1,0.7
			c-0.8,0.2-1.5,0.5-2,0.8c-0.3,0.2-0.6,0.4-0.8,0.6c-0.3,0.4-0.5,0.8-0.5,1.2c0,0.5,0.2,0.9,0.4,1.3c0.4,0.5,0.9,0.7,1.5,0.7
			s1.1-0.2,1.8-0.4h0.1c1.1-0.3,2.4-0.8,4.5-0.8c0.9,0,1.7,0.1,2.3,0.3c0.5,0.2,0.8,0.4,1.1,0.6c0.3,0.3,0.4,0.5,0.5,0.7
			s0.1,1.1,0.1,1.9c-1.3-0.7-3.1-1.4-5.5-1.4s-4.6,0.7-6.2,2c-1.7,1.3-2.6,3.2-2.6,5.3c0,0.7,0.1,1.3,0.3,1.9l0.1,0.3h0.6
			c0.6,0,1.1,0.1,1.7,0.1h0.2c0.7,0,1.4,0.1,2.1,0.1h0.4l-0.8-1.1c-0.3-0.4-0.4-0.8-0.4-1.2c0-1,0.7-1.7,1.2-2.1
			c0.9-0.7,2.1-1,3.4-1c2.2,0,3.8,0.8,5.4,1.8l0.1,0.1v3.8h0.3c0.6,0,1.2,0,1.8,0c0.1,0,0.2,0,0.3,0c0.5,0,0.9,0,1.4,0h0.4v-2
			L507.6,615.8L507.6,615.8z"/>
		<g id="XMLID_47_">
			<path id="XMLID_65_" d="M373.3,618.7c-0.8,0-1.3,0.5-1.9,1.1c-1,1-2.7,2.8-6,2.8c-4.4,0-7.8-3.6-7.8-8.2c0-4.6,3.6-8.3,8-8.3
				c2.7,0,4.2,1.3,5.2,2.2c0.6,0.5,1.2,1,1.9,1c0.9,0,1.9-0.5,1.9-2c0-1.7-4.2-5.3-9.1-5.3c-5.8,0-12.1,4.7-12.1,12.4
				c0,3.4,1.3,6.5,3.5,8.7c2.5,1.1,12.2,1.7,14.8,1.7c2.1-1.3,3.4-3,3.4-4.1C375.2,619.4,374.3,618.7,373.3,618.7z"/>
			<path id="XMLID_62_" d="M486.3,607.8c-0.3-0.3-0.8-0.5-1.3-0.5s-0.9,0.2-1.3,0.4c-0.4,0.3-0.6,0.8-0.7,1.3
				c-0.1,0.3-0.1,0.7-0.1,0.9v13.6h0.9c0.1,0,0.2,0,0.3,0h0.5c0.4,0,0.7,0,1.1,0l0.3,0.3h1V610c0-0.3,0-0.7-0.2-1.2
				C486.8,608.4,486.6,608.1,486.3,607.8z"/>
			<path id="XMLID_61_" d="M485.2,601.1c-0.6,0-1.2,0.2-1.6,0.7c-0.4,0.4-0.7,1-0.7,1.6c0,0.6,0.2,1.2,0.7,1.6
				c0.4,0.4,1,0.7,1.6,0.7l0,0c0.6,0,1.2-0.2,1.6-0.7c0.4-0.4,0.7-1,0.7-1.6c0-0.6-0.2-1.2-0.7-1.6
				C486.4,601.4,485.8,601.1,485.2,601.1z"/>
			<path id="XMLID_60_" d="M478.5,610.6L478.5,610.6c-0.5-0.6-1.2-1.3-2.3-1.8c-1.1-0.5-2.4-0.8-3.9-0.8c-2.8,0-5.2,0.9-6.8,1.7
				c-0.1-0.2-0.2-0.3-0.3-0.5c-0.2-0.3-0.5-0.5-0.7-0.7c-0.3-0.2-0.7-0.3-1.1-0.3c-0.5,0-0.9,0.2-1.3,0.5c-0.4,0.4-0.7,0.9-0.7,1.5
				c0,0.3,0.1,0.6,0.2,0.8c0,0.1,0.1,0.3,0.2,0.4l0.3,0.8c0.2,0.7,0.2,1.7,0.2,3.2v5h0.5c0.1,0,0.3,0,0.4,0h0.3c0.3,0,0.7,0,1,0h0.7
				c0.1,0,0.2,0,0.3,0h0.9v-6.1c1-0.7,1.7-1.1,2.5-1.4c1-0.4,2.1-0.6,3.4-0.6c0.7,0,1.3,0.1,1.8,0.3c0.5,0.2,0.8,0.4,1.2,0.8
				c0.3,0.3,0.4,0.7,0.5,1.2c0.1,0.6,0.1,1.3,0.1,2v4h1.2c0.6,0,1.2,0,1.7,0.1l1.2,0.1v-4.1c0-1.4,0-2.3-0.2-3.3
				C479.6,612.4,479.2,611.5,478.5,610.6z"/>
			<path id="XMLID_59_" d="M459,609.7l-0.1-0.2l-0.2-0.2c-1.7-1.3-3.7-1.5-4.5-1.5c-1.8,0-3.5,0.7-5.3,2c-0.1-0.2-0.2-0.3-0.3-0.4
				c-0.3-0.4-0.5-0.7-0.8-0.9c-0.4-0.3-0.9-0.5-1.4-0.5c-0.6,0-1.2,0.3-1.6,0.7c-0.3,0.4-0.5,0.9-0.5,1.4c0,0.4,0.1,0.8,0.3,1.2
				c0.1,0.3,0.3,0.5,0.4,0.7c0.2,0.3,0.4,0.6,0.6,1c0.2,0.5,0.3,1.2,0.3,2.1v6l1.2-0.1c0.6,0,1.1-0.1,1.7-0.1h0.3c0.1,0,0.3,0,0.4,0
				h0.5v-6.1c0.6-0.7,1.1-1.3,1.7-1.7c0.8-0.6,1.6-0.8,2.4-0.8c0.1,0,0.5,0,1,0.1c0.3,0.1,0.8,0.2,1.2,0.6l0.3,0.2h0.4
				c0,0,0.1,0,0.2,0c0.3,0,0.6,0,0.8-0.1c0.3-0.1,0.8-0.4,1.1-0.9c0.2-0.3,0.3-0.7,0.3-1.1c0-0.3-0.1-0.7-0.2-1
				C459.1,609.9,459,609.8,459,609.7z"/>
			<path id="XMLID_58_" d="M440.3,610.7c-2-1.8-4.8-2.8-7.9-2.8c-3,0-5.8,1-7.9,2.8c-2.1,1.9-3.2,4.4-3.2,7.3c0,1.7,0.4,3.2,1.2,4.7
				l0.1,0.1l1-0.1c0.6-0.1,1.3-0.1,1.9-0.2l2.1-0.2l-0.8-1c-0.8-1-1.2-2.1-1.2-3.4c0-1.6,0.6-3,1.9-4.1c1.3-1.1,3.1-1.7,5.1-1.7
				s3.8,0.6,5.1,1.7c1.2,1.1,1.9,2.5,1.9,4.1c0,0.9-0.2,1.7-0.6,2.4l-0.5,1.1l4.8-0.4l0.1-0.2c0.3-0.9,0.4-1.9,0.4-2.9
				C443.5,615.2,442.4,612.6,440.3,610.7z"/>
			<path id="XMLID_56_" d="M422.3,606.4c0.3-0.2,0.5-0.4,0.7-0.7c0.2-0.3,0.3-0.7,0.3-1c0-0.5-0.2-0.9-0.4-1.3
				c-0.3-0.4-0.8-0.7-1.5-0.9c-0.5-0.1-1.1-0.2-1.9-0.2c-1.3,0-2.5,0.3-3.6,0.8c-0.8,0.4-1.6,0.9-2,1.5l-0.2,0.3v0.1l0,0
				c-0.5,0.6-0.8,1.3-0.9,2c-0.2,0.9-0.3,2-0.3,3.4v13h0.9c0.1,0,0.2,0,0.3,0c0.4,0,0.8,0,1.1-0.1l1.7-0.1v-7.4h1.7
				c0.6,0,1.1-0.2,1.5-0.6c0.4-0.4,0.7-0.9,0.6-1.5c0-0.3,0-0.5-0.1-0.8c-0.2-0.4-0.5-0.8-0.9-1c-0.3-0.2-0.7-0.3-1.1-0.3h-1.7v-1.3
				c0-1.1,0-1.8,0.1-2.3s0.3-0.7,0.5-0.9c0.3-0.3,1.2-0.8,2.5-0.8c0.5,0,0.7,0,0.8,0.1l0.9,0.2h0.2
				C421.7,606.6,422,606.5,422.3,606.4z"/>
			<path id="XMLID_54_" d="M407.1,601.1c-0.6,0-1.2,0.2-1.6,0.7c-0.4,0.4-0.7,1-0.7,1.6c0,0.6,0.2,1.2,0.7,1.6
				c0.4,0.4,1,0.7,1.6,0.7l0,0c0.6,0,1.2-0.2,1.6-0.7c0.4-0.4,0.7-1,0.7-1.6c0-0.6-0.2-1.2-0.7-1.6
				C408.3,601.4,407.8,601.1,407.1,601.1z"/>
			<path id="XMLID_50_" d="M408.4,607.8c-0.3-0.3-0.8-0.5-1.3-0.5s-0.9,0.2-1.3,0.4c-0.4,0.3-0.6,0.8-0.7,1.3
				c-0.1,0.3-0.1,0.7-0.1,0.9v14.3h0.9c0.1,0,0.2,0,0.3,0h0.5c0.4,0,0.8,0,1.2,0l1.2-0.1v-14.2c0-0.3,0-0.7-0.2-1.2
				C408.9,608.4,408.7,608.1,408.4,607.8z"/>
			<path id="XMLID_49_" d="M402,600c0-0.3,0-0.8-0.1-1.3c-0.1-0.4-0.3-0.7-0.5-1c-0.3-0.4-0.8-0.6-1.4-0.6c-0.5,0-1,0.2-1.3,0.5
				c-0.4,0.4-0.6,1-0.6,1.4c-0.1,0.4-0.1,0.7-0.1,1v10.9v12.3v13.9c0,0.3,0,0.8,0.2,1.3c0.1,0.4,0.3,0.7,0.5,1
				c0.3,0.4,0.8,0.6,1.4,0.6c0.5,0,1-0.2,1.3-0.5c0.4-0.4,0.6-1,0.6-1.4c0.1-0.4,0.1-0.7,0.1-0.9v-25.7v-0.2L402,600z"/>
			<path id="XMLID_48_" d="M395.3,615.9c0-1.1,0-3-0.2-3.9c-0.3-1.1-0.9-1.9-1.8-2.6c-1.6-1.2-3.6-1.8-6-1.8c-1.6,0-3.5,0.3-5.1,0.7
				c-0.8,0.2-1.5,0.5-2,0.8c-0.3,0.2-0.6,0.4-0.8,0.6c-0.3,0.4-0.5,0.8-0.5,1.2c0,0.5,0.2,0.9,0.4,1.3c0.4,0.5,0.9,0.7,1.5,0.7
				s1.1-0.2,1.8-0.4h0.2c1.1-0.3,2.4-0.8,4.5-0.8c0.9,0,1.7,0.1,2.3,0.3c0.5,0.2,0.8,0.4,1.1,0.6c0.3,0.3,0.4,0.5,0.5,0.7
				s0.1,1.1,0.1,1.9c-1.3-0.7-3.1-1.4-5.5-1.4s-4.6,0.7-6.2,2c-1.7,1.3-2.6,3.2-2.6,5.3c0,0.7,0.1,1.3,0.3,1.9l0.1,0.3h0.6
				c0.6,0,1.1,0.1,1.7,0.1h0.2c0.7,0,1.4,0.1,2.1,0.1h0.4l-0.8-1.1c-0.3-0.4-0.4-0.8-0.4-1.2c0-1,0.7-1.7,1.2-2.1
				c0.9-0.7,2.1-1,3.4-1c2.2,0,3.8,0.8,5.4,1.8l0.1,0.1v3.8h0.3c0.6,0,1.2,0,1.8,0c0.1,0,0.2,0,0.3,0c0.5,0,0.9,0,1.4,0h0.4v-2v-5.9
				H395.3z"/>
		</g>
		<path id="XMLID_46_" d="M512.1,624.4L512.1,624.4c-0.3-0.3-0.6-0.5-1-0.6c-0.3-0.1-0.5-0.1-0.6-0.1s-2.1-0.3-5.6-0.8
			c-0.2,0-0.4-0.1-0.7-0.1h-0.3c-0.5-0.1-1.1-0.1-1.7-0.2h-0.4c-0.2,0-0.5-0.1-0.8-0.1c-3.4-0.4-6.9-0.7-10.5-1
			c-0.2,0-0.4,0-0.7-0.1h-0.4c-0.5,0-1.1-0.1-1.6-0.1c-0.1,0-0.2,0-0.3,0c-0.2,0-0.5,0-0.8-0.1c-0.7-0.1-1.5-0.1-2.3-0.1
			c-0.2,0-0.5,0-0.7,0l-2.4-0.1c-0.2,0-0.5,0-0.7,0c-1.2-0.1-2.3-0.1-3.5-0.2c-0.2,0-0.5,0-0.7,0h-0.1c-0.1,0-0.2,0-0.2,0
			c-0.6,0-1.1,0-1.7-0.1h-0.3c-0.2,0-0.5,0-0.7,0c-3.4-0.1-6.7-0.2-10-0.2h-0.1h-0.6c-0.1,0-0.2,0-0.3,0h-0.7c-0.3,0-0.7,0-1,0h-0.3
			c-0.2,0-0.5,0-0.7,0c-3.9,0-7.9,0.2-11.9,0.4c-0.2,0-0.5,0-0.7,0h-0.3c-0.6,0-1.2,0.1-1.7,0.1h-0.3c-0.2,0-0.5,0-0.7,0
			c-0.8,0.1-1.7,0.1-2.5,0.2c-0.4,0-0.7,0-1.1,0.1h-0.1c-0.1,0-0.3,0-0.4,0l-2.2,0.2c-0.2,0-0.4,0-0.6,0c-2.6,0.2-5.2,0.4-7.6,0.6
			h-0.1c-1.2,0.1-2.4,0.2-3.6,0.3c-0.5,0-1,0.1-1.6,0.1h-0.2c-0.6,0.1-1.3,0.1-1.9,0.1l-0.7,0.1c-0.1,0-0.1,0-0.2,0
			c-1.6,0.1-3,0.2-4.4,0.3c-0.3,0-0.5,0-0.8,0h-0.8c-0.4,0-0.8,0-1.1,0.1c-0.1,0-0.2,0-0.3,0c-0.2,0-0.5,0-0.7,0
			c-1.3,0.1-2.6,0.1-3.8,0.2c-0.2,0-0.5,0-0.7,0h-0.3c-0.4,0-0.8,0-1.2,0h-0.5c-0.1,0-0.2,0-0.3,0c-0.2,0-0.5,0-0.7,0
			c-1.4,0-2.6,0.1-3.8,0.1c-0.2,0-0.5,0-0.7,0h-0.3c-0.4,0-0.8,0-1.2,0h-0.4c-0.1,0-0.2,0-0.3,0c-0.2,0-0.5,0-0.7,0
			c-0.9,0-1.8,0-2.7,0c-0.1,0-0.2,0-0.3,0c-0.5,0-0.9,0-1.4,0c-0.1,0-0.2,0-0.3,0c-0.6,0-1.2,0-1.8,0h-0.1h-0.2
			c-3.1,0-6.2-0.1-9.3-0.2c-0.7,0-1.4-0.1-2.1-0.1h-0.2c-0.7,0-1.3-0.1-2-0.1h-0.2h-0.3c-0.8,0-1.6-0.1-2.3-0.1c-0.2,0-0.4,0-0.6,0
			h-0.2c-0.1,0-0.3,0-0.4,0h-0.4c-0.6,0-1.2-0.1-1.8-0.1c-0.1,0-0.1,0-0.1,0c-0.5,0-1-0.1-1.4-0.1c-2.9-0.2-5.8-0.5-8.5-0.8
			c-0.4,0-0.7-0.1-1.1-0.1h-0.2c-0.7-0.1-1.4-0.2-2.1-0.2l-0.5-0.1c-0.2,0-0.5-0.1-0.7-0.1c-1.9-0.2-3.3-0.4-4.3-0.5
			c-0.7-0.1-1.2-0.2-1.6-0.2l-0.5-0.1c-0.1,0-0.3-0.1-0.6-0.1c-0.4,0-0.7,0.1-0.9,0.3c-0.2,0.1-0.3,0.2-0.4,0.4
			c-0.1,0.2-0.2,0.5-0.2,0.7v0.1c0,0.4,0.1,0.7,0.4,1s0.7,0.5,1,0.6c0.1,0,0.3,0.1,0.4,0.1h0.1h0.1c0.5,0.1,1.6,0.3,3.3,0.5
			c7.1,1,22,2.6,41.6,2.6c6,0,11.9-0.2,18-0.5c0.2,0,0.5,0,0.7,0h0.8c0.4,0,0.8,0,1.2-0.1h0.3c0.2,0,0.5,0,0.7,0
			c4.4-0.3,8.6-0.6,12.6-1h0.2c9.9-0.8,20.2-1.7,33.7-1.7c26,0,45.8,3.2,46.9,3.3c0,0,0.1,0,0.2,0c0.1,0,0.2,0,0.4,0l0,0
			c0.3,0,0.6-0.1,0.9-0.2c0.4-0.2,0.6-0.6,0.7-1.1c0-0.1,0-0.2,0-0.3C512.3,624.9,512.2,624.6,512.1,624.4z"/>
		<g id="XMLID_31_">
			<path id="XMLID_43_" d="M423.5,630.5c-0.9,0-1.6,0.7-1.6,1.6v4c-0.7-0.9-1.8-1.6-3.4-1.6c-2.6,0-5,2-5,5.7l0,0
				c0,3.7,2.4,5.7,5,5.7c1.6,0,2.7-0.8,3.4-1.8v0.1c0,0.9,0.7,1.6,1.6,1.6s1.6-0.7,1.6-1.6v-12.1
				C425.1,631.2,424.4,630.5,423.5,630.5z M422,640.1c0,1.8-1.2,3-2.7,3s-2.7-1.2-2.7-3l0,0c0-1.8,1.2-3,2.7-3S422,638.3,422,640.1
				L422,640.1z"/>
			<path id="XMLID_42_" d="M433.1,634.5c-0.9,0-1.7,1-2.1,2v-0.4c0-0.9-0.7-1.6-1.6-1.6s-1.6,0.7-1.6,1.6v8.1c0,0.9,0.7,1.6,1.6,1.6
				s1.6-0.7,1.6-1.6v-2.9c0-2.2,0.9-3.4,2.5-3.8c0.6-0.1,1.2-0.6,1.2-1.5C434.6,635.1,434,634.5,433.1,634.5z"/>
			<path id="XMLID_39_" d="M441,634.4c-3.2,0-5.4,2.6-5.4,5.7l0,0c0,3.4,2.4,5.7,5.7,5.7c1.6,0,2.8-0.5,3.8-1.3
				c0.2-0.2,0.4-0.5,0.4-0.9c0-0.7-0.5-1.2-1.2-1.2c-0.3,0-0.5,0.1-0.8,0.2c-0.6,0.5-1.4,0.7-2.2,0.7c-1.4,0-2.4-0.7-2.7-2.2h6.2
				c0.8,0,1.5-0.6,1.5-1.5C446.3,637.4,444.7,634.4,441,634.4z M438.6,639.3c0.2-1.4,1.1-2.3,2.4-2.3s2.1,0.9,2.3,2.3H438.6z"/>
			<path id="XMLID_38_" d="M453.2,634.5c-1.5,0-2.5,0.2-3.5,0.6c-0.5,0.2-0.8,0.7-0.8,1.2c0,0.7,0.6,1.3,1.3,1.3
				c0.1,0,0.3,0,0.5-0.1c0.6-0.2,1.3-0.3,2.2-0.3c1.6,0,2.4,0.7,2.4,2v0.2c-0.8-0.3-1.6-0.5-2.7-0.5c-2.6,0-4.4,1.1-4.4,3.5l0,0
				c0,2.2,1.7,3.4,3.8,3.4c1.5,0,2.6-0.6,3.3-1.4l0,0c0,0.7,0.6,1.3,1.5,1.3c0.8,0,1.5-0.7,1.5-1.5v-5c0-1.5-0.4-2.7-1.2-3.5
				C456.1,635,454.9,634.5,453.2,634.5z M455.2,641.7c0,1.1-1,1.9-2.4,1.9c-1,0-1.7-0.5-1.7-1.3l0,0c0-1,0.8-1.5,2.2-1.5
				c0.8,0,1.5,0.2,2,0.4v0.5H455.2z"/>
			<path id="XMLID_36_" d="M474.2,647.9c-1.6,0-2.7,0.8-3.4,1.8v-10.2c0-1.5,0.7-2.2,1.9-2.2c1.2,0,1.8,0.8,1.8,2.2v4.7
				c0,0.9,0.7,1.6,1.6,1.6s1.6-0.7,1.6-1.6v-5.7c0-2.6-1.4-4-3.7-4c-1.5,0-2.6,0.6-3.6,1.7c-0.6-1.1-1.7-1.7-3.1-1.7
				c-1.6,0-2.5,0.8-3.2,1.8v-0.2c0-0.9-0.7-1.6-1.6-1.6s-1.6,0.7-1.6,1.6v8.1c0,0.9,0.7,1.6,1.6,1.6s1.6-0.7,1.6-1.6v-4.7
				c0-1.5,0.7-2.2,1.9-2.2c1.2,0,1.8,0.8,1.8,2.2v18.2c0,0.9,0.7,1.6,1.6,1.6s1.6-0.7,1.6-1.5l0,0c0.7,0.9,1.8,1.6,3.4,1.6
				c2.6,0,5-2,5-5.7l0,0C479.2,649.9,476.7,647.9,474.2,647.9z M476,653.6c0,1.8-1.2,3-2.7,3s-2.7-1.2-2.7-3l0,0c0-1.8,1.2-3,2.7-3
				C474.8,650.5,476,651.7,476,653.6L476,653.6z"/>
			<path id="XMLID_35_" d="M483.2,648c-0.9,0-1.6,0.7-1.6,1.6v8.1c0,0.9,0.7,1.6,1.6,1.6s1.6-0.7,1.6-1.6v-8.1
				C484.7,648.7,484,648,483.2,648z"/>
			<path id="XMLID_33_" d="M483.2,644c-1,0-1.7,0.6-1.7,1.5l0,0c0,0.9,0.8,1.5,1.7,1.5c1,0,1.7-0.6,1.7-1.5l0,0
				C484.9,644.6,484.1,644,483.2,644z"/>
			<path id="XMLID_32_" d="M497.1,648c-0.9,0-1.6,0.7-1.6,1.5l0,0c-0.8-0.9-1.8-1.6-3.5-1.6c-2.5,0-4.9,1.8-4.9,5.1l0,0
				c0,3.3,2.3,5.1,4.9,5.1c1.7,0,2.7-0.7,3.6-1.8v0.5c0,2-1,3-3.1,3c-1.2,0-2.1-0.2-3-0.7c-0.1-0.1-0.3-0.1-0.5-0.1
				c-0.7,0-1.3,0.6-1.3,1.3c0,0.6,0.3,1,0.9,1.2c1.3,0.5,2.6,0.8,4,0.8c2.1,0,3.7-0.5,4.7-1.5c0.9-0.9,1.4-2.4,1.4-4.3v-7.1
				C498.7,648.7,498,648,497.1,648z M495.6,653c0,1.5-1.2,2.5-2.7,2.5s-2.7-1-2.7-2.5l0,0c0-1.5,1.1-2.5,2.7-2.5
				C494.4,650.5,495.6,651.5,495.6,653L495.6,653z"/>
		</g>
		<g id="XMLID_28_">
			<path id="XMLID_29_" d="M507.4,605h-0.7c-0.1,0-0.2-0.1-0.2-0.3c0-0.1,0.1-0.3,0.2-0.3h1.9c0.1,0,0.2,0.1,0.2,0.3
				c0,0.1-0.1,0.3-0.2,0.3h-0.7v2.2c0,0.2-0.1,0.3-0.3,0.3c-0.2,0-0.3-0.1-0.3-0.3L507.4,605L507.4,605z M509.4,604.7
				c0-0.2,0.1-0.3,0.3-0.3h0.1c0.1,0,0.2,0.1,0.3,0.1l0.9,1.4l0.9-1.4c0.1-0.1,0.1-0.1,0.2-0.1h0.1c0.1,0,0.3,0.1,0.3,0.3v2.4
				c0,0.2-0.1,0.3-0.3,0.3c-0.1,0-0.3-0.1-0.3-0.3v-1.7l-0.7,1.1c-0.1,0.1-0.1,0.1-0.2,0.1c-0.1,0-0.2,0-0.2-0.1l-0.7-1v1.7
				c0,0.2-0.1,0.3-0.3,0.3s-0.3-0.1-0.3-0.3L509.4,604.7L509.4,604.7z"/>
		</g>
	</g>
</g>
<g id="XMLID_21_">
	<path id="XMLID_108_" class="st0" d="M145.6,442.8l5.7-8.5c0.9-1.4,2.6-1.2,3.4-0.6c1.4,1.1,6.5,4.6,12.2,4.6c3.9,0,6.9-3,6.8-6.4
		c-0.1-3.8-2.4-6.6-7-9.6c-6.6-4.4-15.7-11.1-15.7-22.1c0-11.4,7.9-22.3,25-22.3c10,0,17.2,5.4,20.1,7.7c1.1,0.8,1.5,2.6,0.6,3.6
		l-6.6,8.1c-0.8,1.1-2.6,1.2-3.4,0.5c-0.8-0.7-6.2-4.7-11.8-4.7c-3.6,0-6.8,2.2-6.8,5.4c0,3.7,2.3,5.7,8.7,9.5
		c5.3,3.2,15.6,9.9,15.6,22.3c0,12.1-8.4,23.6-26.4,23.6c-11.2,0-18.4-5.6-20.4-8.1C144.7,444.7,144.9,443.8,145.6,442.8z"/>
	<path id="XMLID_110_" class="st0" d="M217.7,394.5h-12.9c-1.1,0-1.7-1-1.6-2l1.7-11.5c0.1-1.1,1.1-2,2-2h42.6c1.1,0,1.7,0.9,1.6,2
		l-1.7,11.5c-0.1,1.1-1,2-2,2h-13l-7.9,56.4c-0.1,1.1-1.2,2-2.1,2h-13.1c-0.9,0-1.7-0.9-1.6-2L217.7,394.5z"/>
	<path id="XMLID_112_" class="st0" d="M241.1,450.1l40-71c0.4-0.6,1-1.2,1.8-1.2h0.9c0.7,0,1.3,0.5,1.5,1.2l19.8,71
		c0.4,1.4-0.5,2.7-2,2.7h-11.9c-1.9,0-3-0.5-3.4-2.6l-1.8-8.3h-23.3l-4.1,8.4c-0.6,1.4-2,2.5-4.2,2.5h-12
		C240.9,452.8,240.3,451.5,241.1,450.1z M282,427.5l-3.3-17.6h-0.1l-8.4,17.6H282z"/>
	<path id="XMLID_115_" class="st0" d="M326.6,394.5h-12.9c-1.1,0-1.7-1-1.6-2l1.7-11.5c0.1-1.1,1.1-2,2-2h42.6c1.1,0,1.7,0.9,1.6,2
		l-1.7,11.5c-0.1,1.1-1,2-2,2h-13l-7.9,56.4c-0.1,1.1-1.2,2-2.1,2h-13.1c-0.9,0-1.7-0.9-1.6-2L326.6,394.5z"/>
	<path id="XMLID_117_" class="st0" d="M370.3,381c0.1-1.1,1.1-2,2-2h39.8c1.1,0,1.7,0.9,1.6,2l-1.7,11.5c-0.1,1.1-1,2-2,2h-25.1
		l-1.9,13.1h20.5c0.9,0,1.7,0.9,1.6,2l-1.7,11.5c-0.2,1.2-1.2,2-2.1,2h-20.4l-2,14.2h25c1.1,0,1.6,0.9,1.5,2l-1.6,11.5
		c-0.1,1.1-1.1,2-2.1,2h-39.8c-1.1,0-1.7-0.9-1.5-2L370.3,381z"/>
</g>
<g id="XMLID_23_">
	<path id="XMLID_98_" class="st0" d="M501.5,381c0.1-1.1,1.1-2,2.1-2h23.3c10.6,0,18.3,9.7,18.3,20.9c0,14-11.1,26.2-24.8,26.2h-8.7
		l-3.5,24.8c-0.1,1.1-1.2,2-2.1,2h-12.9c-1.1,0-1.6-0.9-1.5-2L501.5,381z M521.5,410.6c3.7,0,7.3-4.2,7.3-9.6c0-3.7-2.1-6.5-5-6.5
		h-7.7l-2.2,16.1H521.5z"/>
	<path id="XMLID_101_" class="st0" d="M559,381c0.1-1.1,1.1-2,2.1-2h13.1c1,0,1.6,0.9,1.5,2l-7.9,56.4h21.5c1.1,0,1.6,0.9,1.5,2
		l-1.6,11.5c-0.1,1.1-1.1,2-2.1,2h-36.3c-1.1,0-1.7-0.9-1.6-2L559,381z"/>
	<path id="XMLID_103_" class="st0" d="M593.5,450.1l40-71c0.4-0.6,1-1.2,1.8-1.2h1c0.7,0,1.3,0.5,1.5,1.2l19.8,71
		c0.4,1.4-0.5,2.7-2,2.7h-11.9c-1.9,0-3-0.5-3.4-2.6l-1.8-8.3h-23.3l-4.1,8.4c-0.6,1.4-2,2.5-4.2,2.5h-12
		C593.3,452.8,592.7,451.5,593.5,450.1z M634.4,427.5l-3.3-17.6H631l-8.4,17.6H634.4z"/>
	<path id="XMLID_106_" class="st0" d="M677.8,417.3L662.2,382c-0.5-1.4,0.4-3.1,1.9-3.1h13.3c0.8,0,1.3,0.4,1.5,0.9l8.8,21.6
		l14.9-21.6c0.3-0.4,0.7-0.9,1.7-0.9h14.9c1.6,0,2.1,1.7,1.2,3.1l-25.9,35.1l-4.6,33.7c-0.1,1.1-1.2,2-2.1,2h-13.1
		c-1.1,0-1.6-0.9-1.5-2L677.8,417.3z"/>
</g>
<g id="XMLID_22_">
	<path id="XMLID_30_" class="st0" d="M442,400.6c6.4,0,11.2,6,11.2,13.2c0,9.6-7.1,17.4-15.5,17.4c-6.4,0-11.2-5.9-11.2-13.2
		C426.4,408.6,433.4,400.6,442,400.6z M438,428.3c6.2,0,11.8-6.4,11.8-14.2c0-5.8-3.4-10.4-8.3-10.4c-6.3,0-11.9,6.4-11.9,14.1
		C429.6,423.6,433,428.3,438,428.3z"/>
	<path id="XMLID_92_" class="st0" d="M465.2,404.2h-3.9c-0.7,0-0.9-0.5-0.8-0.9l0.1-0.9c0.1-0.5,0.6-0.9,1-0.9h3.9l1.5-10.4
		c1.2-8.3,5.6-12.3,11.7-12.3c3.3,0,5.9,1.8,6.9,3.1c0.3,0.4,0.2,0.9-0.1,1.2l-0.9,0.9c-0.4,0.4-0.8,0.4-1.2,0
		c-0.8-0.8-2.8-2.3-4.7-2.3c-4.4,0-7.6,3-8.5,9.7l-1.4,10h9.3c0.6,0,0.9,0.4,0.8,0.9l-0.1,1.1c-0.1,0.5-0.4,0.9-1,0.9h-9.3
		l-6.7,47.3c-0.1,0.5-0.6,0.9-1.1,0.9h-1.3c-0.5,0-0.9-0.4-0.8-0.9L465.2,404.2z"/>
</g>
<g id="VCA_white_gold">
	<path id="XMLID_429_" class="st0" d="M507.6,615.8c0-1.1,0-3-0.2-3.9c-0.3-1.1-0.9-1.9-1.8-2.6c-1.6-1.2-3.6-1.8-6-1.8
		c-1.6,0-3.5,0.3-5.1,0.7c-0.8,0.2-1.5,0.5-2,0.8c-0.3,0.2-0.6,0.4-0.8,0.6c-0.3,0.4-0.5,0.8-0.5,1.2c0,0.5,0.2,0.9,0.4,1.3
		c0.4,0.5,0.9,0.7,1.5,0.7s1.1-0.2,1.8-0.4h0.1c1.1-0.3,2.4-0.8,4.5-0.8c0.9,0,1.7,0.1,2.3,0.3c0.5,0.2,0.8,0.4,1.1,0.6
		c0.3,0.3,0.4,0.5,0.5,0.7s0.1,1.1,0.1,1.9c-1.3-0.7-3.1-1.4-5.5-1.4s-4.6,0.7-6.2,2c-1.7,1.3-2.6,3.2-2.6,5.3
		c0,0.7,0.1,1.3,0.3,1.9l0.1,0.3h0.6c0.6,0,1.1,0.1,1.7,0.1h0.2c0.7,0,1.4,0.1,2.1,0.1h0.4l-0.8-1.1c-0.3-0.4-0.4-0.8-0.4-1.2
		c0-1,0.7-1.7,1.2-2.1c0.9-0.7,2.1-1,3.4-1c2.2,0,3.8,0.8,5.4,1.8l0.1,0.1v3.8h0.3c0.6,0,1.2,0,1.8,0c0.1,0,0.2,0,0.3,0
		c0.5,0,0.9,0,1.4,0h0.4v-2L507.6,615.8L507.6,615.8z"/>
	<g id="XMLID_87_">
		<path id="XMLID_428_" class="st0" d="M373.3,618.7c-0.8,0-1.3,0.5-1.9,1.1c-1,1-2.7,2.8-6,2.8c-4.4,0-7.8-3.6-7.8-8.2
			c0-4.6,3.6-8.3,8-8.3c2.7,0,4.2,1.3,5.2,2.2c0.6,0.5,1.2,1,1.9,1c0.9,0,1.9-0.5,1.9-2c0-1.7-4.2-5.3-9.1-5.3
			c-5.8,0-12.1,4.7-12.1,12.4c0,3.4,1.3,6.5,3.5,8.7c2.5,1.1,12.2,1.7,14.8,1.7c2.1-1.3,3.4-3,3.4-4.1
			C375.2,619.4,374.3,618.7,373.3,618.7z"/>
		<path id="XMLID_427_" class="st0" d="M486.3,607.8c-0.3-0.3-0.8-0.5-1.3-0.5s-0.9,0.2-1.3,0.4c-0.4,0.3-0.6,0.8-0.7,1.3
			c-0.1,0.3-0.1,0.7-0.1,0.9v13.6h0.9c0.1,0,0.2,0,0.3,0h0.5c0.4,0,0.7,0,1.1,0l0.3,0.3h1V610c0-0.3,0-0.7-0.2-1.2
			C486.8,608.4,486.6,608.1,486.3,607.8z"/>
		<path id="XMLID_426_" class="st0" d="M485.2,601.1c-0.6,0-1.2,0.2-1.6,0.7c-0.4,0.4-0.7,1-0.7,1.6c0,0.6,0.2,1.2,0.7,1.6
			c0.4,0.4,1,0.7,1.6,0.7l0,0c0.6,0,1.2-0.2,1.6-0.7c0.4-0.4,0.7-1,0.7-1.6c0-0.6-0.2-1.2-0.7-1.6
			C486.4,601.4,485.8,601.1,485.2,601.1z"/>
		<path id="XMLID_425_" class="st0" d="M478.5,610.6L478.5,610.6c-0.5-0.6-1.2-1.3-2.3-1.8c-1.1-0.5-2.4-0.8-3.9-0.8
			c-2.8,0-5.2,0.9-6.8,1.7c-0.1-0.2-0.2-0.3-0.3-0.5c-0.2-0.3-0.5-0.5-0.7-0.7c-0.3-0.2-0.7-0.3-1.1-0.3c-0.5,0-0.9,0.2-1.3,0.5
			c-0.4,0.4-0.7,0.9-0.7,1.5c0,0.3,0.1,0.6,0.2,0.8c0,0.1,0.1,0.3,0.2,0.4l0.3,0.8c0.2,0.7,0.2,1.7,0.2,3.2v5h0.5c0.1,0,0.3,0,0.4,0
			h0.3c0.3,0,0.7,0,1,0h0.7c0.1,0,0.2,0,0.3,0h0.9v-6.1c1-0.7,1.7-1.1,2.5-1.4c1-0.4,2.1-0.6,3.4-0.6c0.7,0,1.3,0.1,1.8,0.3
			c0.5,0.2,0.8,0.4,1.2,0.8c0.3,0.3,0.4,0.7,0.5,1.2c0.1,0.6,0.1,1.3,0.1,2v4h1.2c0.6,0,1.2,0,1.7,0.1l1.2,0.1v-4.1
			c0-1.4,0-2.3-0.2-3.3C479.6,612.4,479.2,611.5,478.5,610.6z"/>
		<path id="XMLID_424_" class="st0" d="M459,609.7l-0.1-0.2l-0.2-0.2c-1.7-1.3-3.7-1.5-4.5-1.5c-1.8,0-3.5,0.7-5.3,2
			c-0.1-0.2-0.2-0.3-0.3-0.4c-0.3-0.4-0.5-0.7-0.8-0.9c-0.4-0.3-0.9-0.5-1.4-0.5c-0.6,0-1.2,0.3-1.6,0.7c-0.3,0.4-0.5,0.9-0.5,1.4
			c0,0.4,0.1,0.8,0.3,1.2c0.1,0.3,0.3,0.5,0.4,0.7c0.2,0.3,0.4,0.6,0.6,1c0.2,0.5,0.3,1.2,0.3,2.1v6l1.2-0.1c0.6,0,1.1-0.1,1.7-0.1
			h0.3c0.1,0,0.3,0,0.4,0h0.5v-6.1c0.6-0.7,1.1-1.3,1.7-1.7c0.8-0.6,1.6-0.8,2.4-0.8c0.1,0,0.5,0,1,0.1c0.3,0.1,0.8,0.2,1.2,0.6
			l0.3,0.2h0.4c0,0,0.1,0,0.2,0c0.3,0,0.6,0,0.8-0.1c0.3-0.1,0.8-0.4,1.1-0.9c0.2-0.3,0.3-0.7,0.3-1.1c0-0.3-0.1-0.7-0.2-1
			C459.1,609.9,459,609.8,459,609.7z"/>
		<path id="XMLID_423_" class="st0" d="M440.3,610.7c-2-1.8-4.8-2.8-7.9-2.8c-3,0-5.8,1-7.9,2.8c-2.1,1.9-3.2,4.4-3.2,7.3
			c0,1.7,0.4,3.2,1.2,4.7l0.1,0.1l1-0.1c0.6-0.1,1.3-0.1,1.9-0.2l2.1-0.2l-0.8-1c-0.8-1-1.2-2.1-1.2-3.4c0-1.6,0.6-3,1.9-4.1
			c1.3-1.1,3.1-1.7,5.1-1.7s3.8,0.6,5.1,1.7c1.2,1.1,1.9,2.5,1.9,4.1c0,0.9-0.2,1.7-0.6,2.4l-0.5,1.1l4.8-0.4l0.1-0.2
			c0.3-0.9,0.4-1.9,0.4-2.9C443.5,615.2,442.4,612.6,440.3,610.7z"/>
		<path id="XMLID_422_" class="st0" d="M422.3,606.4c0.3-0.2,0.5-0.4,0.7-0.7c0.2-0.3,0.3-0.7,0.3-1c0-0.5-0.2-0.9-0.4-1.3
			c-0.3-0.4-0.8-0.7-1.5-0.9c-0.5-0.1-1.1-0.2-1.9-0.2c-1.3,0-2.5,0.3-3.6,0.8c-0.8,0.4-1.6,0.9-2,1.5l-0.2,0.3v0.1l0,0
			c-0.5,0.6-0.8,1.3-0.9,2c-0.2,0.9-0.3,2-0.3,3.4v13h0.9c0.1,0,0.2,0,0.3,0c0.4,0,0.8,0,1.1-0.1l1.7-0.1v-7.4h1.7
			c0.6,0,1.1-0.2,1.5-0.6c0.4-0.4,0.7-0.9,0.6-1.5c0-0.3,0-0.5-0.1-0.8c-0.2-0.4-0.5-0.8-0.9-1c-0.3-0.2-0.7-0.3-1.1-0.3h-1.7v-1.3
			c0-1.1,0-1.8,0.1-2.3s0.3-0.7,0.5-0.9c0.3-0.3,1.2-0.8,2.5-0.8c0.5,0,0.7,0,0.8,0.1l0.9,0.2h0.2
			C421.7,606.6,422,606.5,422.3,606.4z"/>
		<path id="XMLID_421_" class="st0" d="M407.1,601.1c-0.6,0-1.2,0.2-1.6,0.7c-0.4,0.4-0.7,1-0.7,1.6c0,0.6,0.2,1.2,0.7,1.6
			c0.4,0.4,1,0.7,1.6,0.7l0,0c0.6,0,1.2-0.2,1.6-0.7c0.4-0.4,0.7-1,0.7-1.6c0-0.6-0.2-1.2-0.7-1.6
			C408.3,601.4,407.8,601.1,407.1,601.1z"/>
		<path id="XMLID_420_" class="st0" d="M408.4,607.8c-0.3-0.3-0.8-0.5-1.3-0.5s-0.9,0.2-1.3,0.4c-0.4,0.3-0.6,0.8-0.7,1.3
			c-0.1,0.3-0.1,0.7-0.1,0.9v14.3h0.9c0.1,0,0.2,0,0.3,0h0.5c0.4,0,0.8,0,1.2,0l1.2-0.1v-14.2c0-0.3,0-0.7-0.2-1.2
			C408.9,608.4,408.7,608.1,408.4,607.8z"/>
		<path id="XMLID_419_" class="st0" d="M402,600c0-0.3,0-0.8-0.1-1.3c-0.1-0.4-0.3-0.7-0.5-1c-0.3-0.4-0.8-0.6-1.4-0.6
			c-0.5,0-1,0.2-1.3,0.5c-0.4,0.4-0.6,1-0.6,1.4c-0.1,0.4-0.1,0.7-0.1,1v10.9v12.3v13.9c0,0.3,0,0.8,0.2,1.3c0.1,0.4,0.3,0.7,0.5,1
			c0.3,0.4,0.8,0.6,1.4,0.6c0.5,0,1-0.2,1.3-0.5c0.4-0.4,0.6-1,0.6-1.4c0.1-0.4,0.1-0.7,0.1-0.9v-25.7v-0.2L402,600z"/>
		<path id="XMLID_88_" class="st0" d="M395.3,615.9c0-1.1,0-3-0.2-3.9c-0.3-1.1-0.9-1.9-1.8-2.6c-1.6-1.2-3.6-1.8-6-1.8
			c-1.6,0-3.5,0.3-5.1,0.7c-0.8,0.2-1.5,0.5-2,0.8c-0.3,0.2-0.6,0.4-0.8,0.6c-0.3,0.4-0.5,0.8-0.5,1.2c0,0.5,0.2,0.9,0.4,1.3
			c0.4,0.5,0.9,0.7,1.5,0.7s1.1-0.2,1.8-0.4h0.2c1.1-0.3,2.4-0.8,4.5-0.8c0.9,0,1.7,0.1,2.3,0.3c0.5,0.2,0.8,0.4,1.1,0.6
			c0.3,0.3,0.4,0.5,0.5,0.7s0.1,1.1,0.1,1.9c-1.3-0.7-3.1-1.4-5.5-1.4s-4.6,0.7-6.2,2c-1.7,1.3-2.6,3.2-2.6,5.3
			c0,0.7,0.1,1.3,0.3,1.9l0.1,0.3h0.6c0.6,0,1.1,0.1,1.7,0.1h0.2c0.7,0,1.4,0.1,2.1,0.1h0.4l-0.8-1.1c-0.3-0.4-0.4-0.8-0.4-1.2
			c0-1,0.7-1.7,1.2-2.1c0.9-0.7,2.1-1,3.4-1c2.2,0,3.8,0.8,5.4,1.8l0.1,0.1v3.8h0.3c0.6,0,1.2,0,1.8,0c0.1,0,0.2,0,0.3,0
			c0.5,0,0.9,0,1.4,0h0.4v-2v-5.9H395.3z"/>
	</g>
	<path id="XMLID_86_" class="st1" d="M512.1,624.4L512.1,624.4c-0.3-0.3-0.6-0.5-1-0.6c-0.3-0.1-0.5-0.1-0.6-0.1s-2.1-0.3-5.6-0.8
		c-0.2,0-0.4-0.1-0.7-0.1h-0.3c-0.5-0.1-1.1-0.1-1.7-0.2h-0.4c-0.2,0-0.5-0.1-0.8-0.1c-3.4-0.4-6.9-0.7-10.5-1c-0.2,0-0.4,0-0.7-0.1
		h-0.4c-0.5,0-1.1-0.1-1.6-0.1c-0.1,0-0.2,0-0.3,0c-0.2,0-0.5,0-0.8-0.1c-0.7-0.1-1.5-0.1-2.3-0.1c-0.2,0-0.5,0-0.7,0l-2.4-0.1
		c-0.2,0-0.5,0-0.7,0c-1.2-0.1-2.3-0.1-3.5-0.2c-0.2,0-0.5,0-0.7,0h-0.1c-0.1,0-0.2,0-0.2,0c-0.6,0-1.1,0-1.7-0.1h-0.3
		c-0.2,0-0.5,0-0.7,0c-3.4-0.1-6.7-0.2-10-0.2h-0.1h-0.6c-0.1,0-0.2,0-0.3,0h-0.7c-0.3,0-0.7,0-1,0h-0.3c-0.2,0-0.5,0-0.7,0
		c-3.9,0-7.9,0.2-11.9,0.4c-0.2,0-0.5,0-0.7,0h-0.3c-0.6,0-1.2,0.1-1.7,0.1h-0.3c-0.2,0-0.5,0-0.7,0c-0.8,0.1-1.7,0.1-2.5,0.2
		c-0.4,0-0.7,0-1.1,0.1h-0.1c-0.1,0-0.3,0-0.4,0l-2.2,0.2c-0.2,0-0.4,0-0.6,0c-2.6,0.2-5.2,0.4-7.6,0.6h-0.1
		c-1.2,0.1-2.4,0.2-3.6,0.3c-0.5,0-1,0.1-1.6,0.1h-0.2c-0.6,0.1-1.3,0.1-1.9,0.1l-0.7,0.1c-0.1,0-0.1,0-0.2,0
		c-1.6,0.1-3,0.2-4.4,0.3c-0.3,0-0.5,0-0.8,0h-0.8c-0.4,0-0.8,0-1.1,0.1c-0.1,0-0.2,0-0.3,0c-0.2,0-0.5,0-0.7,0
		c-1.3,0.1-2.6,0.1-3.8,0.2c-0.2,0-0.5,0-0.7,0h-0.3c-0.4,0-0.8,0-1.2,0h-0.5c-0.1,0-0.2,0-0.3,0c-0.2,0-0.5,0-0.7,0
		c-1.4,0-2.6,0.1-3.8,0.1c-0.2,0-0.5,0-0.7,0h-0.3c-0.4,0-0.8,0-1.2,0h-0.4c-0.1,0-0.2,0-0.3,0c-0.2,0-0.5,0-0.7,0
		c-0.9,0-1.8,0-2.7,0c-0.1,0-0.2,0-0.3,0c-0.5,0-0.9,0-1.4,0c-0.1,0-0.2,0-0.3,0c-0.6,0-1.2,0-1.8,0h-0.1h-0.2
		c-3.1,0-6.2-0.1-9.3-0.2c-0.7,0-1.4-0.1-2.1-0.1h-0.2c-0.7,0-1.3-0.1-2-0.1h-0.2h-0.3c-0.8,0-1.6-0.1-2.3-0.1c-0.2,0-0.4,0-0.6,0
		h-0.2c-0.1,0-0.3,0-0.4,0h-0.4c-0.6,0-1.2-0.1-1.8-0.1c-0.1,0-0.1,0-0.1,0c-0.5,0-1-0.1-1.4-0.1c-2.9-0.2-5.8-0.5-8.5-0.8
		c-0.4,0-0.7-0.1-1.1-0.1h-0.2c-0.7-0.1-1.4-0.2-2.1-0.2l-0.5-0.1c-0.2,0-0.5-0.1-0.7-0.1c-1.9-0.2-3.3-0.4-4.3-0.5
		c-0.7-0.1-1.2-0.2-1.6-0.2l-0.5-0.1c-0.1,0-0.3-0.1-0.6-0.1c-0.4,0-0.7,0.1-0.9,0.3c-0.2,0.1-0.3,0.2-0.4,0.4
		c-0.1,0.2-0.2,0.5-0.2,0.7v0.1c0,0.4,0.1,0.7,0.4,1s0.7,0.5,1,0.6c0.1,0,0.3,0.1,0.4,0.1h0.1h0.1c0.5,0.1,1.6,0.3,3.3,0.5
		c7.1,1,22,2.6,41.6,2.6c6,0,11.9-0.2,18-0.5c0.2,0,0.5,0,0.7,0h0.8c0.4,0,0.8,0,1.2-0.1h0.3c0.2,0,0.5,0,0.7,0
		c4.4-0.3,8.6-0.6,12.6-1h0.2c9.9-0.8,20.2-1.7,33.7-1.7c26,0,45.8,3.2,46.9,3.3c0,0,0.1,0,0.2,0c0.1,0,0.2,0,0.4,0l0,0
		c0.3,0,0.6-0.1,0.9-0.2c0.4-0.2,0.6-0.6,0.7-1.1c0-0.1,0-0.2,0-0.3C512.3,624.9,512.2,624.6,512.1,624.4z"/>
	<g id="XMLID_63_">
		<path id="XMLID_83_" class="st0" d="M423.5,630.5c-0.9,0-1.6,0.7-1.6,1.6v4c-0.7-0.9-1.8-1.6-3.4-1.6c-2.6,0-5,2-5,5.7l0,0
			c0,3.7,2.4,5.7,5,5.7c1.6,0,2.7-0.8,3.4-1.8v0.1c0,0.9,0.7,1.6,1.6,1.6s1.6-0.7,1.6-1.6v-12.1
			C425.1,631.2,424.4,630.5,423.5,630.5z M422,640.1c0,1.8-1.2,3-2.7,3s-2.7-1.2-2.7-3l0,0c0-1.8,1.2-3,2.7-3S422,638.3,422,640.1
			L422,640.1z"/>
		<path id="XMLID_82_" class="st0" d="M433.1,634.5c-0.9,0-1.7,1-2.1,2v-0.4c0-0.9-0.7-1.6-1.6-1.6s-1.6,0.7-1.6,1.6v8.1
			c0,0.9,0.7,1.6,1.6,1.6s1.6-0.7,1.6-1.6v-2.9c0-2.2,0.9-3.4,2.5-3.8c0.6-0.1,1.2-0.6,1.2-1.5C434.6,635.1,434,634.5,433.1,634.5z"
			/>
		<path id="XMLID_79_" class="st0" d="M441,634.4c-3.2,0-5.4,2.6-5.4,5.7l0,0c0,3.4,2.4,5.7,5.7,5.7c1.6,0,2.8-0.5,3.8-1.3
			c0.2-0.2,0.4-0.5,0.4-0.9c0-0.7-0.5-1.2-1.2-1.2c-0.3,0-0.5,0.1-0.8,0.2c-0.6,0.5-1.4,0.7-2.2,0.7c-1.4,0-2.4-0.7-2.7-2.2h6.2
			c0.8,0,1.5-0.6,1.5-1.5C446.3,637.4,444.7,634.4,441,634.4z M438.6,639.3c0.2-1.4,1.1-2.3,2.4-2.3s2.1,0.9,2.3,2.3H438.6z"/>
		<path id="XMLID_76_" class="st0" d="M453.2,634.5c-1.5,0-2.5,0.2-3.5,0.6c-0.5,0.2-0.8,0.7-0.8,1.2c0,0.7,0.6,1.3,1.3,1.3
			c0.1,0,0.3,0,0.5-0.1c0.6-0.2,1.3-0.3,2.2-0.3c1.6,0,2.4,0.7,2.4,2v0.2c-0.8-0.3-1.6-0.5-2.7-0.5c-2.6,0-4.4,1.1-4.4,3.5l0,0
			c0,2.2,1.7,3.4,3.8,3.4c1.5,0,2.6-0.6,3.3-1.4l0,0c0,0.7,0.6,1.3,1.5,1.3c0.8,0,1.5-0.7,1.5-1.5v-5c0-1.5-0.4-2.7-1.2-3.5
			C456.1,635,454.9,634.5,453.2,634.5z M455.2,641.7c0,1.1-1,1.9-2.4,1.9c-1,0-1.7-0.5-1.7-1.3l0,0c0-1,0.8-1.5,2.2-1.5
			c0.8,0,1.5,0.2,2,0.4v0.5H455.2z"/>
		<path id="XMLID_73_" class="st0" d="M474.2,647.9c-1.6,0-2.7,0.8-3.4,1.8v-10.2c0-1.5,0.7-2.2,1.9-2.2c1.2,0,1.8,0.8,1.8,2.2v4.7
			c0,0.9,0.7,1.6,1.6,1.6s1.6-0.7,1.6-1.6v-5.7c0-2.6-1.4-4-3.7-4c-1.5,0-2.6,0.6-3.6,1.7c-0.6-1.1-1.7-1.7-3.1-1.7
			c-1.6,0-2.5,0.8-3.2,1.8v-0.2c0-0.9-0.7-1.6-1.6-1.6s-1.6,0.7-1.6,1.6v8.1c0,0.9,0.7,1.6,1.6,1.6s1.6-0.7,1.6-1.6v-4.7
			c0-1.5,0.7-2.2,1.9-2.2c1.2,0,1.8,0.8,1.8,2.2v18.2c0,0.9,0.7,1.6,1.6,1.6s1.6-0.7,1.6-1.5l0,0c0.7,0.9,1.8,1.6,3.4,1.6
			c2.6,0,5-2,5-5.7l0,0C479.2,649.9,476.7,647.9,474.2,647.9z M476,653.6c0,1.8-1.2,3-2.7,3s-2.7-1.2-2.7-3l0,0c0-1.8,1.2-3,2.7-3
			C474.8,650.5,476,651.7,476,653.6L476,653.6z"/>
		<path id="XMLID_72_" class="st0" d="M483.2,648c-0.9,0-1.6,0.7-1.6,1.6v8.1c0,0.9,0.7,1.6,1.6,1.6s1.6-0.7,1.6-1.6v-8.1
			C484.7,648.7,484,648,483.2,648z"/>
		<path id="XMLID_71_" class="st0" d="M483.2,644c-1,0-1.7,0.6-1.7,1.5l0,0c0,0.9,0.8,1.5,1.7,1.5c1,0,1.7-0.6,1.7-1.5l0,0
			C484.9,644.6,484.1,644,483.2,644z"/>
		<path id="XMLID_64_" class="st0" d="M497.1,648c-0.9,0-1.6,0.7-1.6,1.5l0,0c-0.8-0.9-1.8-1.6-3.5-1.6c-2.5,0-4.9,1.8-4.9,5.1l0,0
			c0,3.3,2.3,5.1,4.9,5.1c1.7,0,2.7-0.7,3.6-1.8v0.5c0,2-1,3-3.1,3c-1.2,0-2.1-0.2-3-0.7c-0.1-0.1-0.3-0.1-0.5-0.1
			c-0.7,0-1.3,0.6-1.3,1.3c0,0.6,0.3,1,0.9,1.2c1.3,0.5,2.6,0.8,4,0.8c2.1,0,3.7-0.5,4.7-1.5c0.9-0.9,1.4-2.4,1.4-4.3v-7.1
			C498.7,648.7,498,648,497.1,648z M495.6,653c0,1.5-1.2,2.5-2.7,2.5s-2.7-1-2.7-2.5l0,0c0-1.5,1.1-2.5,2.7-2.5
			C494.4,650.5,495.6,651.5,495.6,653L495.6,653z"/>
	</g>
	<g id="XMLID_55_">
		<path id="XMLID_57_" class="st0" d="M507.4,605h-0.7c-0.1,0-0.2-0.1-0.2-0.3c0-0.1,0.1-0.3,0.2-0.3h1.9c0.1,0,0.2,0.1,0.2,0.3
			c0,0.1-0.1,0.3-0.2,0.3h-0.7v2.2c0,0.2-0.1,0.3-0.3,0.3c-0.2,0-0.3-0.1-0.3-0.3L507.4,605L507.4,605z M509.4,604.7
			c0-0.2,0.1-0.3,0.3-0.3h0.1c0.1,0,0.2,0.1,0.3,0.1l0.9,1.4l0.9-1.4c0.1-0.1,0.1-0.1,0.2-0.1h0.1c0.1,0,0.3,0.1,0.3,0.3v2.4
			c0,0.2-0.1,0.3-0.3,0.3c-0.1,0-0.3-0.1-0.3-0.3v-1.7l-0.7,1.1c-0.1,0.1-0.1,0.1-0.2,0.1c-0.1,0-0.2,0-0.2-0.1l-0.7-1v1.7
			c0,0.2-0.1,0.3-0.3,0.3s-0.3-0.1-0.3-0.3L509.4,604.7L509.4,604.7z"/>
	</g>
</g>
<path class="st2" d="M440.4,187.1L-2.9,450.6l442,262.6l1.3,0.8l440-261.9l3.6-2.2L440.4,187.1z M440.4,708.2L224.8,580.1h430.8
	L440.4,708.2z M838.7,471.1H41.4L6.9,450.6l433.5-257.7L874.2,450L838.7,471.1z"/>
<g>
	<path class="st3" d="M159.4,492.7c0-0.2,0.1-0.3,0.3-0.3h4.1c3.5,0,6.3,2.8,6.3,6.3c0,3.5-2.8,6.3-6.3,6.3h-4.1
		c-0.2,0-0.3-0.2-0.3-0.3V492.7z M163.7,503.3c2.6,0,4.6-1.9,4.6-4.6c0-2.6-1.9-4.6-4.6-4.6h-2.4v9.2H163.7z"/>
	<path class="st3" d="M173.8,492.7c0-0.2,0.2-0.3,0.3-0.3h1.2c0.2,0,0.3,0.2,0.3,0.3v11.9c0,0.2-0.2,0.3-0.3,0.3h-1.2
		c-0.2,0-0.3-0.2-0.3-0.3V492.7z"/>
	<path class="st3" d="M179.4,503.2c0.2-0.2,0.3-0.5,0.5-0.7c0.2-0.2,0.4-0.3,0.6-0.1c0.1,0.1,1.5,1.2,2.9,1.2c1.2,0,2-0.8,2-1.7
		c0-1.1-0.9-1.8-2.7-2.5c-1.8-0.8-3.3-1.7-3.3-3.8c0-1.4,1.1-3.3,3.9-3.3c1.8,0,3.2,0.9,3.3,1.1c0.1,0.1,0.3,0.3,0.1,0.6
		c-0.1,0.2-0.3,0.5-0.5,0.7c-0.1,0.2-0.4,0.3-0.6,0.2c-0.1-0.1-1.4-0.9-2.4-0.9c-1.5,0-2,1-2,1.6c0,1,0.8,1.7,2.3,2.3
		c2.1,0.8,3.9,1.8,3.9,4c0,1.9-1.7,3.4-4,3.4c-2.2,0-3.6-1.2-3.9-1.4C179.3,503.6,179.2,503.5,179.4,503.2z"/>
	<path class="st3" d="M196.5,492.2c1.8,0,3.1,0.6,4.4,1.7c0.2,0.1,0.2,0.4,0,0.5l-0.8,0.8c-0.1,0.2-0.3,0.2-0.5,0
		c-0.8-0.7-2-1.2-3.1-1.2c-2.6,0-4.5,2.2-4.5,4.7s2,4.7,4.5,4.7c1.3,0,2.2-0.5,3.1-1.2c0.2-0.1,0.3-0.1,0.4,0l0.8,0.8
		c0.1,0.1,0.1,0.4,0,0.5c-1.2,1.2-2.8,1.7-4.4,1.7c-3.6,0-6.5-2.9-6.5-6.5S192.8,492.2,196.5,492.2z"/>
	<path class="st3" d="M209.9,492.2c3.6,0,6.5,2.9,6.5,6.5s-2.9,6.5-6.5,6.5s-6.5-2.9-6.5-6.5S206.3,492.2,209.9,492.2z M209.9,503.4
		c2.6,0,4.7-2.1,4.7-4.7c0-2.6-2.1-4.7-4.7-4.7c-2.6,0-4.7,2.1-4.7,4.7C205.2,501.3,207.3,503.4,209.9,503.4z"/>
	<path class="st3" d="M218.2,492.8c-0.1-0.2,0-0.5,0.3-0.5h1.3c0.1,0,0.3,0.1,0.3,0.2l4,8.9h0.1l4-8.9c0-0.1,0.1-0.2,0.3-0.2h1.3
		c0.3,0,0.4,0.2,0.3,0.5l-5.5,12.1c-0.1,0.1-0.2,0.2-0.3,0.2H224c-0.1,0-0.3-0.1-0.3-0.2L218.2,492.8z"/>
	<path class="st3" d="M232.8,492.7c0-0.2,0.1-0.3,0.3-0.3h7.2c0.2,0,0.3,0.2,0.3,0.3v1c0,0.2-0.1,0.3-0.3,0.3h-5.7v3.7h4.8
		c0.2,0,0.3,0.2,0.3,0.3v1c0,0.2-0.2,0.3-0.3,0.3h-4.8v3.9h5.7c0.2,0,0.3,0.2,0.3,0.3v1c0,0.2-0.1,0.3-0.3,0.3h-7.2
		c-0.2,0-0.3-0.2-0.3-0.3V492.7z"/>
	<path class="st3" d="M244.4,492.7c0-0.2,0.1-0.3,0.3-0.3h4.9c2.2,0,3.9,1.7,3.9,3.9c0,1.7-1.1,3-2.7,3.7l2.5,4.6
		c0.1,0.2,0,0.5-0.3,0.5h-1.4c-0.1,0-0.3-0.1-0.3-0.2l-2.4-4.8h-2.7v4.6c0,0.2-0.2,0.3-0.3,0.3h-1.2c-0.2,0-0.3-0.2-0.3-0.3V492.7z
		 M249.5,498.5c1.2,0,2.2-1,2.2-2.2c0-1.2-1-2.1-2.2-2.1h-3.2v4.4H249.5z"/>
	<path class="st3" d="M261.2,492.8c-0.1-0.3,0.1-0.4,0.3-0.4h1.2c0.1,0,0.3,0.1,0.3,0.3l2.2,8.3h0.1l2.9-8.5c0-0.1,0.2-0.2,0.3-0.2
		h0.3c0.1,0,0.3,0.1,0.3,0.2l3,8.5h0.1l2.1-8.3c0-0.1,0.2-0.3,0.3-0.3h1.2c0.3,0,0.4,0.2,0.3,0.4l-3.4,12.1c0,0.1-0.2,0.3-0.3,0.3
		h-0.3c-0.1,0-0.3-0.1-0.3-0.2l-3.2-9h-0.1l-3.1,9c0,0.1-0.2,0.2-0.3,0.2H265c-0.1,0-0.3-0.1-0.3-0.3L261.2,492.8z"/>
	<path class="st3" d="M279.5,492.7c0-0.2,0.2-0.3,0.3-0.3h1.2c0.2,0,0.3,0.2,0.3,0.3v5h6.6v-5c0-0.2,0.1-0.3,0.3-0.3h1.2
		c0.2,0,0.3,0.2,0.3,0.3v11.9c0,0.2-0.2,0.3-0.3,0.3h-1.2c-0.2,0-0.3-0.2-0.3-0.3v-5.2h-6.6v5.2c0,0.2-0.1,0.3-0.3,0.3h-1.2
		c-0.2,0-0.3-0.2-0.3-0.3V492.7z"/>
	<path class="st3" d="M296.8,498.9l-4.2-6c-0.1-0.2,0-0.5,0.3-0.5h1.3c0.1,0,0.2,0.1,0.3,0.2l3.3,4.6l3.3-4.6
		c0.1-0.1,0.2-0.2,0.3-0.2h1.4c0.3,0,0.4,0.3,0.3,0.5l-4.3,6v5.7c0,0.2-0.2,0.3-0.3,0.3h-1.2c-0.2,0-0.3-0.2-0.3-0.3V498.9z"/>
	<path class="st3" d="M309,504.5l5.5-12.1c0.1-0.1,0.2-0.2,0.3-0.2h0.2c0.1,0,0.3,0.1,0.3,0.2l5.5,12.1c0.1,0.2,0,0.5-0.3,0.5h-1.1
		c-0.2,0-0.3-0.1-0.4-0.3l-1.1-2.5h-5.9c-0.4,0.8-0.7,1.6-1.1,2.5c-0.1,0.1-0.2,0.3-0.4,0.3h-1.1C309,505,308.9,504.8,309,504.5z
		 M317.1,500.7l-2.2-4.9h-0.1l-2.2,4.9H317.1z"/>
	<path class="st3" d="M330.3,494.1h-2.9c-0.2,0-0.3-0.2-0.3-0.3v-1c0-0.2,0.1-0.3,0.3-0.3h7.7c0.2,0,0.3,0.2,0.3,0.3v1
		c0,0.2-0.1,0.3-0.3,0.3h-2.9v10.6c0,0.2-0.2,0.3-0.3,0.3h-1.2c-0.2,0-0.3-0.2-0.3-0.3V494.1z"/>
	<path class="st3" d="M338.4,492.7c0-0.2,0.1-0.3,0.3-0.3h4.9c2.2,0,3.9,1.7,3.9,3.9c0,1.7-1.1,3-2.7,3.7l2.5,4.6
		c0.1,0.2,0,0.5-0.3,0.5h-1.4c-0.1,0-0.3-0.1-0.3-0.2l-2.4-4.8h-2.7v4.6c0,0.2-0.2,0.3-0.3,0.3h-1.2c-0.2,0-0.3-0.2-0.3-0.3V492.7z
		 M343.5,498.5c1.2,0,2.2-1,2.2-2.2c0-1.2-1-2.1-2.2-2.1h-3.2v4.4H343.5z"/>
	<path class="st3" d="M351.3,492.7c0-0.2,0.2-0.3,0.3-0.3h1.2c0.2,0,0.3,0.2,0.3,0.3v11.9c0,0.2-0.2,0.3-0.3,0.3h-1.2
		c-0.2,0-0.3-0.2-0.3-0.3V492.7z"/>
	<path class="st3" d="M357.7,492.7c0-0.2,0.1-0.3,0.3-0.3h4.1c2.2,0,4,1.8,4,4c0,2.2-1.8,4.1-4,4.1h-2.6v4.2c0,0.2-0.2,0.3-0.3,0.3
		h-1.2c-0.2,0-0.3-0.2-0.3-0.3V492.7z M362.1,498.7c1.2,0,2.3-1,2.3-2.3c0-1.2-1-2.2-2.3-2.2h-2.5v4.5H362.1z"/>
	<path class="st3" d="M376.1,494.1h-2.9c-0.2,0-0.3-0.2-0.3-0.3v-1c0-0.2,0.1-0.3,0.3-0.3h7.7c0.2,0,0.3,0.2,0.3,0.3v1
		c0,0.2-0.1,0.3-0.3,0.3H378v10.6c0,0.2-0.2,0.3-0.3,0.3h-1.2c-0.2,0-0.3-0.2-0.3-0.3V494.1z"/>
	<path class="st3" d="M389.6,492.2c3.6,0,6.5,2.9,6.5,6.5s-2.9,6.5-6.5,6.5s-6.5-2.9-6.5-6.5S386,492.2,389.6,492.2z M389.6,503.4
		c2.6,0,4.7-2.1,4.7-4.7c0-2.6-2.1-4.7-4.7-4.7c-2.6,0-4.7,2.1-4.7,4.7C384.9,501.3,387,503.4,389.6,503.4z"/>
	<path class="st3" d="M410.2,492.2c1.8,0,3.1,0.6,4.4,1.7c0.2,0.1,0.2,0.4,0,0.5l-0.8,0.8c-0.1,0.2-0.3,0.2-0.5,0
		c-0.8-0.7-2-1.2-3.1-1.2c-2.6,0-4.5,2.2-4.5,4.7s2,4.7,4.5,4.7c1.3,0,2.2-0.5,3.1-1.2c0.2-0.1,0.3-0.1,0.4,0l0.8,0.8
		c0.1,0.1,0.1,0.4,0,0.5c-1.2,1.2-2.8,1.7-4.4,1.7c-3.6,0-6.5-2.9-6.5-6.5S406.6,492.2,410.2,492.2z"/>
	<path class="st3" d="M416.4,504.5l5.5-12.1c0.1-0.1,0.2-0.2,0.3-0.2h0.2c0.1,0,0.3,0.1,0.3,0.2l5.5,12.1c0.1,0.2,0,0.5-0.3,0.5
		h-1.1c-0.2,0-0.3-0.1-0.4-0.3l-1.1-2.5h-5.9c-0.4,0.8-0.7,1.6-1.1,2.5c-0.1,0.1-0.2,0.3-0.4,0.3h-1.1
		C416.5,505,416.3,504.8,416.4,504.5z M424.6,500.7l-2.2-4.9h-0.1l-2.2,4.9H424.6z"/>
	<path class="st3" d="M431,492.7c0-0.2,0.1-0.3,0.3-0.3h1.2c0.2,0,0.3,0.2,0.3,0.3v10.6h4.9c0.2,0,0.3,0.2,0.3,0.3v1
		c0,0.2-0.1,0.3-0.3,0.3h-6.4c-0.2,0-0.3-0.2-0.3-0.3V492.7z"/>
	<path class="st3" d="M441,492.7c0-0.2,0.2-0.3,0.3-0.3h1.2c0.2,0,0.3,0.2,0.3,0.3v11.9c0,0.2-0.2,0.3-0.3,0.3h-1.2
		c-0.2,0-0.3-0.2-0.3-0.3V492.7z"/>
	<path class="st3" d="M447.4,492.7c0-0.2,0.1-0.3,0.3-0.3h7.2c0.2,0,0.3,0.2,0.3,0.3v1c0,0.2-0.1,0.3-0.3,0.3h-5.7v4.2h4.8
		c0.2,0,0.3,0.2,0.3,0.3v1c0,0.2-0.2,0.3-0.3,0.3h-4.8v4.7c0,0.2-0.2,0.3-0.3,0.3h-1.2c-0.2,0-0.3-0.2-0.3-0.3V492.7z"/>
	<path class="st3" d="M464.1,492.2c3.6,0,6.5,2.9,6.5,6.5s-2.9,6.5-6.5,6.5s-6.5-2.9-6.5-6.5S460.5,492.2,464.1,492.2z M464.1,503.4
		c2.6,0,4.7-2.1,4.7-4.7c0-2.6-2.1-4.7-4.7-4.7c-2.6,0-4.7,2.1-4.7,4.7C459.5,501.3,461.6,503.4,464.1,503.4z"/>
	<path class="st3" d="M474.2,492.7c0-0.2,0.1-0.3,0.3-0.3h4.9c2.2,0,3.9,1.7,3.9,3.9c0,1.7-1.1,3-2.7,3.7l2.5,4.6
		c0.1,0.2,0,0.5-0.3,0.5h-1.4c-0.1,0-0.3-0.1-0.3-0.2l-2.4-4.8H476v4.6c0,0.2-0.2,0.3-0.3,0.3h-1.2c-0.2,0-0.3-0.2-0.3-0.3V492.7z
		 M479.3,498.5c1.2,0,2.2-1,2.2-2.2c0-1.2-1-2.1-2.2-2.1h-3.2v4.4H479.3z"/>
	<path class="st3" d="M487.2,492.5c0-0.2,0.2-0.3,0.3-0.3h0.5l7.8,9h0v-8.5c0-0.2,0.1-0.3,0.3-0.3h1.2c0.2,0,0.3,0.2,0.3,0.3v12.1
		c0,0.2-0.2,0.3-0.3,0.3h-0.5l-7.8-9.3h0v8.8c0,0.2-0.1,0.3-0.3,0.3h-1.1c-0.2,0-0.3-0.2-0.3-0.3V492.5z"/>
	<path class="st3" d="M502.1,492.7c0-0.2,0.2-0.3,0.3-0.3h1.2c0.2,0,0.3,0.2,0.3,0.3v11.9c0,0.2-0.2,0.3-0.3,0.3h-1.2
		c-0.2,0-0.3-0.2-0.3-0.3V492.7z"/>
	<path class="st3" d="M506.8,504.5l5.5-12.1c0.1-0.1,0.2-0.2,0.3-0.2h0.2c0.1,0,0.3,0.1,0.3,0.2l5.5,12.1c0.1,0.2,0,0.5-0.3,0.5
		h-1.1c-0.2,0-0.3-0.1-0.4-0.3l-1.1-2.5h-5.9c-0.4,0.8-0.7,1.6-1.1,2.5c-0.1,0.1-0.2,0.3-0.4,0.3h-1.1
		C506.8,505,506.7,504.8,506.8,504.5z M515,500.7l-2.2-4.9h-0.1l-2.2,4.9H515z"/>
	<path class="st3" d="M527.7,492.5c0-0.1,0.2-0.3,0.3-0.3h0.3c0.1,0,0.3,0.1,0.3,0.2l3.8,9.2h0.1l3.7-9.2c0-0.1,0.2-0.2,0.3-0.2h0.3
		c0.1,0,0.3,0.1,0.3,0.3l2.2,12.1c0.1,0.3-0.1,0.4-0.3,0.4h-1.2c-0.2,0-0.3-0.1-0.3-0.3l-1.3-8.1c0,0-0.1,0-0.1,0l-3.2,8.3
		c0,0.1-0.1,0.2-0.3,0.2h-0.3c-0.1,0-0.3-0.1-0.3-0.2l-3.3-8.3c0,0-0.1,0-0.1,0l-1.3,8.1c0,0.1-0.2,0.3-0.3,0.3h-1.2
		c-0.3,0-0.4-0.2-0.3-0.4L527.7,492.5z"/>
	<path class="st3" d="M541.3,504.5l5.5-12.1c0.1-0.1,0.2-0.2,0.3-0.2h0.2c0.1,0,0.3,0.1,0.3,0.2l5.5,12.1c0.1,0.2,0,0.5-0.3,0.5
		h-1.1c-0.2,0-0.3-0.1-0.4-0.3l-1.1-2.5h-5.9c-0.4,0.8-0.7,1.6-1.1,2.5c-0.1,0.1-0.2,0.3-0.4,0.3h-1.1
		C541.4,505,541.2,504.8,541.3,504.5z M549.5,500.7l-2.2-4.9h-0.1l-2.2,4.9H549.5z"/>
	<path class="st3" d="M556,492.8c0-0.2,0.2-0.4,0.4-0.4h1c0.2,0,0.4,0.2,0.4,0.4v5l5.1-5.2c0.1-0.1,0.2-0.2,0.3-0.2h1.4
		c0.3,0,0.5,0.4,0.3,0.6l-5.2,5.3l5.5,6.1c0.1,0.2,0.1,0.6-0.3,0.6h-1.4c-0.2,0-0.3-0.1-0.3-0.1l-5.2-5.9v5.6c0,0.2-0.2,0.4-0.4,0.4
		h-1c-0.3,0-0.4-0.2-0.4-0.4V492.8z"/>
	<path class="st3" d="M568.3,492.7c0-0.2,0.1-0.3,0.3-0.3h7.2c0.2,0,0.3,0.2,0.3,0.3v1c0,0.2-0.1,0.3-0.3,0.3h-5.7v3.7h4.8
		c0.2,0,0.3,0.2,0.3,0.3v1c0,0.2-0.2,0.3-0.3,0.3h-4.8v3.9h5.7c0.2,0,0.3,0.2,0.3,0.3v1c0,0.2-0.1,0.3-0.3,0.3h-7.2
		c-0.2,0-0.3-0.2-0.3-0.3V492.7z"/>
	<path class="st3" d="M579.1,503.2c0.2-0.2,0.3-0.5,0.5-0.7c0.2-0.2,0.4-0.3,0.6-0.1c0.1,0.1,1.5,1.2,2.9,1.2c1.2,0,2-0.8,2-1.7
		c0-1.1-0.9-1.8-2.7-2.5c-1.8-0.8-3.3-1.7-3.3-3.8c0-1.4,1.1-3.3,3.9-3.3c1.8,0,3.2,0.9,3.3,1.1c0.1,0.1,0.3,0.3,0.1,0.6
		c-0.1,0.2-0.3,0.5-0.5,0.7c-0.1,0.2-0.4,0.3-0.6,0.2c-0.1-0.1-1.4-0.9-2.4-0.9c-1.5,0-2,1-2,1.6c0,1,0.8,1.7,2.3,2.3
		c2.1,0.8,3.9,1.8,3.9,4c0,1.9-1.7,3.4-4,3.4c-2.2,0-3.6-1.2-3.9-1.4C579.1,503.6,578.9,503.5,579.1,503.2z"/>
	<path class="st3" d="M597.3,494.1h-2.9c-0.2,0-0.3-0.2-0.3-0.3v-1c0-0.2,0.1-0.3,0.3-0.3h7.7c0.2,0,0.3,0.2,0.3,0.3v1
		c0,0.2-0.1,0.3-0.3,0.3h-2.9v10.6c0,0.2-0.2,0.3-0.3,0.3h-1.2c-0.2,0-0.3-0.2-0.3-0.3V494.1z"/>
	<path class="st3" d="M605.4,492.7c0-0.2,0.2-0.3,0.3-0.3h1.2c0.2,0,0.3,0.2,0.3,0.3v5h6.6v-5c0-0.2,0.1-0.3,0.3-0.3h1.2
		c0.2,0,0.3,0.2,0.3,0.3v11.9c0,0.2-0.2,0.3-0.3,0.3h-1.2c-0.2,0-0.3-0.2-0.3-0.3v-5.2h-6.6v5.2c0,0.2-0.1,0.3-0.3,0.3h-1.2
		c-0.2,0-0.3-0.2-0.3-0.3V492.7z"/>
	<path class="st3" d="M620.2,492.7c0-0.2,0.1-0.3,0.3-0.3h7.2c0.2,0,0.3,0.2,0.3,0.3v1c0,0.2-0.1,0.3-0.3,0.3h-5.7v3.7h4.8
		c0.2,0,0.3,0.2,0.3,0.3v1c0,0.2-0.2,0.3-0.3,0.3h-4.8v3.9h5.7c0.2,0,0.3,0.2,0.3,0.3v1c0,0.2-0.1,0.3-0.3,0.3h-7.2
		c-0.2,0-0.3-0.2-0.3-0.3V492.7z"/>
	<path class="st3" d="M636.6,492.7c0-0.2,0.2-0.3,0.3-0.3h1.2c0.2,0,0.3,0.2,0.3,0.3v7.4c0,1.8,1.2,3.2,3,3.2c1.9,0,3-1.4,3-3.2
		v-7.5c0-0.2,0.1-0.3,0.3-0.3h1.2c0.2,0,0.3,0.2,0.3,0.3v7.6c0,2.7-2.1,4.9-4.9,4.9c-2.8,0-4.9-2.1-4.9-4.9V492.7z"/>
	<path class="st3" d="M650.8,492.7c0-0.2,0.1-0.3,0.3-0.3h1.2c0.2,0,0.3,0.2,0.3,0.3v10.6h4.9c0.2,0,0.3,0.2,0.3,0.3v1
		c0,0.2-0.1,0.3-0.3,0.3h-6.4c-0.2,0-0.3-0.2-0.3-0.3V492.7z"/>
	<path class="st3" d="M661.7,494.1h-2.9c-0.2,0-0.3-0.2-0.3-0.3v-1c0-0.2,0.1-0.3,0.3-0.3h7.7c0.2,0,0.3,0.2,0.3,0.3v1
		c0,0.2-0.1,0.3-0.3,0.3h-2.9v10.6c0,0.2-0.2,0.3-0.3,0.3h-1.2c-0.2,0-0.3-0.2-0.3-0.3V494.1z"/>
	<path class="st3" d="M669.8,492.7c0-0.2,0.2-0.3,0.3-0.3h1.2c0.2,0,0.3,0.2,0.3,0.3v11.9c0,0.2-0.2,0.3-0.3,0.3h-1.2
		c-0.2,0-0.3-0.2-0.3-0.3V492.7z"/>
	<path class="st3" d="M677.5,492.5c0-0.1,0.2-0.3,0.3-0.3h0.3c0.1,0,0.3,0.1,0.3,0.2l3.8,9.2h0.1l3.7-9.2c0-0.1,0.2-0.2,0.3-0.2h0.3
		c0.1,0,0.3,0.1,0.3,0.3l2.2,12.1c0.1,0.3-0.1,0.4-0.3,0.4h-1.2c-0.2,0-0.3-0.1-0.3-0.3l-1.3-8.1c0,0-0.1,0-0.1,0l-3.2,8.3
		c0,0.1-0.1,0.2-0.3,0.2h-0.3c-0.1,0-0.3-0.1-0.3-0.2l-3.3-8.3c0,0-0.1,0-0.1,0l-1.3,8.1c0,0.1-0.2,0.3-0.3,0.3h-1.2
		c-0.3,0-0.4-0.2-0.3-0.4L677.5,492.5z"/>
	<path class="st3" d="M691.1,504.5l5.5-12.1c0.1-0.1,0.2-0.2,0.3-0.2h0.2c0.1,0,0.3,0.1,0.3,0.2l5.5,12.1c0.1,0.2,0,0.5-0.3,0.5
		h-1.1c-0.2,0-0.3-0.1-0.4-0.3l-1.1-2.5h-5.9c-0.4,0.8-0.7,1.6-1.1,2.5c-0.1,0.1-0.2,0.3-0.4,0.3h-1.1
		C691.2,505,691,504.8,691.1,504.5z M699.3,500.7l-2.2-4.9H697l-2.2,4.9H699.3z"/>
	<path class="st3" d="M706.8,494.1h-2.9c-0.2,0-0.3-0.2-0.3-0.3v-1c0-0.2,0.1-0.3,0.3-0.3h7.7c0.2,0,0.3,0.2,0.3,0.3v1
		c0,0.2-0.1,0.3-0.3,0.3h-2.9v10.6c0,0.2-0.2,0.3-0.3,0.3h-1.2c-0.2,0-0.3-0.2-0.3-0.3V494.1z"/>
	<path class="st3" d="M714.9,492.7c0-0.2,0.1-0.3,0.3-0.3h7.2c0.2,0,0.3,0.2,0.3,0.3v1c0,0.2-0.1,0.3-0.3,0.3h-5.7v3.7h4.8
		c0.2,0,0.3,0.2,0.3,0.3v1c0,0.2-0.2,0.3-0.3,0.3h-4.8v3.9h5.7c0.2,0,0.3,0.2,0.3,0.3v1c0,0.2-0.1,0.3-0.3,0.3h-7.2
		c-0.2,0-0.3-0.2-0.3-0.3V492.7z"/>
	<path class="st3" d="M198.5,518.6c0-0.2,0.1-0.3,0.3-0.3h7.2c0.2,0,0.3,0.2,0.3,0.3v1c0,0.2-0.1,0.3-0.3,0.3h-5.7v4.2h4.8
		c0.2,0,0.3,0.2,0.3,0.3v1c0,0.2-0.2,0.3-0.3,0.3h-4.8v4.7c0,0.2-0.2,0.3-0.3,0.3h-1.2c-0.2,0-0.3-0.2-0.3-0.3V518.6z"/>
	<path class="st3" d="M206.8,530.4l5.5-12.1c0.1-0.1,0.2-0.2,0.3-0.2h0.2c0.1,0,0.3,0.1,0.3,0.2l5.5,12.1c0.1,0.2,0,0.5-0.3,0.5
		h-1.1c-0.2,0-0.3-0.1-0.4-0.3l-1.1-2.5h-5.9c-0.4,0.8-0.7,1.6-1.1,2.5c-0.1,0.1-0.2,0.3-0.4,0.3h-1.1
		C206.8,530.9,206.7,530.6,206.8,530.4z M215,526.6l-2.2-4.9h-0.1l-2.2,4.9H215z"/>
	<path class="st3" d="M222,518.4c0-0.1,0.2-0.3,0.3-0.3h0.3c0.1,0,0.3,0.1,0.3,0.2l3.8,9.2h0.1l3.7-9.2c0-0.1,0.2-0.2,0.3-0.2h0.3
		c0.1,0,0.3,0.1,0.3,0.3l2.2,12.1c0.1,0.3-0.1,0.4-0.3,0.4h-1.2c-0.2,0-0.3-0.1-0.3-0.3l-1.3-8.1c0,0-0.1,0-0.1,0l-3.2,8.3
		c0,0.1-0.1,0.2-0.3,0.2h-0.3c-0.1,0-0.3-0.1-0.3-0.2l-3.3-8.3c0,0-0.1,0-0.1,0l-1.3,8.1c0,0.1-0.2,0.3-0.3,0.3h-1.2
		c-0.3,0-0.4-0.2-0.3-0.4L222,518.4z"/>
	<path class="st3" d="M236.5,518.6c0-0.2,0.2-0.3,0.3-0.3h1.2c0.2,0,0.3,0.2,0.3,0.3v11.9c0,0.2-0.2,0.3-0.3,0.3h-1.2
		c-0.2,0-0.3-0.2-0.3-0.3V518.6z"/>
	<path class="st3" d="M242,518.6c0-0.2,0.1-0.3,0.3-0.3h1.2c0.2,0,0.3,0.2,0.3,0.3v10.6h4.9c0.2,0,0.3,0.2,0.3,0.3v1
		c0,0.2-0.1,0.3-0.3,0.3h-6.4c-0.2,0-0.3-0.2-0.3-0.3V518.6z"/>
	<path class="st3" d="M252.7,524.8l-4.2-6c-0.1-0.2,0-0.5,0.3-0.5h1.3c0.1,0,0.2,0.1,0.3,0.2l3.3,4.6l3.3-4.6
		c0.1-0.1,0.2-0.2,0.3-0.2h1.4c0.3,0,0.4,0.3,0.3,0.5l-4.3,6v5.7c0,0.2-0.2,0.3-0.3,0.3h-1.2c-0.2,0-0.3-0.2-0.3-0.3V524.8z"/>
	<path class="st3" d="M263.3,518.7c-0.1-0.2,0-0.5,0.3-0.5h1.3c0.1,0,0.3,0.1,0.3,0.2l4,8.9h0.1l4-8.9c0-0.1,0.1-0.2,0.3-0.2h1.3
		c0.3,0,0.4,0.2,0.3,0.5l-5.5,12.1c-0.1,0.1-0.2,0.2-0.3,0.2h-0.2c-0.1,0-0.3-0.1-0.3-0.2L263.3,518.7z"/>
	<path class="st3" d="M274.6,530.4l5.5-12.1c0.1-0.1,0.2-0.2,0.3-0.2h0.2c0.1,0,0.3,0.1,0.3,0.2l5.5,12.1c0.1,0.2,0,0.5-0.3,0.5H285
		c-0.2,0-0.3-0.1-0.4-0.3l-1.1-2.5h-5.9c-0.4,0.8-0.7,1.6-1.1,2.5c-0.1,0.1-0.2,0.3-0.4,0.3h-1.1
		C274.6,530.9,274.5,530.6,274.6,530.4z M282.7,526.6l-2.2-4.9h-0.1l-2.2,4.9H282.7z"/>
	<path class="st3" d="M293.9,518.1c1.8,0,3.1,0.6,4.4,1.7c0.2,0.1,0.2,0.4,0,0.5l-0.8,0.8c-0.1,0.2-0.3,0.2-0.5,0
		c-0.8-0.7-2-1.2-3.1-1.2c-2.6,0-4.5,2.2-4.5,4.7s2,4.7,4.5,4.7c1.3,0,2.2-0.5,3.1-1.2c0.2-0.1,0.3-0.1,0.4,0l0.8,0.8
		c0.1,0.1,0.1,0.4,0,0.5c-1.2,1.2-2.8,1.7-4.4,1.7c-3.6,0-6.5-2.9-6.5-6.5S290.3,518.1,293.9,518.1z"/>
	<path class="st3" d="M299.4,530.4l5.5-12.1c0.1-0.1,0.2-0.2,0.3-0.2h0.2c0.1,0,0.3,0.1,0.3,0.2l5.5,12.1c0.1,0.2,0,0.5-0.3,0.5
		h-1.1c-0.2,0-0.3-0.1-0.4-0.3l-1.1-2.5h-5.9c-0.4,0.8-0.7,1.6-1.1,2.5c-0.1,0.1-0.2,0.3-0.4,0.3h-1.1
		C299.4,530.9,299.2,530.6,299.4,530.4z M307.5,526.6l-2.2-4.9h-0.1l-2.2,4.9H307.5z"/>
	<path class="st3" d="M314.2,520h-2.9c-0.2,0-0.3-0.2-0.3-0.3v-1c0-0.2,0.1-0.3,0.3-0.3h7.7c0.2,0,0.3,0.2,0.3,0.3v1
		c0,0.2-0.1,0.3-0.3,0.3h-2.9v10.6c0,0.2-0.2,0.3-0.3,0.3h-1.2c-0.2,0-0.3-0.2-0.3-0.3V520z"/>
	<path class="st3" d="M321.5,518.6c0-0.2,0.2-0.3,0.3-0.3h1.2c0.2,0,0.3,0.2,0.3,0.3v11.9c0,0.2-0.2,0.3-0.3,0.3h-1.2
		c-0.2,0-0.3-0.2-0.3-0.3V518.6z"/>
	<path class="st3" d="M332.6,518.1c3.6,0,6.5,2.9,6.5,6.5s-2.9,6.5-6.5,6.5s-6.5-2.9-6.5-6.5S329,518.1,332.6,518.1z M332.6,529.3
		c2.6,0,4.7-2.1,4.7-4.7c0-2.6-2.1-4.7-4.7-4.7c-2.6,0-4.7,2.1-4.7,4.7C327.9,527.2,330,529.3,332.6,529.3z"/>
	<path class="st3" d="M341.9,518.4c0-0.2,0.2-0.3,0.3-0.3h0.5l7.8,9h0v-8.5c0-0.2,0.1-0.3,0.3-0.3h1.2c0.2,0,0.3,0.2,0.3,0.3v12.1
		c0,0.2-0.2,0.3-0.3,0.3h-0.5l-7.8-9.3h0v8.8c0,0.2-0.1,0.3-0.3,0.3h-1.1c-0.2,0-0.3-0.2-0.3-0.3V518.4z"/>
	<path class="st3" d="M356.2,528.6c0.7,0,1.3,0.6,1.3,1.3c0,0.7-0.6,1.2-1.3,1.2c-0.7,0-1.2-0.6-1.2-1.2
		C354.9,529.1,355.5,528.6,356.2,528.6z"/>
	<path class="st3" d="M364.3,518.6c0-0.2,0.1-0.3,0.3-0.3h7.2c0.2,0,0.3,0.2,0.3,0.3v1c0,0.2-0.1,0.3-0.3,0.3h-5.7v3.7h4.8
		c0.2,0,0.3,0.2,0.3,0.3v1c0,0.2-0.2,0.3-0.3,0.3h-4.8v3.9h5.7c0.2,0,0.3,0.2,0.3,0.3v1c0,0.2-0.1,0.3-0.3,0.3h-7.2
		c-0.2,0-0.3-0.2-0.3-0.3V518.6z"/>
	<path class="st3" d="M377.7,524.4l-3.6-5.6c-0.1-0.2,0-0.5,0.3-0.5h1.5c0.1,0,0.3,0.1,0.3,0.2l2.5,4.3h0l2.6-4.3
		c0-0.1,0.1-0.2,0.3-0.2h1.5c0.3,0,0.5,0.3,0.3,0.5l-3.6,5.6l3.7,6c0.1,0.3,0,0.5-0.3,0.5H382c-0.1,0-0.3-0.1-0.3-0.2l-2.8-4.6h0
		l-2.8,4.6c-0.1,0.1-0.2,0.2-0.3,0.2h-1.4c-0.3,0-0.5-0.3-0.3-0.5L377.7,524.4z"/>
	<path class="st3" d="M386.2,518.6c0-0.2,0.1-0.3,0.3-0.3h4.1c2.2,0,4,1.8,4,4c0,2.2-1.8,4.1-4,4.1h-2.6v4.2c0,0.2-0.2,0.3-0.3,0.3
		h-1.2c-0.2,0-0.3-0.2-0.3-0.3V518.6z M390.6,524.5c1.2,0,2.3-1,2.3-2.3c0-1.2-1-2.2-2.3-2.2h-2.5v4.5H390.6z"/>
	<path class="st3" d="M397.1,518.6c0-0.2,0.1-0.3,0.3-0.3h1.2c0.2,0,0.3,0.2,0.3,0.3v10.6h4.9c0.2,0,0.3,0.2,0.3,0.3v1
		c0,0.2-0.1,0.3-0.3,0.3h-6.4c-0.2,0-0.3-0.2-0.3-0.3V518.6z"/>
	<path class="st3" d="M411.7,518.1c3.6,0,6.5,2.9,6.5,6.5s-2.9,6.5-6.5,6.5s-6.5-2.9-6.5-6.5S408.1,518.1,411.7,518.1z M411.7,529.3
		c2.6,0,4.7-2.1,4.7-4.7c0-2.6-2.1-4.7-4.7-4.7c-2.6,0-4.7,2.1-4.7,4.7C407.1,527.2,409.2,529.3,411.7,529.3z"/>
	<path class="st3" d="M421,518.6c0-0.2,0.1-0.3,0.3-0.3h4.9c2.2,0,3.9,1.7,3.9,3.9c0,1.7-1.1,3-2.7,3.7l2.5,4.6
		c0.1,0.2,0,0.5-0.3,0.5h-1.4c-0.1,0-0.3-0.1-0.3-0.2l-2.4-4.8h-2.7v4.6c0,0.2-0.2,0.3-0.3,0.3h-1.2c-0.2,0-0.3-0.2-0.3-0.3V518.6z
		 M426.1,524.4c1.2,0,2.2-1,2.2-2.2c0-1.2-1-2.1-2.2-2.1h-3.2v4.4H426.1z"/>
	<path class="st3" d="M433.1,518.6c0-0.2,0.1-0.3,0.3-0.3h7.2c0.2,0,0.3,0.2,0.3,0.3v1c0,0.2-0.1,0.3-0.3,0.3H435v3.7h4.8
		c0.2,0,0.3,0.2,0.3,0.3v1c0,0.2-0.2,0.3-0.3,0.3H435v3.9h5.7c0.2,0,0.3,0.2,0.3,0.3v1c0,0.2-0.1,0.3-0.3,0.3h-7.2
		c-0.2,0-0.3-0.2-0.3-0.3V518.6z"/>
	<path class="st3" d="M448.1,518.4c0-0.2,0.2-0.3,0.3-0.3h0.5l7.8,9h0v-8.5c0-0.2,0.1-0.3,0.3-0.3h1.2c0.2,0,0.3,0.2,0.3,0.3v12.1
		c0,0.2-0.2,0.3-0.3,0.3h-0.5l-7.8-9.3h0v8.8c0,0.2-0.1,0.3-0.3,0.3h-1.1c-0.2,0-0.3-0.2-0.3-0.3V518.4z"/>
	<path class="st3" d="M467.8,518.1c3.6,0,6.5,2.9,6.5,6.5s-2.9,6.5-6.5,6.5s-6.5-2.9-6.5-6.5S464.2,518.1,467.8,518.1z M467.8,529.3
		c2.6,0,4.7-2.1,4.7-4.7c0-2.6-2.1-4.7-4.7-4.7c-2.6,0-4.7,2.1-4.7,4.7C463.1,527.2,465.2,529.3,467.8,529.3z"/>
	<path class="st3" d="M477,518.6c0-0.2,0.1-0.3,0.3-0.3h4.9c2.2,0,3.9,1.7,3.9,3.9c0,1.7-1.1,3-2.7,3.7l2.5,4.6
		c0.1,0.2,0,0.5-0.3,0.5h-1.4c-0.1,0-0.3-0.1-0.3-0.2l-2.4-4.8h-2.7v4.6c0,0.2-0.2,0.3-0.3,0.3h-1.2c-0.2,0-0.3-0.2-0.3-0.3V518.6z
		 M482.1,524.4c1.2,0,2.2-1,2.2-2.2c0-1.2-1-2.1-2.2-2.1h-3.2v4.4H482.1z"/>
	<path class="st3" d="M490.9,520H488c-0.2,0-0.3-0.2-0.3-0.3v-1c0-0.2,0.1-0.3,0.3-0.3h7.7c0.2,0,0.3,0.2,0.3,0.3v1
		c0,0.2-0.1,0.3-0.3,0.3h-2.9v10.6c0,0.2-0.2,0.3-0.3,0.3h-1.2c-0.2,0-0.3-0.2-0.3-0.3V520z"/>
	<path class="st3" d="M498.2,518.6c0-0.2,0.2-0.3,0.3-0.3h1.2c0.2,0,0.3,0.2,0.3,0.3v5h6.6v-5c0-0.2,0.1-0.3,0.3-0.3h1.2
		c0.2,0,0.3,0.2,0.3,0.3v11.9c0,0.2-0.2,0.3-0.3,0.3H507c-0.2,0-0.3-0.2-0.3-0.3v-5.2h-6.6v5.2c0,0.2-0.1,0.3-0.3,0.3h-1.2
		c-0.2,0-0.3-0.2-0.3-0.3V518.6z"/>
	<path class="st3" d="M512.2,518.6c0-0.2,0.1-0.3,0.3-0.3h7.2c0.2,0,0.3,0.2,0.3,0.3v1c0,0.2-0.1,0.3-0.3,0.3h-5.7v3.7h4.8
		c0.2,0,0.3,0.2,0.3,0.3v1c0,0.2-0.2,0.3-0.3,0.3h-4.8v3.9h5.7c0.2,0,0.3,0.2,0.3,0.3v1c0,0.2-0.1,0.3-0.3,0.3h-7.2
		c-0.2,0-0.3-0.2-0.3-0.3V518.6z"/>
	<path class="st3" d="M523,518.6c0-0.2,0.1-0.3,0.3-0.3h4.9c2.2,0,3.9,1.7,3.9,3.9c0,1.7-1.1,3-2.7,3.7l2.5,4.6
		c0.1,0.2,0,0.5-0.3,0.5h-1.4c-0.1,0-0.3-0.1-0.3-0.2l-2.4-4.8h-2.7v4.6c0,0.2-0.2,0.3-0.3,0.3h-1.2c-0.2,0-0.3-0.2-0.3-0.3V518.6z
		 M528.1,524.4c1.2,0,2.2-1,2.2-2.2c0-1.2-1-2.1-2.2-2.1h-3.2v4.4H528.1z"/>
	<path class="st3" d="M535.2,518.4c0-0.2,0.2-0.3,0.3-0.3h0.5l7.8,9h0v-8.5c0-0.2,0.1-0.3,0.3-0.3h1.2c0.2,0,0.3,0.2,0.3,0.3v12.1
		c0,0.2-0.2,0.3-0.3,0.3h-0.5l-7.8-9.3h0v8.8c0,0.2-0.1,0.3-0.3,0.3h-1.1c-0.2,0-0.3-0.2-0.3-0.3V518.4z"/>
	<path class="st3" d="M549.6,528.6c0.7,0,1.5,0.5,1.5,2c0,1.9-1.2,3.1-1.8,3.6c-0.2,0.1-0.3,0.1-0.4,0l-0.3-0.3
		c-0.1-0.1-0.1-0.3,0.1-0.5c0.2-0.2,1.3-1,1.3-2.5c0,0-0.2,0.1-0.5,0.1c-0.7,0-1.2-0.6-1.2-1.2C548.3,529.1,548.8,528.6,549.6,528.6
		z"/>
	<path class="st3" d="M563.5,518.1c1.8,0,3.1,0.6,4.4,1.7c0.2,0.1,0.2,0.4,0,0.5l-0.8,0.8c-0.1,0.2-0.3,0.2-0.5,0
		c-0.8-0.7-2-1.2-3.1-1.2c-2.6,0-4.5,2.2-4.5,4.7s2,4.7,4.5,4.7c1.3,0,2.2-0.5,3.1-1.2c0.2-0.1,0.3-0.1,0.4,0l0.8,0.8
		c0.1,0.1,0.1,0.4,0,0.5c-1.2,1.2-2.8,1.7-4.4,1.7c-3.6,0-6.5-2.9-6.5-6.5S559.9,518.1,563.5,518.1z"/>
	<path class="st3" d="M570.6,518.6c0-0.2,0.1-0.3,0.3-0.3h7.2c0.2,0,0.3,0.2,0.3,0.3v1c0,0.2-0.1,0.3-0.3,0.3h-5.7v3.7h4.8
		c0.2,0,0.3,0.2,0.3,0.3v1c0,0.2-0.2,0.3-0.3,0.3h-4.8v3.9h5.7c0.2,0,0.3,0.2,0.3,0.3v1c0,0.2-0.1,0.3-0.3,0.3H571
		c-0.2,0-0.3-0.2-0.3-0.3V518.6z"/>
	<path class="st3" d="M581.4,518.4c0-0.2,0.2-0.3,0.3-0.3h0.5l7.8,9h0v-8.5c0-0.2,0.1-0.3,0.3-0.3h1.2c0.2,0,0.3,0.2,0.3,0.3v12.1
		c0,0.2-0.2,0.3-0.3,0.3h-0.5l-7.8-9.3h0v8.8c0,0.2-0.1,0.3-0.3,0.3h-1.1c-0.2,0-0.3-0.2-0.3-0.3V518.4z"/>
	<path class="st3" d="M597.3,520h-2.9c-0.2,0-0.3-0.2-0.3-0.3v-1c0-0.2,0.1-0.3,0.3-0.3h7.7c0.2,0,0.3,0.2,0.3,0.3v1
		c0,0.2-0.1,0.3-0.3,0.3h-2.9v10.6c0,0.2-0.2,0.3-0.3,0.3h-1.2c-0.2,0-0.3-0.2-0.3-0.3V520z"/>
	<path class="st3" d="M604.6,518.6c0-0.2,0.1-0.3,0.3-0.3h4.9c2.2,0,3.9,1.7,3.9,3.9c0,1.7-1.1,3-2.7,3.7l2.5,4.6
		c0.1,0.2,0,0.5-0.3,0.5h-1.4c-0.1,0-0.3-0.1-0.3-0.2l-2.4-4.8h-2.7v4.6c0,0.2-0.2,0.3-0.3,0.3h-1.2c-0.2,0-0.3-0.2-0.3-0.3V518.6z
		 M609.7,524.4c1.2,0,2.2-1,2.2-2.2c0-1.2-1-2.1-2.2-2.1h-3.2v4.4H609.7z"/>
	<path class="st3" d="M615.1,530.4l5.5-12.1c0.1-0.1,0.2-0.2,0.3-0.2h0.2c0.1,0,0.3,0.1,0.3,0.2l5.5,12.1c0.1,0.2,0,0.5-0.3,0.5
		h-1.1c-0.2,0-0.3-0.1-0.4-0.3l-1.1-2.5H618c-0.4,0.8-0.7,1.6-1.1,2.5c-0.1,0.1-0.2,0.3-0.4,0.3h-1.1
		C615.1,530.9,615,530.6,615.1,530.4z M623.2,526.6l-2.2-4.9h-0.1l-2.2,4.9H623.2z"/>
	<path class="st3" d="M628.9,518.6c0-0.2,0.1-0.3,0.3-0.3h1.2c0.2,0,0.3,0.2,0.3,0.3v10.6h4.9c0.2,0,0.3,0.2,0.3,0.3v1
		c0,0.2-0.1,0.3-0.3,0.3h-6.4c-0.2,0-0.3-0.2-0.3-0.3V518.6z"/>
	<path class="st3" d="M638.4,528.6c0.7,0,1.5,0.5,1.5,2c0,1.9-1.2,3.1-1.8,3.6c-0.2,0.1-0.3,0.1-0.4,0l-0.3-0.3
		c-0.1-0.1-0.1-0.3,0.1-0.5c0.2-0.2,1.3-1,1.3-2.5c0,0-0.2,0.1-0.5,0.1c-0.7,0-1.2-0.6-1.2-1.2C637.1,529.1,637.7,528.6,638.4,528.6
		z"/>
	<path class="st3" d="M645.1,530.4l5.5-12.1c0.1-0.1,0.2-0.2,0.3-0.2h0.2c0.1,0,0.3,0.1,0.3,0.2l5.5,12.1c0.1,0.2,0,0.5-0.3,0.5
		h-1.1c-0.2,0-0.3-0.1-0.4-0.3l-1.1-2.5H648c-0.4,0.8-0.7,1.6-1.1,2.5c-0.1,0.1-0.2,0.3-0.4,0.3h-1.1
		C645.1,530.9,645,530.6,645.1,530.4z M653.2,526.6l-2.2-4.9h-0.1l-2.2,4.9H653.2z"/>
	<path class="st3" d="M658.9,518.4c0-0.2,0.2-0.3,0.3-0.3h0.5l7.8,9h0v-8.5c0-0.2,0.1-0.3,0.3-0.3h1.2c0.2,0,0.3,0.2,0.3,0.3v12.1
		c0,0.2-0.2,0.3-0.3,0.3h-0.5l-7.8-9.3h0v8.8c0,0.2-0.1,0.3-0.3,0.3h-1.1c-0.2,0-0.3-0.2-0.3-0.3V518.4z"/>
	<path class="st3" d="M673,518.6c0-0.2,0.1-0.3,0.3-0.3h4.1c3.5,0,6.3,2.8,6.3,6.3c0,3.5-2.8,6.3-6.3,6.3h-4.1
		c-0.2,0-0.3-0.2-0.3-0.3V518.6z M677.3,529.2c2.6,0,4.6-1.9,4.6-4.6c0-2.6-1.9-4.6-4.6-4.6h-2.4v9.2H677.3z"/>
	<path class="st3" d="M245.9,554.9c0.2-0.2,0.3-0.5,0.5-0.7c0.2-0.2,0.4-0.3,0.6-0.1c0.1,0.1,1.5,1.2,2.9,1.2c1.2,0,2-0.8,2-1.7
		c0-1.1-0.9-1.8-2.7-2.5c-1.8-0.8-3.3-1.7-3.3-3.8c0-1.4,1.1-3.3,3.9-3.3c1.8,0,3.2,0.9,3.3,1.1c0.1,0.1,0.3,0.3,0.1,0.6
		c-0.1,0.2-0.3,0.5-0.5,0.7c-0.1,0.2-0.4,0.3-0.6,0.2c-0.1-0.1-1.4-0.9-2.4-0.9c-1.5,0-2,1-2,1.6c0,1,0.8,1.7,2.3,2.3
		c2.1,0.8,3.9,1.8,3.9,4c0,1.9-1.7,3.4-4,3.4c-2.2,0-3.6-1.2-3.9-1.4C245.9,555.4,245.7,555.2,245.9,554.9z"/>
	<path class="st3" d="M262.7,544c3.6,0,6.5,2.9,6.5,6.5s-2.9,6.5-6.5,6.5s-6.5-2.9-6.5-6.5S259.1,544,262.7,544z M262.7,555.1
		c2.6,0,4.7-2.1,4.7-4.7c0-2.6-2.1-4.7-4.7-4.7c-2.6,0-4.7,2.1-4.7,4.7C258,553.1,260.1,555.1,262.7,555.1z"/>
	<path class="st3" d="M272.3,544.5c0-0.2,0.2-0.3,0.3-0.3h1.2c0.2,0,0.3,0.2,0.3,0.3v7.4c0,1.8,1.2,3.2,3,3.2c1.9,0,3-1.4,3-3.2
		v-7.5c0-0.2,0.1-0.3,0.3-0.3h1.2c0.2,0,0.3,0.2,0.3,0.3v7.6c0,2.7-2.1,4.9-4.9,4.9c-2.8,0-4.9-2.1-4.9-4.9V544.5z"/>
	<path class="st3" d="M287.9,545.8H285c-0.2,0-0.3-0.2-0.3-0.3v-1c0-0.2,0.1-0.3,0.3-0.3h7.7c0.2,0,0.3,0.2,0.3,0.3v1
		c0,0.2-0.1,0.3-0.3,0.3h-2.9v10.6c0,0.2-0.2,0.3-0.3,0.3h-1.2c-0.2,0-0.3-0.2-0.3-0.3V545.8z"/>
	<path class="st3" d="M295.7,544.5c0-0.2,0.2-0.3,0.3-0.3h1.2c0.2,0,0.3,0.2,0.3,0.3v5h6.6v-5c0-0.2,0.1-0.3,0.3-0.3h1.2
		c0.2,0,0.3,0.2,0.3,0.3v11.9c0,0.2-0.2,0.3-0.3,0.3h-1.2c-0.2,0-0.3-0.2-0.3-0.3v-5.2h-6.6v5.2c0,0.2-0.1,0.3-0.3,0.3h-1.2
		c-0.2,0-0.3-0.2-0.3-0.3V544.5z"/>
	<path class="st3" d="M310.3,544.5c0-0.2,0.1-0.3,0.3-0.3h7.2c0.2,0,0.3,0.2,0.3,0.3v1c0,0.2-0.1,0.3-0.3,0.3h-5.7v3.7h4.8
		c0.2,0,0.3,0.2,0.3,0.3v1c0,0.2-0.2,0.3-0.3,0.3h-4.8v3.9h5.7c0.2,0,0.3,0.2,0.3,0.3v1c0,0.2-0.1,0.3-0.3,0.3h-7.2
		c-0.2,0-0.3-0.2-0.3-0.3V544.5z"/>
	<path class="st3" d="M321.6,544.5c0-0.2,0.1-0.3,0.3-0.3h4.9c2.2,0,3.9,1.7,3.9,3.9c0,1.7-1.1,3-2.7,3.7l2.5,4.6
		c0.1,0.2,0,0.5-0.3,0.5h-1.4c-0.1,0-0.3-0.1-0.3-0.2l-2.4-4.8h-2.7v4.6c0,0.2-0.2,0.3-0.3,0.3H322c-0.2,0-0.3-0.2-0.3-0.3V544.5z
		 M326.7,550.3c1.2,0,2.2-1,2.2-2.2c0-1.2-1-2.1-2.2-2.1h-3.2v4.4H326.7z"/>
	<path class="st3" d="M334.3,544.3c0-0.2,0.2-0.3,0.3-0.3h0.5l7.8,9h0v-8.5c0-0.2,0.1-0.3,0.3-0.3h1.2c0.2,0,0.3,0.2,0.3,0.3v12.1
		c0,0.2-0.2,0.3-0.3,0.3H344l-7.8-9.3h0v8.8c0,0.2-0.1,0.3-0.3,0.3h-1.1c-0.2,0-0.3-0.2-0.3-0.3V544.3z"/>
	<path class="st3" d="M359.3,544c1.8,0,3.1,0.6,4.4,1.7c0.2,0.1,0.2,0.4,0,0.5l-0.8,0.8c-0.1,0.2-0.3,0.2-0.5,0
		c-0.8-0.7-2-1.2-3.1-1.2c-2.6,0-4.5,2.2-4.5,4.7s2,4.7,4.5,4.7c1.3,0,2.2-0.5,3.1-1.2c0.2-0.1,0.3-0.1,0.4,0l0.8,0.8
		c0.1,0.1,0.1,0.4,0,0.5c-1.2,1.2-2.8,1.7-4.4,1.7c-3.6,0-6.5-2.9-6.5-6.5S355.7,544,359.3,544z"/>
	<path class="st3" d="M365.3,556.3l5.5-12.1c0.1-0.1,0.2-0.2,0.3-0.2h0.2c0.1,0,0.3,0.1,0.3,0.2l5.5,12.1c0.1,0.2,0,0.5-0.3,0.5
		h-1.1c-0.2,0-0.3-0.1-0.4-0.3l-1.1-2.5h-5.9c-0.4,0.8-0.7,1.6-1.1,2.5c-0.1,0.1-0.2,0.3-0.4,0.3h-1.1
		C365.3,556.8,365.2,556.5,365.3,556.3z M373.4,552.5l-2.2-4.9h-0.1l-2.2,4.9H373.4z"/>
	<path class="st3" d="M379.6,544.5c0-0.2,0.1-0.3,0.3-0.3h1.2c0.2,0,0.3,0.2,0.3,0.3v10.6h4.9c0.2,0,0.3,0.2,0.3,0.3v1
		c0,0.2-0.1,0.3-0.3,0.3H380c-0.2,0-0.3-0.2-0.3-0.3V544.5z"/>
	<path class="st3" d="M389.3,544.5c0-0.2,0.2-0.3,0.3-0.3h1.2c0.2,0,0.3,0.2,0.3,0.3v11.9c0,0.2-0.2,0.3-0.3,0.3h-1.2
		c-0.2,0-0.3-0.2-0.3-0.3V544.5z"/>
	<path class="st3" d="M395.4,544.5c0-0.2,0.1-0.3,0.3-0.3h7.2c0.2,0,0.3,0.2,0.3,0.3v1c0,0.2-0.1,0.3-0.3,0.3h-5.7v4.2h4.8
		c0.2,0,0.3,0.2,0.3,0.3v1c0,0.2-0.2,0.3-0.3,0.3h-4.8v4.7c0,0.2-0.2,0.3-0.3,0.3h-1.2c-0.2,0-0.3-0.2-0.3-0.3V544.5z"/>
	<path class="st3" d="M411.9,544c3.6,0,6.5,2.9,6.5,6.5s-2.9,6.5-6.5,6.5s-6.5-2.9-6.5-6.5S408.3,544,411.9,544z M411.9,555.1
		c2.6,0,4.7-2.1,4.7-4.7c0-2.6-2.1-4.7-4.7-4.7c-2.6,0-4.7,2.1-4.7,4.7C407.2,553.1,409.3,555.1,411.9,555.1z"/>
	<path class="st3" d="M421.7,544.5c0-0.2,0.1-0.3,0.3-0.3h4.9c2.2,0,3.9,1.7,3.9,3.9c0,1.7-1.1,3-2.7,3.7l2.5,4.6
		c0.1,0.2,0,0.5-0.3,0.5H429c-0.1,0-0.3-0.1-0.3-0.2l-2.4-4.8h-2.7v4.6c0,0.2-0.2,0.3-0.3,0.3H422c-0.2,0-0.3-0.2-0.3-0.3V544.5z
		 M426.8,550.3c1.2,0,2.2-1,2.2-2.2c0-1.2-1-2.1-2.2-2.1h-3.2v4.4H426.8z"/>
	<path class="st3" d="M434.4,544.3c0-0.2,0.2-0.3,0.3-0.3h0.5l7.8,9h0v-8.5c0-0.2,0.1-0.3,0.3-0.3h1.2c0.2,0,0.3,0.2,0.3,0.3v12.1
		c0,0.2-0.2,0.3-0.3,0.3h-0.5l-7.8-9.3h0v8.8c0,0.2-0.1,0.3-0.3,0.3h-1.1c-0.2,0-0.3-0.2-0.3-0.3V544.3z"/>
	<path class="st3" d="M449.1,544.5c0-0.2,0.2-0.3,0.3-0.3h1.2c0.2,0,0.3,0.2,0.3,0.3v11.9c0,0.2-0.2,0.3-0.3,0.3h-1.2
		c-0.2,0-0.3-0.2-0.3-0.3V544.5z"/>
	<path class="st3" d="M453.5,556.3l5.5-12.1c0.1-0.1,0.2-0.2,0.3-0.2h0.2c0.1,0,0.3,0.1,0.3,0.2l5.5,12.1c0.1,0.2,0,0.5-0.3,0.5
		h-1.1c-0.2,0-0.3-0.1-0.4-0.3l-1.1-2.5h-5.9c-0.4,0.8-0.7,1.6-1.1,2.5c-0.1,0.1-0.2,0.3-0.4,0.3h-1.1
		C453.5,556.8,453.4,556.5,453.5,556.3z M461.7,552.5l-2.2-4.9h-0.1l-2.2,4.9H461.7z"/>
	<path class="st3" d="M466.6,548.8c-0.1-0.1-0.1-0.3,0.1-0.4c0.2-0.1,1.2-0.9,1.2-2.2c0,0-0.2,0.1-0.4,0.1c-0.6,0-1.1-0.5-1.1-1.1
		c0-0.6,0.5-1.1,1.2-1.1c0.6,0,1.4,0.4,1.4,1.8c0,1.6-1,2.8-1.6,3.3c-0.2,0.1-0.3,0.1-0.4,0L466.6,548.8z"/>
	<path class="st3" d="M471,554.9c0.2-0.2,0.3-0.5,0.5-0.7c0.2-0.2,0.4-0.3,0.6-0.1c0.1,0.1,1.5,1.2,2.9,1.2c1.2,0,2-0.8,2-1.7
		c0-1.1-0.9-1.8-2.7-2.5c-1.8-0.8-3.3-1.7-3.3-3.8c0-1.4,1.1-3.3,3.9-3.3c1.8,0,3.2,0.9,3.3,1.1c0.1,0.1,0.3,0.3,0.1,0.6
		c-0.1,0.2-0.3,0.5-0.5,0.7c-0.1,0.2-0.4,0.3-0.6,0.2c-0.1-0.1-1.4-0.9-2.4-0.9c-1.5,0-2,1-2,1.6c0,1,0.8,1.7,2.3,2.3
		c2.1,0.8,3.9,1.8,3.9,4c0,1.9-1.7,3.4-4,3.4c-2.2,0-3.6-1.2-3.9-1.4C470.9,555.4,470.8,555.2,471,554.9z"/>
	<path class="st3" d="M486.9,544.5c0-0.2,0.1-0.3,0.3-0.3h4.1c2.2,0,4,1.8,4,4c0,2.2-1.8,4.1-4,4.1h-2.6v4.2c0,0.2-0.2,0.3-0.3,0.3
		h-1.2c-0.2,0-0.3-0.2-0.3-0.3V544.5z M491.2,550.4c1.2,0,2.3-1,2.3-2.3c0-1.2-1-2.2-2.3-2.2h-2.5v4.5H491.2z"/>
	<path class="st3" d="M498.3,544.5c0-0.2,0.1-0.3,0.3-0.3h1.2c0.2,0,0.3,0.2,0.3,0.3v10.6h4.9c0.2,0,0.3,0.2,0.3,0.3v1
		c0,0.2-0.1,0.3-0.3,0.3h-6.4c-0.2,0-0.3-0.2-0.3-0.3V544.5z"/>
	<path class="st3" d="M506.9,556.3l5.5-12.1c0.1-0.1,0.2-0.2,0.3-0.2h0.2c0.1,0,0.3,0.1,0.3,0.2l5.5,12.1c0.1,0.2,0,0.5-0.3,0.5
		h-1.1c-0.2,0-0.3-0.1-0.4-0.3l-1.1-2.5h-5.9c-0.4,0.8-0.7,1.6-1.1,2.5c-0.1,0.1-0.2,0.3-0.4,0.3h-1.1
		C506.9,556.8,506.8,556.5,506.9,556.3z M515,552.5l-2.2-4.9h-0.1l-2.2,4.9H515z"/>
	<path class="st3" d="M526.7,544c1.8,0,3.1,0.6,4.4,1.7c0.2,0.1,0.2,0.4,0,0.5l-0.8,0.8c-0.1,0.2-0.3,0.2-0.5,0
		c-0.8-0.7-2-1.2-3.1-1.2c-2.6,0-4.5,2.2-4.5,4.7s2,4.7,4.5,4.7c1.3,0,2.2-0.5,3.1-1.2c0.2-0.1,0.3-0.1,0.4,0l0.8,0.8
		c0.1,0.1,0.1,0.4,0,0.5c-1.2,1.2-2.8,1.7-4.4,1.7c-3.6,0-6.5-2.9-6.5-6.5S523.1,544,526.7,544z"/>
	<path class="st3" d="M534.4,544.5c0-0.2,0.1-0.3,0.3-0.3h7.2c0.2,0,0.3,0.2,0.3,0.3v1c0,0.2-0.1,0.3-0.3,0.3h-5.7v3.7h4.8
		c0.2,0,0.3,0.2,0.3,0.3v1c0,0.2-0.2,0.3-0.3,0.3h-4.8v3.9h5.7c0.2,0,0.3,0.2,0.3,0.3v1c0,0.2-0.1,0.3-0.3,0.3h-7.2
		c-0.2,0-0.3-0.2-0.3-0.3V544.5z"/>
	<path class="st3" d="M544.9,554.9c0.2-0.2,0.3-0.5,0.5-0.7c0.2-0.2,0.4-0.3,0.6-0.1c0.1,0.1,1.5,1.2,2.9,1.2c1.2,0,2-0.8,2-1.7
		c0-1.1-0.9-1.8-2.7-2.5c-1.8-0.8-3.3-1.7-3.3-3.8c0-1.4,1.1-3.3,3.9-3.3c1.8,0,3.2,0.9,3.3,1.1c0.1,0.1,0.3,0.3,0.1,0.6
		c-0.1,0.2-0.3,0.5-0.5,0.7c-0.1,0.2-0.4,0.3-0.6,0.2c-0.1-0.1-1.4-0.9-2.4-0.9c-1.5,0-2,1-2,1.6c0,1,0.8,1.7,2.3,2.3
		c2.1,0.8,3.9,1.8,3.9,4c0,1.9-1.7,3.4-4,3.4c-2.2,0-3.6-1.2-3.9-1.4C544.9,555.4,544.8,555.2,544.9,554.9z"/>
	<path class="st3" d="M562.6,545.8h-2.9c-0.2,0-0.3-0.2-0.3-0.3v-1c0-0.2,0.1-0.3,0.3-0.3h7.7c0.2,0,0.3,0.2,0.3,0.3v1
		c0,0.2-0.1,0.3-0.3,0.3h-2.9v10.6c0,0.2-0.2,0.3-0.3,0.3h-1.2c-0.2,0-0.3-0.2-0.3-0.3V545.8z"/>
	<path class="st3" d="M575.8,544c3.6,0,6.5,2.9,6.5,6.5s-2.9,6.5-6.5,6.5s-6.5-2.9-6.5-6.5S572.2,544,575.8,544z M575.8,555.1
		c2.6,0,4.7-2.1,4.7-4.7c0-2.6-2.1-4.7-4.7-4.7c-2.6,0-4.7,2.1-4.7,4.7C571.1,553.1,573.2,555.1,575.8,555.1z"/>
	<path class="st3" d="M590.2,544.5c0-0.2,0.1-0.3,0.3-0.3h4.1c2.2,0,4,1.8,4,4c0,2.2-1.8,4.1-4,4.1h-2.6v4.2c0,0.2-0.2,0.3-0.3,0.3
		h-1.2c-0.2,0-0.3-0.2-0.3-0.3V544.5z M594.6,550.4c1.2,0,2.3-1,2.3-2.3c0-1.2-1-2.2-2.3-2.2h-2.5v4.5H594.6z"/>
	<path class="st3" d="M601.7,544.5c0-0.2,0.1-0.3,0.3-0.3h1.2c0.2,0,0.3,0.2,0.3,0.3v10.6h4.9c0.2,0,0.3,0.2,0.3,0.3v1
		c0,0.2-0.1,0.3-0.3,0.3H602c-0.2,0-0.3-0.2-0.3-0.3V544.5z"/>
	<path class="st3" d="M610.2,556.3l5.5-12.1c0.1-0.1,0.2-0.2,0.3-0.2h0.2c0.1,0,0.3,0.1,0.3,0.2l5.5,12.1c0.1,0.2,0,0.5-0.3,0.5
		h-1.1c-0.2,0-0.3-0.1-0.4-0.3l-1.1-2.5h-5.9c-0.4,0.8-0.7,1.6-1.1,2.5c-0.1,0.1-0.2,0.3-0.4,0.3h-1.1
		C610.3,556.8,610.1,556.5,610.2,556.3z M618.4,552.5l-2.2-4.9h-0.1l-2.2,4.9H618.4z"/>
	<path class="st3" d="M626.2,550.7l-4.2-6c-0.1-0.2,0-0.5,0.3-0.5h1.3c0.1,0,0.2,0.1,0.3,0.2l3.3,4.6l3.3-4.6
		c0.1-0.1,0.2-0.2,0.3-0.2h1.4c0.3,0,0.4,0.3,0.3,0.5l-4.3,6v5.7c0,0.2-0.2,0.3-0.3,0.3h-1.2c-0.2,0-0.3-0.2-0.3-0.3V550.7z"/>
	<path class="st3" d="M634.4,554.4c0.7,0,1.3,0.6,1.3,1.3c0,0.7-0.6,1.2-1.3,1.2c-0.7,0-1.2-0.6-1.2-1.2
		C633.2,555,633.7,554.4,634.4,554.4z"/>
</g>
</svg>
