<?xml version="1.0" encoding="utf-8"?>
<!-- Generator: Adobe Illustrator 19.0.0, SVG Export Plug-In . SVG Version: 6.00 Build 0)  -->
<svg version="1.1" id="Layer_1" xmlns="http://www.w3.org/2000/svg" xmlns:xlink="http://www.w3.org/1999/xlink" x="0px" y="0px"
	 viewBox="0 0 887 633.3" style="enable-background:new 0 0 887 633.3;" xml:space="preserve">
<style type="text/css">
	.st0{display:none;fill:#0071BA;}
	.st1{display:none;}
	.st2{display:inline;}
	.st3{fill:#FFFFFF;}
	.st4{fill:#EE258A;}
</style>
<rect id="XMLID_53_" class="st0" width="885.9" height="633.3"/>
<path id="XMLID_696_" class="st1" d="M444.2,2.1L4.9,263.1l-3.6,2.1l441.2,262.4l1.3,0.8L887,265.3L444.2,2.1z M444.2,7.9l433,257.1
	l-50.9,30H61.9l-50.8-30L444.2,7.9z M250.2,407h387.4L443.8,522.1L250.2,407z"/>
<g id="XMLID_407_" class="st1">
	<path id="XMLID_417_" class="st2" d="M144.7,263.2l5.7-8.5c0.9-1.4,2.6-1.2,3.4-0.6c1.4,1.1,6.5,4.6,12.2,4.6c3.9,0,6.9-3,6.8-6.4
		c-0.1-3.8-2.4-6.6-7-9.6c-6.6-4.4-15.7-11.1-15.7-22.1c0-11.4,7.9-22.3,25-22.3c10,0,17.2,5.4,20.1,7.7c1.1,0.8,1.5,2.6,0.6,3.6
		l-6.6,8.1c-0.8,1.1-2.6,1.2-3.4,0.5s-6.2-4.7-11.8-4.7c-3.6,0-6.8,2.2-6.8,5.4c0,3.7,2.3,5.7,8.7,9.5c5.3,3.2,15.6,9.9,15.6,22.3
		c0,12.1-8.4,23.6-26.4,23.6c-11.2,0-18.4-5.6-20.4-8.1C143.9,265.1,144.1,264.1,144.7,263.2z"/>
	<path id="XMLID_415_" class="st2" d="M216.8,214.8h-12.9c-1.1,0-1.7-1-1.6-2l1.7-11.5c0.1-1.1,1.1-2,2-2h42.6c1.1,0,1.7,0.9,1.6,2
		l-1.7,11.5c-0.1,1.1-1,2-2,2h-13l-7.9,56.4c-0.1,1.1-1.2,2-2.1,2h-13.1c-0.9,0-1.7-0.9-1.6-2L216.8,214.8z"/>
	<path id="XMLID_412_" class="st2" d="M240.2,270.4l40-71c0.4-0.6,1-1.2,1.8-1.2h0.9c0.7,0,1.3,0.5,1.5,1.2l19.8,71
		c0.4,1.4-0.5,2.7-2,2.7h-11.9c-1.9,0-3-0.5-3.4-2.6l-1.8-8.3h-23.3l-4.1,8.4c-0.6,1.4-2,2.5-4.2,2.5h-12
		C240,273.2,239.5,271.8,240.2,270.4z M281.2,247.8l-3.3-17.6h-0.1l-8.4,17.6H281.2z"/>
	<path id="XMLID_410_" class="st2" d="M325.7,214.8h-12.9c-1.1,0-1.7-1-1.6-2l1.7-11.5c0.1-1.1,1.1-2,2-2h42.6c1.1,0,1.7,0.9,1.6,2
		l-1.7,11.5c-0.1,1.1-1,2-2,2h-13l-7.9,56.4c-0.1,1.1-1.2,2-2.1,2h-13.1c-0.9,0-1.7-0.9-1.6-2L325.7,214.8z"/>
	<path id="XMLID_408_" class="st2" d="M369.4,201.3c0.1-1.1,1.1-2,2-2h39.8c1.1,0,1.7,0.9,1.6,2l-1.7,11.5c-0.1,1.1-1,2-2,2H384
		l-1.9,13.1h20.5c0.9,0,1.7,0.9,1.6,2l-1.7,11.5c-0.2,1.2-1.2,2-2.1,2H380l-2,14.2h25.1c1.1,0,1.6,0.9,1.5,2l-1.6,11.5
		c-0.1,1.1-1.1,2-2.1,2h-39.8c-1.1,0-1.7-0.9-1.5-2L369.4,201.3z"/>
</g>
<g id="XMLID_396_" class="st1">
	<path id="XMLID_404_" class="st2" d="M508.7,201.3c0.1-1.1,1.1-2,2.1-2H534c10.6,0,18.3,9.7,18.3,20.9c0,14-11.1,26.2-24.8,26.2
		h-8.7l-3.5,24.8c-0.1,1.1-1.2,2-2.1,2h-12.9c-1.1,0-1.6-0.9-1.5-2L508.7,201.3z M528.7,231c3.7,0,7.3-4.2,7.3-9.6
		c0-3.7-2.1-6.5-5-6.5h-7.7l-2.2,16.1H528.7z"/>
	<path id="XMLID_402_" class="st2" d="M566.1,201.3c0.1-1.1,1.1-2,2.1-2h13.1c1,0,1.6,0.9,1.5,2l-7.9,56.4h21.5c1.1,0,1.6,0.9,1.5,2
		l-1.6,11.5c-0.1,1.1-1.1,2-2.1,2h-36.3c-1.1,0-1.7-0.9-1.6-2L566.1,201.3z"/>
	<path id="XMLID_399_" class="st2" d="M600.6,270.4l40-71c0.4-0.6,1-1.2,1.8-1.2h1c0.7,0,1.3,0.5,1.5,1.2l19.8,71
		c0.4,1.4-0.5,2.7-2,2.7h-11.9c-1.9,0-3-0.5-3.4-2.6l-1.8-8.3h-23.3l-4.1,8.4c-0.6,1.4-2,2.5-4.2,2.5h-12
		C600.4,273.2,599.9,271.8,600.6,270.4z M641.6,247.8l-3.3-17.6h-0.1l-8.4,17.6H641.6z"/>
	<path id="XMLID_397_" class="st2" d="M685,237.6l-15.6-35.3c-0.5-1.4,0.4-3.1,1.9-3.1h13.3c0.8,0,1.3,0.4,1.5,0.9l8.8,21.6
		l14.9-21.6c0.3-0.4,0.7-0.9,1.7-0.9h14.9c1.6,0,2.1,1.7,1.2,3.1l-25.9,35.1l-4.6,33.7c-0.1,1.1-1.2,2-2.1,2h-13.1
		c-1.1,0-1.6-0.9-1.5-2L685,237.6z"/>
</g>
<g id="XMLID_13_" class="st1">
	<path id="XMLID_20_" class="st2" d="M445.1,221c6.4,0,11.2,6,11.2,13.2c0,9.6-7.1,17.4-15.5,17.4c-6.4,0-11.2-5.9-11.2-13.2
		C429.6,228.9,436.6,221,445.1,221z M441.2,248.6c6.2,0,11.8-6.4,11.8-14.2c0-5.8-3.4-10.4-8.3-10.4c-6.3,0-11.9,6.4-11.9,14.1
		C432.8,244,436.1,248.6,441.2,248.6z"/>
	<path id="XMLID_18_" class="st2" d="M468.3,224.5h-3.9c-0.7,0-0.9-0.5-0.8-0.9l0.1-0.9c0.1-0.5,0.6-0.9,1-0.9h3.9l1.5-10.4
		c1.2-8.3,5.6-12.3,11.7-12.3c3.3,0,5.9,1.8,6.9,3.1c0.3,0.4,0.2,0.9-0.1,1.2l-0.9,0.9c-0.4,0.4-0.8,0.4-1.2,0
		c-0.8-0.8-2.8-2.3-4.7-2.3c-4.4,0-7.6,3-8.5,9.7l-1.4,10h9.3c0.6,0,0.9,0.4,0.8,0.9l-0.1,1.1c-0.1,0.5-0.4,0.9-1,0.9h-9.3
		l-6.7,47.3c-0.1,0.5-0.6,0.9-1.1,0.9h-1.3c-0.5,0-0.9-0.4-0.8-0.9L468.3,224.5z"/>
</g>
<path id="XMLID_96_" class="st3" d="M443.1,0.7L3.9,261.7l-3.6,2.1l441.2,262.4l1.3,0.8l443.2-263.1L443.1,0.7z M443.1,6.5
	l433,257.3L825.2,294H60.8L10,263.8L443.1,6.5z M249.2,406h387.4L442.7,521.1L249.2,406z"/>
<g id="XMLID_17_">
	<path id="XMLID_119_" class="st4" d="M172.5,317.5c0-0.2,0.1-0.3,0.3-0.3h4c3.3,0,6.1,2.7,6.1,6c0,3.4-2.7,6.1-6.1,6.1h-4
		c-0.2,0-0.3-0.2-0.3-0.3V317.5z M176.6,327.7c2.5,0,4.4-1.9,4.4-4.4c0-2.5-1.9-4.4-4.4-4.4h-2.3v8.8H176.6z"/>
	<path id="XMLID_122_" class="st4" d="M186.4,317.5c0-0.2,0.2-0.3,0.3-0.3h1.1c0.2,0,0.3,0.2,0.3,0.3V329c0,0.2-0.2,0.3-0.3,0.3
		h-1.1c-0.2,0-0.3-0.2-0.3-0.3V317.5z"/>
	<path id="XMLID_124_" class="st4" d="M191.7,327.6c0.2-0.2,0.3-0.5,0.5-0.7c0.2-0.2,0.4-0.3,0.6-0.1c0.1,0.1,1.4,1.2,2.8,1.2
		c1.2,0,2-0.7,2-1.6c0-1-0.9-1.7-2.6-2.4c-1.8-0.7-3.2-1.7-3.2-3.7c0-1.4,1-3.2,3.8-3.2c1.7,0,3,0.9,3.2,1c0.1,0.1,0.3,0.3,0.1,0.6
		c-0.1,0.2-0.3,0.5-0.4,0.7c-0.1,0.2-0.4,0.3-0.6,0.2c-0.1-0.1-1.3-0.9-2.3-0.9c-1.5,0-2,0.9-2,1.6c0,1,0.8,1.6,2.2,2.2
		c2,0.8,3.7,1.8,3.7,3.9c0,1.8-1.6,3.3-3.9,3.3c-2.1,0-3.4-1.1-3.7-1.4C191.6,328,191.5,327.9,191.7,327.6z"/>
	<path id="XMLID_126_" class="st4" d="M208.1,317c1.7,0,3,0.6,4.2,1.6c0.2,0.1,0.2,0.3,0,0.5l-0.8,0.8c-0.1,0.2-0.3,0.2-0.4,0
		c-0.8-0.7-1.9-1.2-3-1.2c-2.5,0-4.3,2.1-4.3,4.5s1.9,4.5,4.4,4.5c1.3,0,2.1-0.5,3-1.1c0.2-0.1,0.3-0.1,0.4,0l0.8,0.8
		c0.1,0.1,0.1,0.3,0,0.5c-1.2,1.1-2.7,1.7-4.2,1.7c-3.5,0-6.3-2.8-6.3-6.2S204.6,317,208.1,317z"/>
	<path id="XMLID_128_" class="st4" d="M221,317c3.5,0,6.2,2.8,6.2,6.3s-2.8,6.2-6.2,6.2s-6.2-2.8-6.2-6.2S217.5,317,221,317z
		 M221,327.8c2.5,0,4.5-2,4.5-4.5c0-2.5-2-4.5-4.5-4.5c-2.5,0-4.5,2.1-4.5,4.5C216.5,325.8,218.6,327.8,221,327.8z"/>
	<path id="XMLID_131_" class="st4" d="M229,317.7c-0.1-0.2,0-0.5,0.3-0.5h1.2c0.1,0,0.3,0.1,0.3,0.2l3.8,8.6h0.1l3.8-8.6
		c0-0.1,0.1-0.2,0.3-0.2h1.2c0.3,0,0.4,0.2,0.3,0.5l-5.3,11.7c-0.1,0.1-0.2,0.2-0.3,0.2h-0.2c-0.1,0-0.2-0.1-0.3-0.2L229,317.7z"/>
	<path id="XMLID_133_" class="st4" d="M243,317.5c0-0.2,0.1-0.3,0.3-0.3h6.9c0.2,0,0.3,0.2,0.3,0.3v1c0,0.2-0.1,0.3-0.3,0.3h-5.5
		v3.5h4.6c0.2,0,0.3,0.2,0.3,0.3v1c0,0.2-0.2,0.3-0.3,0.3h-4.6v3.7h5.5c0.2,0,0.3,0.2,0.3,0.3v1c0,0.2-0.1,0.3-0.3,0.3h-6.9
		c-0.2,0-0.3-0.2-0.3-0.3V317.5z"/>
	<path id="XMLID_135_" class="st4" d="M254.2,317.5c0-0.2,0.1-0.3,0.3-0.3h4.7c2.1,0,3.8,1.6,3.8,3.7c0,1.6-1.1,2.9-2.6,3.5l2.4,4.4
		c0.1,0.2,0,0.5-0.3,0.5h-1.4c-0.1,0-0.2-0.1-0.3-0.2l-2.3-4.6H256v4.4c0,0.2-0.2,0.3-0.3,0.3h-1.1c-0.2,0-0.3-0.2-0.3-0.3V317.5z
		 M259.1,323.1c1.1,0,2.1-1,2.1-2.1c0-1.1-1-2.1-2.1-2.1H256v4.2H259.1z"/>
	<path id="XMLID_138_" class="st4" d="M270.3,317.6c-0.1-0.2,0.1-0.4,0.3-0.4h1.2c0.1,0,0.3,0.1,0.3,0.2l2.1,7.9h0.1l2.8-8.2
		c0-0.1,0.2-0.2,0.3-0.2h0.3c0.1,0,0.3,0.1,0.3,0.2l2.9,8.2h0.1l2.1-7.9c0-0.1,0.2-0.2,0.3-0.2h1.2c0.2,0,0.4,0.2,0.3,0.4l-3.3,11.6
		c0,0.1-0.2,0.2-0.3,0.2h-0.3c-0.1,0-0.3-0.1-0.3-0.2l-3-8.6h-0.1l-3,8.6c0,0.1-0.2,0.2-0.3,0.2h-0.3c-0.1,0-0.3-0.1-0.3-0.2
		L270.3,317.6z"/>
	<path id="XMLID_140_" class="st4" d="M287.9,317.5c0-0.2,0.2-0.3,0.3-0.3h1.1c0.2,0,0.3,0.2,0.3,0.3v4.8h6.3v-4.8
		c0-0.2,0.1-0.3,0.3-0.3h1.1c0.2,0,0.3,0.2,0.3,0.3V329c0,0.2-0.2,0.3-0.3,0.3h-1.1c-0.2,0-0.3-0.2-0.3-0.3v-5h-6.3v5
		c0,0.2-0.1,0.3-0.3,0.3h-1.1c-0.2,0-0.3-0.2-0.3-0.3V317.5z"/>
	<path id="XMLID_142_" class="st4" d="M304.5,323.5l-4.1-5.8c-0.1-0.2,0-0.5,0.3-0.5h1.3c0.1,0,0.2,0.1,0.3,0.2l3.1,4.4l3.1-4.4
		c0.1-0.1,0.2-0.2,0.3-0.2h1.3c0.3,0,0.4,0.3,0.3,0.5l-4.1,5.8v5.5c0,0.2-0.2,0.3-0.3,0.3h-1.1c-0.2,0-0.3-0.2-0.3-0.3V323.5z"/>
	<path id="XMLID_144_" class="st4" d="M316.2,328.9l5.3-11.7c0.1-0.1,0.2-0.2,0.3-0.2h0.2c0.1,0,0.2,0.1,0.3,0.2l5.3,11.7
		c0.1,0.2,0,0.5-0.3,0.5h-1.1c-0.2,0-0.3-0.1-0.4-0.3l-1.1-2.4H319c-0.3,0.8-0.7,1.6-1.1,2.4c-0.1,0.1-0.2,0.3-0.4,0.3h-1.1
		C316.2,329.3,316.1,329.1,316.2,328.9z M324,325.2l-2.1-4.7h-0.1l-2.1,4.7H324z"/>
	<path id="XMLID_147_" class="st4" d="M336.6,318.8h-2.8c-0.2,0-0.3-0.2-0.3-0.3v-1c0-0.2,0.1-0.3,0.3-0.3h7.4
		c0.2,0,0.3,0.2,0.3,0.3v1c0,0.2-0.1,0.3-0.3,0.3h-2.8V329c0,0.2-0.2,0.3-0.3,0.3H337c-0.2,0-0.3-0.2-0.3-0.3V318.8z"/>
	<path id="XMLID_149_" class="st4" d="M344.4,317.5c0-0.2,0.1-0.3,0.3-0.3h4.7c2.1,0,3.8,1.6,3.8,3.7c0,1.6-1.1,2.9-2.6,3.5l2.4,4.4
		c0.1,0.2,0,0.5-0.3,0.5h-1.4c-0.1,0-0.2-0.1-0.3-0.2l-2.3-4.6h-2.6v4.4c0,0.2-0.2,0.3-0.3,0.3h-1.1c-0.2,0-0.3-0.2-0.3-0.3V317.5z
		 M349.3,323.1c1.1,0,2.1-1,2.1-2.1c0-1.1-1-2.1-2.1-2.1h-3.1v4.2H349.3z"/>
	<path id="XMLID_152_" class="st4" d="M356.9,317.5c0-0.2,0.2-0.3,0.3-0.3h1.1c0.2,0,0.3,0.2,0.3,0.3V329c0,0.2-0.2,0.3-0.3,0.3
		h-1.1c-0.2,0-0.3-0.2-0.3-0.3V317.5z"/>
	<path id="XMLID_154_" class="st4" d="M363,317.5c0-0.2,0.1-0.3,0.3-0.3h3.9c2.1,0,3.9,1.7,3.9,3.8c0,2.1-1.7,3.9-3.9,3.9h-2.5v4.1
		c0,0.2-0.2,0.3-0.3,0.3h-1.1c-0.2,0-0.3-0.2-0.3-0.3V317.5z M367.2,323.2c1.2,0,2.2-1,2.2-2.2c0-1.2-1-2.1-2.2-2.1h-2.4v4.3H367.2z
		"/>
	<path id="XMLID_157_" class="st4" d="M380.7,318.8h-2.8c-0.2,0-0.3-0.2-0.3-0.3v-1c0-0.2,0.1-0.3,0.3-0.3h7.4
		c0.2,0,0.3,0.2,0.3,0.3v1c0,0.2-0.1,0.3-0.3,0.3h-2.8V329c0,0.2-0.2,0.3-0.3,0.3H381c-0.2,0-0.3-0.2-0.3-0.3V318.8z"/>
	<path id="XMLID_159_" class="st4" d="M393.6,317c3.5,0,6.2,2.8,6.2,6.3s-2.8,6.2-6.2,6.2s-6.2-2.8-6.2-6.2S390.1,317,393.6,317z
		 M393.6,327.8c2.5,0,4.5-2,4.5-4.5c0-2.5-2-4.5-4.5-4.5c-2.5,0-4.5,2.1-4.5,4.5C389.1,325.8,391.1,327.8,393.6,327.8z"/>
	<path id="XMLID_162_" class="st4" d="M413.4,317c1.7,0,3,0.6,4.2,1.6c0.2,0.1,0.2,0.3,0,0.5l-0.8,0.8c-0.1,0.2-0.3,0.2-0.4,0
		c-0.8-0.7-1.9-1.2-3-1.2c-2.5,0-4.3,2.1-4.3,4.5s1.9,4.5,4.4,4.5c1.3,0,2.1-0.5,3-1.1c0.2-0.1,0.3-0.1,0.4,0l0.8,0.8
		c0.1,0.1,0.1,0.3,0,0.5c-1.2,1.1-2.7,1.7-4.2,1.7c-3.5,0-6.3-2.8-6.3-6.2S409.9,317,413.4,317z"/>
	<path id="XMLID_164_" class="st4" d="M419.4,328.9l5.3-11.7c0.1-0.1,0.2-0.2,0.3-0.2h0.2c0.1,0,0.2,0.1,0.3,0.2l5.3,11.7
		c0.1,0.2,0,0.5-0.3,0.5h-1.1c-0.2,0-0.3-0.1-0.4-0.3l-1.1-2.4h-5.7c-0.3,0.8-0.7,1.6-1.1,2.4c-0.1,0.1-0.2,0.3-0.4,0.3h-1.1
		C419.4,329.3,419.3,329.1,419.4,328.9z M427.2,325.2l-2.1-4.7H425l-2.1,4.7H427.2z"/>
	<path id="XMLID_167_" class="st4" d="M433.4,317.5c0-0.2,0.1-0.3,0.3-0.3h1.1c0.2,0,0.3,0.2,0.3,0.3v10.2h4.7
		c0.2,0,0.3,0.2,0.3,0.3v1c0,0.2-0.1,0.3-0.3,0.3h-6.2c-0.2,0-0.3-0.2-0.3-0.3V317.5z"/>
	<path id="XMLID_169_" class="st4" d="M443,317.5c0-0.2,0.2-0.3,0.3-0.3h1.1c0.2,0,0.3,0.2,0.3,0.3V329c0,0.2-0.2,0.3-0.3,0.3h-1.1
		c-0.2,0-0.3-0.2-0.3-0.3V317.5z"/>
	<path id="XMLID_171_" class="st4" d="M449.1,317.5c0-0.2,0.1-0.3,0.3-0.3h6.9c0.2,0,0.3,0.2,0.3,0.3v1c0,0.2-0.1,0.3-0.3,0.3h-5.5
		v4h4.6c0.2,0,0.3,0.2,0.3,0.3v1c0,0.2-0.2,0.3-0.3,0.3h-4.6v4.6c0,0.2-0.2,0.3-0.3,0.3h-1.1c-0.2,0-0.3-0.2-0.3-0.3V317.5z"/>
	<path id="XMLID_173_" class="st4" d="M465.2,317c3.5,0,6.2,2.8,6.2,6.3s-2.8,6.2-6.2,6.2c-3.5,0-6.2-2.8-6.2-6.2
		S461.8,317,465.2,317z M465.2,327.8c2.5,0,4.5-2,4.5-4.5c0-2.5-2-4.5-4.5-4.5c-2.5,0-4.5,2.1-4.5,4.5
		C460.7,325.8,462.8,327.8,465.2,327.8z"/>
	<path id="XMLID_176_" class="st4" d="M474.9,317.5c0-0.2,0.1-0.3,0.3-0.3h4.7c2.1,0,3.8,1.6,3.8,3.7c0,1.6-1.1,2.9-2.6,3.5l2.4,4.4
		c0.1,0.2,0,0.5-0.3,0.5h-1.4c-0.1,0-0.2-0.1-0.3-0.2l-2.3-4.6h-2.6v4.4c0,0.2-0.2,0.3-0.3,0.3h-1.1c-0.2,0-0.3-0.2-0.3-0.3V317.5z
		 M479.8,323.1c1.1,0,2.1-1,2.1-2.1c0-1.1-1-2.1-2.1-2.1h-3.1v4.2H479.8z"/>
	<path id="XMLID_179_" class="st4" d="M487.3,317.3c0-0.2,0.2-0.3,0.3-0.3h0.4l7.5,8.7h0v-8.2c0-0.2,0.1-0.3,0.3-0.3h1.1
		c0.2,0,0.3,0.2,0.3,0.3v11.7c0,0.2-0.2,0.3-0.3,0.3h-0.5l-7.5-8.9h0v8.4c0,0.2-0.1,0.3-0.3,0.3h-1.1c-0.2,0-0.3-0.2-0.3-0.3V317.3z
		"/>
	<path id="XMLID_181_" class="st4" d="M501.7,317.5c0-0.2,0.2-0.3,0.3-0.3h1.1c0.2,0,0.3,0.2,0.3,0.3V329c0,0.2-0.2,0.3-0.3,0.3H502
		c-0.2,0-0.3-0.2-0.3-0.3V317.5z"/>
	<path id="XMLID_183_" class="st4" d="M506.2,328.9l5.3-11.7c0.1-0.1,0.2-0.2,0.3-0.2h0.2c0.1,0,0.2,0.1,0.3,0.2l5.3,11.7
		c0.1,0.2,0,0.5-0.3,0.5h-1.1c-0.2,0-0.3-0.1-0.4-0.3l-1.1-2.4H509c-0.3,0.8-0.7,1.6-1.1,2.4c-0.1,0.1-0.2,0.3-0.4,0.3h-1.1
		C506.2,329.3,506.1,329.1,506.2,328.9z M514,325.2l-2.1-4.7h-0.1l-2.1,4.7H514z"/>
	<path id="XMLID_186_" class="st4" d="M526.3,317.3c0-0.1,0.2-0.3,0.3-0.3h0.3c0.1,0,0.3,0.1,0.3,0.2l3.6,8.8h0.1l3.6-8.8
		c0-0.1,0.2-0.2,0.3-0.2h0.3c0.1,0,0.3,0.1,0.3,0.3l2.1,11.6c0.1,0.2-0.1,0.4-0.3,0.4h-1.1c-0.2,0-0.3-0.1-0.3-0.2l-1.3-7.7
		c0,0-0.1,0-0.1,0l-3.1,8c0,0.1-0.1,0.2-0.3,0.2h-0.3c-0.1,0-0.3-0.1-0.3-0.2l-3.1-8c0,0-0.1,0-0.1,0l-1.2,7.7
		c0,0.1-0.2,0.2-0.3,0.2h-1.1c-0.2,0-0.4-0.2-0.3-0.4L526.3,317.3z"/>
	<path id="XMLID_188_" class="st4" d="M539.4,328.9l5.3-11.7c0.1-0.1,0.2-0.2,0.3-0.2h0.2c0.1,0,0.2,0.1,0.3,0.2l5.3,11.7
		c0.1,0.2,0,0.5-0.3,0.5h-1.1c-0.2,0-0.3-0.1-0.4-0.3l-1.1-2.4h-5.7c-0.3,0.8-0.7,1.6-1.1,2.4c-0.1,0.1-0.2,0.3-0.4,0.3h-1.1
		C539.4,329.3,539.3,329.1,539.4,328.9z M547.2,325.2l-2.1-4.7H545l-2.1,4.7H547.2z"/>
	<path id="XMLID_191_" class="st4" d="M553.4,317.6c0-0.2,0.2-0.4,0.4-0.4h1c0.2,0,0.4,0.2,0.4,0.4v4.8l4.9-5
		c0.1-0.1,0.2-0.2,0.3-0.2h1.3c0.3,0,0.5,0.4,0.2,0.6l-5,5.1l5.3,5.8c0.1,0.2,0.1,0.6-0.3,0.6h-1.4c-0.2,0-0.3-0.1-0.3-0.1l-5-5.7
		v5.4c0,0.2-0.2,0.4-0.4,0.4h-1c-0.2,0-0.4-0.2-0.4-0.4V317.6z"/>
	<path id="XMLID_193_" class="st4" d="M565.3,317.5c0-0.2,0.1-0.3,0.3-0.3h6.9c0.2,0,0.3,0.2,0.3,0.3v1c0,0.2-0.1,0.3-0.3,0.3h-5.5
		v3.5h4.6c0.2,0,0.3,0.2,0.3,0.3v1c0,0.2-0.2,0.3-0.3,0.3h-4.6v3.7h5.5c0.2,0,0.3,0.2,0.3,0.3v1c0,0.2-0.1,0.3-0.3,0.3h-6.9
		c-0.2,0-0.3-0.2-0.3-0.3V317.5z"/>
	<path id="XMLID_195_" class="st4" d="M575.7,327.6c0.2-0.2,0.3-0.5,0.5-0.7c0.2-0.2,0.4-0.3,0.6-0.1c0.1,0.1,1.4,1.2,2.8,1.2
		c1.2,0,2-0.7,2-1.6c0-1-0.9-1.7-2.6-2.4c-1.8-0.7-3.2-1.7-3.2-3.7c0-1.4,1-3.2,3.8-3.2c1.7,0,3,0.9,3.2,1c0.1,0.1,0.3,0.3,0.1,0.6
		c-0.1,0.2-0.3,0.5-0.4,0.7c-0.1,0.2-0.4,0.3-0.6,0.2c-0.1-0.1-1.3-0.9-2.3-0.9c-1.5,0-2,0.9-2,1.6c0,1,0.8,1.6,2.2,2.2
		c2,0.8,3.7,1.8,3.7,3.9c0,1.8-1.6,3.3-3.9,3.3c-2.1,0-3.4-1.1-3.7-1.4C575.6,328,575.5,327.9,575.7,327.6z"/>
	<path id="XMLID_197_" class="st4" d="M593.1,318.8h-2.8c-0.2,0-0.3-0.2-0.3-0.3v-1c0-0.2,0.1-0.3,0.3-0.3h7.4
		c0.2,0,0.3,0.2,0.3,0.3v1c0,0.2-0.1,0.3-0.3,0.3h-2.8V329c0,0.2-0.2,0.3-0.3,0.3h-1.1c-0.2,0-0.3-0.2-0.3-0.3V318.8z"/>
	<path id="XMLID_199_" class="st4" d="M600.9,317.5c0-0.2,0.2-0.3,0.3-0.3h1.1c0.2,0,0.3,0.2,0.3,0.3v4.8h6.3v-4.8
		c0-0.2,0.1-0.3,0.3-0.3h1.1c0.2,0,0.3,0.2,0.3,0.3V329c0,0.2-0.2,0.3-0.3,0.3h-1.1c-0.2,0-0.3-0.2-0.3-0.3v-5h-6.3v5
		c0,0.2-0.1,0.3-0.3,0.3h-1.1c-0.2,0-0.3-0.2-0.3-0.3V317.5z"/>
	<path id="XMLID_201_" class="st4" d="M615.1,317.5c0-0.2,0.1-0.3,0.3-0.3h6.9c0.2,0,0.3,0.2,0.3,0.3v1c0,0.2-0.1,0.3-0.3,0.3h-5.5
		v3.5h4.6c0.2,0,0.3,0.2,0.3,0.3v1c0,0.2-0.2,0.3-0.3,0.3h-4.6v3.7h5.5c0.2,0,0.3,0.2,0.3,0.3v1c0,0.2-0.1,0.3-0.3,0.3h-6.9
		c-0.2,0-0.3-0.2-0.3-0.3V317.5z"/>
	<path id="XMLID_203_" class="st4" d="M630.9,317.5c0-0.2,0.2-0.3,0.3-0.3h1.2c0.2,0,0.3,0.2,0.3,0.3v7.2c0,1.7,1.1,3.1,2.9,3.1
		c1.8,0,2.9-1.3,2.9-3v-7.2c0-0.2,0.1-0.3,0.3-0.3h1.2c0.2,0,0.3,0.2,0.3,0.3v7.3c0,2.6-2,4.7-4.7,4.7c-2.7,0-4.7-2.1-4.7-4.7V317.5
		z"/>
	<path id="XMLID_205_" class="st4" d="M644.5,317.5c0-0.2,0.1-0.3,0.3-0.3h1.1c0.2,0,0.3,0.2,0.3,0.3v10.2h4.7
		c0.2,0,0.3,0.2,0.3,0.3v1c0,0.2-0.1,0.3-0.3,0.3h-6.2c-0.2,0-0.3-0.2-0.3-0.3V317.5z"/>
	<path id="XMLID_207_" class="st4" d="M655,318.8h-2.8c-0.2,0-0.3-0.2-0.3-0.3v-1c0-0.2,0.1-0.3,0.3-0.3h7.4c0.2,0,0.3,0.2,0.3,0.3
		v1c0,0.2-0.1,0.3-0.3,0.3h-2.8V329c0,0.2-0.2,0.3-0.3,0.3h-1.1c-0.2,0-0.3-0.2-0.3-0.3V318.8z"/>
	<path id="XMLID_209_" class="st4" d="M662.8,317.5c0-0.2,0.2-0.3,0.3-0.3h1.1c0.2,0,0.3,0.2,0.3,0.3V329c0,0.2-0.2,0.3-0.3,0.3
		h-1.1c-0.2,0-0.3-0.2-0.3-0.3V317.5z"/>
	<path id="XMLID_211_" class="st4" d="M670.2,317.3c0-0.1,0.2-0.3,0.3-0.3h0.3c0.1,0,0.3,0.1,0.3,0.2l3.6,8.8h0.1l3.6-8.8
		c0-0.1,0.2-0.2,0.3-0.2h0.3c0.1,0,0.3,0.1,0.3,0.3l2.1,11.6c0.1,0.2-0.1,0.4-0.3,0.4H680c-0.2,0-0.3-0.1-0.3-0.2l-1.3-7.7
		c0,0-0.1,0-0.1,0l-3.1,8c0,0.1-0.1,0.2-0.3,0.2h-0.3c-0.1,0-0.3-0.1-0.3-0.2l-3.1-8c0,0-0.1,0-0.1,0l-1.2,7.7
		c0,0.1-0.2,0.2-0.3,0.2h-1.1c-0.2,0-0.4-0.2-0.3-0.4L670.2,317.3z"/>
	<path id="XMLID_213_" class="st4" d="M683.3,328.9l5.3-11.7c0.1-0.1,0.2-0.2,0.3-0.2h0.2c0.1,0,0.2,0.1,0.3,0.2l5.3,11.7
		c0.1,0.2,0,0.5-0.3,0.5h-1.1c-0.2,0-0.3-0.1-0.4-0.3l-1.1-2.4h-5.7c-0.3,0.8-0.7,1.6-1.1,2.4c-0.1,0.1-0.2,0.3-0.4,0.3h-1.1
		C683.3,329.3,683.2,329.1,683.3,328.9z M691.1,325.2l-2.1-4.7h-0.1l-2.1,4.7H691.1z"/>
	<path id="XMLID_216_" class="st4" d="M698.3,318.8h-2.8c-0.2,0-0.3-0.2-0.3-0.3v-1c0-0.2,0.1-0.3,0.3-0.3h7.4
		c0.2,0,0.3,0.2,0.3,0.3v1c0,0.2-0.1,0.3-0.3,0.3h-2.8V329c0,0.2-0.2,0.3-0.3,0.3h-1.1c-0.2,0-0.3-0.2-0.3-0.3V318.8z"/>
	<path id="XMLID_218_" class="st4" d="M706.1,317.5c0-0.2,0.1-0.3,0.3-0.3h6.9c0.2,0,0.3,0.2,0.3,0.3v1c0,0.2-0.1,0.3-0.3,0.3h-5.5
		v3.5h4.6c0.2,0,0.3,0.2,0.3,0.3v1c0,0.2-0.2,0.3-0.3,0.3h-4.6v3.7h5.5c0.2,0,0.3,0.2,0.3,0.3v1c0,0.2-0.1,0.3-0.3,0.3h-6.9
		c-0.2,0-0.3-0.2-0.3-0.3V317.5z"/>
	<path id="XMLID_220_" class="st4" d="M218.1,344.4c0-0.2,0.1-0.3,0.3-0.3h6.9c0.2,0,0.3,0.2,0.3,0.3v1c0,0.2-0.1,0.3-0.3,0.3h-5.5
		v4h4.6c0.2,0,0.3,0.2,0.3,0.3v1c0,0.2-0.2,0.3-0.3,0.3h-4.6v4.6c0,0.2-0.2,0.3-0.3,0.3h-1.1c-0.2,0-0.3-0.2-0.3-0.3V344.4z"/>
	<path id="XMLID_222_" class="st4" d="M225.7,355.8l5.3-11.7c0.1-0.1,0.2-0.2,0.3-0.2h0.2c0.1,0,0.2,0.1,0.3,0.2l5.3,11.7
		c0.1,0.2,0,0.5-0.3,0.5h-1.1c-0.2,0-0.3-0.1-0.4-0.3l-1.1-2.4h-5.7c-0.3,0.8-0.7,1.6-1.1,2.4c-0.1,0.1-0.2,0.3-0.4,0.3H226
		C225.7,356.2,225.6,356,225.7,355.8z M233.5,352.1l-2.1-4.7h-0.1l-2.1,4.7H233.5z"/>
	<path id="XMLID_225_" class="st4" d="M239.9,344.2c0-0.1,0.2-0.3,0.3-0.3h0.3c0.1,0,0.3,0.1,0.3,0.2l3.6,8.8h0.1l3.6-8.8
		c0-0.1,0.2-0.2,0.3-0.2h0.3c0.1,0,0.3,0.1,0.3,0.3l2.1,11.6c0.1,0.2-0.1,0.4-0.3,0.4h-1.1c-0.2,0-0.3-0.1-0.3-0.2l-1.3-7.7
		c0,0-0.1,0-0.1,0l-3.1,8c0,0.1-0.1,0.2-0.3,0.2h-0.3c-0.1,0-0.3-0.1-0.3-0.2l-3.1-8c0,0-0.1,0-0.1,0l-1.2,7.7
		c0,0.1-0.2,0.2-0.3,0.2h-1.1c-0.2,0-0.4-0.2-0.3-0.4L239.9,344.2z"/>
	<path id="XMLID_227_" class="st4" d="M253.4,344.4c0-0.2,0.2-0.3,0.3-0.3h1.1c0.2,0,0.3,0.2,0.3,0.3v11.5c0,0.2-0.2,0.3-0.3,0.3
		h-1.1c-0.2,0-0.3-0.2-0.3-0.3V344.4z"/>
	<path id="XMLID_229_" class="st4" d="M258.4,344.4c0-0.2,0.1-0.3,0.3-0.3h1.1c0.2,0,0.3,0.2,0.3,0.3v10.2h4.7
		c0.2,0,0.3,0.2,0.3,0.3v1c0,0.2-0.1,0.3-0.3,0.3h-6.2c-0.2,0-0.3-0.2-0.3-0.3V344.4z"/>
	<path id="XMLID_231_" class="st4" d="M268.4,350.4l-4.1-5.8c-0.1-0.2,0-0.5,0.3-0.5h1.3c0.1,0,0.2,0.1,0.3,0.2l3.1,4.4l3.1-4.4
		c0.1-0.1,0.2-0.2,0.3-0.2h1.3c0.3,0,0.4,0.3,0.3,0.5l-4.1,5.8v5.5c0,0.2-0.2,0.3-0.3,0.3h-1.1c-0.2,0-0.3-0.2-0.3-0.3V350.4z"/>
	<path id="XMLID_233_" class="st4" d="M277.8,344.5c-0.1-0.2,0-0.5,0.3-0.5h1.2c0.1,0,0.3,0.1,0.3,0.2l3.8,8.6h0.1l3.8-8.6
		c0-0.1,0.1-0.2,0.3-0.2h1.2c0.3,0,0.4,0.2,0.3,0.5l-5.3,11.7c-0.1,0.1-0.2,0.2-0.3,0.2h-0.2c-0.1,0-0.2-0.1-0.3-0.2L277.8,344.5z"
		/>
	<path id="XMLID_235_" class="st4" d="M288.3,355.8l5.3-11.7c0.1-0.1,0.2-0.2,0.3-0.2h0.2c0.1,0,0.2,0.1,0.3,0.2l5.3,11.7
		c0.1,0.2,0,0.5-0.3,0.5h-1.1c-0.2,0-0.3-0.1-0.4-0.3l-1.1-2.4h-5.7c-0.3,0.8-0.7,1.6-1.1,2.4c-0.1,0.1-0.2,0.3-0.4,0.3h-1.1
		C288.4,356.2,288.2,356,288.3,355.8z M296.2,352.1l-2.1-4.7H294l-2.1,4.7H296.2z"/>
	<path id="XMLID_238_" class="st4" d="M306.6,343.9c1.7,0,3,0.6,4.2,1.6c0.2,0.1,0.2,0.3,0,0.5l-0.8,0.8c-0.1,0.2-0.3,0.2-0.4,0
		c-0.8-0.7-1.9-1.2-3-1.2c-2.5,0-4.3,2.1-4.3,4.5s1.9,4.5,4.4,4.5c1.3,0,2.1-0.5,3-1.1c0.2-0.1,0.3-0.1,0.4,0l0.8,0.8
		c0.1,0.1,0.1,0.3,0,0.5c-1.2,1.1-2.7,1.7-4.2,1.7c-3.5,0-6.3-2.8-6.3-6.2S303.1,343.9,306.6,343.9z"/>
	<path id="XMLID_240_" class="st4" d="M311.4,355.8l5.3-11.7c0.1-0.1,0.2-0.2,0.3-0.2h0.2c0.1,0,0.2,0.1,0.3,0.2l5.3,11.7
		c0.1,0.2,0,0.5-0.3,0.5h-1.1c-0.2,0-0.3-0.1-0.4-0.3l-1.1-2.4h-5.7c-0.3,0.8-0.7,1.6-1.1,2.4c-0.1,0.1-0.2,0.3-0.4,0.3h-1.1
		C311.5,356.2,311.3,356,311.4,355.8z M319.3,352.1l-2.1-4.7h-0.1l-2.1,4.7H319.3z"/>
	<path id="XMLID_243_" class="st4" d="M325.4,345.7h-2.8c-0.2,0-0.3-0.2-0.3-0.3v-1c0-0.2,0.1-0.3,0.3-0.3h7.4
		c0.2,0,0.3,0.2,0.3,0.3v1c0,0.2-0.1,0.3-0.3,0.3h-2.8v10.2c0,0.2-0.2,0.3-0.3,0.3h-1.1c-0.2,0-0.3-0.2-0.3-0.3V345.7z"/>
	<path id="XMLID_245_" class="st4" d="M332,344.4c0-0.2,0.2-0.3,0.3-0.3h1.1c0.2,0,0.3,0.2,0.3,0.3v11.5c0,0.2-0.2,0.3-0.3,0.3h-1.1
		c-0.2,0-0.3-0.2-0.3-0.3V344.4z"/>
	<path id="XMLID_247_" class="st4" d="M342.3,343.9c3.5,0,6.2,2.8,6.2,6.3s-2.8,6.2-6.2,6.2s-6.2-2.8-6.2-6.2
		S338.9,343.9,342.3,343.9z M342.3,354.7c2.5,0,4.5-2,4.5-4.5c0-2.5-2-4.5-4.5-4.5c-2.5,0-4.5,2.1-4.5,4.5
		C337.9,352.6,339.9,354.7,342.3,354.7z"/>
	<path id="XMLID_250_" class="st4" d="M350.9,344.2c0-0.2,0.2-0.3,0.3-0.3h0.4l7.5,8.7h0v-8.2c0-0.2,0.1-0.3,0.3-0.3h1.1
		c0.2,0,0.3,0.2,0.3,0.3v11.7c0,0.2-0.2,0.3-0.3,0.3h-0.5l-7.5-8.9h0v8.4c0,0.2-0.1,0.3-0.3,0.3h-1.1c-0.2,0-0.3-0.2-0.3-0.3V344.2z
		"/>
	<path id="XMLID_252_" class="st4" d="M364.3,354c0.7,0,1.2,0.5,1.2,1.2c0,0.7-0.5,1.2-1.2,1.2c-0.7,0-1.2-0.5-1.2-1.2
		C363.1,354.5,363.6,354,364.3,354z"/>
	<path id="XMLID_254_" class="st4" d="M371.4,344.4c0-0.2,0.1-0.3,0.3-0.3h6.9c0.2,0,0.3,0.2,0.3,0.3v1c0,0.2-0.1,0.3-0.3,0.3h-5.5
		v3.5h4.6c0.2,0,0.3,0.2,0.3,0.3v1c0,0.2-0.2,0.3-0.3,0.3h-4.6v3.7h5.5c0.2,0,0.3,0.2,0.3,0.3v1c0,0.2-0.1,0.3-0.3,0.3h-6.9
		c-0.2,0-0.3-0.2-0.3-0.3V344.4z"/>
	<path id="XMLID_256_" class="st4" d="M383.9,350l-3.4-5.4c-0.1-0.2,0-0.5,0.3-0.5h1.5c0.1,0,0.2,0.1,0.3,0.2l2.4,4.1h0l2.5-4.1
		c0-0.1,0.1-0.2,0.3-0.2h1.5c0.3,0,0.4,0.3,0.3,0.5l-3.4,5.4l3.6,5.7c0.1,0.2,0,0.5-0.3,0.5H388c-0.1,0-0.3-0.1-0.3-0.2l-2.7-4.4h0
		l-2.7,4.4c-0.1,0.1-0.2,0.2-0.3,0.2h-1.3c-0.3,0-0.5-0.3-0.3-0.5L383.9,350z"/>
	<path id="XMLID_258_" class="st4" d="M391.8,344.4c0-0.2,0.1-0.3,0.3-0.3h3.9c2.1,0,3.9,1.7,3.9,3.8c0,2.1-1.7,3.9-3.9,3.9h-2.5
		v4.1c0,0.2-0.2,0.3-0.3,0.3h-1.1c-0.2,0-0.3-0.2-0.3-0.3V344.4z M395.9,350.1c1.2,0,2.2-1,2.2-2.2c0-1.2-1-2.1-2.2-2.1h-2.4v4.3
		H395.9z"/>
	<path id="XMLID_261_" class="st4" d="M401.9,344.4c0-0.2,0.1-0.3,0.3-0.3h1.1c0.2,0,0.3,0.2,0.3,0.3v10.2h4.7
		c0.2,0,0.3,0.2,0.3,0.3v1c0,0.2-0.1,0.3-0.3,0.3h-6.2c-0.2,0-0.3-0.2-0.3-0.3V344.4z"/>
	<path id="XMLID_263_" class="st4" d="M415.6,343.9c3.5,0,6.2,2.8,6.2,6.3s-2.8,6.2-6.2,6.2s-6.2-2.8-6.2-6.2
		S412.1,343.9,415.6,343.9z M415.6,354.7c2.5,0,4.5-2,4.5-4.5c0-2.5-2-4.5-4.5-4.5c-2.5,0-4.5,2.1-4.5,4.5
		C411.1,352.6,413.1,354.7,415.6,354.7z"/>
	<path id="XMLID_266_" class="st4" d="M424.1,344.4c0-0.2,0.1-0.3,0.3-0.3h4.7c2.1,0,3.8,1.6,3.8,3.7c0,1.6-1.1,2.9-2.6,3.5l2.4,4.4
		c0.1,0.2,0,0.5-0.3,0.5h-1.4c-0.1,0-0.2-0.1-0.3-0.2l-2.3-4.6h-2.6v4.4c0,0.2-0.2,0.3-0.3,0.3h-1.1c-0.2,0-0.3-0.2-0.3-0.3V344.4z
		 M429,350c1.1,0,2.1-1,2.1-2.1c0-1.1-1-2.1-2.1-2.1h-3.1v4.2H429z"/>
	<path id="XMLID_269_" class="st4" d="M435.4,344.4c0-0.2,0.1-0.3,0.3-0.3h6.9c0.2,0,0.3,0.2,0.3,0.3v1c0,0.2-0.1,0.3-0.3,0.3h-5.5
		v3.5h4.6c0.2,0,0.3,0.2,0.3,0.3v1c0,0.2-0.2,0.3-0.3,0.3h-4.6v3.7h5.5c0.2,0,0.3,0.2,0.3,0.3v1c0,0.2-0.1,0.3-0.3,0.3h-6.9
		c-0.2,0-0.3-0.2-0.3-0.3V344.4z"/>
	<path id="XMLID_271_" class="st4" d="M449.1,344.2c0-0.2,0.2-0.3,0.3-0.3h0.4l7.5,8.7h0v-8.2c0-0.2,0.1-0.3,0.3-0.3h1.1
		c0.2,0,0.3,0.2,0.3,0.3v11.7c0,0.2-0.2,0.3-0.3,0.3h-0.5l-7.5-8.9h0v8.4c0,0.2-0.1,0.3-0.3,0.3h-1.1c-0.2,0-0.3-0.2-0.3-0.3V344.2z
		"/>
	<path id="XMLID_273_" class="st4" d="M467.7,343.9c3.5,0,6.2,2.8,6.2,6.3s-2.8,6.2-6.2,6.2c-3.5,0-6.2-2.8-6.2-6.2
		S464.2,343.9,467.7,343.9z M467.7,354.7c2.5,0,4.5-2,4.5-4.5c0-2.5-2-4.5-4.5-4.5c-2.5,0-4.5,2.1-4.5,4.5
		C463.2,352.6,465.2,354.7,467.7,354.7z"/>
	<path id="XMLID_276_" class="st4" d="M476.2,344.4c0-0.2,0.1-0.3,0.3-0.3h4.7c2.1,0,3.8,1.6,3.8,3.7c0,1.6-1.1,2.9-2.6,3.5l2.4,4.4
		c0.1,0.2,0,0.5-0.3,0.5h-1.4c-0.1,0-0.2-0.1-0.3-0.2l-2.3-4.6H478v4.4c0,0.2-0.2,0.3-0.3,0.3h-1.1c-0.2,0-0.3-0.2-0.3-0.3V344.4z
		 M481.1,350c1.1,0,2.1-1,2.1-2.1c0-1.1-1-2.1-2.1-2.1H478v4.2H481.1z"/>
	<path id="XMLID_279_" class="st4" d="M489.2,345.7h-2.8c-0.2,0-0.3-0.2-0.3-0.3v-1c0-0.2,0.1-0.3,0.3-0.3h7.4
		c0.2,0,0.3,0.2,0.3,0.3v1c0,0.2-0.1,0.3-0.3,0.3H491v10.2c0,0.2-0.2,0.3-0.3,0.3h-1.1c-0.2,0-0.3-0.2-0.3-0.3V345.7z"/>
	<path id="XMLID_281_" class="st4" d="M495.9,344.4c0-0.2,0.2-0.3,0.3-0.3h1.1c0.2,0,0.3,0.2,0.3,0.3v4.8h6.3v-4.8
		c0-0.2,0.1-0.3,0.3-0.3h1.1c0.2,0,0.3,0.2,0.3,0.3v11.5c0,0.2-0.2,0.3-0.3,0.3h-1.1c-0.2,0-0.3-0.2-0.3-0.3v-5h-6.3v5
		c0,0.2-0.1,0.3-0.3,0.3h-1.1c-0.2,0-0.3-0.2-0.3-0.3V344.4z"/>
	<path id="XMLID_283_" class="st4" d="M509,344.4c0-0.2,0.1-0.3,0.3-0.3h6.9c0.2,0,0.3,0.2,0.3,0.3v1c0,0.2-0.1,0.3-0.3,0.3h-5.5
		v3.5h4.6c0.2,0,0.3,0.2,0.3,0.3v1c0,0.2-0.2,0.3-0.3,0.3h-4.6v3.7h5.5c0.2,0,0.3,0.2,0.3,0.3v1c0,0.2-0.1,0.3-0.3,0.3h-6.9
		c-0.2,0-0.3-0.2-0.3-0.3V344.4z"/>
	<path id="XMLID_285_" class="st4" d="M519,344.4c0-0.2,0.1-0.3,0.3-0.3h4.7c2.1,0,3.8,1.6,3.8,3.7c0,1.6-1.1,2.9-2.6,3.5l2.4,4.4
		c0.1,0.2,0,0.5-0.3,0.5H526c-0.1,0-0.2-0.1-0.3-0.2l-2.3-4.6h-2.6v4.4c0,0.2-0.2,0.3-0.3,0.3h-1.1c-0.2,0-0.3-0.2-0.3-0.3V344.4z
		 M523.9,350c1.1,0,2.1-1,2.1-2.1c0-1.1-1-2.1-2.1-2.1h-3.1v4.2H523.9z"/>
	<path id="XMLID_288_" class="st4" d="M530.4,344.2c0-0.2,0.2-0.3,0.3-0.3h0.4l7.5,8.7h0v-8.2c0-0.2,0.1-0.3,0.3-0.3h1.1
		c0.2,0,0.3,0.2,0.3,0.3v11.7c0,0.2-0.2,0.3-0.3,0.3h-0.5l-7.5-8.9h0v8.4c0,0.2-0.1,0.3-0.3,0.3h-1.1c-0.2,0-0.3-0.2-0.3-0.3V344.2z
		"/>
	<path id="XMLID_290_" class="st4" d="M543.8,354c0.6,0,1.4,0.4,1.4,1.9c0,1.8-1.1,3-1.7,3.5c-0.2,0.1-0.3,0.1-0.4,0l-0.3-0.3
		c-0.1-0.1-0.1-0.3,0.1-0.4c0.2-0.2,1.2-1,1.2-2.4c0,0-0.2,0.1-0.4,0.1c-0.6,0-1.2-0.5-1.2-1.2S543.1,354,543.8,354z"/>
	<path id="XMLID_292_" class="st4" d="M556.5,343.9c1.7,0,3,0.6,4.2,1.6c0.2,0.1,0.2,0.3,0,0.5l-0.8,0.8c-0.1,0.2-0.3,0.2-0.4,0
		c-0.8-0.7-1.9-1.2-3-1.2c-2.5,0-4.3,2.1-4.3,4.5s1.9,4.5,4.4,4.5c1.3,0,2.1-0.5,3-1.1c0.2-0.1,0.3-0.1,0.4,0l0.8,0.8
		c0.1,0.1,0.1,0.3,0,0.5c-1.2,1.1-2.7,1.7-4.2,1.7c-3.5,0-6.3-2.8-6.3-6.2S553,343.9,556.5,343.9z"/>
	<path id="XMLID_294_" class="st4" d="M563,344.4c0-0.2,0.1-0.3,0.3-0.3h6.9c0.2,0,0.3,0.2,0.3,0.3v1c0,0.2-0.1,0.3-0.3,0.3h-5.5
		v3.5h4.6c0.2,0,0.3,0.2,0.3,0.3v1c0,0.2-0.2,0.3-0.3,0.3h-4.6v3.7h5.5c0.2,0,0.3,0.2,0.3,0.3v1c0,0.2-0.1,0.3-0.3,0.3h-6.9
		c-0.2,0-0.3-0.2-0.3-0.3V344.4z"/>
	<path id="XMLID_296_" class="st4" d="M573,344.2c0-0.2,0.2-0.3,0.3-0.3h0.4l7.5,8.7h0v-8.2c0-0.2,0.1-0.3,0.3-0.3h1.1
		c0.2,0,0.3,0.2,0.3,0.3v11.7c0,0.2-0.2,0.3-0.3,0.3h-0.5l-7.5-8.9h0v8.4c0,0.2-0.1,0.3-0.3,0.3h-1.1c-0.2,0-0.3-0.2-0.3-0.3V344.2z
		"/>
	<path id="XMLID_298_" class="st4" d="M588,345.7h-2.8c-0.2,0-0.3-0.2-0.3-0.3v-1c0-0.2,0.1-0.3,0.3-0.3h7.4c0.2,0,0.3,0.2,0.3,0.3
		v1c0,0.2-0.1,0.3-0.3,0.3h-2.8v10.2c0,0.2-0.2,0.3-0.3,0.3h-1.1c-0.2,0-0.3-0.2-0.3-0.3V345.7z"/>
	<path id="XMLID_300_" class="st4" d="M594.6,344.4c0-0.2,0.1-0.3,0.3-0.3h4.7c2.1,0,3.8,1.6,3.8,3.7c0,1.6-1.1,2.9-2.6,3.5l2.4,4.4
		c0.1,0.2,0,0.5-0.3,0.5h-1.4c-0.1,0-0.2-0.1-0.3-0.2l-2.3-4.6h-2.6v4.4c0,0.2-0.2,0.3-0.3,0.3h-1.1c-0.2,0-0.3-0.2-0.3-0.3V344.4z
		 M599.5,350c1.1,0,2.1-1,2.1-2.1c0-1.1-1-2.1-2.1-2.1h-3.1v4.2H599.5z"/>
	<path id="XMLID_303_" class="st4" d="M604.3,355.8l5.3-11.7c0.1-0.1,0.2-0.2,0.3-0.2h0.2c0.1,0,0.2,0.1,0.3,0.2l5.3,11.7
		c0.1,0.2,0,0.5-0.3,0.5h-1.1c-0.2,0-0.3-0.1-0.4-0.3l-1.1-2.4h-5.7c-0.3,0.8-0.7,1.6-1.1,2.4c-0.1,0.1-0.2,0.3-0.4,0.3h-1.1
		C604.3,356.2,604.2,356,604.3,355.8z M612.2,352.1l-2.1-4.7h-0.1l-2.1,4.7H612.2z"/>
	<path id="XMLID_306_" class="st4" d="M617.2,344.4c0-0.2,0.1-0.3,0.3-0.3h1.1c0.2,0,0.3,0.2,0.3,0.3v10.2h4.7
		c0.2,0,0.3,0.2,0.3,0.3v1c0,0.2-0.1,0.3-0.3,0.3h-6.2c-0.2,0-0.3-0.2-0.3-0.3V344.4z"/>
	<path id="XMLID_308_" class="st4" d="M626.1,354c0.6,0,1.4,0.4,1.4,1.9c0,1.8-1.1,3-1.7,3.5c-0.2,0.1-0.3,0.1-0.4,0l-0.3-0.3
		c-0.1-0.1-0.1-0.3,0.1-0.4c0.2-0.2,1.2-1,1.2-2.4c0,0-0.2,0.1-0.4,0.1c-0.6,0-1.2-0.5-1.2-1.2S625.4,354,626.1,354z"/>
	<path id="XMLID_310_" class="st4" d="M631.8,355.8l5.3-11.7c0.1-0.1,0.2-0.2,0.3-0.2h0.2c0.1,0,0.2,0.1,0.3,0.2l5.3,11.7
		c0.1,0.2,0,0.5-0.3,0.5h-1.1c-0.2,0-0.3-0.1-0.4-0.3l-1.1-2.4h-5.7c-0.3,0.8-0.7,1.6-1.1,2.4c-0.1,0.1-0.2,0.3-0.4,0.3h-1.1
		C631.8,356.2,631.7,356,631.8,355.8z M639.6,352.1l-2.1-4.7h-0.1l-2.1,4.7H639.6z"/>
	<path id="XMLID_313_" class="st4" d="M644.7,344.2c0-0.2,0.2-0.3,0.3-0.3h0.4l7.5,8.7h0v-8.2c0-0.2,0.1-0.3,0.3-0.3h1.1
		c0.2,0,0.3,0.2,0.3,0.3v11.7c0,0.2-0.2,0.3-0.3,0.3H654l-7.5-8.9h0v8.4c0,0.2-0.1,0.3-0.3,0.3H645c-0.2,0-0.3-0.2-0.3-0.3V344.2z"
		/>
	<path id="XMLID_315_" class="st4" d="M657.9,344.4c0-0.2,0.1-0.3,0.3-0.3h4c3.3,0,6.1,2.7,6.1,6c0,3.4-2.7,6.1-6.1,6.1h-4
		c-0.2,0-0.3-0.2-0.3-0.3V344.4z M662,354.6c2.5,0,4.4-1.9,4.4-4.4c0-2.5-1.9-4.4-4.4-4.4h-2.3v8.8H662z"/>
	<path id="XMLID_318_" class="st4" d="M266.5,381.3c0.2-0.2,0.3-0.5,0.5-0.7c0.2-0.2,0.4-0.3,0.6-0.1c0.1,0.1,1.4,1.2,2.8,1.2
		c1.2,0,2-0.7,2-1.6c0-1-0.9-1.7-2.6-2.4c-1.8-0.7-3.2-1.7-3.2-3.7c0-1.4,1-3.2,3.8-3.2c1.7,0,3,0.9,3.2,1c0.1,0.1,0.3,0.3,0.1,0.6
		c-0.1,0.2-0.3,0.5-0.4,0.7c-0.1,0.2-0.4,0.3-0.6,0.2c-0.1-0.1-1.3-0.9-2.3-0.9c-1.5,0-2,0.9-2,1.6c0,1,0.8,1.6,2.2,2.2
		c2,0.8,3.7,1.8,3.7,3.9c0,1.8-1.6,3.3-3.9,3.3c-2.1,0-3.4-1.1-3.7-1.4C266.5,381.8,266.3,381.6,266.5,381.3z"/>
	<path id="XMLID_320_" class="st4" d="M282,370.8c3.5,0,6.2,2.8,6.2,6.3s-2.8,6.2-6.2,6.2s-6.2-2.8-6.2-6.2S278.5,370.8,282,370.8z
		 M282,381.5c2.5,0,4.5-2,4.5-4.5c0-2.5-2-4.5-4.5-4.5c-2.5,0-4.5,2.1-4.5,4.5C277.5,379.5,279.5,381.5,282,381.5z"/>
	<path id="XMLID_323_" class="st4" d="M290.6,371.3c0-0.2,0.2-0.3,0.3-0.3h1.2c0.2,0,0.3,0.2,0.3,0.3v7.2c0,1.7,1.1,3.1,2.9,3.1
		c1.8,0,2.9-1.3,2.9-3v-7.2c0-0.2,0.1-0.3,0.3-0.3h1.2c0.2,0,0.3,0.2,0.3,0.3v7.3c0,2.6-2,4.7-4.7,4.7c-2.7,0-4.7-2.1-4.7-4.7V371.3
		z"/>
	<path id="XMLID_325_" class="st4" d="M305,372.6h-2.8c-0.2,0-0.3-0.2-0.3-0.3v-1c0-0.2,0.1-0.3,0.3-0.3h7.4c0.2,0,0.3,0.2,0.3,0.3
		v1c0,0.2-0.1,0.3-0.3,0.3h-2.8v10.2c0,0.2-0.2,0.3-0.3,0.3h-1.1c-0.2,0-0.3-0.2-0.3-0.3V372.6z"/>
	<path id="XMLID_327_" class="st4" d="M311.9,371.3c0-0.2,0.2-0.3,0.3-0.3h1.1c0.2,0,0.3,0.2,0.3,0.3v4.8h6.3v-4.8
		c0-0.2,0.1-0.3,0.3-0.3h1.1c0.2,0,0.3,0.2,0.3,0.3v11.5c0,0.2-0.2,0.3-0.3,0.3h-1.1c-0.2,0-0.3-0.2-0.3-0.3v-5h-6.3v5
		c0,0.2-0.1,0.3-0.3,0.3h-1.1c-0.2,0-0.3-0.2-0.3-0.3V371.3z"/>
	<path id="XMLID_329_" class="st4" d="M325.3,371.3c0-0.2,0.1-0.3,0.3-0.3h6.9c0.2,0,0.3,0.2,0.3,0.3v1c0,0.2-0.1,0.3-0.3,0.3h-5.5
		v3.5h4.6c0.2,0,0.3,0.2,0.3,0.3v1c0,0.2-0.2,0.3-0.3,0.3h-4.6v3.7h5.5c0.2,0,0.3,0.2,0.3,0.3v1c0,0.2-0.1,0.3-0.3,0.3h-6.9
		c-0.2,0-0.3-0.2-0.3-0.3V371.3z"/>
	<path id="XMLID_331_" class="st4" d="M335.6,371.3c0-0.2,0.1-0.3,0.3-0.3h4.7c2.1,0,3.8,1.6,3.8,3.7c0,1.6-1.1,2.9-2.6,3.5l2.4,4.4
		c0.1,0.2,0,0.5-0.3,0.5h-1.4c-0.1,0-0.2-0.1-0.3-0.2l-2.3-4.6h-2.6v4.4c0,0.2-0.2,0.3-0.3,0.3h-1.1c-0.2,0-0.3-0.2-0.3-0.3V371.3z
		 M340.5,376.9c1.1,0,2.1-1,2.1-2.1c0-1.1-1-2.1-2.1-2.1h-3.1v4.2H340.5z"/>
	<path id="XMLID_334_" class="st4" d="M347.2,371.1c0-0.2,0.2-0.3,0.3-0.3h0.4l7.5,8.7h0v-8.2c0-0.2,0.1-0.3,0.3-0.3h1.1
		c0.2,0,0.3,0.2,0.3,0.3V383c0,0.2-0.2,0.3-0.3,0.3h-0.5l-7.5-8.9h0v8.4c0,0.2-0.1,0.3-0.3,0.3h-1.1c-0.2,0-0.3-0.2-0.3-0.3V371.1z"
		/>
	<path id="XMLID_336_" class="st4" d="M370,370.8c1.7,0,3,0.6,4.2,1.6c0.2,0.1,0.2,0.3,0,0.5l-0.8,0.8c-0.1,0.2-0.3,0.2-0.4,0
		c-0.8-0.7-1.9-1.2-3-1.2c-2.5,0-4.3,2.1-4.3,4.5s1.9,4.5,4.4,4.5c1.3,0,2.1-0.5,3-1.1c0.2-0.1,0.3-0.1,0.4,0l0.8,0.8
		c0.1,0.1,0.1,0.3,0,0.5c-1.2,1.1-2.7,1.7-4.2,1.7c-3.5,0-6.3-2.8-6.3-6.2S366.5,370.8,370,370.8z"/>
	<path id="XMLID_338_" class="st4" d="M375.1,382.6l5.3-11.7c0.1-0.1,0.2-0.2,0.3-0.2h0.2c0.1,0,0.2,0.1,0.3,0.2l5.3,11.7
		c0.1,0.2,0,0.5-0.3,0.5h-1.1c-0.2,0-0.3-0.1-0.4-0.3l-1.1-2.4h-5.7c-0.3,0.8-0.7,1.6-1.1,2.4c-0.1,0.1-0.2,0.3-0.4,0.3h-1.1
		C375.1,383.1,375,382.9,375.1,382.6z M382.9,379l-2.1-4.7h-0.1l-2.1,4.7H382.9z"/>
	<path id="XMLID_341_" class="st4" d="M388.3,371.3c0-0.2,0.1-0.3,0.3-0.3h1.1c0.2,0,0.3,0.2,0.3,0.3v10.2h4.7
		c0.2,0,0.3,0.2,0.3,0.3v1c0,0.2-0.1,0.3-0.3,0.3h-6.2c-0.2,0-0.3-0.2-0.3-0.3V371.3z"/>
	<path id="XMLID_343_" class="st4" d="M397,371.3c0-0.2,0.2-0.3,0.3-0.3h1.1c0.2,0,0.3,0.2,0.3,0.3v11.5c0,0.2-0.2,0.3-0.3,0.3h-1.1
		c-0.2,0-0.3-0.2-0.3-0.3V371.3z"/>
	<path id="XMLID_345_" class="st4" d="M402.3,371.3c0-0.2,0.1-0.3,0.3-0.3h6.9c0.2,0,0.3,0.2,0.3,0.3v1c0,0.2-0.1,0.3-0.3,0.3H404v4
		h4.6c0.2,0,0.3,0.2,0.3,0.3v1c0,0.2-0.2,0.3-0.3,0.3H404v4.6c0,0.2-0.2,0.3-0.3,0.3h-1.1c-0.2,0-0.3-0.2-0.3-0.3V371.3z"/>
	<path id="XMLID_347_" class="st4" d="M417.5,370.8c3.5,0,6.2,2.8,6.2,6.3s-2.8,6.2-6.2,6.2s-6.2-2.8-6.2-6.2S414,370.8,417.5,370.8
		z M417.5,381.5c2.5,0,4.5-2,4.5-4.5c0-2.5-2-4.5-4.5-4.5c-2.5,0-4.5,2.1-4.5,4.5C413,379.5,415,381.5,417.5,381.5z"/>
	<path id="XMLID_350_" class="st4" d="M426.3,371.3c0-0.2,0.1-0.3,0.3-0.3h4.7c2.1,0,3.8,1.6,3.8,3.7c0,1.6-1.1,2.9-2.6,3.5l2.4,4.4
		c0.1,0.2,0,0.5-0.3,0.5h-1.4c-0.1,0-0.2-0.1-0.3-0.2l-2.3-4.6h-2.6v4.4c0,0.2-0.2,0.3-0.3,0.3h-1.1c-0.2,0-0.3-0.2-0.3-0.3V371.3z
		 M431.2,376.9c1.1,0,2.1-1,2.1-2.1c0-1.1-1-2.1-2.1-2.1h-3.1v4.2H431.2z"/>
	<path id="XMLID_353_" class="st4" d="M437.9,371.1c0-0.2,0.2-0.3,0.3-0.3h0.4l7.5,8.7h0v-8.2c0-0.2,0.1-0.3,0.3-0.3h1.1
		c0.2,0,0.3,0.2,0.3,0.3V383c0,0.2-0.2,0.3-0.3,0.3h-0.5l-7.5-8.9h0v8.4c0,0.2-0.1,0.3-0.3,0.3h-1.1c-0.2,0-0.3-0.2-0.3-0.3V371.1z"
		/>
	<path id="XMLID_355_" class="st4" d="M451.4,371.3c0-0.2,0.2-0.3,0.3-0.3h1.1c0.2,0,0.3,0.2,0.3,0.3v11.5c0,0.2-0.2,0.3-0.3,0.3
		h-1.1c-0.2,0-0.3-0.2-0.3-0.3V371.3z"/>
	<path id="XMLID_357_" class="st4" d="M455,382.6l5.3-11.7c0.1-0.1,0.2-0.2,0.3-0.2h0.2c0.1,0,0.2,0.1,0.3,0.2l5.3,11.7
		c0.1,0.2,0,0.5-0.3,0.5H465c-0.2,0-0.3-0.1-0.4-0.3l-1.1-2.4h-5.7c-0.3,0.8-0.7,1.6-1.1,2.4c-0.1,0.1-0.2,0.3-0.4,0.3h-1.1
		C455,383.1,454.9,382.9,455,382.6z M462.8,379l-2.1-4.7h-0.1l-2.1,4.7H462.8z"/>
	<path id="XMLID_360_" class="st4" d="M466.9,375.4c-0.1-0.1-0.1-0.3,0.1-0.4c0.2-0.1,1.1-0.9,1.1-2.1c0,0-0.2,0.1-0.4,0.1
		c-0.6,0-1.1-0.5-1.1-1.1c0-0.6,0.5-1.1,1.1-1.1c0.6,0,1.3,0.4,1.3,1.7c0,1.6-1,2.7-1.5,3.2c-0.2,0.1-0.3,0.1-0.4,0L466.9,375.4z"/>
	<path id="XMLID_362_" class="st4" d="M470.6,381.3c0.2-0.2,0.3-0.5,0.5-0.7c0.2-0.2,0.4-0.3,0.6-0.1c0.1,0.1,1.4,1.2,2.8,1.2
		c1.2,0,2-0.7,2-1.6c0-1-0.9-1.7-2.6-2.4c-1.8-0.7-3.2-1.7-3.2-3.7c0-1.4,1-3.2,3.8-3.2c1.7,0,3,0.9,3.2,1c0.1,0.1,0.3,0.3,0.1,0.6
		c-0.1,0.2-0.3,0.5-0.4,0.7c-0.1,0.2-0.4,0.3-0.6,0.2c-0.1-0.1-1.3-0.9-2.3-0.9c-1.5,0-2,0.9-2,1.6c0,1,0.8,1.6,2.2,2.2
		c2,0.8,3.7,1.8,3.7,3.9c0,1.8-1.6,3.3-3.9,3.3c-2.1,0-3.4-1.1-3.7-1.4C470.5,381.8,470.4,381.6,470.6,381.3z"/>
	<path id="XMLID_364_" class="st4" d="M484.6,371.3c0-0.2,0.1-0.3,0.3-0.3h3.9c2.1,0,3.9,1.7,3.9,3.8c0,2.1-1.7,3.9-3.9,3.9h-2.5
		v4.1c0,0.2-0.2,0.3-0.3,0.3h-1.1c-0.2,0-0.3-0.2-0.3-0.3V371.3z M488.8,377c1.2,0,2.2-1,2.2-2.2c0-1.2-1-2.1-2.2-2.1h-2.4v4.3
		H488.8z"/>
	<path id="XMLID_367_" class="st4" d="M495,371.3c0-0.2,0.1-0.3,0.3-0.3h1.1c0.2,0,0.3,0.2,0.3,0.3v10.2h4.7c0.2,0,0.3,0.2,0.3,0.3
		v1c0,0.2-0.1,0.3-0.3,0.3h-6.2c-0.2,0-0.3-0.2-0.3-0.3V371.3z"/>
	<path id="XMLID_369_" class="st4" d="M502.6,382.6l5.3-11.7c0.1-0.1,0.2-0.2,0.3-0.2h0.2c0.1,0,0.2,0.1,0.3,0.2l5.3,11.7
		c0.1,0.2,0,0.5-0.3,0.5h-1.1c-0.2,0-0.3-0.1-0.4-0.3l-1.1-2.4h-5.7c-0.3,0.8-0.7,1.6-1.1,2.4c-0.1,0.1-0.2,0.3-0.4,0.3h-1.1
		C502.7,383.1,502.5,382.9,502.6,382.6z M510.5,379l-2.1-4.7h-0.1l-2.1,4.7H510.5z"/>
	<path id="XMLID_372_" class="st4" d="M521.1,370.8c1.7,0,3,0.6,4.2,1.6c0.2,0.1,0.2,0.3,0,0.5l-0.8,0.8c-0.1,0.2-0.3,0.2-0.4,0
		c-0.8-0.7-1.9-1.2-3-1.2c-2.5,0-4.3,2.1-4.3,4.5s1.9,4.5,4.4,4.5c1.3,0,2.1-0.5,3-1.1c0.2-0.1,0.3-0.1,0.4,0l0.8,0.8
		c0.1,0.1,0.1,0.3,0,0.5c-1.2,1.1-2.7,1.7-4.2,1.7c-3.5,0-6.3-2.8-6.3-6.2S517.6,370.8,521.1,370.8z"/>
	<path id="XMLID_374_" class="st4" d="M527.9,371.3c0-0.2,0.1-0.3,0.3-0.3h6.9c0.2,0,0.3,0.2,0.3,0.3v1c0,0.2-0.1,0.3-0.3,0.3h-5.5
		v3.5h4.6c0.2,0,0.3,0.2,0.3,0.3v1c0,0.2-0.2,0.3-0.3,0.3h-4.6v3.7h5.5c0.2,0,0.3,0.2,0.3,0.3v1c0,0.2-0.1,0.3-0.3,0.3h-6.9
		c-0.2,0-0.3-0.2-0.3-0.3V371.3z"/>
	<path id="XMLID_376_" class="st4" d="M537.4,381.3c0.2-0.2,0.3-0.5,0.5-0.7c0.2-0.2,0.4-0.3,0.6-0.1c0.1,0.1,1.4,1.2,2.8,1.2
		c1.2,0,2-0.7,2-1.6c0-1-0.9-1.7-2.6-2.4c-1.8-0.7-3.2-1.7-3.2-3.7c0-1.4,1-3.2,3.8-3.2c1.7,0,3,0.9,3.2,1c0.1,0.1,0.3,0.3,0.1,0.6
		c-0.1,0.2-0.3,0.5-0.4,0.7c-0.1,0.2-0.4,0.3-0.6,0.2c-0.1-0.1-1.3-0.9-2.3-0.9c-1.5,0-2,0.9-2,1.6c0,1,0.8,1.6,2.2,2.2
		c2,0.8,3.7,1.8,3.7,3.9c0,1.8-1.6,3.3-3.9,3.3c-2.1,0-3.4-1.1-3.7-1.4C537.3,381.8,537.2,381.6,537.4,381.3z"/>
	<path id="XMLID_378_" class="st4" d="M553.1,372.6h-2.8c-0.2,0-0.3-0.2-0.3-0.3v-1c0-0.2,0.1-0.3,0.3-0.3h7.4
		c0.2,0,0.3,0.2,0.3,0.3v1c0,0.2-0.1,0.3-0.3,0.3h-2.8v10.2c0,0.2-0.2,0.3-0.3,0.3h-1.1c-0.2,0-0.3-0.2-0.3-0.3V372.6z"/>
	<path id="XMLID_380_" class="st4" d="M565.2,370.8c3.5,0,6.2,2.8,6.2,6.3s-2.8,6.2-6.2,6.2c-3.5,0-6.2-2.8-6.2-6.2
		S561.7,370.8,565.2,370.8z M565.2,381.5c2.5,0,4.5-2,4.5-4.5c0-2.5-2-4.5-4.5-4.5c-2.5,0-4.5,2.1-4.5,4.5
		C560.7,379.5,562.7,381.5,565.2,381.5z"/>
	<path id="XMLID_383_" class="st4" d="M577.9,371.3c0-0.2,0.1-0.3,0.3-0.3h3.9c2.1,0,3.9,1.7,3.9,3.8c0,2.1-1.7,3.9-3.9,3.9h-2.5
		v4.1c0,0.2-0.2,0.3-0.3,0.3h-1.1c-0.2,0-0.3-0.2-0.3-0.3V371.3z M582,377c1.2,0,2.2-1,2.2-2.2c0-1.2-1-2.1-2.2-2.1h-2.4v4.3H582z"
		/>
	<path id="XMLID_386_" class="st4" d="M588.2,371.3c0-0.2,0.1-0.3,0.3-0.3h1.1c0.2,0,0.3,0.2,0.3,0.3v10.2h4.7
		c0.2,0,0.3,0.2,0.3,0.3v1c0,0.2-0.1,0.3-0.3,0.3h-6.2c-0.2,0-0.3-0.2-0.3-0.3V371.3z"/>
	<path id="XMLID_388_" class="st4" d="M595.9,382.6l5.3-11.7c0.1-0.1,0.2-0.2,0.3-0.2h0.2c0.1,0,0.2,0.1,0.3,0.2l5.3,11.7
		c0.1,0.2,0,0.5-0.3,0.5h-1.1c-0.2,0-0.3-0.1-0.4-0.3l-1.1-2.4h-5.7c-0.3,0.8-0.7,1.6-1.1,2.4c-0.1,0.1-0.2,0.3-0.4,0.3h-1.1
		C595.9,383.1,595.8,382.9,595.9,382.6z M603.7,379l-2.1-4.7h-0.1l-2.1,4.7H603.7z"/>
	<path id="XMLID_391_" class="st4" d="M610.5,377.3l-4.1-5.8c-0.1-0.2,0-0.5,0.3-0.5h1.3c0.1,0,0.2,0.1,0.3,0.2l3.1,4.4l3.1-4.4
		c0.1-0.1,0.2-0.2,0.3-0.2h1.3c0.3,0,0.4,0.3,0.3,0.5l-4.1,5.8v5.5c0,0.2-0.2,0.3-0.3,0.3h-1.1c-0.2,0-0.3-0.2-0.3-0.3V377.3z"/>
	<path id="XMLID_393_" class="st4" d="M617.9,380.9c0.7,0,1.2,0.5,1.2,1.2c0,0.7-0.5,1.2-1.2,1.2c-0.7,0-1.2-0.5-1.2-1.2
		C616.7,381.4,617.2,380.9,617.9,380.9z"/>
</g>
<g id="XMLID_21_">
	<path id="XMLID_108_" class="st3" d="M143.7,261.7l5.7-8.5c0.9-1.4,2.6-1.2,3.4-0.6c1.4,1.1,6.5,4.6,12.2,4.6c3.9,0,6.9-3,6.8-6.4
		c-0.1-3.8-2.4-6.6-7-9.6c-6.6-4.4-15.7-11.1-15.7-22.1c0-11.4,7.9-22.3,25-22.3c10,0,17.2,5.4,20.1,7.7c1.1,0.8,1.5,2.6,0.6,3.6
		l-6.6,8.1c-0.8,1.1-2.6,1.2-3.4,0.5s-6.2-4.7-11.8-4.7c-3.6,0-6.8,2.2-6.8,5.4c0,3.7,2.3,5.7,8.7,9.5c5.3,3.2,15.6,9.9,15.6,22.3
		c0,12.1-8.4,23.6-26.4,23.6c-11.2,0-18.4-5.6-20.4-8.1C142.8,263.6,143,262.7,143.7,261.7z"/>
	<path id="XMLID_110_" class="st3" d="M215.8,213.4h-12.9c-1.1,0-1.7-1-1.6-2l1.7-11.5c0.1-1.1,1.1-2,2-2h42.6c1.1,0,1.7,0.9,1.6,2
		l-1.7,11.5c-0.1,1.1-1,2-2,2h-13l-7.9,56.4c-0.1,1.1-1.2,2-2.1,2h-13.1c-0.9,0-1.7-0.9-1.6-2L215.8,213.4z"/>
	<path id="XMLID_112_" class="st3" d="M239.2,269l40-71c0.4-0.6,1-1.2,1.8-1.2h0.9c0.7,0,1.3,0.5,1.5,1.2l19.8,71
		c0.4,1.4-0.5,2.7-2,2.7h-11.9c-1.9,0-3-0.5-3.4-2.6l-1.8-8.3h-23.3l-4.1,8.4c-0.6,1.4-2,2.5-4.2,2.5h-12
		C239,271.7,238.4,270.4,239.2,269z M280.1,246.4l-3.3-17.6h-0.1l-8.4,17.6H280.1z"/>
	<path id="XMLID_115_" class="st3" d="M324.7,213.4h-12.9c-1.1,0-1.7-1-1.6-2l1.7-11.5c0.1-1.1,1.1-2,2-2h42.6c1.1,0,1.7,0.9,1.6,2
		l-1.7,11.5c-0.1,1.1-1,2-2,2h-13l-7.9,56.4c-0.1,1.1-1.2,2-2.1,2h-13.1c-0.9,0-1.7-0.9-1.6-2L324.7,213.4z"/>
	<path id="XMLID_117_" class="st3" d="M368.4,199.9c0.1-1.1,1.1-2,2-2h39.8c1.1,0,1.7,0.9,1.6,2l-1.7,11.5c-0.1,1.1-1,2-2,2h-25.1
		l-1.9,13.1h20.5c0.9,0,1.7,0.9,1.6,2l-1.7,11.5c-0.2,1.2-1.2,2-2.1,2h-20.4l-2,14.2H402c1.1,0,1.6,0.9,1.5,2l-1.6,11.5
		c-0.1,1.1-1.1,2-2.1,2H360c-1.1,0-1.7-0.9-1.5-2L368.4,199.9z"/>
</g>
<g id="XMLID_23_">
	<path id="XMLID_98_" class="st3" d="M507.6,199.9c0.1-1.1,1.1-2,2.1-2H533c10.6,0,18.3,9.7,18.3,20.9c0,14-11.1,26.2-24.8,26.2
		h-8.7l-3.5,24.8c-0.1,1.1-1.2,2-2.1,2h-12.9c-1.1,0-1.6-0.9-1.5-2L507.6,199.9z M527.6,229.5c3.7,0,7.3-4.2,7.3-9.6
		c0-3.7-2.1-6.5-5-6.5h-7.7l-2.2,16.1H527.6z"/>
	<path id="XMLID_101_" class="st3" d="M565.1,199.9c0.1-1.1,1.1-2,2.1-2h13.1c1,0,1.6,0.9,1.5,2l-7.9,56.4h21.5c1.1,0,1.6,0.9,1.5,2
		l-1.6,11.5c-0.1,1.1-1.1,2-2.1,2h-36.3c-1.1,0-1.7-0.9-1.6-2L565.1,199.9z"/>
	<path id="XMLID_103_" class="st3" d="M599.6,269l40-71c0.4-0.6,1-1.2,1.8-1.2h1c0.7,0,1.3,0.5,1.5,1.2l19.8,71
		c0.4,1.4-0.5,2.7-2,2.7h-11.9c-1.9,0-3-0.5-3.4-2.6l-1.8-8.3h-23.3l-4.1,8.4c-0.6,1.4-2,2.5-4.2,2.5h-12
		C599.4,271.7,598.8,270.4,599.6,269z M640.5,246.4l-3.3-17.6h-0.1l-8.4,17.6H640.5z"/>
	<path id="XMLID_106_" class="st3" d="M683.9,236.2l-15.6-35.3c-0.5-1.4,0.4-3.1,1.9-3.1h13.3c0.8,0,1.3,0.4,1.5,0.9l8.8,21.6
		l14.9-21.6c0.3-0.4,0.7-0.9,1.7-0.9h14.9c1.6,0,2.1,1.7,1.2,3.1l-25.9,35.1l-4.6,33.7c-0.1,1.1-1.2,2-2.1,2h-13.1
		c-1.1,0-1.6-0.9-1.5-2L683.9,236.2z"/>
</g>
<g id="XMLID_22_">
	<path id="XMLID_30_" class="st3" d="M444.1,219.5c6.4,0,11.2,6,11.2,13.2c0,9.6-7.1,17.4-15.5,17.4c-6.4,0-11.2-5.9-11.2-13.2
		C428.5,227.5,435.5,219.5,444.1,219.5z M440.1,247.2c6.2,0,11.8-6.4,11.8-14.2c0-5.8-3.4-10.4-8.3-10.4c-6.3,0-11.9,6.4-11.9,14.1
		C431.7,242.5,435.1,247.2,440.1,247.2z"/>
	<path id="XMLID_92_" class="st3" d="M467.3,223.1h-3.9c-0.7,0-0.9-0.5-0.8-0.9l0.1-0.9c0.1-0.5,0.6-0.9,1-0.9h3.9l1.5-10.4
		c1.2-8.3,5.6-12.3,11.7-12.3c3.3,0,5.9,1.8,6.9,3.1c0.3,0.4,0.2,0.9-0.1,1.2l-0.9,0.9c-0.4,0.4-0.8,0.4-1.2,0
		c-0.8-0.8-2.8-2.3-4.7-2.3c-4.4,0-7.6,3-8.5,9.7l-1.4,10h9.3c0.6,0,0.9,0.4,0.8,0.9l-0.1,1.1c-0.1,0.5-0.4,0.9-1,0.9h-9.3
		l-6.7,47.3c-0.1,0.5-0.6,0.9-1.1,0.9h-1.3c-0.5,0-0.9-0.4-0.8-0.9L467.3,223.1z"/>
</g>
<g id="XMLID_1_">
	<g id="XMLID_44_">
		<path id="XMLID_52_" class="st3" d="M510.2,563.3L510.2,563.3c0.8,0,1.5-0.3,2-0.8c0.5-0.5,0.8-1.2,0.8-2c0-0.8-0.3-1.5-0.8-2
			c-0.5-0.5-1.2-0.8-2-0.8c-0.8,0-1.5,0.3-2,0.8c-0.5,0.5-0.8,1.2-0.8,2c0,0.8,0.3,1.5,0.8,2C508.7,563,509.4,563.3,510.2,563.3z"/>
		<path id="XMLID_51_" class="st3" d="M413.8,563.3L413.8,563.3c0.8,0,1.5-0.3,2-0.8c0.5-0.5,0.8-1.2,0.8-2c0-0.8-0.3-1.5-0.8-2
			c-0.5-0.5-1.2-0.8-2-0.8c-0.8,0-1.5,0.3-2,0.8c-0.5,0.5-0.8,1.2-0.8,2c0,0.8,0.3,1.5,0.8,2C412.3,563,413.1,563.3,413.8,563.3z"/>
		<path id="XMLID_45_" class="st3" d="M543.3,586.4L543.3,586.4c-0.3-0.4-0.7-0.6-1.2-0.8c-0.3-0.1-0.6-0.1-0.7-0.1
			c-0.1,0-1.3-0.2-3.6-0.5l0-1.8v-7.4c0-1.3,0-3.8-0.3-4.9c-0.3-1.3-1.1-2.4-2.2-3.2c-2-1.5-4.4-2.2-7.4-2.2c-2,0-4.3,0.3-6.2,0.9
			c-1,0.3-1.9,0.6-2.5,1c-0.4,0.2-0.7,0.5-1,0.8c-0.4,0.4-0.6,1-0.6,1.5c0,0.6,0.2,1.2,0.5,1.6c0.4,0.6,1.1,0.9,1.9,0.9
			c0.7,0,1.4-0.2,2.2-0.5l0.2-0.1c1.3-0.4,3-1,5.6-1c1.1,0,2,0.1,2.8,0.4c0.6,0.2,1,0.5,1.3,0.7c0.4,0.3,0.5,0.6,0.6,0.9
			c0.1,0.3,0.1,1.4,0.1,2.4c-1.6-0.8-3.8-1.7-6.8-1.7c-3,0-5.7,0.9-7.7,2.4c-2.1,1.6-3.2,4-3.2,6.5c0,0.1,0,0.2,0,0.2
			c-0.5,0-1-0.1-1.6-0.1c-0.1,0-0.3,0-0.4,0c-0.1,0-0.3,0-0.5,0v-13.8c0-0.3,0-0.9-0.2-1.5c-0.2-0.5-0.4-0.9-0.8-1.1
			c-0.4-0.4-1-0.6-1.6-0.6c-0.6,0-1.1,0.2-1.5,0.5c-0.5,0.4-0.8,0.9-0.9,1.6c-0.1,0.4-0.1,0.8-0.1,1.1V582l-2-0.1
			c-0.3,0-0.6,0-0.9,0c-0.2,0-0.5,0-0.7,0l0-5c0-1.7,0-2.9-0.3-4c-0.3-1.3-0.8-2.3-1.7-3.4l-0.1-0.1c-0.5-0.6-1.4-1.5-2.8-2.1
			c-1.3-0.6-2.9-1-4.8-1c-3.5,0-6.5,1.1-8.4,2.1c-0.1-0.2-0.3-0.4-0.4-0.6c-0.3-0.4-0.6-0.7-0.9-0.9c-0.4-0.3-0.9-0.4-1.4-0.4
			c-0.6,0-1.2,0.2-1.6,0.6c-0.5,0.5-0.8,1.2-0.8,1.9c0,0.4,0.1,0.7,0.2,1c0.1,0.2,0.1,0.3,0.2,0.5l0.4,1c0.3,0.8,0.3,2.1,0.3,3.9
			v5.9l-0.6,0c-0.4,0-0.9,0-1.3,0l-0.4,0c-0.3,0-0.6,0-0.9,0c-3.9,0-7.8,0.2-11.8,0.3v-7.2c0.7-0.9,1.4-1.6,2.1-2c1-0.7,1.9-1,3-1
			c0.2,0,0.6,0,1.2,0.1c0.4,0.1,1,0.3,1.5,0.7l0.3,0.3l0.5,0.1c0,0,0.1,0,0.2,0c0.3,0,0.7-0.1,1-0.2c0.4-0.1,1-0.5,1.3-1.1
			c0.2-0.4,0.3-0.9,0.3-1.3c0-0.4-0.1-0.8-0.3-1.2c-0.1-0.3-0.2-0.5-0.3-0.5l-0.1-0.2l-0.2-0.2c-2.2-1.6-4.6-1.8-5.5-1.8
			c-2.2,0-4.4,0.8-6.5,2.5c-0.1-0.2-0.2-0.4-0.3-0.5c-0.3-0.5-0.7-0.8-1-1.1c-0.5-0.4-1.1-0.6-1.7-0.6c-0.8,0-1.5,0.3-2,0.8
			c-0.4,0.5-0.7,1.1-0.7,1.7c0,0.5,0.1,1,0.3,1.4c0.2,0.3,0.4,0.6,0.5,0.8c0.2,0.3,0.5,0.7,0.7,1.2c0.2,0.7,0.4,1.5,0.4,2.6v7
			c-0.4,0-0.8,0-1.2,0.1l-0.4,0c-0.3,0-0.6,0-0.9,0c-0.4,0-0.8,0-1.1,0.1c0.4-1.2,0.5-2.4,0.5-3.6c0-3.5-1.4-6.7-4-9
			c-2.5-2.2-5.9-3.5-9.7-3.5c-3.8,0-7.2,1.2-9.7,3.5c-2.6,2.3-4,5.5-4,9c0,2,0.5,3.8,1.3,5.6c-0.1,0-0.2,0-0.4,0l-0.8,0.1
			c-0.1,0-0.1,0-0.2,0c-2,0.2-3.8,0.3-5.4,0.4c-0.2,0-0.4,0-0.7,0v-8.9h2.1c0.7,0,1.3-0.2,1.8-0.7c0.5-0.5,0.8-1.1,0.8-1.8
			c0-0.3-0.1-0.7-0.2-1c-0.2-0.5-0.6-1-1.1-1.2c-0.4-0.2-0.8-0.3-1.4-0.3h-2.1v-1.6c0-1.4,0.1-2.3,0.2-2.9c0.1-0.6,0.3-0.9,0.6-1.2
			c0.4-0.3,1.4-0.9,3.1-0.9c0.6,0,0.8,0.1,1,0.1l1.1,0.2l0.2,0c0.4,0,0.7-0.1,1.1-0.3c0.3-0.2,0.6-0.5,0.9-0.9
			c0.2-0.4,0.4-0.8,0.4-1.2c0-0.6-0.2-1.1-0.5-1.5c-0.4-0.5-1-0.9-1.9-1.1c-0.6-0.2-1.4-0.3-2.4-0.3c-1.6,0-3.1,0.3-4.4,1
			c-1,0.5-1.9,1.2-2.5,1.8l-0.3,0.4l0,0.1v0c-0.6,0.8-0.9,1.6-1.2,2.5c-0.3,1.2-0.3,2.5-0.3,4.2v15.8c-1.2,0.1-2.5,0.1-3.6,0.2
			c-0.1,0-0.1,0-0.2,0v-16.5c0-0.3,0-0.9-0.2-1.5c-0.2-0.5-0.4-0.9-0.8-1.1c-0.4-0.4-1-0.6-1.6-0.6c-0.6,0-1.1,0.2-1.5,0.5
			c-0.5,0.4-0.8,0.9-0.9,1.6c-0.1,0.4-0.1,0.8-0.1,1.1v16.6c-1.4,0-2.6,0.1-3.8,0.1v-15v-0.2l0-13.9c0-0.3,0-1-0.2-1.6
			c-0.1-0.5-0.4-0.9-0.6-1.2c-0.4-0.5-1-0.7-1.7-0.7c-0.6,0-1.2,0.2-1.6,0.7c-0.5,0.5-0.7,1.2-0.8,1.7c-0.1,0.5-0.1,0.9-0.1,1.2
			v13.5V585v0.4c-1,0-2,0-3.1,0c-0.1,0-0.1,0-0.2,0l0-2.2v-7.4c0-1.3,0-3.8-0.3-4.9c-0.3-1.3-1.1-2.4-2.2-3.2
			c-2-1.5-4.4-2.2-7.4-2.2c-2,0-4.3,0.3-6.2,0.9c-1,0.3-1.9,0.6-2.5,1c-0.4,0.2-0.7,0.5-1,0.8c-0.4,0.4-0.6,1-0.6,1.5
			c0,0.6,0.2,1.2,0.5,1.6c0.4,0.6,1.1,0.9,1.9,0.9c0.7,0,1.4-0.2,2.2-0.5l0.2-0.1c1.3-0.4,3-1,5.6-1c1.1,0,2,0.1,2.8,0.4
			c0.6,0.2,1,0.5,1.3,0.7c0.4,0.3,0.5,0.6,0.6,0.9c0.1,0.3,0.1,1.4,0.1,2.4c-1.6-0.8-3.8-1.7-6.8-1.7c-3,0-5.7,0.9-7.7,2.4
			c-2.1,1.6-3.2,4-3.2,6.5c0,0.8,0.1,1.6,0.4,2.4l0,0.1c-0.9,0-1.7-0.1-2.6-0.1c-0.2,0-0.5,0-0.7,0l-0.2,0c-0.1,0-0.3,0-0.4,0
			c1-1,1.6-2.1,1.6-2.8c0-1.6-1.2-2.5-2.4-2.5c-1,0-1.6,0.6-2.3,1.4c-1.1,1.1-2.7,2.8-5.7,3.3c-1.7-0.1-3.4-0.3-5-0.5
			c-3.7-1.4-6.2-5.1-6.2-9.5c0-5.6,4.4-10.2,9.9-10.2c3.3,0,5.2,1.6,6.4,2.7c0.8,0.7,1.4,1.2,2.4,1.2c1.2,0,2.4-0.7,2.4-2.5
			c0-2.1-5.2-6.5-11.2-6.5c-7.2,0-14.9,5.8-14.9,15.3c0,3.2,0.9,6.1,2.5,8.5c-1.5-0.2-2.7-0.3-3.6-0.5c-0.8-0.1-1.5-0.2-2-0.3
			l-0.6-0.1c-0.1,0-0.4-0.1-0.8-0.1c-0.5,0-0.8,0.1-1.2,0.3c-0.2,0.1-0.4,0.3-0.5,0.5c-0.2,0.3-0.2,0.6-0.3,0.9c0,0,0,0.1,0,0.1
			c0,0.4,0.2,0.9,0.4,1.2c0.4,0.4,0.9,0.6,1.2,0.7c0.2,0.1,0.3,0.1,0.4,0.1c0.1,0,0.1,0,0.1,0l0.1,0c0.6,0.1,2,0.3,4.1,0.6
			c8.8,1.2,27.1,3.2,51.3,3.2c1.1,0,2.3,0,3.4,0v12.8c0,0.3,0,1,0.2,1.6c0.1,0.5,0.4,0.9,0.6,1.2c0.4,0.5,1,0.7,1.7,0.7
			c0.6,0,1.2-0.2,1.6-0.7c0.5-0.5,0.7-1.2,0.8-1.7c0.1-0.4,0.1-0.9,0.1-1.2v-12.9c4.6-0.1,9.2-0.3,13.9-0.5c0.3,0,0.6,0,0.9,0l1-0.1
			c0.5,0,1-0.1,1.5-0.1l0.4,0c0.3,0,0.6,0,0.8-0.1c5.4-0.4,10.6-0.8,15.5-1.2l0.2,0c12.3-1,24.9-2.1,41.5-2.1
			c32.1,0,56.5,3.9,57.9,4.1c0.1,0,0.1,0,0.2,0c0.2,0,0.3,0,0.5,0h0c0.4,0,0.8-0.1,1.1-0.3c0.5-0.3,0.8-0.8,0.9-1.3
			c0-0.1,0-0.2,0-0.3C543.7,587.1,543.5,586.7,543.3,586.4z M383,579.8c1.1-0.8,2.6-1.3,4.2-1.3c2.8,0,4.6,1,6.7,2.2l0.2,0.1v4.5
			c-3.7,0-7.4-0.1-11.1-0.3c-0.1,0-0.1,0-0.2,0L382,584c-0.3-0.5-0.5-1-0.5-1.5C381.5,581.2,382.3,580.3,383,579.8z M450.8,582.6
			c-3.2,0.2-6.4,0.5-9.4,0.8l-0.2,0c-0.8,0.1-1.6,0.1-2.5,0.2l-0.8-0.9c-1-1.2-1.5-2.6-1.5-4.2c0-2,0.8-3.7,2.3-5
			c1.6-1.3,3.8-2.1,6.2-2.1c2.5,0,4.7,0.7,6.2,2.1c1.5,1.3,2.3,3,2.3,5c0,1.1-0.2,2.1-0.7,3l-0.5,1l-0.8,0.1
			C451.3,582.6,451,582.6,450.8,582.6z M496.5,581.5c-0.3,0-0.6,0-0.9,0c-2.9-0.1-5.9-0.1-8.8-0.2V574c1.2-0.8,2.1-1.3,3.1-1.7
			c1.3-0.5,2.6-0.7,4.3-0.7c0.9,0,1.7,0.1,2.3,0.3c0.6,0.2,1,0.5,1.5,1c0.3,0.4,0.5,0.8,0.7,1.5c0.1,0.7,0.1,1.6,0.1,2.5v4.8
			c-0.6,0-1.2,0-1.8-0.1L496.5,581.5z M530.7,584c-0.3,0-0.6-0.1-0.9-0.1c-3.1-0.3-6.3-0.7-9.6-1c0-0.2-0.1-0.4-0.1-0.6
			c0-1.3,0.8-2.1,1.5-2.7c1.1-0.8,2.6-1.3,4.2-1.3c2.8,0,4.6,1,6.7,2.2l0.2,0.1v3.5c-0.5-0.1-1-0.1-1.5-0.2L530.7,584z"/>
	</g>
	<g id="XMLID_3_">
		<path id="XMLID_41_" class="st3" d="M434,594c-1.1,0-1.9,0.9-1.9,1.9v4.9c-0.9-1.1-2.2-2-4.2-2c-3.2,0-6.2,2.5-6.2,7v0.1
			c0,4.5,3,7,6.2,7c2,0,3.3-0.9,4.2-2.2v0.2c0,1.1,0.9,1.9,1.9,1.9c1.1,0,1.9-0.9,1.9-1.9v-14.9C435.9,594.8,435.1,594,434,594z
			 M432.2,605.8c0,2.3-1.5,3.7-3.3,3.7c-1.8,0-3.3-1.5-3.3-3.7v-0.1c0-2.3,1.5-3.7,3.3-3.7C430.7,602,432.2,603.5,432.2,605.8
			L432.2,605.8z"/>
		<path id="XMLID_40_" class="st3" d="M445.8,598.9c-1.1,0-2,1.2-2.6,2.5v-0.6c0-1.1-0.9-1.9-1.9-1.9c-1.1,0-1.9,0.9-1.9,1.9v10
			c0,1.1,0.9,1.9,1.9,1.9c1.1,0,1.9-0.9,1.9-1.9v-3.6c0-2.7,1.1-4.2,3-4.7c0.8-0.2,1.4-0.8,1.4-1.8
			C447.7,599.6,447,598.9,445.8,598.9z"/>
		<path id="XMLID_37_" class="st3" d="M455.6,598.8c-3.9,0-6.7,3.2-6.7,7.1v0.1c0,4.1,3,7,7.1,7c2,0,3.5-0.6,4.7-1.6
			c0.3-0.3,0.5-0.6,0.5-1.1c0-0.9-0.6-1.5-1.5-1.5c-0.4,0-0.7,0.1-0.9,0.3c-0.8,0.6-1.7,0.9-2.7,0.9c-1.7,0-2.9-0.9-3.3-2.7h7.6
			c1,0,1.8-0.7,1.8-1.8C462.1,602.5,460.1,598.8,455.6,598.8z M452.7,604.7c0.3-1.7,1.3-2.9,2.9-2.9c1.6,0,2.6,1.2,2.9,2.9H452.7z"
			/>
		<path id="XMLID_34_" class="st3" d="M470.7,598.9c-1.8,0-3.1,0.3-4.3,0.7c-0.6,0.2-1,0.8-1,1.5c0,0.9,0.7,1.6,1.6,1.6
			c0.2,0,0.3,0,0.6-0.1c0.7-0.2,1.6-0.4,2.7-0.4c1.9,0,2.9,0.9,2.9,2.5v0.2c-1-0.3-1.9-0.6-3.3-0.6c-3.2,0-5.5,1.4-5.5,4.3v0.1
			c0,2.7,2.1,4.1,4.7,4.1c1.9,0,3.2-0.7,4.1-1.7v0c0,0.8,0.7,1.6,1.8,1.6c1,0,1.9-0.8,1.9-1.8v-6.2c0-1.8-0.5-3.3-1.5-4.3
			C474.3,599.4,472.8,598.9,470.7,598.9z M473.1,607.8c0,1.4-1.2,2.4-3,2.4c-1.2,0-2.1-0.6-2.1-1.6v0c0-1.2,1-1.9,2.7-1.9
			c0.9,0,1.8,0.2,2.5,0.5V607.8z"/>
		<path id="XMLID_16_" class="st3" d="M496.5,615.4c-2,0-3.3,0.9-4.2,2.2V605c0-1.8,0.9-2.8,2.3-2.8s2.3,0.9,2.3,2.8v5.8
			c0,1.1,0.9,1.9,1.9,1.9c1.1,0,1.9-0.9,1.9-1.9v-7.1c0-3.3-1.7-5-4.6-5c-1.8,0-3.3,0.8-4.5,2.1c-0.7-1.4-2-2.1-3.8-2.1
			c-1.9,0-3.1,1-4,2.2v-0.2c0-1.1-0.9-1.9-1.9-1.9c-1.1,0-1.9,0.9-1.9,1.9v10c0,1.1,0.9,1.9,1.9,1.9c1.1,0,1.9-0.9,1.9-1.9V605
			c0-1.8,0.9-2.8,2.3-2.8c1.4,0,2.3,0.9,2.3,2.8v22.4c0,1.1,0.9,1.9,1.9,1.9c1.1,0,1.9-0.9,1.9-1.9v0c0.9,1.1,2.2,2,4.2,2
			c3.2,0,6.2-2.5,6.2-7v-0.1C502.7,617.9,499.7,615.4,496.5,615.4z M498.9,622.4c0,2.3-1.5,3.7-3.3,3.7c-1.8,0-3.3-1.5-3.3-3.7v-0.1
			c0-2.3,1.5-3.7,3.3-3.7C497.4,618.6,498.9,620.1,498.9,622.4L498.9,622.4z"/>
		<path id="XMLID_15_" class="st3" d="M507.6,615.5c-1.1,0-1.9,0.9-1.9,1.9v10c0,1.1,0.9,1.9,1.9,1.9c1.1,0,1.9-0.9,1.9-1.9v-10
			C509.6,616.3,508.7,615.5,507.6,615.5z"/>
		<path id="XMLID_14_" class="st3" d="M507.6,610.6c-1.2,0-2.1,0.7-2.1,1.8v0.1c0,1.1,0.9,1.8,2.1,1.8c1.2,0,2.1-0.7,2.1-1.8v-0.1
			C509.8,611.3,508.9,610.6,507.6,610.6z"/>
		<path id="XMLID_10_" class="st3" d="M524.9,615.5c-1.1,0-1.9,0.9-1.9,1.9v0c-1-1.1-2.3-2-4.4-2c-3.1,0-6,2.3-6,6.3v0.1
			c0,4,2.9,6.3,6,6.3c2,0,3.3-0.8,4.4-2.2v0.7c0,2.4-1.2,3.7-3.9,3.7c-1.4,0-2.6-0.3-3.7-0.8c-0.2-0.1-0.4-0.1-0.6-0.1
			c-0.9,0-1.6,0.7-1.6,1.6c0,0.7,0.4,1.2,1.1,1.5c1.6,0.6,3.2,0.9,5,0.9c2.6,0,4.6-0.6,5.8-1.8c1.1-1.1,1.7-2.9,1.7-5.3v-8.7
			C526.8,616.3,526,615.5,524.9,615.5z M523,621.8c0,1.8-1.4,3.1-3.3,3.1c-1.9,0-3.3-1.3-3.3-3.1v-0.1c0-1.8,1.4-3.1,3.3-3.1
			C521.6,618.6,523,619.9,523,621.8L523,621.8z"/>
	</g>
</g>
</svg>
