<?xml version="1.0" encoding="utf-8"?>
<!-- Generator: Adobe Illustrator 19.0.0, SVG Export Plug-In . SVG Version: 6.00 Build 0)  -->
<svg version="1.1" id="Layer_1" xmlns="http://www.w3.org/2000/svg" xmlns:xlink="http://www.w3.org/1999/xlink" x="0px" y="0px"
	 viewBox="0 0 714.6 424.6" style="enable-background:new 0 0 714.6 424.6;" xml:space="preserve">
<style type="text/css">
	.st0{fill:#FFFFFF;}
	.st1{fill:none;stroke:#EE0077;stroke-width:0.75;stroke-miterlimit:10;}
	.st2{font-family:'BrandonGrotesque-Black';}
	.st3{font-size:64px;}
	.st4{font-size:66px;}
	.st5{letter-spacing:7;}
	.st6{fill:none;stroke:#05BBFF;stroke-width:2.5;stroke-miterlimit:10;}
	.st7{font-family:'BrandonGrotesque-LightItalic';}
	.st8{font-size:28.7225px;}
	.st9{fill:none;}
	.st10{font-family:'BrandonGrotesque-Light';}
	.st11{font-size:17px;}
	.st12{fill:#EE0077;}
	.st13{font-size:24px;}
	.st14{letter-spacing:1;}
	.st15{font-family:'BrandonGrotesque-BlackItalic';}
	.st16{font-size:22px;}
</style>
<polygon id="XMLID_3_" class="st0" points="714.6,212.3 357,424.6 0,212.3 357.3,0 "/>
<polygon id="XMLID_5_" class="st1" points="695.2,212.3 356.8,413.2 19,212.3 357.1,11.4 "/>
<text id="XMLID_68_" transform="matrix(1 0 0 1 267.073 121.6203)" class="st2 st3">state</text>
<text id="XMLID_70_" transform="matrix(1 0 0 1 267.1209 202.5311)" class="st2 st4 st5">play</text>
<line id="XMLID_10_" class="st6" x1="273.8" y1="140.3" x2="333.8" y2="140.3"/>
<line id="XMLID_12_" class="st6" x1="380.8" y1="140.3" x2="440.8" y2="140.3"/>
<text id="XMLID_11_" transform="matrix(1 0 0 1 345.5594 147.7191)" class="st7 st8">of</text>
<rect id="XMLID_13_" x="164.5" y="225.7" class="st9" width="385.5" height="68.2"/>
<text id="XMLID_14_" transform="matrix(1 0 0 1 180.3961 237.5967)"><tspan x="0" y="0" class="st10 st11">Discover why a trip to California makes the ultimate </tspan><tspan x="-13.1" y="20" class="st10 st11">family vacation. Explore northern, central, and southern </tspan><tspan x="88.4" y="40" class="st10 st11">California’s places to play.</tspan></text>
<text id="XMLID_15_" transform="matrix(1 0 0 1 277.9373 356.616)" class="st12 st10 st13 st14">California</text>
<text id="XMLID_16_" transform="matrix(1 0 0 1 286.526 323.2844)" class="st12 st15 st16 st14">southern</text>
<rect id="XMLID_17_" x="279.7" y="299.7" class="st1" width="155.2" height="31.5"/>
<polygon id="XMLID_19_" points="418,312.8 427.8,312.8 422.9,308.1 "/>
<polygon id="XMLID_20_" points="418,317.5 427.8,317.5 422.9,322.3 "/>
<polygon id="XMLID_21_" points="342.9,386.9 371.6,386.9 357.2,395 "/>
</svg>
